<svg width="150" height="50" viewBox="0 0 150 50" fill="none" xmlns="http://www.w3.org/2000/svg">
<path d="M54 40C54 39.4477 54.4477 39 55 39H94C94.5523 39 95 39.4477 95 40V45C95 45.5523 94.5523 46 94 46H55C54.4477 46 54 45.5523 54 45V40Z" fill="url(#paint0_linear_94_114)" fill-opacity="0.63"/>
<path d="M57.673 39.3718C58.4158 39.3744 59.3355 39.3576 60.0705 39.3679C60.0808 39.3681 60.0911 39.3682 60.1014 39.3684C60.4018 39.3726 60.7079 39.3787 61.0782 39.3861C61.1254 39.3871 61.1737 39.3881 61.2231 39.389C61.6621 39.3978 62.2013 39.4083 62.9362 39.4199C65.4036 39.459 67.349 39.433 67.9542 39.4249C69.1678 39.4087 70.4625 39.4084 72.2291 39.4079C72.3906 39.4079 72.5562 39.4079 72.7259 39.4078C72.8635 39.4078 72.9773 39.4209 72.9805 39.4372C72.9835 39.4536 72.8747 39.4668 72.7371 39.4669C72.5709 39.4669 72.4089 39.467 72.251 39.467C72.2503 39.467 72.2496 39.467 72.2489 39.467C70.4712 39.4675 69.2047 39.4678 68.0196 39.4837C67.4013 39.492 65.408 39.5185 62.8797 39.4785C62.1371 39.4667 61.5918 39.4562 61.1501 39.4474C61.1018 39.4464 61.0546 39.4454 61.0088 39.4445C61.0078 39.4445 61.0067 39.4445 61.0056 39.4445C60.6329 39.437 60.3397 39.4311 60.0522 39.427C60.0461 39.427 60.04 39.4269 60.0339 39.4268C59.2906 39.4163 58.3884 39.4334 57.6679 39.4308C57.5304 39.4303 57.4199 39.4167 57.4213 39.4004C57.4228 39.3841 57.5355 39.3713 57.673 39.3718ZM88.3055 45.8221C87.5882 45.8437 86.634 45.8414 85.7914 45.8317C84.943 45.822 84.1752 45.8046 83.8138 45.7939C83.4605 45.7834 83.068 45.78 82.5997 45.7779C82.4923 45.7774 82.3809 45.777 82.2657 45.7766C81.8852 45.7752 81.4618 45.7736 80.997 45.769C79.2898 45.7518 78.1767 45.7511 77.3818 45.7526C77.2183 45.753 77.0662 45.7534 76.9238 45.7538C76.9236 45.7538 76.9233 45.7538 76.9231 45.7538C76.3857 45.7553 75.9847 45.7565 75.6159 45.7497C74.9595 45.7378 74.4235 45.7271 73.7767 45.7064C72.8845 45.6778 71.6139 45.6812 70.787 45.7009C70.7416 45.702 70.6952 45.7031 70.6482 45.7042C70.0488 45.7186 69.3107 45.7362 68.2039 45.7494C67.2844 45.7603 66.483 45.7594 65.7736 45.7564C65.5704 45.7555 65.3764 45.7544 65.1902 45.7534C64.7201 45.7508 64.2994 45.7485 63.9031 45.7499C61.4455 45.7581 60.0283 45.7475 59.1375 45.7314C58.4524 45.719 58.0697 45.7031 57.7936 45.6916C57.7102 45.6882 57.6365 45.685 57.5671 45.6826C56.9485 45.6608 56.3806 45.651 55.6973 45.6393C55.5457 45.6367 55.388 45.6339 55.2231 45.631C55.1461 45.6296 55.0717 45.6284 55 45.6275C54.7181 45.6191 54.5383 45.4524 54.4524 45.3058C54.4078 45.2295 54.3835 45.1544 54.3719 45.0814C54.3717 45.08 54.3715 45.0787 54.3713 45.0773C54.3697 45.0671 54.3685 45.0569 54.3674 45.0467C54.3666 45.039 54.3659 45.0313 54.3654 45.0236C54.365 45.0206 54.3648 45.0178 54.3646 45.0158C54.3644 45.0142 54.3643 45.0129 54.3642 45.0121C54.3642 45.0119 54.3641 45.0118 54.3641 45.0116C54.3637 45.0076 54.3634 45.0036 54.3632 45C54.3626 44.9854 54.3624 44.9742 54.3623 44.9713C54.3622 44.9642 54.3621 44.958 54.362 44.9548C54.3618 44.9378 54.3616 44.916 54.3615 44.9016C54.3613 44.8643 54.3611 44.7996 54.3608 44.6995C54.3599 44.6124 54.3585 44.5288 54.3566 44.4241C54.3565 44.4175 54.3564 44.4109 54.3563 44.4044C54.3545 44.3023 54.3524 44.1829 54.3504 44.033C54.3485 43.8966 54.3602 43.7712 54.3764 43.7529C54.3926 43.7347 54.4072 43.8305 54.4091 43.9668C54.411 44.108 54.4129 44.2199 54.4147 44.322C54.4149 44.3285 54.415 44.335 54.4151 44.3414C54.417 44.4479 54.4187 44.5488 54.4198 44.6574C54.4201 44.6938 54.4204 44.7313 54.4206 44.7664C54.4213 44.8295 54.4226 44.9012 54.4241 44.9871C54.4242 44.9914 54.4243 44.9957 54.4244 45C54.4246 45.0077 54.425 45.0156 54.4255 45.0235C54.4304 45.091 54.4477 45.1675 54.4871 45.245C54.5613 45.3933 54.7333 45.5606 55 45.5682C55.0923 45.5693 55.1884 45.5708 55.2886 45.5726C55.4459 45.5754 55.5984 45.578 55.7473 45.5806C56.4332 45.5924 57.0435 45.6029 57.7002 45.626C57.7903 45.6291 57.8767 45.6327 57.9691 45.6366C58.2429 45.648 58.5699 45.6616 59.2033 45.673C60.0518 45.6883 61.4354 45.699 63.879 45.6908C64.295 45.6894 64.7437 45.6919 65.2218 45.6945C65.4043 45.6955 65.5914 45.6964 65.7823 45.6972C66.4806 45.7003 67.2567 45.7011 68.1446 45.6905C69.2266 45.6777 69.9446 45.6605 70.5414 45.6463C70.5621 45.6458 70.5827 45.6453 70.6033 45.6447C70.6289 45.6441 70.6543 45.6435 70.6795 45.6429C71.5606 45.622 72.9126 45.6178 73.8982 45.6494C74.5166 45.6692 75.0296 45.6794 75.6824 45.6913C76.0034 45.6972 76.3465 45.6962 76.8731 45.6948C77.0209 45.6943 77.1835 45.6939 77.3638 45.6936C78.173 45.692 79.303 45.6927 81.0294 45.7101C81.4795 45.7146 81.8845 45.7161 82.2629 45.7175C82.3804 45.7179 82.4957 45.7184 82.6087 45.7189C83.0793 45.721 83.5173 45.7244 83.9256 45.7365C84.2612 45.7464 85.0043 45.7635 85.8295 45.7729C86.6607 45.7824 87.543 45.7838 88.1735 45.7648C88.2391 45.7628 88.3052 45.7609 88.3713 45.7589C88.9401 45.742 89.52 45.7247 89.9869 45.6959C91.0273 45.6061 92.4874 45.5779 94 45.5737C94.3044 45.5806 94.5819 45.3044 94.5762 45C94.5814 43.9976 94.5913 43.0282 94.5949 42.2002C94.5951 42.1674 94.5952 42.1346 94.5954 42.1017C94.5987 41.3431 94.601 40.6389 94.6026 40C94.6084 39.6386 94.2799 39.383 94 39.3945C93.0302 39.3934 92.3304 39.3939 91.974 39.3942C91.9407 39.3942 91.9103 39.3943 91.8831 39.3943C91.8587 39.3943 91.8367 39.3943 91.8173 39.3944C91.526 39.3945 91.2683 39.3966 90.9983 39.3988C90.9836 39.3989 90.9688 39.399 90.9541 39.3992C90.6688 39.4015 90.3693 39.4037 90.0154 39.4035C88.6993 39.4028 87.6265 39.4055 86.6982 39.4083C86.5264 39.4089 86.3593 39.4093 86.1964 39.4099C86.1959 39.4099 86.1954 39.4099 86.1949 39.4099C85.48 39.4122 84.8457 39.4142 84.2439 39.4142C83.1463 39.4143 82.405 39.418 81.8283 39.422C81.6475 39.4233 81.4808 39.4246 81.3236 39.4258C80.9835 39.4285 80.6865 39.4308 80.3802 39.4316C79.8041 39.4332 79.2739 39.4372 78.7517 39.4412C78.7051 39.4415 78.6586 39.4418 78.6122 39.4422C78.046 39.4464 77.4854 39.4504 76.8926 39.4505C76.7551 39.4505 76.641 39.4373 76.6381 39.4209C76.6353 39.4046 76.7447 39.3914 76.8822 39.3914C77.4579 39.3913 78.0048 39.3875 78.5708 39.3832C78.6175 39.3829 78.6644 39.3825 78.7114 39.3821C79.2324 39.3782 79.7723 39.3742 80.359 39.3726C80.6543 39.3718 80.9349 39.3696 81.2682 39.367C81.4273 39.3657 81.5986 39.3644 81.7891 39.363C82.3745 39.359 83.1257 39.3551 84.2338 39.3551C84.8284 39.3551 85.4545 39.3531 86.169 39.3508C86.333 39.3503 86.5016 39.3498 86.6756 39.3492C87.6062 39.3464 88.6846 39.3437 90.0079 39.3444C90.3423 39.3446 90.6261 39.3425 90.9102 39.3402C90.9262 39.3401 90.9421 39.3399 90.958 39.3398C91.2257 39.3376 91.4977 39.3354 91.8054 39.3352C91.8465 39.3352 91.899 39.3352 91.9622 39.3352C92.3197 39.3349 93.0239 39.3343 94 39.3354C94.3074 39.3229 94.6678 39.6032 94.6617 40C94.6601 40.6414 94.6577 41.3484 94.6544 42.11C94.6544 42.119 94.6543 42.128 94.6543 42.137C94.6488 43.394 94.6449 44.2963 94.6468 45C94.6473 45.2513 94.5118 45.4445 94.3555 45.551C94.2431 45.6282 94.118 45.6623 94 45.6643C93.6222 45.6689 93.3095 45.6706 93.0373 45.6715C92.9612 45.6718 92.8892 45.6721 92.8205 45.6723C92.5239 45.6731 92.2894 45.6738 92.0551 45.6779C91.3464 45.6903 90.8381 45.7106 90.2231 45.7485C89.7017 45.7806 89.0631 45.7996 88.5036 45.8162C88.5027 45.8162 88.5019 45.8163 88.501 45.8163C88.4347 45.8183 88.3693 45.8202 88.3055 45.8221ZM54.3111 42.0586C54.3116 41.9211 54.3252 41.8107 54.3415 41.8119C54.3578 41.8133 54.3707 41.926 54.3702 42.0636C54.369 42.3913 54.3679 42.7191 54.3667 43.0469C54.3662 43.1843 54.3526 43.2947 54.3363 43.2935C54.32 43.2921 54.3072 43.1794 54.3076 43.0418C54.3088 42.7141 54.31 42.3863 54.3111 42.0586ZM88.8792 46.116C88.7451 46.1193 88.6114 46.109 88.5809 46.093C88.5505 46.0771 88.6348 46.0615 88.7689 46.0582C88.8398 46.0564 88.9564 46.0532 89.1133 46.049C89.9144 46.0272 91.7693 45.9768 94 45.9401C94.483 45.9455 94.9356 45.504 94.9178 45C94.9126 44.5664 94.9082 44.1254 94.9049 43.681C94.9027 43.393 94.9006 43.1349 94.8986 42.889C94.8915 42.0348 94.8624 41.3173 94.8527 40C94.8531 39.7417 94.7218 39.4475 94.4457 39.2766C94.3127 39.194 94.1572 39.1498 94 39.1499C85.7264 39.1401 77.4591 39.0694 69.1984 39.1197C66.7595 39.1346 64.3283 39.1368 61.8875 39.1358C59.8531 39.135 56.1241 39.1047 55.2466 39.1016C55.109 39.1011 54.9986 39.0875 55 39.0712C55.0015 39.0549 55.1141 39.0421 55.2517 39.0425C56.1229 39.0456 59.8395 39.0759 61.8663 39.0767C64.3024 39.0777 66.7286 39.0755 69.1628 39.0607C77.4296 39.0103 85.7196 39.0124 94 39.0193C94.1845 39.019 94.3683 39.0722 94.5237 39.1712C94.8371 39.3698 94.9818 39.7087 94.9768 40C94.9687 41.2978 94.9504 41.9924 94.9575 42.8434C94.9595 43.0899 94.9617 43.3493 94.9639 43.6401C94.9673 44.0985 94.9719 44.5534 94.9773 45C94.9958 45.5374 94.5131 46.0061 94 45.9999C91.8362 46.0359 90.0384 46.0848 89.2377 46.1065C89.0758 46.1109 88.9543 46.1142 88.8792 46.116ZM82.4811 46.0914C80.9451 46.0958 78.7617 46.0879 76.8537 46.0809C75.9232 46.0775 75.0581 46.0742 74.3655 46.0729C73.2925 46.0707 72.617 46.0566 71.9471 46.0426C71.9399 46.0424 71.9327 46.0423 71.9255 46.0421C71.2561 46.0281 70.5861 46.0143 69.4964 46.0121C68.3976 46.01 66.8772 46.0196 65.3437 46.0293C65.3425 46.0293 65.3413 46.0293 65.3401 46.0293C63.8147 46.0389 62.2674 46.0786 61.1493 46.0763C58.3831 46.0707 56.3699 46.0486 55 46.0248C54.4057 46.0101 54.0745 45.5393 54.025 45.2042C54.0129 45.137 54.0076 45.0685 54.0091 45C54.045 43.4096 54.0203 41.6715 54.0375 40C54.0321 39.5013 54.4712 39.0742 54.9334 39.0701C55.1609 39.095 54.7592 39.065 54.4458 39.3105C54.4346 39.3191 54.4236 39.3279 54.4128 39.337C54.3113 39.4247 54.2327 39.5191 54.1676 39.6731C54.1207 39.7903 54.1046 39.9006 54.1043 40C54.104 40.102 54.104 40.1943 54.1039 40.2826C54.1037 40.729 54.0945 43.6267 54.0686 45C54.0664 45.1053 54.0818 45.2007 54.1049 45.2818C54.1778 45.5669 54.4872 45.9473 55 45.9514C56.3345 45.9541 58.3422 45.9399 61.1604 45.9456C62.2579 45.9478 63.7741 45.9799 65.3077 45.9702C65.3119 45.9702 65.3161 45.9702 65.3203 45.9701C66.8426 45.9605 68.3778 45.9508 69.4949 45.953C70.6241 45.9553 71.3246 45.9698 72.0028 45.984C72.0094 45.9841 72.016 45.9843 72.0226 45.9844C72.6863 45.9983 73.3307 46.0118 74.3641 46.0138C75.0719 46.0152 75.9471 46.0184 76.8835 46.0218C78.7834 46.0288 80.9363 46.0367 82.4591 46.0323C82.5966 46.0319 82.713 46.0448 82.7191 46.0611C82.725 46.0774 82.6184 46.091 82.4811 46.0914ZM82.4494 46.4594C78.1336 46.5249 73.7938 46.5065 69.5381 46.4374C68.4273 46.4351 66.8772 46.4306 65.3293 46.4259C65.3118 46.4258 65.2943 46.4258 65.2768 46.4257C63.7456 46.4211 62.2211 46.4166 61.1266 46.4143C58.3805 46.4088 56.3719 46.4018 55 46.387C54.1719 46.3734 53.713 45.707 53.6567 45.2369C53.6439 45.1552 53.6392 45.0758 53.6406 45C53.6658 44.008 53.6659 43.7027 53.6661 43.2615C53.6661 43.2488 53.6662 43.2361 53.6662 43.2234C53.6661 43.2225 53.6661 43.2217 53.666 43.2209C53.6653 43.2049 53.6648 43.1915 53.6647 43.1845C53.6643 43.1705 53.6641 43.159 53.6641 43.1547C53.6639 43.1448 53.6639 43.1365 53.6639 43.1335C53.6639 43.1214 53.6639 43.1075 53.6639 43.0986C53.6642 43.0156 53.666 42.7556 53.6684 42.5497C53.6709 42.3386 53.6741 42.1881 53.6777 42.0294C53.6781 42.0134 53.6784 41.9973 53.6788 41.9813C53.682 41.8383 53.6855 41.6827 53.6893 41.4585C53.6916 41.322 53.7065 41.225 53.7227 41.2418C53.7388 41.2586 53.75 41.3828 53.7477 41.5193C53.7437 41.7551 53.74 41.9207 53.7368 42.0643C53.7364 42.0803 53.7361 42.0962 53.7357 42.1121C53.7323 42.264 53.7296 42.397 53.7273 42.5842C53.7255 42.8551 53.7254 43.0566 53.7253 43.2406C53.7251 43.6841 53.7249 44.0269 53.7008 45C53.6986 45.1112 53.7103 45.2299 53.7418 45.352C53.8354 45.76 54.2625 46.3157 55 46.3279C56.3336 46.3425 58.3298 46.3496 61.1252 46.3553C62.2217 46.3575 63.748 46.3621 65.2779 46.3667C65.2959 46.3667 65.3138 46.3668 65.3318 46.3668C66.8806 46.3714 68.4284 46.3761 69.5366 46.3783C73.8562 46.3869 78.0864 46.3573 82.4272 46.4004C83.2259 46.398 83.956 46.3971 84.6324 46.3963C86.623 46.3938 88.1506 46.3919 89.6069 46.356C89.9262 46.3482 90.7631 46.3415 91.9725 46.3332C92.3269 46.3307 92.7157 46.3282 93.1358 46.3254C93.4106 46.3235 93.6989 46.3216 94 46.3196C94.6516 46.3375 95.3247 45.7479 95.3088 45C95.3061 44.6177 95.3032 44.2206 95.3001 43.8098C95.2979 43.5217 95.2958 43.2636 95.2938 43.0178C95.2864 42.1333 95.2803 41.4055 95.2796 40C95.2821 39.6625 95.1359 39.2803 94.8198 39.0172C94.606 38.8368 94.3115 38.7185 94 38.7194C91.5 38.7155 87.8764 38.7024 85.8552 38.6922C84.7444 38.6865 84.1173 38.6813 83.6737 38.677C83.5502 38.6757 83.4415 38.6746 83.3419 38.6735C83.0815 38.6708 82.8792 38.6687 82.6142 38.6673C80.7058 38.6573 79.3696 38.6642 77.1806 38.6786C77.0434 38.6795 76.9238 38.667 76.9135 38.6507C76.9032 38.6345 77.0061 38.6205 77.1432 38.6196C79.3354 38.6052 80.692 38.5981 82.6264 38.6083C82.9031 38.6098 83.1197 38.612 83.3846 38.6148C83.4829 38.6158 83.5878 38.6169 83.705 38.6181C84.1412 38.6223 84.7617 38.6275 85.8667 38.6331C87.8854 38.6434 91.5065 38.6564 94 38.6603C94.3228 38.6594 94.6286 38.7809 94.8514 38.9666C95.1868 39.2423 95.3414 39.6455 95.3387 40C95.3395 41.3802 95.3454 42.094 95.3527 42.9721C95.3547 43.2185 95.3569 43.4778 95.3591 43.7684C95.3623 44.194 95.3653 44.6049 95.3681 45C95.3845 45.7822 94.6803 46.3978 94 46.3789C93.7116 46.3808 93.4352 46.3827 93.1714 46.3844C92.7518 46.3872 92.3639 46.3898 92.0109 46.3922C90.7772 46.4007 89.9908 46.4072 89.7173 46.4139C88.2099 46.451 86.6159 46.453 84.6069 46.4555C83.9378 46.4563 83.2226 46.4572 82.4494 46.4594ZM69.2916 38.6655C69.4288 38.6646 69.5478 38.6772 69.5576 38.6935C69.5673 38.7098 69.464 38.7237 69.3268 38.7245C68.6019 38.7289 68.0808 38.7326 67.6734 38.7354C66.9194 38.7407 66.555 38.7433 66.0092 38.7429C64.6004 38.7417 63.24 38.7411 62.0162 38.7406C59.9819 38.7398 58.3239 38.7391 57.4465 38.736C57.3089 38.7355 57.1984 38.7219 57.1998 38.7056C57.2014 38.6893 57.314 38.6765 57.4515 38.677C58.3227 38.68 59.9682 38.6807 61.995 38.6815C63.2203 38.682 64.5851 38.6826 66.0028 38.6837C66.5321 38.6842 66.8761 38.6818 67.6134 38.6766C68.0204 38.6737 68.5473 38.67 69.2916 38.6655Z" fill="#FEDA83"/>
<path d="M56.7019 40.32C56.7019 40.458 56.6899 40.578 56.6659 40.68H55.7659C55.7419 40.578 55.7299 40.458 55.7299 40.32C55.7299 40.176 55.7419 40.056 55.7659 39.96H56.6659C56.6899 40.056 56.7019 40.176 56.7019 40.32ZM55.7659 43.56C55.7899 43.656 55.8019 43.776 55.8019 43.92C55.8019 44.058 55.7899 44.178 55.7659 44.28H55.3159C55.2919 44.178 55.2799 44.058 55.2799 43.92C55.2799 43.776 55.2919 43.656 55.3159 43.56H55.0459C55.0219 43.458 55.0099 43.338 55.0099 43.2C55.0099 43.056 55.0219 42.936 55.0459 42.84C55.0219 42.738 55.0099 42.618 55.0099 42.48C55.0099 42.336 55.0219 42.216 55.0459 42.12C55.0219 42.018 55.0099 41.898 55.0099 41.76C55.0099 41.616 55.0219 41.496 55.0459 41.4H55.3159C55.2919 41.298 55.2799 41.178 55.2799 41.04C55.2799 40.896 55.2919 40.776 55.3159 40.68H55.7659C55.7899 40.776 55.8019 40.896 55.8019 41.04C55.8019 41.178 55.7899 41.298 55.7659 41.4C55.7899 41.496 55.8019 41.616 55.8019 41.76C55.8019 41.898 55.7899 42.018 55.7659 42.12C55.7899 42.216 55.8019 42.336 55.8019 42.48C55.8019 42.618 55.7899 42.738 55.7659 42.84C55.7899 42.936 55.8019 43.056 55.8019 43.2C55.8019 43.338 55.7899 43.458 55.7659 43.56ZM57.3859 42.12C57.4099 42.216 57.4219 42.336 57.4219 42.48C57.4219 42.618 57.4099 42.738 57.3859 42.84C57.4099 42.936 57.4219 43.056 57.4219 43.2C57.4219 43.338 57.4099 43.458 57.3859 43.56H57.1159C57.1399 43.656 57.1519 43.776 57.1519 43.92C57.1519 44.058 57.1399 44.178 57.1159 44.28H56.6659C56.6419 44.178 56.6299 44.058 56.6299 43.92C56.6299 43.776 56.6419 43.656 56.6659 43.56C56.6419 43.458 56.6299 43.338 56.6299 43.2C56.6299 43.056 56.6419 42.936 56.6659 42.84C56.6419 42.738 56.6299 42.618 56.6299 42.48C56.6299 42.336 56.6419 42.216 56.6659 42.12C56.6419 42.018 56.6299 41.898 56.6299 41.76C56.6299 41.616 56.6419 41.496 56.6659 41.4C56.6419 41.298 56.6299 41.178 56.6299 41.04C56.6299 40.896 56.6419 40.776 56.6659 40.68H57.1159C57.1399 40.776 57.1519 40.896 57.1519 41.04C57.1519 41.178 57.1399 41.298 57.1159 41.4H57.3859C57.4099 41.496 57.4219 41.616 57.4219 41.76C57.4219 41.898 57.4099 42.018 57.3859 42.12ZM55.7299 44.64C55.7299 44.496 55.7419 44.376 55.7659 44.28H56.6659C56.6899 44.376 56.7019 44.496 56.7019 44.64C56.7019 44.778 56.6899 44.898 56.6659 45H55.7659C55.7419 44.898 55.7299 44.778 55.7299 44.64ZM62.5195 44.28C62.5435 44.376 62.5555 44.496 62.5555 44.64C62.5555 44.778 62.5435 44.898 62.5195 45H60.3595C60.3355 44.898 60.3235 44.778 60.3235 44.64C60.3235 44.496 60.3355 44.376 60.3595 44.28H61.0795C61.0555 44.178 61.0435 44.058 61.0435 43.92C61.0435 43.776 61.0555 43.656 61.0795 43.56C61.0555 43.458 61.0435 43.338 61.0435 43.2C61.0435 43.056 61.0555 42.936 61.0795 42.84C61.0555 42.738 61.0435 42.618 61.0435 42.48C61.0435 42.336 61.0555 42.216 61.0795 42.12C61.0555 42.018 61.0435 41.898 61.0435 41.76C61.0435 41.616 61.0555 41.496 61.0795 41.4H60.5395C60.5155 41.298 60.5035 41.178 60.5035 41.04C60.5035 40.896 60.5155 40.776 60.5395 40.68H61.0795C61.0555 40.578 61.0435 40.458 61.0435 40.32C61.0435 40.176 61.0555 40.056 61.0795 39.96H61.7995C61.8235 40.056 61.8355 40.176 61.8355 40.32C61.8355 40.458 61.8235 40.578 61.7995 40.68C61.8235 40.776 61.8355 40.896 61.8355 41.04C61.8355 41.178 61.8235 41.298 61.7995 41.4C61.8235 41.496 61.8355 41.616 61.8355 41.76C61.8355 41.898 61.8235 42.018 61.7995 42.12C61.8235 42.216 61.8355 42.336 61.8355 42.48C61.8355 42.618 61.8235 42.738 61.7995 42.84C61.8235 42.936 61.8355 43.056 61.8355 43.2C61.8355 43.338 61.8235 43.458 61.7995 43.56C61.8235 43.656 61.8355 43.776 61.8355 43.92C61.8355 44.058 61.8235 44.178 61.7995 44.28H62.5195ZM67.743 44.28C67.767 44.376 67.779 44.496 67.779 44.64C67.779 44.778 67.767 44.898 67.743 45H65.583C65.559 44.898 65.547 44.778 65.547 44.64C65.547 44.496 65.559 44.376 65.583 44.28H66.303C66.279 44.178 66.267 44.058 66.267 43.92C66.267 43.776 66.279 43.656 66.303 43.56C66.279 43.458 66.267 43.338 66.267 43.2C66.267 43.056 66.279 42.936 66.303 42.84C66.279 42.738 66.267 42.618 66.267 42.48C66.267 42.336 66.279 42.216 66.303 42.12C66.279 42.018 66.267 41.898 66.267 41.76C66.267 41.616 66.279 41.496 66.303 41.4H65.763C65.739 41.298 65.727 41.178 65.727 41.04C65.727 40.896 65.739 40.776 65.763 40.68H66.303C66.279 40.578 66.267 40.458 66.267 40.32C66.267 40.176 66.279 40.056 66.303 39.96H67.023C67.047 40.056 67.059 40.176 67.059 40.32C67.059 40.458 67.047 40.578 67.023 40.68C67.047 40.776 67.059 40.896 67.059 41.04C67.059 41.178 67.047 41.298 67.023 41.4C67.047 41.496 67.059 41.616 67.059 41.76C67.059 41.898 67.047 42.018 67.023 42.12C67.047 42.216 67.059 42.336 67.059 42.48C67.059 42.618 67.047 42.738 67.023 42.84C67.047 42.936 67.059 43.056 67.059 43.2C67.059 43.338 67.047 43.458 67.023 43.56C67.047 43.656 67.059 43.776 67.059 43.92C67.059 44.058 67.047 44.178 67.023 44.28H67.743ZM72.9665 44.28C72.9905 44.376 73.0025 44.496 73.0025 44.64C73.0025 44.778 72.9905 44.898 72.9665 45H70.8065C70.7825 44.898 70.7705 44.778 70.7705 44.64C70.7705 44.496 70.7825 44.376 70.8065 44.28H71.5265C71.5025 44.178 71.4905 44.058 71.4905 43.92C71.4905 43.776 71.5025 43.656 71.5265 43.56C71.5025 43.458 71.4905 43.338 71.4905 43.2C71.4905 43.056 71.5025 42.936 71.5265 42.84C71.5025 42.738 71.4905 42.618 71.4905 42.48C71.4905 42.336 71.5025 42.216 71.5265 42.12C71.5025 42.018 71.4905 41.898 71.4905 41.76C71.4905 41.616 71.5025 41.496 71.5265 41.4H70.9865C70.9625 41.298 70.9505 41.178 70.9505 41.04C70.9505 40.896 70.9625 40.776 70.9865 40.68H71.5265C71.5025 40.578 71.4905 40.458 71.4905 40.32C71.4905 40.176 71.5025 40.056 71.5265 39.96H72.2465C72.2705 40.056 72.2825 40.176 72.2825 40.32C72.2825 40.458 72.2705 40.578 72.2465 40.68C72.2705 40.776 72.2825 40.896 72.2825 41.04C72.2825 41.178 72.2705 41.298 72.2465 41.4C72.2705 41.496 72.2825 41.616 72.2825 41.76C72.2825 41.898 72.2705 42.018 72.2465 42.12C72.2705 42.216 72.2825 42.336 72.2825 42.48C72.2825 42.618 72.2705 42.738 72.2465 42.84C72.2705 42.936 72.2825 43.056 72.2825 43.2C72.2825 43.338 72.2705 43.458 72.2465 43.56C72.2705 43.656 72.2825 43.776 72.2825 43.92C72.2825 44.058 72.2705 44.178 72.2465 44.28H72.9665ZM77.596 40.32C77.596 40.458 77.584 40.578 77.56 40.68H76.66C76.636 40.578 76.624 40.458 76.624 40.32C76.624 40.176 76.636 40.056 76.66 39.96H77.56C77.584 40.056 77.596 40.176 77.596 40.32ZM76.66 43.56C76.684 43.656 76.696 43.776 76.696 43.92C76.696 44.058 76.684 44.178 76.66 44.28H76.21C76.186 44.178 76.174 44.058 76.174 43.92C76.174 43.776 76.186 43.656 76.21 43.56H75.94C75.916 43.458 75.904 43.338 75.904 43.2C75.904 43.056 75.916 42.936 75.94 42.84C75.916 42.738 75.904 42.618 75.904 42.48C75.904 42.336 75.916 42.216 75.94 42.12C75.916 42.018 75.904 41.898 75.904 41.76C75.904 41.616 75.916 41.496 75.94 41.4H76.21C76.186 41.298 76.174 41.178 76.174 41.04C76.174 40.896 76.186 40.776 76.21 40.68H76.66C76.684 40.776 76.696 40.896 76.696 41.04C76.696 41.178 76.684 41.298 76.66 41.4C76.684 41.496 76.696 41.616 76.696 41.76C76.696 41.898 76.684 42.018 76.66 42.12C76.684 42.216 76.696 42.336 76.696 42.48C76.696 42.618 76.684 42.738 76.66 42.84C76.684 42.936 76.696 43.056 76.696 43.2C76.696 43.338 76.684 43.458 76.66 43.56ZM78.28 42.12C78.304 42.216 78.316 42.336 78.316 42.48C78.316 42.618 78.304 42.738 78.28 42.84C78.304 42.936 78.316 43.056 78.316 43.2C78.316 43.338 78.304 43.458 78.28 43.56H78.01C78.034 43.656 78.046 43.776 78.046 43.92C78.046 44.058 78.034 44.178 78.01 44.28H77.56C77.536 44.178 77.524 44.058 77.524 43.92C77.524 43.776 77.536 43.656 77.56 43.56C77.536 43.458 77.524 43.338 77.524 43.2C77.524 43.056 77.536 42.936 77.56 42.84C77.536 42.738 77.524 42.618 77.524 42.48C77.524 42.336 77.536 42.216 77.56 42.12C77.536 42.018 77.524 41.898 77.524 41.76C77.524 41.616 77.536 41.496 77.56 41.4C77.536 41.298 77.524 41.178 77.524 41.04C77.524 40.896 77.536 40.776 77.56 40.68H78.01C78.034 40.776 78.046 40.896 78.046 41.04C78.046 41.178 78.034 41.298 78.01 41.4H78.28C78.304 41.496 78.316 41.616 78.316 41.76C78.316 41.898 78.304 42.018 78.28 42.12ZM76.624 44.64C76.624 44.496 76.636 44.376 76.66 44.28H77.56C77.584 44.376 77.596 44.496 77.596 44.64C77.596 44.778 77.584 44.898 77.56 45H76.66C76.636 44.898 76.624 44.778 76.624 44.64ZM82.8195 40.32C82.8195 40.458 82.8075 40.578 82.7835 40.68H81.8835C81.8595 40.578 81.8475 40.458 81.8475 40.32C81.8475 40.176 81.8595 40.056 81.8835 39.96H82.7835C82.8075 40.056 82.8195 40.176 82.8195 40.32ZM81.8835 43.56C81.9075 43.656 81.9195 43.776 81.9195 43.92C81.9195 44.058 81.9075 44.178 81.8835 44.28H81.4335C81.4095 44.178 81.3975 44.058 81.3975 43.92C81.3975 43.776 81.4095 43.656 81.4335 43.56H81.1635C81.1395 43.458 81.1275 43.338 81.1275 43.2C81.1275 43.056 81.1395 42.936 81.1635 42.84C81.1395 42.738 81.1275 42.618 81.1275 42.48C81.1275 42.336 81.1395 42.216 81.1635 42.12C81.1395 42.018 81.1275 41.898 81.1275 41.76C81.1275 41.616 81.1395 41.496 81.1635 41.4H81.4335C81.4095 41.298 81.3975 41.178 81.3975 41.04C81.3975 40.896 81.4095 40.776 81.4335 40.68H81.8835C81.9075 40.776 81.9195 40.896 81.9195 41.04C81.9195 41.178 81.9075 41.298 81.8835 41.4C81.9075 41.496 81.9195 41.616 81.9195 41.76C81.9195 41.898 81.9075 42.018 81.8835 42.12C81.9075 42.216 81.9195 42.336 81.9195 42.48C81.9195 42.618 81.9075 42.738 81.8835 42.84C81.9075 42.936 81.9195 43.056 81.9195 43.2C81.9195 43.338 81.9075 43.458 81.8835 43.56ZM83.5035 42.12C83.5275 42.216 83.5395 42.336 83.5395 42.48C83.5395 42.618 83.5275 42.738 83.5035 42.84C83.5275 42.936 83.5395 43.056 83.5395 43.2C83.5395 43.338 83.5275 43.458 83.5035 43.56H83.2335C83.2575 43.656 83.2695 43.776 83.2695 43.92C83.2695 44.058 83.2575 44.178 83.2335 44.28H82.7835C82.7595 44.178 82.7475 44.058 82.7475 43.92C82.7475 43.776 82.7595 43.656 82.7835 43.56C82.7595 43.458 82.7475 43.338 82.7475 43.2C82.7475 43.056 82.7595 42.936 82.7835 42.84C82.7595 42.738 82.7475 42.618 82.7475 42.48C82.7475 42.336 82.7595 42.216 82.7835 42.12C82.7595 42.018 82.7475 41.898 82.7475 41.76C82.7475 41.616 82.7595 41.496 82.7835 41.4C82.7595 41.298 82.7475 41.178 82.7475 41.04C82.7475 40.896 82.7595 40.776 82.7835 40.68H83.2335C83.2575 40.776 83.2695 40.896 83.2695 41.04C83.2695 41.178 83.2575 41.298 83.2335 41.4H83.5035C83.5275 41.496 83.5395 41.616 83.5395 41.76C83.5395 41.898 83.5275 42.018 83.5035 42.12ZM81.8475 44.64C81.8475 44.496 81.8595 44.376 81.8835 44.28H82.7835C82.8075 44.376 82.8195 44.496 82.8195 44.64C82.8195 44.778 82.8075 44.898 82.7835 45H81.8835C81.8595 44.898 81.8475 44.778 81.8475 44.64ZM88.043 40.32C88.043 40.458 88.031 40.578 88.007 40.68H87.107C87.083 40.578 87.071 40.458 87.071 40.32C87.071 40.176 87.083 40.056 87.107 39.96H88.007C88.031 40.056 88.043 40.176 88.043 40.32ZM87.107 43.56C87.131 43.656 87.143 43.776 87.143 43.92C87.143 44.058 87.131 44.178 87.107 44.28H86.657C86.633 44.178 86.621 44.058 86.621 43.92C86.621 43.776 86.633 43.656 86.657 43.56H86.387C86.363 43.458 86.351 43.338 86.351 43.2C86.351 43.056 86.363 42.936 86.387 42.84C86.363 42.738 86.351 42.618 86.351 42.48C86.351 42.336 86.363 42.216 86.387 42.12C86.363 42.018 86.351 41.898 86.351 41.76C86.351 41.616 86.363 41.496 86.387 41.4H86.657C86.633 41.298 86.621 41.178 86.621 41.04C86.621 40.896 86.633 40.776 86.657 40.68H87.107C87.131 40.776 87.143 40.896 87.143 41.04C87.143 41.178 87.131 41.298 87.107 41.4C87.131 41.496 87.143 41.616 87.143 41.76C87.143 41.898 87.131 42.018 87.107 42.12C87.131 42.216 87.143 42.336 87.143 42.48C87.143 42.618 87.131 42.738 87.107 42.84C87.131 42.936 87.143 43.056 87.143 43.2C87.143 43.338 87.131 43.458 87.107 43.56ZM88.727 42.12C88.751 42.216 88.763 42.336 88.763 42.48C88.763 42.618 88.751 42.738 88.727 42.84C88.751 42.936 88.763 43.056 88.763 43.2C88.763 43.338 88.751 43.458 88.727 43.56H88.457C88.481 43.656 88.493 43.776 88.493 43.92C88.493 44.058 88.481 44.178 88.457 44.28H88.007C87.983 44.178 87.971 44.058 87.971 43.92C87.971 43.776 87.983 43.656 88.007 43.56C87.983 43.458 87.971 43.338 87.971 43.2C87.971 43.056 87.983 42.936 88.007 42.84C87.983 42.738 87.971 42.618 87.971 42.48C87.971 42.336 87.983 42.216 88.007 42.12C87.983 42.018 87.971 41.898 87.971 41.76C87.971 41.616 87.983 41.496 88.007 41.4C87.983 41.298 87.971 41.178 87.971 41.04C87.971 40.896 87.983 40.776 88.007 40.68H88.457C88.481 40.776 88.493 40.896 88.493 41.04C88.493 41.178 88.481 41.298 88.457 41.4H88.727C88.751 41.496 88.763 41.616 88.763 41.76C88.763 41.898 88.751 42.018 88.727 42.12ZM87.071 44.64C87.071 44.496 87.083 44.376 87.107 44.28H88.007C88.031 44.376 88.043 44.496 88.043 44.64C88.043 44.778 88.031 44.898 88.007 45H87.107C87.083 44.898 87.071 44.778 87.071 44.64ZM93.8605 44.28C93.8845 44.376 93.8965 44.496 93.8965 44.64C93.8965 44.778 93.8845 44.898 93.8605 45H91.7005C91.6765 44.898 91.6645 44.778 91.6645 44.64C91.6645 44.496 91.6765 44.376 91.7005 44.28H92.4205C92.3965 44.178 92.3845 44.058 92.3845 43.92C92.3845 43.776 92.3965 43.656 92.4205 43.56C92.3965 43.458 92.3845 43.338 92.3845 43.2C92.3845 43.056 92.3965 42.936 92.4205 42.84C92.3965 42.738 92.3845 42.618 92.3845 42.48C92.3845 42.336 92.3965 42.216 92.4205 42.12C92.3965 42.018 92.3845 41.898 92.3845 41.76C92.3845 41.616 92.3965 41.496 92.4205 41.4H91.8805C91.8565 41.298 91.8445 41.178 91.8445 41.04C91.8445 40.896 91.8565 40.776 91.8805 40.68H92.4205C92.3965 40.578 92.3845 40.458 92.3845 40.32C92.3845 40.176 92.3965 40.056 92.4205 39.96H93.1405C93.1645 40.056 93.1765 40.176 93.1765 40.32C93.1765 40.458 93.1645 40.578 93.1405 40.68C93.1645 40.776 93.1765 40.896 93.1765 41.04C93.1765 41.178 93.1645 41.298 93.1405 41.4C93.1645 41.496 93.1765 41.616 93.1765 41.76C93.1765 41.898 93.1645 42.018 93.1405 42.12C93.1645 42.216 93.1765 42.336 93.1765 42.48C93.1765 42.618 93.1645 42.738 93.1405 42.84C93.1645 42.936 93.1765 43.056 93.1765 43.2C93.1765 43.338 93.1645 43.458 93.1405 43.56C93.1645 43.656 93.1765 43.776 93.1765 43.92C93.1765 44.058 93.1645 44.178 93.1405 44.28H93.8605Z" fill="#F9F3E1"/>
<path d="M72 38V30.9666L73.5 27.9522V6M77 38V30.9666L75.5 27.9522V6M82 38V31L77.5 27.5V6M87.5 38V31L79.5 26.5V6M92.5 38V31L81.5 25.5V6M67 38V31L71.5 27.5V6M61.5 38V31L69.5 26.5V6M56.5 38V31.5L67.5 25.5V6" stroke="url(#paint1_linear_94_114)"/>
<path d="M65.12 49.024V47.92H65.302V47.738H65.866V47.92H66.05V48.48H65.866V48.662H65.322V49.024H65.12ZM65.322 48.46H65.846V47.94H65.322V48.46ZM66.4133 49.024V48.844H66.2313V48.282H66.4133V48.1H66.9773V48.282H67.1613V48.824H67.3433V49.024H67.1413V48.844H66.9773V49.024H66.4133ZM66.4333 48.824H66.9573V48.3H66.4333V48.824ZM67.5243 49.024V47.738H67.7263V49.024H67.5243ZM68.1106 49.024V48.844H67.9286V48.282H68.1106V48.1H68.6746V48.282H68.8586V48.824H69.0406V49.024H68.8386V48.844H68.6746V49.024H68.1106ZM68.1306 48.824H68.6546V48.3H68.1306V48.824ZM69.3645 49.024V48.844H69.1825V47.738H69.3845V48.1H69.9285V48.282H70.1125V48.844H69.9285V49.024H69.3645ZM69.3845 48.824H69.9085V48.3H69.3845V48.824ZM70.3153 49.024V48.282H70.4973V48.1H71.0613V48.282H71.2453V48.48H71.0413V48.3H70.5173V49.024H70.3153ZM71.6086 49.024V48.844H71.4266V48.282H71.6086V48.1H72.1726V48.282H72.3566V48.824H72.5386V49.024H72.3366V48.844H72.1726V49.024H71.6086ZM71.6286 48.824H72.1526V48.3H71.6286V48.824ZM74.1633 49.024V48.844H73.9813V47.92H74.1633V47.738H74.7273V47.92H74.9113V48.3H74.7073V47.94H74.1833V48.824H74.7073V48.46H74.9113V48.844H74.7273V49.024H74.1633ZM75.1532 49.024V47.92H75.3352V47.738H75.8992V47.92H76.0832V48.48H75.8992V48.662H75.3552V49.024H75.1532ZM75.3552 48.46H75.8792V47.94H75.3552V48.46ZM76.5071 49.024V48.844H76.3251V47.738H76.5271V48.824H77.0511V47.738H77.2551V48.844H77.0711V49.024H76.5071ZM78.2593 49.024V47.94H78.0993V48.12H77.8973V47.92H78.0793V47.738H78.2793V47.92H78.4633V49.024H78.2593ZM80.0891 49.024V48.844H79.9071V47.92H80.0891V47.738H80.6531V47.92H80.8371V48.3H80.6531V48.46H80.8371V48.844H80.6531V49.024H80.0891ZM80.1091 48.824H80.6331V48.48H80.2691V48.282H80.6331V47.94H80.1091V48.824ZM81.261 49.386V49.206H81.079V49.006H81.281V49.186H81.807V48.844H81.261V48.662H81.079V48.1H81.281V48.642H81.807V48.1H82.009V49.206H81.827V49.386H81.261ZM82.6129 49.024V48.844H82.4329V48.3H82.2509V48.1H82.4329V47.738H82.6329V48.1H83.1809V48.3H82.6329V48.824H83.1609V48.642H83.3629V48.844H83.1809V49.024H82.6129ZM83.7258 49.024V48.844H83.5438V48.282H83.7258V48.1H84.2898V48.282H84.4738V48.48H84.2698V48.3H83.7458V48.46H84.1098V48.662H83.7458V48.824H84.2698V48.64H84.4738V48.842H84.2898V49.024H83.7258Z" fill="#9FD1C6"/>
<defs>
<linearGradient id="paint0_linear_94_114" x1="54" y1="42.5" x2="95" y2="42.5" gradientUnits="userSpaceOnUse">
<stop stop-color="#9FD1C6"/>
<stop offset="1" stop-color="#516B65"/>
</linearGradient>
<linearGradient id="paint1_linear_94_114" x1="74.5" y1="38" x2="74.5" y2="6" gradientUnits="userSpaceOnUse">
<stop stop-color="#816A57" stop-opacity="0"/>
<stop offset="0.533654" stop-color="#816A57"/>
<stop offset="1" stop-color="#1B1612" stop-opacity="0"/>
</linearGradient>
</defs>
</svg>
