<svg width="219" height="182" viewBox="0 0 219 182" fill="none" xmlns="http://www.w3.org/2000/svg">
<rect x="6" y="5" width="207" height="172" rx="2" fill="url(#paint0_linear_77_3120)"/>
<rect x="191" y="81" width="8" height="13" rx="1" fill="#333333"/>
<path d="M197.796 91.4C197.849 91.6133 197.876 91.88 197.876 92.2C197.876 92.5067 197.849 92.7733 197.796 93H196.196C196.143 92.7733 196.116 92.5067 196.116 92.2C196.116 91.88 196.143 91.6133 196.196 91.4H195.596C195.543 91.1733 195.516 90.9067 195.516 90.6C195.516 90.28 195.543 90.0133 195.596 89.8H194.596C194.649 90.0133 194.676 90.28 194.676 90.6C194.676 90.9067 194.649 91.1733 194.596 91.4H193.796C193.849 91.6133 193.876 91.88 193.876 92.2C193.876 92.5067 193.849 92.7733 193.796 93H192.196C192.143 92.7733 192.116 92.5067 192.116 92.2C192.116 91.88 192.143 91.6133 192.196 91.4H192.996C192.943 91.1733 192.916 90.9067 192.916 90.6C192.916 90.28 192.943 90.0133 192.996 89.8H193.796C193.743 89.5733 193.716 89.3067 193.716 89C193.716 88.68 193.743 88.4133 193.796 88.2H192.996C192.943 87.9733 192.916 87.7067 192.916 87.4C192.916 87.08 192.943 86.8133 192.996 86.6H192.196C192.143 86.3733 192.116 86.1067 192.116 85.8C192.116 85.48 192.143 85.2133 192.196 85H193.796C193.849 85.2133 193.876 85.48 193.876 85.8C193.876 86.1067 193.849 86.3733 193.796 86.6H194.596C194.649 86.8133 194.676 87.08 194.676 87.4C194.676 87.7067 194.649 87.9733 194.596 88.2H195.596C195.543 87.9733 195.516 87.7067 195.516 87.4C195.516 87.08 195.543 86.8133 195.596 86.6H196.196C196.143 86.3733 196.116 86.1067 196.116 85.8C196.116 85.48 196.143 85.2133 196.196 85H197.796C197.849 85.2133 197.876 85.48 197.876 85.8C197.876 86.1067 197.849 86.3733 197.796 86.6H197.196C197.249 86.8133 197.276 87.08 197.276 87.4C197.276 87.7067 197.249 87.9733 197.196 88.2H196.196C196.249 88.4133 196.276 88.68 196.276 89C196.276 89.3067 196.249 89.5733 196.196 89.8H197.196C197.249 90.0133 197.276 90.28 197.276 90.6C197.276 90.9067 197.249 91.1733 197.196 91.4H197.796Z" fill="#F9F3E1"/>
<rect x="20" y="27" width="8" height="13" rx="1" fill="#333333"/>
<path d="M27.1961 37.4C27.2494 37.6133 27.2761 37.88 27.2761 38.2C27.2761 38.5067 27.2494 38.7733 27.1961 39H25.5961C25.5428 38.7733 25.5161 38.5067 25.5161 38.2C25.5161 37.88 25.5428 37.6133 25.5961 37.4H24.7961C24.7428 37.1733 24.7161 36.9067 24.7161 36.6C24.7161 36.28 24.7428 36.0133 24.7961 35.8H22.3961C22.4494 36.0133 22.4761 36.28 22.4761 36.6C22.4761 36.9067 22.4494 37.1733 22.3961 37.4H24.7961C24.8494 37.6133 24.8761 37.88 24.8761 38.2C24.8761 38.5067 24.8494 38.7733 24.7961 39H21.5961C21.5428 38.7733 21.5161 38.5067 21.5161 38.2C21.5161 37.88 21.5428 37.6133 21.5961 37.4H20.7961C20.7428 37.1733 20.7161 36.9067 20.7161 36.6C20.7161 36.28 20.7428 36.0133 20.7961 35.8H21.5961C21.5428 35.5733 21.5161 35.3067 21.5161 35C21.5161 34.68 21.5428 34.4133 21.5961 34.2H24.7961C24.7428 33.9733 24.7161 33.7067 24.7161 33.4C24.7161 33.08 24.7428 32.8133 24.7961 32.6H21.9961C21.9428 32.3733 21.9161 32.1067 21.9161 31.8C21.9161 31.48 21.9428 31.2133 21.9961 31H25.5961C25.6494 31.2133 25.6761 31.48 25.6761 31.8C25.6761 32.1067 25.6494 32.3733 25.5961 32.6H26.3961C26.4494 32.8133 26.4761 33.08 26.4761 33.4C26.4761 33.7067 26.4494 33.9733 26.3961 34.2C26.4494 34.4133 26.4761 34.68 26.4761 35C26.4761 35.3067 26.4494 35.5733 26.3961 35.8C26.4494 36.0133 26.4761 36.28 26.4761 36.6C26.4761 36.9067 26.4494 37.1733 26.3961 37.4H27.1961Z" fill="#F9F3E1"/>
<rect x="20" y="113" width="8" height="13" rx="1" fill="#333333"/>
<path d="M27.1961 121.8C27.2494 122.013 27.2761 122.28 27.2761 122.6C27.2761 122.907 27.2494 123.173 27.1961 123.4H26.3961C26.4494 123.613 26.4761 123.88 26.4761 124.2C26.4761 124.507 26.4494 124.773 26.3961 125H22.3961C22.3428 124.773 22.3161 124.507 22.3161 124.2C22.3161 123.88 22.3428 123.613 22.3961 123.4H21.5961C21.5428 123.173 21.5161 122.907 21.5161 122.6C21.5161 122.28 21.5428 122.013 21.5961 121.8H20.7961C20.7428 121.573 20.7161 121.307 20.7161 121C20.7161 120.68 20.7428 120.413 20.7961 120.2H21.5961C21.5428 119.973 21.5161 119.707 21.5161 119.4C21.5161 119.08 21.5428 118.813 21.5961 118.6H22.3961C22.3428 118.373 22.3161 118.107 22.3161 117.8C22.3161 117.48 22.3428 117.213 22.3961 117H26.3961C26.4494 117.213 26.4761 117.48 26.4761 117.8C26.4761 118.107 26.4494 118.373 26.3961 118.6H27.1961C27.2494 118.813 27.2761 119.08 27.2761 119.4C27.2761 119.707 27.2494 119.973 27.1961 120.2H25.5961C25.5428 119.973 25.5161 119.707 25.5161 119.4C25.5161 119.08 25.5428 118.813 25.5961 118.6H23.1961C23.2494 118.813 23.2761 119.08 23.2761 119.4C23.2761 119.707 23.2494 119.973 23.1961 120.2H22.3961C22.4494 120.413 22.4761 120.68 22.4761 121C22.4761 121.307 22.4494 121.573 22.3961 121.8H23.1961C23.2494 122.013 23.2761 122.28 23.2761 122.6C23.2761 122.907 23.2494 123.173 23.1961 123.4H25.5961C25.5428 123.173 25.5161 122.907 25.5161 122.6C25.5161 122.28 25.5428 122.013 25.5961 121.8H27.1961Z" fill="#F9F3E1"/>
<path d="M104.5 114H113M28 121.5H82M74 106.5H82" stroke="#333333"/>
<path d="M83 101.5H91.5C98.6797 101.5 104.5 107.32 104.5 114.5C104.5 121.68 98.6797 127.5 91.5 127.5H83C82.7239 127.5 82.5 127.276 82.5 127V102C82.5 101.724 82.7239 101.5 83 101.5Z" stroke="#333333"/>
<path d="M182 87.5H191M165.5 94.5H152V114H113M152 79.5H165" stroke="#333333"/>
<path d="M162.367 74.5H169.5C176.68 74.5 182.5 80.3203 182.5 87.5C182.5 94.6797 176.68 100.5 169.5 100.5H162.367C161.932 100.5 161.653 99.9341 161.965 99.5723C163.139 98.2097 164.761 96.1923 166.093 94.0332C167.412 91.8947 168.5 89.5318 168.5 87.5C168.5 85.4682 167.412 83.1053 166.093 80.9668C164.761 78.8077 163.139 76.7903 161.965 75.4277C161.653 75.0659 161.932 74.5 162.367 74.5Z" stroke="#333333"/>
<path d="M104 60.5H113M87.5 67.5H74V88H28M74 52.5H87" stroke="#333333"/>
<path d="M84.3672 47.5H91.5C98.6797 47.5 104.5 53.3203 104.5 60.5C104.5 67.6797 98.6797 73.5 91.5 73.5H84.3672C83.9321 73.5 83.653 72.9341 83.9648 72.5723C85.1392 71.2097 86.7613 69.1923 88.0928 67.0332C89.4116 64.8947 90.5 62.5318 90.5 60.5C90.5 58.4682 89.4116 56.1053 88.0928 53.9668C86.7613 51.8077 85.1392 49.7903 83.9648 48.4277C83.653 48.0659 83.9321 47.5 84.3672 47.5Z" stroke="#333333"/>
<path d="M65.5 33.5H74V53M28 33.5H34.5M43 33.5H34.5M34.5 33.5V106.5H74" stroke="#333333"/>
<path d="M65.2051 33.0645C65.5449 33.2556 65.5449 33.7444 65.2051 33.9355L44.2451 45.7256C43.9118 45.9131 43.5 45.6724 43.5 45.29V21.71C43.5 21.3275 43.9118 21.0869 44.2451 21.2744L65.2051 33.0645Z" stroke="#333333"/>
<circle cx="65.5" cy="33.5" r="2" fill="#FEDA83" stroke="#333333"/>
<path d="M143.5 60.5H152V80M113 60.5H121.5" stroke="#333333"/>
<path d="M143.205 60.0645C143.545 60.2556 143.545 60.7444 143.205 60.9355L122.245 72.7256C121.912 72.9131 121.5 72.6724 121.5 72.29V48.71C121.5 48.3275 121.912 48.0869 122.245 48.2744L143.205 60.0645Z" stroke="#333333"/>
<circle cx="143.5" cy="60.5" r="2" fill="#FEDA83" stroke="#333333"/>
<rect x="20" y="81" width="8" height="13" rx="1" fill="#333333"/>
<path d="M22.3961 89.8C22.4494 90.0133 22.4761 90.28 22.4761 90.6C22.4761 90.9067 22.4494 91.1733 22.3961 91.4H21.5961C21.6494 91.6133 21.6761 91.88 21.6761 92.2C21.6761 92.5067 21.6494 92.7733 21.5961 93H20.7961C20.7428 92.7733 20.7161 92.5067 20.7161 92.2C20.7161 91.88 20.7428 91.6133 20.7961 91.4C20.7428 91.1733 20.7161 90.9067 20.7161 90.6C20.7161 90.28 20.7428 90.0133 20.7961 89.8C20.7428 89.5733 20.7161 89.3067 20.7161 89C20.7161 88.68 20.7428 88.4133 20.7961 88.2C20.7428 87.9733 20.7161 87.7067 20.7161 87.4C20.7161 87.08 20.7428 86.8133 20.7961 86.6C20.7428 86.3733 20.7161 86.1067 20.7161 85.8C20.7161 85.48 20.7428 85.2133 20.7961 85C20.7428 84.7733 20.7161 84.5067 20.7161 84.2C20.7161 83.88 20.7428 83.6133 20.7961 83.4C20.7428 83.1733 20.7161 82.9067 20.7161 82.6C20.7161 82.28 20.7428 82.0133 20.7961 81.8H22.3961C22.4494 82.0133 22.4761 82.28 22.4761 82.6C22.4761 82.9067 22.4494 83.1733 22.3961 83.4C22.4494 83.6133 22.4761 83.88 22.4761 84.2C22.4761 84.5067 22.4494 84.7733 22.3961 85C22.4494 85.2133 22.4761 85.48 22.4761 85.8C22.4761 86.1067 22.4494 86.3733 22.3961 86.6H23.1961C23.2494 86.8133 23.2761 87.08 23.2761 87.4C23.2761 87.7067 23.2494 87.9733 23.1961 88.2H22.3961C22.4494 88.4133 22.4761 88.68 22.4761 89C22.4761 89.3067 22.4494 89.5733 22.3961 89.8ZM27.2761 89C27.2761 89.3067 27.2494 89.5733 27.1961 89.8H26.3961C26.4494 90.0133 26.4761 90.28 26.4761 90.6C26.4761 90.9067 26.4494 91.1733 26.3961 91.4H24.7961C24.7428 91.1733 24.7161 90.9067 24.7161 90.6C24.7161 90.28 24.7428 90.0133 24.7961 89.8H25.5961C25.5428 89.5733 25.5161 89.3067 25.5161 89C25.5161 88.68 25.5428 88.4133 25.5961 88.2H24.7961C24.7428 87.9733 24.7161 87.7067 24.7161 87.4C24.7161 87.08 24.7428 86.8133 24.7961 86.6H23.1961C23.1428 86.3733 23.1161 86.1067 23.1161 85.8C23.1161 85.48 23.1428 85.2133 23.1961 85H25.5961C25.6494 85.2133 25.6761 85.48 25.6761 85.8C25.6761 86.1067 25.6494 86.3733 25.5961 86.6H26.3961C26.4494 86.8133 26.4761 87.08 26.4761 87.4C26.4761 87.7067 26.4494 87.9733 26.3961 88.2H27.1961C27.2494 88.4133 27.2761 88.68 27.2761 89ZM22.3161 92.2C22.3161 91.88 22.3428 91.6133 22.3961 91.4H24.7961C24.8494 91.6133 24.8761 91.88 24.8761 92.2C24.8761 92.5067 24.8494 92.7733 24.7961 93H22.3961C22.3428 92.7733 22.3161 92.5067 22.3161 92.2Z" fill="#F9F3E1"/>
<rect x="61" y="155" width="8" height="13" rx="1" fill="#333333"/>
<path d="M67.7961 165.4C67.8494 165.613 67.8761 165.88 67.8761 166.2C67.8761 166.507 67.8494 166.773 67.7961 167H66.1961C66.1428 166.773 66.1161 166.507 66.1161 166.2C66.1161 165.88 66.1428 165.613 66.1961 165.4H65.5961C65.5428 165.173 65.5161 164.907 65.5161 164.6C65.5161 164.28 65.5428 164.013 65.5961 163.8H64.5961C64.6494 164.013 64.6761 164.28 64.6761 164.6C64.6761 164.907 64.6494 165.173 64.5961 165.4H63.7961C63.8494 165.613 63.8761 165.88 63.8761 166.2C63.8761 166.507 63.8494 166.773 63.7961 167H62.1961C62.1428 166.773 62.1161 166.507 62.1161 166.2C62.1161 165.88 62.1428 165.613 62.1961 165.4H62.9961C62.9428 165.173 62.9161 164.907 62.9161 164.6C62.9161 164.28 62.9428 164.013 62.9961 163.8H63.7961C63.7428 163.573 63.7161 163.307 63.7161 163C63.7161 162.68 63.7428 162.413 63.7961 162.2H62.9961C62.9428 161.973 62.9161 161.707 62.9161 161.4C62.9161 161.08 62.9428 160.813 62.9961 160.6H62.1961C62.1428 160.373 62.1161 160.107 62.1161 159.8C62.1161 159.48 62.1428 159.213 62.1961 159H63.7961C63.8494 159.213 63.8761 159.48 63.8761 159.8C63.8761 160.107 63.8494 160.373 63.7961 160.6H64.5961C64.6494 160.813 64.6761 161.08 64.6761 161.4C64.6761 161.707 64.6494 161.973 64.5961 162.2H65.5961C65.5428 161.973 65.5161 161.707 65.5161 161.4C65.5161 161.08 65.5428 160.813 65.5961 160.6H66.1961C66.1428 160.373 66.1161 160.107 66.1161 159.8C66.1161 159.48 66.1428 159.213 66.1961 159H67.7961C67.8494 159.213 67.8761 159.48 67.8761 159.8C67.8761 160.107 67.8494 160.373 67.7961 160.6H67.1961C67.2494 160.813 67.2761 161.08 67.2761 161.4C67.2761 161.707 67.2494 161.973 67.1961 162.2H66.1961C66.2494 162.413 66.2761 162.68 66.2761 163C66.2761 163.307 66.2494 163.573 66.1961 163.8H67.1961C67.2494 164.013 67.2761 164.28 67.2761 164.6C67.2761 164.907 67.2494 165.173 67.1961 165.4H67.7961Z" fill="#F9F3E1"/>
<rect x="79" y="155" width="8" height="13" rx="1" fill="#333333"/>
<path d="M86.1961 165.4C86.2494 165.613 86.2761 165.88 86.2761 166.2C86.2761 166.507 86.2494 166.773 86.1961 167H84.5961C84.5428 166.773 84.5161 166.507 84.5161 166.2C84.5161 165.88 84.5428 165.613 84.5961 165.4H83.7961C83.7428 165.173 83.7161 164.907 83.7161 164.6C83.7161 164.28 83.7428 164.013 83.7961 163.8H81.3961C81.4494 164.013 81.4761 164.28 81.4761 164.6C81.4761 164.907 81.4494 165.173 81.3961 165.4H83.7961C83.8494 165.613 83.8761 165.88 83.8761 166.2C83.8761 166.507 83.8494 166.773 83.7961 167H80.5961C80.5428 166.773 80.5161 166.507 80.5161 166.2C80.5161 165.88 80.5428 165.613 80.5961 165.4H79.7961C79.7428 165.173 79.7161 164.907 79.7161 164.6C79.7161 164.28 79.7428 164.013 79.7961 163.8H80.5961C80.5428 163.573 80.5161 163.307 80.5161 163C80.5161 162.68 80.5428 162.413 80.5961 162.2H83.7961C83.7428 161.973 83.7161 161.707 83.7161 161.4C83.7161 161.08 83.7428 160.813 83.7961 160.6H80.9961C80.9428 160.373 80.9161 160.107 80.9161 159.8C80.9161 159.48 80.9428 159.213 80.9961 159H84.5961C84.6494 159.213 84.6761 159.48 84.6761 159.8C84.6761 160.107 84.6494 160.373 84.5961 160.6H85.3961C85.4494 160.813 85.4761 161.08 85.4761 161.4C85.4761 161.707 85.4494 161.973 85.3961 162.2C85.4494 162.413 85.4761 162.68 85.4761 163C85.4761 163.307 85.4494 163.573 85.3961 163.8C85.4494 164.013 85.4761 164.28 85.4761 164.6C85.4761 164.907 85.4494 165.173 85.3961 165.4H86.1961Z" fill="#F9F3E1"/>
<rect x="97" y="155" width="8" height="13" rx="1" fill="#333333"/>
<path d="M104.196 163.8C104.249 164.013 104.276 164.28 104.276 164.6C104.276 164.907 104.249 165.173 104.196 165.4H103.396C103.449 165.613 103.476 165.88 103.476 166.2C103.476 166.507 103.449 166.773 103.396 167H99.3961C99.3428 166.773 99.3161 166.507 99.3161 166.2C99.3161 165.88 99.3428 165.613 99.3961 165.4H98.5961C98.5428 165.173 98.5161 164.907 98.5161 164.6C98.5161 164.28 98.5428 164.013 98.5961 163.8H97.7961C97.7428 163.573 97.7161 163.307 97.7161 163C97.7161 162.68 97.7428 162.413 97.7961 162.2H98.5961C98.5428 161.973 98.5161 161.707 98.5161 161.4C98.5161 161.08 98.5428 160.813 98.5961 160.6H99.3961C99.3428 160.373 99.3161 160.107 99.3161 159.8C99.3161 159.48 99.3428 159.213 99.3961 159H103.396C103.449 159.213 103.476 159.48 103.476 159.8C103.476 160.107 103.449 160.373 103.396 160.6H104.196C104.249 160.813 104.276 161.08 104.276 161.4C104.276 161.707 104.249 161.973 104.196 162.2H102.596C102.543 161.973 102.516 161.707 102.516 161.4C102.516 161.08 102.543 160.813 102.596 160.6H100.196C100.249 160.813 100.276 161.08 100.276 161.4C100.276 161.707 100.249 161.973 100.196 162.2H99.3961C99.4494 162.413 99.4761 162.68 99.4761 163C99.4761 163.307 99.4494 163.573 99.3961 163.8H100.196C100.249 164.013 100.276 164.28 100.276 164.6C100.276 164.907 100.249 165.173 100.196 165.4H102.596C102.543 165.173 102.516 164.907 102.516 164.6C102.516 164.28 102.543 164.013 102.596 163.8H104.196Z" fill="#F9F3E1"/>
<path d="M71.5961 161.6C71.5428 161.373 71.5161 161.107 71.5161 160.8C71.5161 160.48 71.5428 160.213 71.5961 160H76.3961C76.4494 160.213 76.4761 160.48 76.4761 160.8C76.4761 161.107 76.4494 161.373 76.3961 161.6H71.5961ZM76.3961 163.2C76.4494 163.413 76.4761 163.68 76.4761 164C76.4761 164.307 76.4494 164.573 76.3961 164.8H71.5961C71.5428 164.573 71.5161 164.307 71.5161 164C71.5161 163.68 71.5428 163.413 71.5961 163.2H76.3961Z" fill="#333333"/>
<path d="M93.0761 165.6C93.0761 165.907 93.0494 166.173 92.9961 166.4C93.0494 166.613 93.0761 166.88 93.0761 167.2C93.0761 167.507 93.0494 167.773 92.9961 168H90.9961C90.9428 167.773 90.9161 167.507 90.9161 167.2C90.9161 166.88 90.9428 166.613 90.9961 166.4C90.9428 166.173 90.9161 165.907 90.9161 165.6C90.9161 165.28 90.9428 165.013 90.9961 164.8H92.9961C93.0494 165.013 93.0761 165.28 93.0761 165.6Z" fill="#333333"/>
<path d="M112.876 163.4C112.876 163.707 112.849 163.973 112.796 164.2H110.796C110.849 164.413 110.876 164.68 110.876 165C110.876 165.307 110.849 165.573 110.796 165.8C110.849 166.013 110.876 166.28 110.876 166.6C110.876 166.907 110.849 167.173 110.796 167.4H109.196C109.143 167.173 109.116 166.907 109.116 166.6C109.116 166.28 109.143 166.013 109.196 165.8C109.143 165.573 109.116 165.307 109.116 165C109.116 164.68 109.143 164.413 109.196 164.2H107.196C107.143 163.973 107.116 163.707 107.116 163.4C107.116 163.08 107.143 162.813 107.196 162.6H109.196C109.143 162.373 109.116 162.107 109.116 161.8C109.116 161.48 109.143 161.213 109.196 161C109.143 160.773 109.116 160.507 109.116 160.2C109.116 159.88 109.143 159.613 109.196 159.4H110.796C110.849 159.613 110.876 159.88 110.876 160.2C110.876 160.507 110.849 160.773 110.796 161C110.849 161.213 110.876 161.48 110.876 161.8C110.876 162.107 110.849 162.373 110.796 162.6H112.796C112.849 162.813 112.876 163.08 112.876 163.4Z" fill="#333333"/>
<rect x="124" y="155" width="8" height="13" rx="1" fill="#333333"/>
<path d="M131.196 165.4C131.249 165.613 131.276 165.88 131.276 166.2C131.276 166.507 131.249 166.773 131.196 167H129.596C129.543 166.773 129.516 166.507 129.516 166.2C129.516 165.88 129.543 165.613 129.596 165.4H128.796C128.743 165.173 128.716 164.907 128.716 164.6C128.716 164.28 128.743 164.013 128.796 163.8H126.396C126.449 164.013 126.476 164.28 126.476 164.6C126.476 164.907 126.449 165.173 126.396 165.4H128.796C128.849 165.613 128.876 165.88 128.876 166.2C128.876 166.507 128.849 166.773 128.796 167H125.596C125.543 166.773 125.516 166.507 125.516 166.2C125.516 165.88 125.543 165.613 125.596 165.4H124.796C124.743 165.173 124.716 164.907 124.716 164.6C124.716 164.28 124.743 164.013 124.796 163.8H125.596C125.543 163.573 125.516 163.307 125.516 163C125.516 162.68 125.543 162.413 125.596 162.2H128.796C128.743 161.973 128.716 161.707 128.716 161.4C128.716 161.08 128.743 160.813 128.796 160.6H125.996C125.943 160.373 125.916 160.107 125.916 159.8C125.916 159.48 125.943 159.213 125.996 159H129.596C129.649 159.213 129.676 159.48 129.676 159.8C129.676 160.107 129.649 160.373 129.596 160.6H130.396C130.449 160.813 130.476 161.08 130.476 161.4C130.476 161.707 130.449 161.973 130.396 162.2C130.449 162.413 130.476 162.68 130.476 163C130.476 163.307 130.449 163.573 130.396 163.8C130.449 164.013 130.476 164.28 130.476 164.6C130.476 164.907 130.449 165.173 130.396 165.4H131.196Z" fill="#F9F3E1"/>
<rect x="142" y="155" width="8" height="13" rx="1" fill="#333333"/>
<path d="M144.396 163.8C144.449 164.013 144.476 164.28 144.476 164.6C144.476 164.907 144.449 165.173 144.396 165.4H143.596C143.649 165.613 143.676 165.88 143.676 166.2C143.676 166.507 143.649 166.773 143.596 167H142.796C142.743 166.773 142.716 166.507 142.716 166.2C142.716 165.88 142.743 165.613 142.796 165.4C142.743 165.173 142.716 164.907 142.716 164.6C142.716 164.28 142.743 164.013 142.796 163.8C142.743 163.573 142.716 163.307 142.716 163C142.716 162.68 142.743 162.413 142.796 162.2C142.743 161.973 142.716 161.707 142.716 161.4C142.716 161.08 142.743 160.813 142.796 160.6C142.743 160.373 142.716 160.107 142.716 159.8C142.716 159.48 142.743 159.213 142.796 159C142.743 158.773 142.716 158.507 142.716 158.2C142.716 157.88 142.743 157.613 142.796 157.4C142.743 157.173 142.716 156.907 142.716 156.6C142.716 156.28 142.743 156.013 142.796 155.8H144.396C144.449 156.013 144.476 156.28 144.476 156.6C144.476 156.907 144.449 157.173 144.396 157.4C144.449 157.613 144.476 157.88 144.476 158.2C144.476 158.507 144.449 158.773 144.396 159C144.449 159.213 144.476 159.48 144.476 159.8C144.476 160.107 144.449 160.373 144.396 160.6H145.196C145.249 160.813 145.276 161.08 145.276 161.4C145.276 161.707 145.249 161.973 145.196 162.2H144.396C144.449 162.413 144.476 162.68 144.476 163C144.476 163.307 144.449 163.573 144.396 163.8ZM149.276 163C149.276 163.307 149.249 163.573 149.196 163.8H148.396C148.449 164.013 148.476 164.28 148.476 164.6C148.476 164.907 148.449 165.173 148.396 165.4H146.796C146.743 165.173 146.716 164.907 146.716 164.6C146.716 164.28 146.743 164.013 146.796 163.8H147.596C147.543 163.573 147.516 163.307 147.516 163C147.516 162.68 147.543 162.413 147.596 162.2H146.796C146.743 161.973 146.716 161.707 146.716 161.4C146.716 161.08 146.743 160.813 146.796 160.6H145.196C145.143 160.373 145.116 160.107 145.116 159.8C145.116 159.48 145.143 159.213 145.196 159H147.596C147.649 159.213 147.676 159.48 147.676 159.8C147.676 160.107 147.649 160.373 147.596 160.6H148.396C148.449 160.813 148.476 161.08 148.476 161.4C148.476 161.707 148.449 161.973 148.396 162.2H149.196C149.249 162.413 149.276 162.68 149.276 163ZM144.316 166.2C144.316 165.88 144.343 165.613 144.396 165.4H146.796C146.849 165.613 146.876 165.88 146.876 166.2C146.876 166.507 146.849 166.773 146.796 167H144.396C144.343 166.773 144.316 166.507 144.316 166.2Z" fill="#F9F3E1"/>
<path d="M120.776 156C120.776 156.307 120.749 156.573 120.696 156.8H119.696C119.643 156.573 119.616 156.307 119.616 156C119.616 155.68 119.643 155.413 119.696 155.2H120.696C120.749 155.413 120.776 155.68 120.776 156ZM119.696 166.4C119.749 166.613 119.776 166.88 119.776 167.2C119.776 167.507 119.749 167.773 119.696 168H118.696C118.643 167.773 118.616 167.507 118.616 167.2C118.616 166.88 118.643 166.613 118.696 166.4H118.196C118.143 166.173 118.116 165.907 118.116 165.6C118.116 165.28 118.143 165.013 118.196 164.8H117.596C117.543 164.573 117.516 164.307 117.516 164C117.516 163.68 117.543 163.413 117.596 163.2C117.543 162.973 117.516 162.707 117.516 162.4C117.516 162.08 117.543 161.813 117.596 161.6C117.543 161.373 117.516 161.107 117.516 160.8C117.516 160.48 117.543 160.213 117.596 160H118.196C118.143 159.773 118.116 159.507 118.116 159.2C118.116 158.88 118.143 158.613 118.196 158.4H118.696C118.643 158.173 118.616 157.907 118.616 157.6C118.616 157.28 118.643 157.013 118.696 156.8H119.696C119.749 157.013 119.776 157.28 119.776 157.6C119.776 157.907 119.749 158.173 119.696 158.4H119.196C119.249 158.613 119.276 158.88 119.276 159.2C119.276 159.507 119.249 159.773 119.196 160C119.249 160.213 119.276 160.48 119.276 160.8C119.276 161.107 119.249 161.373 119.196 161.6C119.249 161.813 119.276 162.08 119.276 162.4C119.276 162.707 119.249 162.973 119.196 163.2C119.249 163.413 119.276 163.68 119.276 164C119.276 164.307 119.249 164.573 119.196 164.8C119.249 165.013 119.276 165.28 119.276 165.6C119.276 165.907 119.249 166.173 119.196 166.4H119.696ZM120.696 168C120.749 168.213 120.776 168.48 120.776 168.8C120.776 169.107 120.749 169.373 120.696 169.6H119.696C119.643 169.373 119.616 169.107 119.616 168.8C119.616 168.48 119.643 168.213 119.696 168H120.696Z" fill="#333333"/>
<path d="M154.296 154.2C154.349 154.413 154.376 154.68 154.376 155C154.376 155.307 154.349 155.573 154.296 155.8H153.296C153.243 155.573 153.216 155.307 153.216 155C153.216 154.68 153.243 154.413 153.296 154.2H154.296ZM156.396 160.6C156.449 160.813 156.476 161.08 156.476 161.4C156.476 161.707 156.449 161.973 156.396 162.2C156.449 162.413 156.476 162.68 156.476 163C156.476 163.307 156.449 163.573 156.396 163.8H155.796C155.849 164.013 155.876 164.28 155.876 164.6C155.876 164.907 155.849 165.173 155.796 165.4H155.296C155.349 165.613 155.376 165.88 155.376 166.2C155.376 166.507 155.349 166.773 155.296 167H154.296C154.243 166.773 154.216 166.507 154.216 166.2C154.216 165.88 154.243 165.613 154.296 165.4H154.796C154.743 165.173 154.716 164.907 154.716 164.6C154.716 164.28 154.743 164.013 154.796 163.8C154.743 163.573 154.716 163.307 154.716 163C154.716 162.68 154.743 162.413 154.796 162.2C154.743 161.973 154.716 161.707 154.716 161.4C154.716 161.08 154.743 160.813 154.796 160.6C154.743 160.373 154.716 160.107 154.716 159.8C154.716 159.48 154.743 159.213 154.796 159C154.743 158.773 154.716 158.507 154.716 158.2C154.716 157.88 154.743 157.613 154.796 157.4H154.296C154.243 157.173 154.216 156.907 154.216 156.6C154.216 156.28 154.243 156.013 154.296 155.8H155.296C155.349 156.013 155.376 156.28 155.376 156.6C155.376 156.907 155.349 157.173 155.296 157.4H155.796C155.849 157.613 155.876 157.88 155.876 158.2C155.876 158.507 155.849 158.773 155.796 159H156.396C156.449 159.213 156.476 159.48 156.476 159.8C156.476 160.107 156.449 160.373 156.396 160.6ZM153.216 167.8C153.216 167.48 153.243 167.213 153.296 167H154.296C154.349 167.213 154.376 167.48 154.376 167.8C154.376 168.107 154.349 168.373 154.296 168.6H153.296C153.243 168.373 153.216 168.107 153.216 167.8Z" fill="#333333"/>
<path d="M139.876 162.4C139.876 162.707 139.849 162.973 139.796 163.2H137.796C137.849 163.413 137.876 163.68 137.876 164C137.876 164.307 137.849 164.573 137.796 164.8C137.849 165.013 137.876 165.28 137.876 165.6C137.876 165.907 137.849 166.173 137.796 166.4H136.196C136.143 166.173 136.116 165.907 136.116 165.6C136.116 165.28 136.143 165.013 136.196 164.8C136.143 164.573 136.116 164.307 136.116 164C136.116 163.68 136.143 163.413 136.196 163.2H134.196C134.143 162.973 134.116 162.707 134.116 162.4C134.116 162.08 134.143 161.813 134.196 161.6H136.196C136.143 161.373 136.116 161.107 136.116 160.8C136.116 160.48 136.143 160.213 136.196 160C136.143 159.773 136.116 159.507 136.116 159.2C136.116 158.88 136.143 158.613 136.196 158.4H137.796C137.849 158.613 137.876 158.88 137.876 159.2C137.876 159.507 137.849 159.773 137.796 160C137.849 160.213 137.876 160.48 137.876 160.8C137.876 161.107 137.849 161.373 137.796 161.6H139.796C139.849 161.813 139.876 162.08 139.876 162.4Z" fill="#333333"/>
<path d="M131.196 152.4C131.249 152.613 131.276 152.88 131.276 153.2C131.276 153.507 131.249 153.773 131.196 154H124.796C124.743 153.773 124.716 153.507 124.716 153.2C124.716 152.88 124.743 152.613 124.796 152.4H131.196Z" fill="#333333"/>
<path d="M131.688 149.4C131.742 149.613 131.768 149.88 131.768 150.2C131.768 150.507 131.742 150.773 131.688 151H125.288C125.235 150.773 125.208 150.507 125.208 150.2C125.208 149.88 125.235 149.613 125.288 149.4H131.688ZM139.696 149.4C139.749 149.613 139.776 149.88 139.776 150.2C139.776 150.507 139.749 150.773 139.696 151H133.296C133.243 150.773 133.216 150.507 133.216 150.2C133.216 149.88 133.243 149.613 133.296 149.4H139.696ZM147.704 149.4C147.757 149.613 147.784 149.88 147.784 150.2C147.784 150.507 147.757 150.773 147.704 151H141.304C141.251 150.773 141.224 150.507 141.224 150.2C141.224 149.88 141.251 149.613 141.304 149.4H147.704Z" fill="#333333"/>
<defs>
<linearGradient id="paint0_linear_77_3120" x1="213" y1="4.99999" x2="91.9736" y2="224.469" gradientUnits="userSpaceOnUse">
<stop offset="0.144231" stop-color="#FEDA83"/>
<stop offset="0.355769" stop-color="#9FD1C6"/>
<stop offset="0.481128" stop-color="#A6CEBF"/>
<stop offset="0.772965" stop-color="#FAB16B"/>
<stop offset="1" stop-color="#D28500"/>
</linearGradient>
</defs>
</svg>
