<svg width="150" height="150" viewBox="0 0 150 150" fill="none" xmlns="http://www.w3.org/2000/svg">
<path d="M74.5537 7.99902C74.7385 7.63255 75.2615 7.63255 75.4463 7.99902L84.8975 26.7754C85.0648 27.1079 84.8235 27.5 84.4512 27.5H65.5488C65.1765 27.5 64.9352 27.1079 65.1025 26.7754L74.5537 7.99902Z" stroke="url(#paint0_linear_102_286)"/>
<path d="M64.0471 29.5H85.9543C86.1431 29.5 86.3156 29.6067 86.4006 29.7754L95.9719 48.7754C96.139 49.1078 95.8968 49.5 95.5246 49.5H54.4641C54.0918 49.4998 53.8501 49.1069 54.0178 48.7744L63.6008 29.7744C63.6858 29.6061 63.8585 29.5002 64.0471 29.5Z" stroke="url(#paint1_linear_102_286)"/>
<path d="M52.9668 51.5H97.0254C97.2141 51.5 97.3876 51.606 97.4727 51.7744L107.066 70.7744C107.234 71.1069 106.993 71.4998 106.62 71.5H43.3857C43.0134 71.4999 42.7718 71.1069 42.9395 70.7744L52.5205 51.7744C52.6055 51.6061 52.7783 51.5002 52.9668 51.5Z" stroke="url(#paint2_linear_102_286)"/>
<path d="M41.9031 73.5H108.133C108.322 73.5 108.495 73.6066 108.58 73.7754L118.137 92.7754C118.305 93.1078 118.063 93.4998 117.691 93.5H32.3025C31.9299 93.5 31.6881 93.107 31.8562 92.7744L41.4568 73.7744C41.5418 73.6062 41.7146 73.5001 41.9031 73.5Z" stroke="url(#paint3_linear_102_286)"/>
<path d="M30.8182 95.5H119.197C119.386 95.5001 119.559 95.6068 119.643 95.7754L129.21 114.775C129.377 115.108 129.135 115.5 128.763 115.5H21.2333C20.8611 115.5 20.6193 115.107 20.787 114.774L30.3719 95.7744C30.457 95.6061 30.6297 95.5001 30.8182 95.5Z" stroke="url(#paint4_linear_102_286)"/>
<path d="M19.7148 117.5H130.273C130.462 117.5 130.635 117.606 130.72 117.774L140.32 136.774C140.488 137.107 140.247 137.5 139.874 137.5H10.125C9.75249 137.5 9.51086 137.107 9.67871 136.774L19.2686 117.774C19.3536 117.606 19.5263 117.5 19.7148 117.5Z" stroke="url(#paint5_linear_102_286)"/>
<path d="M71.281 18.048V15.84H71.645V15.476H72.773V15.84H73.141V16.96H72.773V17.324H72.597V17.648H72.957V18.048H72.557V17.688H72.189V17.324H71.685V18.048H71.281ZM71.685 16.92H72.733V15.88H71.685V16.92ZM73.9888 18.048V17.688H73.6248V16.564H73.9888V16.2H75.1168V16.564H75.4848V16.96H75.0768V16.6H74.0288V16.92H74.7568V17.324H74.0288V17.648H75.0768V17.28H75.4848V17.684H75.1168V18.048H73.9888ZM76.3325 18.772V18.412H75.9685V18.012H76.3725V18.372H77.4245V17.688H76.3325V17.324H75.9685V16.564H76.3325V16.2H77.4645V16.564H77.8285V18.412H77.4645V18.772H76.3325ZM76.3725 17.284H77.4245V16.6H76.3725V17.284ZM78.3123 18V17.596H78.7163V18H78.3123ZM72.0884 26.048V25.688H71.7244V23.84H72.0884V23.476H73.2164V23.84H73.5844V24.6H73.1764V23.88H72.1284V25.648H73.1764V24.92H73.5844V25.688H73.2164V26.048H72.0884ZM74.0681 26.048V23.84H74.4321V23.476H75.5601V23.84H75.9281V24.96H75.5601V25.324H74.4721V26.048H74.0681ZM74.4721 24.92H75.5201V23.88H74.4721V24.92ZM76.7759 26.048V25.688H76.4119V23.476H76.8159V25.648H77.8639V23.476H78.2719V25.688H77.9039V26.048H76.7759Z" fill="#9FD1C6"/>
<path d="M60.617 42.048V39.84H60.981V39.476H61.381V39.84H61.749V40.564H62.069V39.84H62.437V39.476H62.841V39.84H63.201V42.048H62.801V39.88H62.477V40.6H62.109V41.688H61.709V40.6H61.341V39.88H61.021V42.048H60.617ZM64.0474 42.048V41.688H63.6834V40.564H64.0474V40.2H65.1754V40.564H65.5434V40.96H65.1354V40.6H64.0874V40.92H64.8154V41.324H64.0874V41.648H65.1354V41.28H65.5434V41.684H65.1754V42.048H64.0474ZM66.0271 42.048V40.2H67.1591V40.564H67.4791V40.2H68.2511V40.564H68.6111V42.048H68.2111V40.6H67.5191V42.048H67.1191V40.6H66.4311V42.048H66.0271ZM69.4185 42.048V41.688H69.0545V40.564H69.4185V40.2H70.5465V40.564H70.9145V41.688H70.5465V42.048H69.4185ZM69.4585 41.648H70.5065V40.6H69.4585V41.648ZM71.3982 42.048V40.564H71.7622V40.2H72.8902V40.564H73.2582V40.96H72.8502V40.6H71.8022V42.048H71.3982ZM73.742 42.048V40.2H74.146V42.048H73.742ZM73.742 39.88V39.476H74.146V39.88H73.742ZM74.9145 42.048V41.688H74.5505V40.564H74.9145V40.2H76.0425V40.564H76.4105V41.648H76.7745V42.048H76.3705V41.688H76.0425V42.048H74.9145ZM74.9545 41.648H76.0025V40.6H74.9545V41.648ZM78.4224 42.048V41.688H78.0584V39.84H78.4224V39.476H79.5504V39.84H79.9184V40.6H79.5104V39.88H78.4624V41.648H79.5104V40.92H79.9184V41.688H79.5504V42.048H78.4224ZM80.7661 42.048V41.688H80.4021V40.564H80.7661V40.2H81.8941V40.564H82.2621V41.648H82.6261V42.048H82.2221V41.688H81.8941V42.048H80.7661ZM80.8061 41.648H81.8541V40.6H80.8061V41.648ZM83.2739 42.048V41.688H82.9099V40.564H83.2739V40.2H84.4019V40.564H84.7699V40.96H84.3619V40.6H83.3139V41.648H84.3619V41.284H84.7699V41.688H84.4019V42.048H83.2739ZM85.1755 42.048V39.476H85.5795V40.564H85.8995V40.2H86.6675V40.564H87.0355V42.048H86.6275V40.6H85.9395V40.96H85.5795V42.048H85.1755ZM87.8833 42.048V41.688H87.5193V40.564H87.8833V40.2H89.0113V40.564H89.3793V40.96H88.9713V40.6H87.9233V40.92H88.6513V41.324H87.9233V41.648H88.9713V41.28H89.3793V41.684H89.0113V42.048H87.8833ZM88.0993 39.904V39.688H88.2793V39.508H88.4633V39.324H88.6833V39.544H88.5033V39.728H88.3193V39.904H88.0993ZM69.4191 46.64V45.904H69.0591V45.184H68.6951V44.42H69.0591V43.692H69.4191V42.972H69.8271V43.732H69.4591V44.46H69.0991V45.144H69.4591V45.876H69.8271V46.64H69.4191ZM70.5552 46.048V45.688H70.1912V45.284H70.5952V45.648H71.6432V44.96H70.5552V44.6H70.1912V43.84H70.5552V43.476H71.6832V43.84H72.0512V44.24H71.6432V43.88H70.5952V44.564H71.6832V44.92H72.0512V45.688H71.6832V46.048H70.5552ZM72.5349 46.048V43.84H72.8989V43.476H74.0269V43.84H74.3949V44.96H74.0269V45.324H73.8509V45.648H74.2109V46.048H73.8109V45.688H73.4429V45.324H72.9389V46.048H72.5349ZM72.9389 44.92H73.9869V43.88H72.9389V44.92ZM74.8787 46.048V44.2H75.2427V43.84H75.6027V43.476H76.0107V43.84H76.3707V44.2H76.7387V46.048H76.3307V45.324H75.2827V46.048H74.8787ZM75.2827 44.92H76.3307V44.24H75.9707V43.88H75.6427V44.24H75.2827V44.92ZM77.2224 46.048V43.84H77.5864V43.476H77.9864V43.84H78.3544V44.564H78.6744V43.84H79.0424V43.476H79.4464V43.84H79.8064V46.048H79.4064V43.88H79.0824V44.6H78.7144V45.688H78.3144V44.6H77.9464V43.88H77.6264V46.048H77.2224ZM80.1688 46.64V45.876H80.5328V45.144H80.8968V44.46H80.5328V43.732H80.1688V42.972H80.5728V43.692H80.9368V44.42H81.3008V45.184H80.9368V45.904H80.5728V46.64H80.1688Z" fill="#9FD1C6"/>
<path d="M58.115 64.048V61.84H58.479V61.476H58.879V61.84H59.247V62.564H59.567V61.84H59.935V61.476H60.339V61.84H60.699V64.048H60.299V61.88H59.975V62.6H59.607V63.688H59.207V62.6H58.839V61.88H58.519V64.048H58.115ZM61.5454 64.048V63.688H61.1814V62.564H61.5454V62.2H62.6734V62.564H63.0414V62.96H62.6334V62.6H61.5854V62.92H62.3134V63.324H61.5854V63.648H62.6334V63.28H63.0414V63.684H62.6734V64.048H61.5454ZM63.5252 64.048V62.2H64.6572V62.564H64.9772V62.2H65.7492V62.564H66.1092V64.048H65.7092V62.6H65.0172V64.048H64.6172V62.6H63.9292V64.048H63.5252ZM66.9165 64.048V63.688H66.5525V62.564H66.9165V62.2H68.0445V62.564H68.4125V63.688H68.0445V64.048H66.9165ZM66.9565 63.648H68.0045V62.6H66.9565V63.648ZM68.8963 64.048V62.564H69.2603V62.2H70.3883V62.564H70.7563V62.96H70.3483V62.6H69.3003V64.048H68.8963ZM71.24 64.048V62.2H71.644V64.048H71.24ZM71.24 61.88V61.476H71.644V61.88H71.24ZM72.4126 64.048V63.688H72.0486V62.564H72.4126V62.2H73.5406V62.564H73.9086V63.648H74.2726V64.048H73.8686V63.688H73.5406V64.048H72.4126ZM72.4526 63.648H73.5006V62.6H72.4526V63.648ZM75.5564 64.752V62.564H75.9204V62.2H77.0484V62.564H77.4164V63.688H77.0484V64.048H75.9604V64.752H75.5564ZM75.9604 63.648H77.0084V62.6H75.9604V63.648ZM77.9002 64.048V62.564H78.2642V62.2H79.3922V62.564H79.7602V62.96H79.3522V62.6H78.3042V64.048H77.9002ZM80.2439 64.048V62.2H80.6479V64.048H80.2439ZM80.2439 61.88V61.476H80.6479V61.88H80.2439ZM81.0525 64.048V62.2H82.5445V62.564H82.9125V64.048H82.5045V62.6H81.4565V64.048H81.0525ZM83.6821 64.048V63.688H83.3181V62.564H83.6821V62.2H84.8101V62.564H85.1781V62.96H84.7701V62.6H83.7221V63.648H84.7701V63.284H85.1781V63.688H84.8101V64.048H83.6821ZM85.6619 64.048V62.2H86.0659V64.048H85.6619ZM85.6619 61.88V61.476H86.0659V61.88H85.6619ZM86.5486 64.752V62.564H86.9126V62.2H88.0406V62.564H88.4086V63.688H88.0406V64.048H86.9526V64.752H86.5486ZM86.9526 63.648H88.0006V62.6H86.9526V63.648ZM89.2563 64.048V63.688H88.8923V62.564H89.2563V62.2H90.3843V62.564H90.7523V63.648H91.1163V64.048H90.7123V63.688H90.3843V64.048H89.2563ZM89.2963 63.648H90.3443V62.6H89.2963V63.648ZM91.4783 64.048V61.476H91.8823V64.048H91.4783ZM69.4191 68.64V67.904H69.0591V67.184H68.6951V66.42H69.0591V65.692H69.4191V64.972H69.8271V65.732H69.4591V66.46H69.0991V67.144H69.4591V67.876H69.8271V68.64H69.4191ZM70.1912 68.048V65.476H71.3232V65.84H71.6832V66.2H72.0512V67.324H71.6832V67.688H71.3232V68.048H70.1912ZM70.5952 67.648H71.2832V67.284H71.6432V66.24H71.2832V65.88H70.5952V67.648ZM72.5349 68.048V65.84H72.8989V65.476H74.0269V65.84H74.3949V66.96H74.0269V67.324H73.8509V67.648H74.2109V68.048H73.8109V67.688H73.4429V67.324H72.9389V68.048H72.5349ZM72.9389 66.92H73.9869V65.88H72.9389V66.92ZM74.8787 68.048V66.2H75.2427V65.84H75.6027V65.476H76.0107V65.84H76.3707V66.2H76.7387V68.048H76.3307V67.324H75.2827V68.048H74.8787ZM75.2827 66.92H76.3307V66.24H75.9707V65.88H75.6427V66.24H75.2827V66.92ZM77.2224 68.048V65.84H77.5864V65.476H77.9864V65.84H78.3544V66.564H78.6744V65.84H79.0424V65.476H79.4464V65.84H79.8064V68.048H79.4064V65.88H79.0824V66.6H78.7144V67.688H78.3144V66.6H77.9464V65.88H77.6264V68.048H77.2224ZM80.1688 68.64V67.876H80.5328V67.144H80.8968V66.46H80.5328V65.732H80.1688V64.972H80.5728V65.692H80.9368V66.42H81.3008V67.184H80.9368V67.904H80.5728V68.64H80.1688Z" fill="#9FD1C6"/>
<path d="M64.27 86.048V85.688H63.906V83.84H64.27V83.476H65.398V83.84H65.766V84.6H65.358V83.88H64.31V85.648H65.358V84.92H65.766V85.688H65.398V86.048H64.27ZM66.6138 86.048V85.688H66.2498V84.564H66.6138V84.2H67.7418V84.564H68.1098V85.648H68.4738V86.048H68.0698V85.688H67.7418V86.048H66.6138ZM66.6538 85.648H67.7018V84.6H66.6538V85.648ZM69.1216 86.048V85.688H68.7576V84.564H69.1216V84.2H70.2496V84.564H70.6176V84.96H70.2096V84.6H69.1616V85.648H70.2096V85.284H70.6176V85.688H70.2496V86.048H69.1216ZM71.0232 86.048V83.476H71.4272V84.564H71.7472V84.2H72.5152V84.564H72.8832V86.048H72.4752V84.6H71.7872V84.96H71.4272V86.048H71.0232ZM73.731 86.048V85.688H73.367V84.564H73.731V84.2H74.859V84.564H75.227V84.96H74.819V84.6H73.771V84.92H74.499V85.324H73.771V85.648H74.819V85.28H75.227V85.684H74.859V86.048H73.731ZM73.947 83.904V83.688H74.127V83.508H74.311V83.324H74.531V83.544H74.351V83.728H74.167V83.904H73.947ZM76.5115 86.048V83.476H77.6435V83.84H78.0035V84.2H78.3715V85.324H78.0035V85.688H77.6435V86.048H76.5115ZM76.9155 85.648H77.6035V85.284H77.9635V84.24H77.6035V83.88H76.9155V85.648ZM78.8552 86.048V84.2H79.2592V86.048H78.8552ZM78.8552 83.88V83.476H79.2592V83.88H78.8552ZM79.742 86.048V85.648H81.194V85.324H80.106V84.96H79.742V84.564H80.106V84.2H81.602V84.6H80.146V84.92H81.234V85.284H81.602V85.688H81.234V86.048H79.742ZM82.3716 86.048V85.688H82.0076V84.564H82.3716V84.2H83.4996V84.564H83.8676V84.96H83.4596V84.6H82.4116V85.648H83.4596V85.284H83.8676V85.688H83.4996V86.048H82.3716ZM84.5942 86.048V85.688H84.2302V84.564H84.5942V84.2H85.7222V84.564H86.0902V85.688H85.7222V86.048H84.5942ZM84.6342 85.648H85.6822V84.6H84.6342V85.648ZM69.4191 90.64V89.904H69.0591V89.184H68.6951V88.42H69.0591V87.692H69.4191V86.972H69.8271V87.732H69.4591V88.46H69.0991V89.144H69.4591V89.876H69.8271V90.64H69.4191ZM70.1912 90.048V87.476H71.3232V87.84H71.6832V88.2H72.0512V89.324H71.6832V89.688H71.3232V90.048H70.1912ZM70.5952 89.648H71.2832V89.284H71.6432V88.24H71.2832V87.88H70.5952V89.648ZM72.5349 90.048V87.84H72.8989V87.476H74.0269V87.84H74.3949V88.96H74.0269V89.324H73.8509V89.648H74.2109V90.048H73.8109V89.688H73.4429V89.324H72.9389V90.048H72.5349ZM72.9389 88.92H73.9869V87.88H72.9389V88.92ZM74.8787 90.048V88.2H75.2427V87.84H75.6027V87.476H76.0107V87.84H76.3707V88.2H76.7387V90.048H76.3307V89.324H75.2827V90.048H74.8787ZM75.2827 88.92H76.3307V88.24H75.9707V87.88H75.6427V88.24H75.2827V88.92ZM77.2224 90.048V87.84H77.5864V87.476H77.9864V87.84H78.3544V88.564H78.6744V87.84H79.0424V87.476H79.4464V87.84H79.8064V90.048H79.4064V87.88H79.0824V88.6H78.7144V89.688H78.3144V88.6H77.9464V87.88H77.6264V90.048H77.2224ZM80.1688 90.64V89.876H80.5328V89.144H80.8968V88.46H80.5328V87.732H80.1688V86.972H80.5728V87.692H80.9368V88.42H81.3008V89.184H80.9368V89.904H80.5728V90.64H80.1688Z" fill="#9FD1C6"/>
<path d="M64.3123 108.048V105.476H65.4443V105.84H65.8043V106.2H66.1723V107.324H65.8043V107.688H65.4443V108.048H64.3123ZM64.7163 107.648H65.4043V107.284H65.7643V106.24H65.4043V105.88H64.7163V107.648ZM66.656 108.048V106.2H67.06V108.048H66.656ZM66.656 105.88V105.476H67.06V105.88H66.656ZM67.5427 108.048V107.648H68.9947V107.324H67.9067V106.96H67.5427V106.564H67.9067V106.2H69.4027V106.6H67.9467V106.92H69.0347V107.284H69.4027V107.688H69.0347V108.048H67.5427ZM70.1724 108.048V107.688H69.8084V106.564H70.1724V106.2H71.3004V106.564H71.6684V106.96H71.2604V106.6H70.2124V107.648H71.2604V107.284H71.6684V107.688H71.3004V108.048H70.1724ZM72.395 108.048V107.688H72.031V106.564H72.395V106.2H73.523V106.564H73.891V107.688H73.523V108.048H72.395ZM72.435 107.648H73.483V106.6H72.435V107.648ZM75.1755 108.048V105.84H75.5395V105.476H76.6675V105.84H77.0355V106.96H76.6675V107.324H76.4915V107.648H76.8515V108.048H76.4515V107.688H76.0835V107.324H75.5795V108.048H75.1755ZM75.5795 106.92H76.6275V105.88H75.5795V106.92ZM77.5193 108.048V106.2H77.9233V108.048H77.5193ZM77.3713 105.904V105.688H77.5513V105.508H77.7353V105.324H77.9553V105.544H77.7753V105.728H77.5913V105.904H77.3713ZM78.6919 108.772V108.412H78.3279V108.012H78.7319V108.372H79.7839V107.688H78.6919V107.324H78.3279V106.564H78.6919V106.2H79.8239V106.564H80.1879V108.412H79.8239V108.772H78.6919ZM78.7319 107.284H79.7839V106.6H78.7319V107.284ZM80.6716 108.048V106.2H81.0756V108.048H80.6716ZM80.6716 105.88V105.476H81.0756V105.88H80.6716ZM81.9224 108.048V107.688H81.5584V106.564H81.9224V106.2H83.0144V105.476H83.4184V107.688H83.0504V108.048H81.9224ZM81.9624 107.648H83.0104V106.6H81.9624V107.648ZM84.188 108.048V107.688H83.824V106.564H84.188V106.2H85.316V106.564H85.684V107.688H85.316V108.048H84.188ZM84.228 107.648H85.276V106.6H84.228V107.648ZM64.1242 112.64V111.904H63.7642V111.184H63.4002V110.42H63.7642V109.692H64.1242V108.972H64.5322V109.732H64.1642V110.46H63.8042V111.144H64.1642V111.876H64.5322V112.64H64.1242ZM64.8963 112.048V109.84H65.2603V109.476H65.6603V109.84H66.0283V110.564H66.3483V109.84H66.7163V109.476H67.1203V109.84H67.4803V112.048H67.0803V109.88H66.7563V110.6H66.3883V111.688H65.9883V110.6H65.6203V109.88H65.3003V112.048H64.8963ZM68.3267 112.048V111.688H67.9627V110.564H68.3267V110.2H69.4547V110.564H69.8227V111.648H70.1867V112.048H69.7827V111.688H69.4547V112.048H68.3267ZM68.3667 111.648H69.4147V110.6H68.3667V111.648ZM70.8345 112.772V112.412H70.4705V112.012H70.8745V112.372H71.9265V111.688H70.8345V111.324H70.4705V110.564H70.8345V110.2H71.9665V110.564H72.3305V112.412H71.9665V112.772H70.8345ZM70.8745 111.284H71.9265V110.6H70.8745V111.284ZM72.8142 112.048V110.2H74.3062V110.564H74.6742V112.048H74.2662V110.6H73.2182V112.048H72.8142ZM75.522 112.048V111.688H75.158V110.564H75.522V110.2H76.65V110.564H77.018V110.96H76.61V110.6H75.562V110.92H76.29V111.324H75.562V111.648H76.61V111.28H77.018V111.684H76.65V112.048H75.522ZM75.738 109.904V109.688H75.918V109.508H76.102V109.324H76.322V109.544H76.142V109.728H75.958V109.904H75.738ZM78.2257 112.048V111.688H77.8657V110.6H77.5017V110.2H77.8657V109.476H78.2657V110.2H79.3617V110.6H78.2657V111.648H79.3217V111.284H79.7257V111.688H79.3617V112.048H78.2257ZM80.2088 112.048V110.2H80.6128V112.048H80.2088ZM80.2088 109.88V109.476H80.6128V109.88H80.2088ZM81.3813 112.048V111.688H81.0173V110.564H81.3813V110.2H82.5093V110.564H82.8773V110.96H82.4693V110.6H81.4213V111.648H82.4693V111.284H82.8773V111.688H82.5093V112.048H81.3813ZM83.604 112.048V111.688H83.24V110.564H83.604V110.2H84.732V110.564H85.1V111.688H84.732V112.048H83.604ZM83.644 111.648H84.692V110.6H83.644V111.648ZM85.4638 112.64V111.876H85.8278V111.144H86.1918V110.46H85.8278V109.732H85.4638V108.972H85.8678V109.692H86.2318V110.42H86.5958V111.184H86.2318V111.904H85.8678V112.64H85.4638Z" fill="#9FD1C6"/>
<path d="M59.9685 130.048V127.476H61.1005V127.84H61.4605V128.2H61.8285V129.324H61.4605V129.688H61.1005V130.048H59.9685ZM60.3725 129.648H61.0605V129.284H61.4205V128.24H61.0605V127.88H60.3725V129.648ZM62.3123 130.048V128.2H62.7163V130.048H62.3123ZM62.3123 127.88V127.476H62.7163V127.88H62.3123ZM63.199 130.048V129.648H64.651V129.324H63.563V128.96H63.199V128.564H63.563V128.2H65.059V128.6H63.603V128.92H64.691V129.284H65.059V129.688H64.691V130.048H63.199ZM65.8286 130.048V129.688H65.4646V128.564H65.8286V128.2H66.9566V128.564H67.3246V128.96H66.9166V128.6H65.8686V129.648H66.9166V129.284H67.3246V129.688H66.9566V130.048H65.8286ZM68.0513 130.048V129.688H67.6873V128.564H68.0513V128.2H69.1793V128.564H69.5473V129.688H69.1793V130.048H68.0513ZM68.0913 129.648H69.1393V128.6H68.0913V129.648ZM71.1958 130.048V129.688H70.8318V127.84H71.1958V127.476H72.3238V127.84H72.6918V128.6H72.2838V127.88H71.2358V129.648H72.2838V128.92H72.6918V129.688H72.3238V130.048H71.1958ZM73.5395 130.048V129.688H73.1755V128.564H73.5395V128.2H74.6675V128.564H75.0355V129.688H74.6675V130.048H73.5395ZM73.5795 129.648H74.6275V128.6H73.5795V129.648ZM75.5193 130.048V128.2H76.6513V128.564H76.9713V128.2H77.7433V128.564H78.1033V130.048H77.7033V128.6H77.0113V130.048H76.6113V128.6H75.9233V130.048H75.5193ZM78.5857 130.752V128.564H78.9497V128.2H80.0777V128.564H80.4457V129.688H80.0777V130.048H78.9897V130.752H78.5857ZM78.9897 129.648H80.0377V128.6H78.9897V129.648ZM81.2935 130.048V129.688H80.9295V128.564H81.2935V128.2H82.4215V128.564H82.7895V129.648H83.1535V130.048H82.7495V129.688H82.4215V130.048H81.2935ZM81.3335 129.648H82.3815V128.6H81.3335V129.648ZM83.8013 130.048V129.688H83.4373V128.564H83.8013V128.2H84.9293V128.564H85.2973V128.96H84.8893V128.6H83.8413V129.648H84.8893V129.284H85.2973V129.688H84.9293V130.048H83.8013ZM86.3058 130.048V129.688H85.9458V128.6H85.5818V128.2H85.9458V127.476H86.3458V128.2H87.4418V128.6H86.3458V129.648H87.4018V129.284H87.8058V129.688H87.4418V130.048H86.3058ZM88.5317 130.048V129.688H88.1677V128.564H88.5317V128.2H89.6597V128.564H90.0277V129.688H89.6597V130.048H88.5317ZM88.5717 129.648H89.6197V128.6H88.5717V129.648ZM68.0831 134.64V133.904H67.7231V133.184H67.3591V132.42H67.7231V131.692H68.0831V130.972H68.4911V131.732H68.1231V132.46H67.7631V133.144H68.1231V133.876H68.4911V134.64H68.0831ZM69.2192 134.048V133.688H68.8552V131.84H69.2192V131.476H70.3472V131.84H70.7152V133.688H70.3472V134.048H69.2192ZM69.2592 133.648H70.3072V131.88H69.2592V133.648ZM69.4352 131.18V130.964H69.6152V130.784H69.7992V130.6H70.0192V130.82H69.8392V131.004H69.6552V131.18H69.4352ZM71.199 134.752V132.564H71.563V132.2H72.691V132.564H73.059V133.688H72.691V134.048H71.603V134.752H71.199ZM71.603 133.648H72.651V132.6H71.603V133.648ZM74.2667 134.048V133.688H73.9067V132.6H73.5427V132.2H73.9067V131.476H74.3067V132.2H75.4027V132.6H74.3067V133.648H75.3627V133.284H75.7667V133.688H75.4027V134.048H74.2667ZM76.2498 134.048V132.2H76.6538V134.048H76.2498ZM76.2498 131.88V131.476H76.6538V131.88H76.2498ZM77.4224 134.048V133.688H77.0584V132.564H77.4224V132.2H78.5504V132.564H78.9184V132.96H78.5104V132.6H77.4624V133.648H78.5104V133.284H78.9184V133.688H78.5504V134.048H77.4224ZM79.645 134.048V133.688H79.281V132.564H79.645V132.2H80.773V132.564H81.141V133.688H80.773V134.048H79.645ZM79.685 133.648H80.733V132.6H79.685V133.648ZM81.5048 134.64V133.876H81.8688V133.144H82.2328V132.46H81.8688V131.732H81.5048V130.972H81.9088V131.692H82.2728V132.42H82.6368V133.184H82.2728V133.904H81.9088V134.64H81.5048Z" fill="#9FD1C6"/>
<defs>
<linearGradient id="paint0_linear_102_286" x1="75" y1="6" x2="75" y2="28" gradientUnits="userSpaceOnUse">
<stop stop-color="#912F2F"/>
<stop offset="1" stop-color="#91482F"/>
</linearGradient>
<linearGradient id="paint1_linear_102_286" x1="74.9942" y1="29" x2="74.9942" y2="50" gradientUnits="userSpaceOnUse">
<stop stop-color="#91482F"/>
<stop offset="1" stop-color="#915D2F"/>
</linearGradient>
<linearGradient id="paint2_linear_102_286" x1="41.7617" y1="61.5" x2="108.245" y2="61.5" gradientUnits="userSpaceOnUse">
<stop stop-color="#915D2F"/>
<stop offset="1" stop-color="#916A2F"/>
</linearGradient>
<linearGradient id="paint3_linear_102_286" x1="30.6765" y1="83.5" x2="119.313" y2="83.5" gradientUnits="userSpaceOnUse">
<stop stop-color="#916A2F"/>
<stop offset="1" stop-color="#917C2F"/>
</linearGradient>
<linearGradient id="paint4_linear_102_286" x1="19.6093" y1="105.5" x2="130.386" y2="105.5" gradientUnits="userSpaceOnUse">
<stop stop-color="#917C2F"/>
<stop offset="1" stop-color="#918E2F"/>
</linearGradient>
<linearGradient id="paint5_linear_102_286" x1="8.5" y1="127.5" x2="141.5" y2="127.5" gradientUnits="userSpaceOnUse">
<stop stop-color="#918E2F"/>
<stop offset="1" stop-color="#BCB81D"/>
</linearGradient>
</defs>
</svg>
