<svg width="202" height="334" viewBox="0 0 202 334" fill="none" xmlns="http://www.w3.org/2000/svg">
<g id="RamDraw">
<g id="Group 1">
<g id="RamDraw_2">
<g id="memCell">
<rect id="Cell" x="69" y="25" width="89" height="305.738" rx="2" fill="#023423"/>
<rect id="Content" x="148" y="25" width="11" height="306" rx="2" fill="#03412B"/>
<rect id="Content_2" x="54" y="25" width="26" height="199" rx="2" fill="#03412B"/>
<rect id="Content_3" x="54" y="232" width="26" height="99" rx="2" fill="#03412B"/>
<path id="Vector 1" d="M139.5 94H93.5M93.5 94L86 101.5M93.5 94L86 86.5M87.5 173L76.5 171M87.5 166L76.5 156.5M87.5 183L76.5 185M87.5 190.5L76 199" stroke="#816A57"/>
</g>
<rect id="Rectangle 1" x="93.5" y="31.5" width="51" height="22" fill="#1E1E1E" stroke="#3E4139"/>
<rect id="Rectangle 2" x="93.5" y="65.5" width="51" height="22" fill="#1E1E1E" stroke="#3E4139"/>
<rect id="Rectangle 3" x="93.5" y="99.5" width="51" height="22" fill="#1E1E1E" stroke="#3E4139"/>
<rect id="Rectangle 4" x="93.5" y="133.5" width="51" height="22" fill="#1E1E1E" stroke="#3E4139"/>
<rect id="Rectangle 5" x="93.5" y="201.5" width="51" height="22" fill="#1E1E1E" stroke="#3E4139"/>
<rect id="Rectangle 9" x="129.5" y="183.5" width="15" height="6" fill="#1E1E1E" stroke="#3E4139"/>
<rect id="Rectangle 11" x="103.5" y="183.5" width="15" height="6" fill="#1E1E1E" stroke="#3E4139"/>
<rect id="Rectangle 12" x="103.5" y="166.5" width="15" height="6" fill="#1E1E1E" stroke="#3E4139"/>
<rect id="Rectangle 10" x="129.5" y="166.5" width="15" height="6" fill="#1E1E1E" stroke="#3E4139"/>
<rect id="Rectangle 6" x="93.5" y="235.5" width="51" height="22" fill="#1E1E1E" stroke="#3E4139"/>
<rect id="Rectangle 7" x="93.5" y="269.5" width="51" height="22" fill="#1E1E1E" stroke="#3E4139"/>
<rect id="Rectangle 8" x="93.5" y="303.5" width="51" height="22" fill="#1E1E1E" stroke="#3E4139"/>
<circle id="Ellipse 1" cx="90" cy="190" r="2.5" stroke="#816A57"/>
<circle id="Ellipse 4" cx="90" cy="173" r="2.5" stroke="#816A57"/>
<circle id="Ellipse 5" cx="90" cy="183" r="2.5" stroke="#816A57"/>
<circle id="Ellipse 6" cx="84" cy="272" r="2.5" stroke="#816A57"/>
<circle id="Ellipse 7" cx="84" cy="289" r="2.5" stroke="#816A57"/>
<circle id="Ellipse 8" cx="84" cy="68" r="2.5" stroke="#816A57"/>
<circle id="Ellipse 9" cx="84" cy="85" r="2.5" stroke="#816A57"/>
<circle id="Ellipse 15" cx="84" cy="103" r="2.5" stroke="#816A57"/>
<circle id="Ellipse 16" cx="84" cy="119" r="2.5" stroke="#816A57"/>
<circle id="Ellipse 10" cx="142" cy="94" r="2.5" stroke="#816A57"/>
<circle id="Ellipse 11" cx="126" cy="160" r="2.5" stroke="#816A57"/>
<circle id="Ellipse 12" cx="132" cy="264" r="2.5" stroke="#816A57"/>
<circle id="Ellipse 13" cx="84" cy="238" r="2.5" stroke="#816A57"/>
<circle id="Ellipse 17" cx="111" cy="298" r="2.5" stroke="#816A57"/>
<circle id="Ellipse 14" cx="84" cy="255" r="2.5" stroke="#816A57"/>
<circle id="Ellipse 3" cx="90" cy="166" r="2.5" stroke="#816A57"/>
<circle id="Ellipse 2" cx="111" cy="196" r="2.5" stroke="#816A57"/>
<rect id="Rectangle 13" x="56" y="238" width="21" height="11" rx="2" fill="#816A57"/>
<rect id="Rectangle 14" x="56" y="252" width="21" height="11" rx="2" fill="#816A57"/>
<rect id="Rectangle 15" x="56" y="266" width="21" height="11" rx="2" fill="#816A57"/>
<rect id="Rectangle 16" x="56" y="280" width="21" height="11" rx="2" fill="#816A57"/>
<rect id="Rectangle 17" x="56" y="238" width="21" height="11" rx="2" fill="#816A57"/>
<rect id="Rectangle 18" x="56" y="252" width="21" height="11" rx="2" fill="#816A57"/>
<rect id="Rectangle 19" x="56" y="266" width="21" height="11" rx="2" fill="#816A57"/>
<rect id="Rectangle 20" x="56" y="280" width="21" height="11" rx="2" fill="#816A57"/>
<rect id="Rectangle 21" x="56" y="294" width="21" height="11" rx="2" fill="#816A57"/>
<rect id="Rectangle 22" x="56" y="308" width="21" height="11" rx="2" fill="#816A57"/>
<rect id="Rectangle 23" x="56" y="137" width="21" height="11" rx="2" fill="#816A57"/>
<rect id="Rectangle 24" x="56" y="151" width="21" height="11" rx="2" fill="#816A57"/>
<rect id="Rectangle 25" x="56" y="165" width="21" height="11" rx="2" fill="#816A57"/>
<rect id="Rectangle 26" x="56" y="179" width="21" height="11" rx="2" fill="#816A57"/>
<rect id="Rectangle 27" x="56" y="193" width="21" height="11" rx="2" fill="#816A57"/>
<rect id="Rectangle 28" x="56" y="207" width="21" height="11" rx="2" fill="#816A57"/>
<rect id="Rectangle 29" x="56" y="53" width="21" height="11" rx="2" fill="#816A57"/>
<rect id="Rectangle 35" x="56" y="39" width="21" height="11" rx="2" fill="#816A57"/>
<rect id="Rectangle 30" x="56" y="67" width="21" height="11" rx="2" fill="#816A57"/>
<rect id="Rectangle 31" x="56" y="81" width="21" height="11" rx="2" fill="#816A57"/>
<rect id="Rectangle 32" x="56" y="95" width="21" height="11" rx="2" fill="#816A57"/>
<rect id="Rectangle 33" x="56" y="109" width="21" height="11" rx="2" fill="#816A57"/>
<rect id="Rectangle 34" x="56" y="123" width="21" height="11" rx="2" fill="#816A57"/>
<path id="Vector 2" d="M92 185L98.5806 196H109" stroke="#816A57"/>
<path id="Vector 3" d="M92 175L99 181.5H126V162.5M86 121.5L89.5 143.5H93.5" stroke="#816A57"/>
<path id="Vector 4" d="M82 68L76 73" stroke="#816A57"/>
<path id="Vector 5" d="M84 65V49L90 41.5H92.5" stroke="#816A57"/>
</g>
<path id="Vector 6" d="M135 264.5H146.5L151.5 259V117.5L149 110H145.5M84 241V252.5M86.5 274L90 281H92.5" stroke="#816A57"/>
</g>
<path id="Title" d="M7.30332 4.8C7.34332 4.96 7.36332 5.16 7.36332 5.4C7.36332 5.63 7.34332 5.83 7.30332 6C7.34332 6.16 7.36332 6.36 7.36332 6.6C7.36332 6.83 7.34332 7.03 7.30332 7.2C7.34332 7.36 7.36332 7.56 7.36332 7.8C7.36332 8.03 7.34332 8.23 7.30332 8.4C7.34332 8.56 7.36332 8.76 7.36332 9C7.36332 9.23 7.34332 9.43 7.30332 9.6C7.34332 9.76 7.36332 9.96 7.36332 10.2C7.36332 10.43 7.34332 10.63 7.30332 10.8C7.34332 10.96 7.36332 11.16 7.36332 11.4C7.36332 11.63 7.34332 11.83 7.30332 12H6.10332C6.06332 11.83 6.04332 11.63 6.04332 11.4C6.04332 11.16 6.06332 10.96 6.10332 10.8C6.06332 10.63 6.04332 10.43 6.04332 10.2C6.04332 9.96 6.06332 9.76 6.10332 9.6C6.06332 9.43 6.04332 9.23 6.04332 9C6.04332 8.76 6.06332 8.56 6.10332 8.4C6.06332 8.23 6.04332 8.03 6.04332 7.8C6.04332 7.56 6.06332 7.36 6.10332 7.2C6.06332 7.03 6.04332 6.83 6.04332 6.6C6.04332 6.36 6.06332 6.16 6.10332 6H5.65332C5.69332 6.16 5.71332 6.36 5.71332 6.6C5.71332 6.83 5.69332 7.03 5.65332 7.2C5.69332 7.36 5.71332 7.56 5.71332 7.8C5.71332 8.03 5.69332 8.23 5.65332 8.4H5.35332C5.39332 8.56 5.41332 8.76 5.41332 9C5.41332 9.23 5.39332 9.43 5.35332 9.6C5.39332 9.76 5.41332 9.96 5.41332 10.2C5.41332 10.43 5.39332 10.63 5.35332 10.8H4.45332C4.41332 10.63 4.39332 10.43 4.39332 10.2C4.39332 9.96 4.41332 9.76 4.45332 9.6C4.41332 9.43 4.39332 9.23 4.39332 9C4.39332 8.76 4.41332 8.56 4.45332 8.4H4.15332C4.11332 8.23 4.09332 8.03 4.09332 7.8C4.09332 7.56 4.11332 7.36 4.15332 7.2C4.11332 7.03 4.09332 6.83 4.09332 6.6C4.09332 6.36 4.11332 6.16 4.15332 6H3.70332C3.74332 6.16 3.76332 6.36 3.76332 6.6C3.76332 6.83 3.74332 7.03 3.70332 7.2C3.74332 7.36 3.76332 7.56 3.76332 7.8C3.76332 8.03 3.74332 8.23 3.70332 8.4C3.74332 8.56 3.76332 8.76 3.76332 9C3.76332 9.23 3.74332 9.43 3.70332 9.6C3.74332 9.76 3.76332 9.96 3.76332 10.2C3.76332 10.43 3.74332 10.63 3.70332 10.8C3.74332 10.96 3.76332 11.16 3.76332 11.4C3.76332 11.63 3.74332 11.83 3.70332 12H2.50332C2.46332 11.83 2.44332 11.63 2.44332 11.4C2.44332 11.16 2.46332 10.96 2.50332 10.8C2.46332 10.63 2.44332 10.43 2.44332 10.2C2.44332 9.96 2.46332 9.76 2.50332 9.6C2.46332 9.43 2.44332 9.23 2.44332 9C2.44332 8.76 2.46332 8.56 2.50332 8.4C2.46332 8.23 2.44332 8.03 2.44332 7.8C2.44332 7.56 2.46332 7.36 2.50332 7.2C2.46332 7.03 2.44332 6.83 2.44332 6.6C2.44332 6.36 2.46332 6.16 2.50332 6C2.46332 5.83 2.44332 5.63 2.44332 5.4C2.44332 5.16 2.46332 4.96 2.50332 4.8C2.46332 4.63 2.44332 4.43 2.44332 4.2C2.44332 3.96 2.46332 3.76 2.50332 3.6H4.00332C4.04332 3.76 4.06332 3.96 4.06332 4.2C4.06332 4.43 4.04332 4.63 4.00332 4.8H4.45332C4.49332 4.96 4.51332 5.16 4.51332 5.4C4.51332 5.63 4.49332 5.83 4.45332 6H4.67832C4.71832 6.16 4.73832 6.36 4.73832 6.6C4.73832 6.83 4.71832 7.03 4.67832 7.2H5.12832C5.08832 7.03 5.06832 6.83 5.06832 6.6C5.06832 6.36 5.08832 6.16 5.12832 6H5.35332C5.31332 5.83 5.29332 5.63 5.29332 5.4C5.29332 5.16 5.31332 4.96 5.35332 4.8H5.80332C5.76332 4.63 5.74332 4.43 5.74332 4.2C5.74332 3.96 5.76332 3.76 5.80332 3.6H7.30332C7.34332 3.76 7.36332 3.96 7.36332 4.2C7.36332 4.43 7.34332 4.63 7.30332 4.8ZM13.3692 7.8C13.3692 8.03 13.3492 8.23 13.3092 8.4C13.3492 8.56 13.3692 8.76 13.3692 9C13.3692 9.23 13.3492 9.43 13.3092 9.6H10.1592C10.1992 9.76 10.2192 9.96 10.2192 10.2C10.2192 10.43 10.1992 10.63 10.1592 10.8H12.7092C12.7492 10.96 12.7692 11.16 12.7692 11.4C12.7692 11.63 12.7492 11.83 12.7092 12H9.70918C9.66918 11.83 9.64918 11.63 9.64918 11.4C9.64918 11.16 9.66918 10.96 9.70918 10.8H8.95918C8.91918 10.63 8.89918 10.43 8.89918 10.2C8.89918 9.96 8.91918 9.76 8.95918 9.6H8.50918C8.46918 9.43 8.44918 9.23 8.44918 9C8.44918 8.76 8.46918 8.56 8.50918 8.4H8.95918C8.91918 8.23 8.89918 8.03 8.89918 7.8C8.89918 7.56 8.91918 7.36 8.95918 7.2H9.70918C9.66918 7.03 9.64918 6.83 9.64918 6.6C9.64918 6.36 9.66918 6.16 9.70918 6H12.7092C12.7492 6.16 12.7692 6.36 12.7692 6.6C12.7692 6.83 12.7492 7.03 12.7092 7.2H13.3092C13.3492 7.36 13.3692 7.56 13.3692 7.8ZM12.1092 8.4C12.0692 8.23 12.0492 8.03 12.0492 7.8C12.0492 7.56 12.0692 7.36 12.1092 7.2H10.1592C10.1992 7.36 10.2192 7.56 10.2192 7.8C10.2192 8.03 10.1992 8.23 10.1592 8.4H12.1092ZM15.325 6.6C15.325 6.83 15.305 7.03 15.265 7.2H15.715C15.755 7.36 15.775 7.56 15.775 7.8C15.775 8.03 15.755 8.23 15.715 8.4C15.755 8.56 15.775 8.76 15.775 9C15.775 9.23 15.755 9.43 15.715 9.6C15.755 9.76 15.775 9.96 15.775 10.2C15.775 10.43 15.755 10.63 15.715 10.8C15.755 10.96 15.775 11.16 15.775 11.4C15.775 11.63 15.755 11.83 15.715 12H14.515C14.475 11.83 14.455 11.63 14.455 11.4C14.455 11.16 14.475 10.96 14.515 10.8C14.475 10.63 14.455 10.43 14.455 10.2C14.455 9.96 14.475 9.76 14.515 9.6C14.475 9.43 14.455 9.23 14.455 9C14.455 8.76 14.475 8.56 14.515 8.4C14.475 8.23 14.455 8.03 14.455 7.8C14.455 7.56 14.475 7.36 14.515 7.2C14.475 7.03 14.455 6.83 14.455 6.6C14.455 6.36 14.475 6.16 14.515 6H15.265C15.305 6.16 15.325 6.36 15.325 6.6ZM16.975 6.6C16.975 6.83 16.955 7.03 16.915 7.2H17.365C17.405 7.36 17.425 7.56 17.425 7.8C17.425 8.03 17.405 8.23 17.365 8.4C17.405 8.56 17.425 8.76 17.425 9C17.425 9.23 17.405 9.43 17.365 9.6C17.405 9.76 17.425 9.96 17.425 10.2C17.425 10.43 17.405 10.63 17.365 10.8C17.405 10.96 17.425 11.16 17.425 11.4C17.425 11.63 17.405 11.83 17.365 12H16.465C16.425 11.83 16.405 11.63 16.405 11.4C16.405 11.16 16.425 10.96 16.465 10.8C16.425 10.63 16.405 10.43 16.405 10.2C16.405 9.96 16.425 9.76 16.465 9.6C16.425 9.43 16.405 9.23 16.405 9C16.405 8.76 16.425 8.56 16.465 8.4C16.425 8.23 16.405 8.03 16.405 7.8C16.405 7.56 16.425 7.36 16.465 7.2H15.715C15.675 7.03 15.655 6.83 15.655 6.6C15.655 6.36 15.675 6.16 15.715 6H16.915C16.955 6.16 16.975 6.36 16.975 6.6ZM19.315 8.4C19.355 8.56 19.375 8.76 19.375 9C19.375 9.23 19.355 9.43 19.315 9.6C19.355 9.76 19.375 9.96 19.375 10.2C19.375 10.43 19.355 10.63 19.315 10.8C19.355 10.96 19.375 11.16 19.375 11.4C19.375 11.63 19.355 11.83 19.315 12H18.115C18.075 11.83 18.055 11.63 18.055 11.4C18.055 11.16 18.075 10.96 18.115 10.8C18.075 10.63 18.055 10.43 18.055 10.2C18.055 9.96 18.075 9.76 18.115 9.6C18.075 9.43 18.055 9.23 18.055 9C18.055 8.76 18.075 8.56 18.115 8.4C18.075 8.23 18.055 8.03 18.055 7.8C18.055 7.56 18.075 7.36 18.115 7.2H17.365C17.325 7.03 17.305 6.83 17.305 6.6C17.305 6.36 17.325 6.16 17.365 6H18.715C18.755 6.16 18.775 6.36 18.775 6.6C18.775 6.83 18.755 7.03 18.715 7.2H19.315C19.355 7.36 19.375 7.56 19.375 7.8C19.375 8.03 19.355 8.23 19.315 8.4ZM25.3809 9C25.3809 9.23 25.3609 9.43 25.3209 9.6H24.8709C24.9109 9.76 24.9309 9.96 24.9309 10.2C24.9309 10.43 24.9109 10.63 24.8709 10.8H24.1209C24.1609 10.96 24.1809 11.16 24.1809 11.4C24.1809 11.63 24.1609 11.83 24.1209 12H21.7209C21.6809 11.83 21.6609 11.63 21.6609 11.4C21.6609 11.16 21.6809 10.96 21.7209 10.8H20.9709C20.9309 10.63 20.9109 10.43 20.9109 10.2C20.9109 9.96 20.9309 9.76 20.9709 9.6H20.5209C20.4809 9.43 20.4609 9.23 20.4609 9C20.4609 8.76 20.4809 8.56 20.5209 8.4H20.9709C20.9309 8.23 20.9109 8.03 20.9109 7.8C20.9109 7.56 20.9309 7.36 20.9709 7.2H21.7209C21.6809 7.03 21.6609 6.83 21.6609 6.6C21.6609 6.36 21.6809 6.16 21.7209 6H24.1209C24.1609 6.16 24.1809 6.36 24.1809 6.6C24.1809 6.83 24.1609 7.03 24.1209 7.2H24.8709C24.9109 7.36 24.9309 7.56 24.9309 7.8C24.9309 8.03 24.9109 8.23 24.8709 8.4H25.3209C25.3609 8.56 25.3809 8.76 25.3809 9ZM24.1209 9.6C24.0809 9.43 24.0609 9.23 24.0609 9C24.0609 8.76 24.0809 8.56 24.1209 8.4H23.6709C23.6309 8.23 23.6109 8.03 23.6109 7.8C23.6109 7.56 23.6309 7.36 23.6709 7.2H22.1709C22.2109 7.36 22.2309 7.56 22.2309 7.8C22.2309 8.03 22.2109 8.23 22.1709 8.4H21.7209C21.7609 8.56 21.7809 8.76 21.7809 9C21.7809 9.23 21.7609 9.43 21.7209 9.6H22.1709C22.2109 9.76 22.2309 9.96 22.2309 10.2C22.2309 10.43 22.2109 10.63 22.1709 10.8H23.6709C23.6309 10.63 23.6109 10.43 23.6109 10.2C23.6109 9.96 23.6309 9.76 23.6709 9.6H24.1209ZM31.3268 7.2C31.3668 7.36 31.3868 7.56 31.3868 7.8C31.3868 8.03 31.3668 8.23 31.3268 8.4H30.1268C30.0868 8.23 30.0668 8.03 30.0668 7.8C30.0668 7.56 30.0868 7.36 30.1268 7.2H29.0768C29.1168 7.36 29.1368 7.56 29.1368 7.8C29.1368 8.03 29.1168 8.23 29.0768 8.4H28.6268C28.6668 8.56 28.6868 8.76 28.6868 9C28.6868 9.23 28.6668 9.43 28.6268 9.6C28.6668 9.76 28.6868 9.96 28.6868 10.2C28.6868 10.43 28.6668 10.63 28.6268 10.8H29.5268C29.5668 10.96 29.5868 11.16 29.5868 11.4C29.5868 11.63 29.5668 11.83 29.5268 12H26.5268C26.4868 11.83 26.4668 11.63 26.4668 11.4C26.4668 11.16 26.4868 10.96 26.5268 10.8H27.4268C27.3868 10.63 27.3668 10.43 27.3668 10.2C27.3668 9.96 27.3868 9.76 27.4268 9.6C27.3868 9.43 27.3668 9.23 27.3668 9C27.3668 8.76 27.3868 8.56 27.4268 8.4C27.3868 8.23 27.3668 8.03 27.3668 7.8C27.3668 7.56 27.3868 7.36 27.4268 7.2H26.5268C26.4868 7.03 26.4668 6.83 26.4668 6.6C26.4668 6.36 26.4868 6.16 26.5268 6H28.0268C28.0668 6.16 28.0868 6.36 28.0868 6.6C28.0868 6.83 28.0668 7.03 28.0268 7.2H28.6268C28.5868 7.03 28.5668 6.83 28.5668 6.6C28.5668 6.36 28.5868 6.16 28.6268 6H30.8768C30.9168 6.16 30.9368 6.36 30.9368 6.6C30.9368 6.83 30.9168 7.03 30.8768 7.2H31.3268ZM34.3326 4.8C34.2926 4.63 34.2726 4.43 34.2726 4.2C34.2726 3.96 34.2926 3.76 34.3326 3.6H35.5326C35.5726 3.76 35.5926 3.96 35.5926 4.2C35.5926 4.43 35.5726 4.63 35.5326 4.8H34.3326ZM36.7326 10.8C36.7726 10.96 36.7926 11.16 36.7926 11.4C36.7926 11.63 36.7726 11.83 36.7326 12H33.1326C33.0926 11.83 33.0726 11.63 33.0726 11.4C33.0726 11.16 33.0926 10.96 33.1326 10.8H34.3326C34.2926 10.63 34.2726 10.43 34.2726 10.2C34.2726 9.96 34.2926 9.76 34.3326 9.6C34.2926 9.43 34.2726 9.23 34.2726 9C34.2726 8.76 34.2926 8.56 34.3326 8.4C34.2926 8.23 34.2726 8.03 34.2726 7.8C34.2726 7.56 34.2926 7.36 34.3326 7.2H33.4326C33.3926 7.03 33.3726 6.83 33.3726 6.6C33.3726 6.36 33.3926 6.16 33.4326 6H35.5326C35.5726 6.16 35.5926 6.36 35.5926 6.6C35.5926 6.83 35.5726 7.03 35.5326 7.2C35.5726 7.36 35.5926 7.56 35.5926 7.8C35.5926 8.03 35.5726 8.23 35.5326 8.4C35.5726 8.56 35.5926 8.76 35.5926 9C35.5926 9.23 35.5726 9.43 35.5326 9.6C35.5726 9.76 35.5926 9.96 35.5926 10.2C35.5926 10.43 35.5726 10.63 35.5326 10.8H36.7326ZM43.3385 10.8C43.3785 10.96 43.3985 11.16 43.3985 11.4C43.3985 11.63 43.3785 11.83 43.3385 12H42.1385C42.0985 11.83 42.0785 11.63 42.0785 11.4C42.0785 11.16 42.0985 10.96 42.1385 10.8H41.5385C41.4985 10.63 41.4785 10.43 41.4785 10.2C41.4785 9.96 41.4985 9.76 41.5385 9.6H39.7385C39.7785 9.76 39.7985 9.96 39.7985 10.2C39.7985 10.43 39.7785 10.63 39.7385 10.8H41.5385C41.5785 10.96 41.5985 11.16 41.5985 11.4C41.5985 11.63 41.5785 11.83 41.5385 12H39.1385C39.0985 11.83 39.0785 11.63 39.0785 11.4C39.0785 11.16 39.0985 10.96 39.1385 10.8H38.5385C38.4985 10.63 38.4785 10.43 38.4785 10.2C38.4785 9.96 38.4985 9.76 38.5385 9.6H39.1385C39.0985 9.43 39.0785 9.23 39.0785 9C39.0785 8.76 39.0985 8.56 39.1385 8.4H41.5385C41.4985 8.23 41.4785 8.03 41.4785 7.8C41.4785 7.56 41.4985 7.36 41.5385 7.2H39.4385C39.3985 7.03 39.3785 6.83 39.3785 6.6C39.3785 6.36 39.3985 6.16 39.4385 6H42.1385C42.1785 6.16 42.1985 6.36 42.1985 6.6C42.1985 6.83 42.1785 7.03 42.1385 7.2H42.7385C42.7785 7.36 42.7985 7.56 42.7985 7.8C42.7985 8.03 42.7785 8.23 42.7385 8.4C42.7785 8.56 42.7985 8.76 42.7985 9C42.7985 9.23 42.7785 9.43 42.7385 9.6C42.7785 9.76 42.7985 9.96 42.7985 10.2C42.7985 10.43 42.7785 10.63 42.7385 10.8H43.3385ZM55.3502 4.8C55.3902 4.96 55.4102 5.16 55.4102 5.4C55.4102 5.63 55.3902 5.83 55.3502 6C55.3902 6.16 55.4102 6.36 55.4102 6.6C55.4102 6.83 55.3902 7.03 55.3502 7.2C55.3902 7.36 55.4102 7.56 55.4102 7.8C55.4102 8.03 55.3902 8.23 55.3502 8.4C55.3902 8.56 55.4102 8.76 55.4102 9C55.4102 9.23 55.3902 9.43 55.3502 9.6C55.3902 9.76 55.4102 9.96 55.4102 10.2C55.4102 10.43 55.3902 10.63 55.3502 10.8C55.3902 10.96 55.4102 11.16 55.4102 11.4C55.4102 11.63 55.3902 11.83 55.3502 12H54.1502C54.1102 11.83 54.0902 11.63 54.0902 11.4C54.0902 11.16 54.1102 10.96 54.1502 10.8H53.7002C53.6602 10.63 53.6402 10.43 53.6402 10.2C53.6402 9.96 53.6602 9.76 53.7002 9.6H54.1502C54.1102 9.43 54.0902 9.23 54.0902 9C54.0902 8.76 54.1102 8.56 54.1502 8.4H53.7002C53.6602 8.23 53.6402 8.03 53.6402 7.8C53.6402 7.56 53.6602 7.36 53.7002 7.2H54.1502C54.1102 7.03 54.0902 6.83 54.0902 6.6C54.0902 6.36 54.1102 6.16 54.1502 6C54.1102 5.83 54.0902 5.63 54.0902 5.4C54.0902 5.16 54.1102 4.96 54.1502 4.8C54.1102 4.63 54.0902 4.43 54.0902 4.2C54.0902 3.96 54.1102 3.76 54.1502 3.6H55.3502C55.3902 3.76 55.4102 3.96 55.4102 4.2C55.4102 4.43 55.3902 4.63 55.3502 4.8ZM53.4602 6.6C53.4602 6.83 53.4402 7.03 53.4002 7.2H51.9002C51.9402 7.36 51.9602 7.56 51.9602 7.8C51.9602 8.03 51.9402 8.23 51.9002 8.4H51.4502C51.4902 8.56 51.5102 8.76 51.5102 9C51.5102 9.23 51.4902 9.43 51.4502 9.6H51.9002C51.9402 9.76 51.9602 9.96 51.9602 10.2C51.9602 10.43 51.9402 10.63 51.9002 10.8H53.4002C53.4402 10.96 53.4602 11.16 53.4602 11.4C53.4602 11.63 53.4402 11.83 53.4002 12H51.7502C51.7102 11.83 51.6902 11.63 51.6902 11.4C51.6902 11.16 51.7102 10.96 51.7502 10.8H51.0002C50.9602 10.63 50.9402 10.43 50.9402 10.2C50.9402 9.96 50.9602 9.76 51.0002 9.6H50.5502C50.5102 9.43 50.4902 9.23 50.4902 9C50.4902 8.76 50.5102 8.56 50.5502 8.4H51.0002C50.9602 8.23 50.9402 8.03 50.9402 7.8C50.9402 7.56 50.9602 7.36 51.0002 7.2H51.7502C51.7102 7.03 51.6902 6.83 51.6902 6.6C51.6902 6.36 51.7102 6.16 51.7502 6H53.4002C53.4402 6.16 53.4602 6.36 53.4602 6.6ZM61.4161 7.8C61.4161 8.03 61.3961 8.23 61.3561 8.4C61.3961 8.56 61.4161 8.76 61.4161 9C61.4161 9.23 61.3961 9.43 61.3561 9.6H58.2061C58.2461 9.76 58.2661 9.96 58.2661 10.2C58.2661 10.43 58.2461 10.63 58.2061 10.8H60.7561C60.7961 10.96 60.8161 11.16 60.8161 11.4C60.8161 11.63 60.7961 11.83 60.7561 12H57.7561C57.7161 11.83 57.6961 11.63 57.6961 11.4C57.6961 11.16 57.7161 10.96 57.7561 10.8H57.0061C56.9661 10.63 56.9461 10.43 56.9461 10.2C56.9461 9.96 56.9661 9.76 57.0061 9.6H56.5561C56.5161 9.43 56.4961 9.23 56.4961 9C56.4961 8.76 56.5161 8.56 56.5561 8.4H57.0061C56.9661 8.23 56.9461 8.03 56.9461 7.8C56.9461 7.56 56.9661 7.36 57.0061 7.2H57.7561C57.7161 7.03 57.6961 6.83 57.6961 6.6C57.6961 6.36 57.7161 6.16 57.7561 6H60.7561C60.7961 6.16 60.8161 6.36 60.8161 6.6C60.8161 6.83 60.7961 7.03 60.7561 7.2H61.3561C61.3961 7.36 61.4161 7.56 61.4161 7.8ZM60.1561 8.4C60.1161 8.23 60.0961 8.03 60.0961 7.8C60.0961 7.56 60.1161 7.36 60.1561 7.2H58.2061C58.2461 7.36 58.2661 7.56 58.2661 7.8C58.2661 8.03 58.2461 8.23 58.2061 8.4H60.1561ZM73.3678 10.8C73.4078 10.96 73.4278 11.16 73.4278 11.4C73.4278 11.63 73.4078 11.83 73.3678 12H72.1678C72.1278 11.83 72.1078 11.63 72.1078 11.4C72.1078 11.16 72.1278 10.96 72.1678 10.8H71.5678C71.5278 10.63 71.5078 10.43 71.5078 10.2C71.5078 9.96 71.5278 9.76 71.5678 9.6H69.7678C69.8078 9.76 69.8278 9.96 69.8278 10.2C69.8278 10.43 69.8078 10.63 69.7678 10.8H71.5678C71.6078 10.96 71.6278 11.16 71.6278 11.4C71.6278 11.63 71.6078 11.83 71.5678 12H69.1678C69.1278 11.83 69.1078 11.63 69.1078 11.4C69.1078 11.16 69.1278 10.96 69.1678 10.8H68.5678C68.5278 10.63 68.5078 10.43 68.5078 10.2C68.5078 9.96 68.5278 9.76 68.5678 9.6H69.1678C69.1278 9.43 69.1078 9.23 69.1078 9C69.1078 8.76 69.1278 8.56 69.1678 8.4H71.5678C71.5278 8.23 71.5078 8.03 71.5078 7.8C71.5078 7.56 71.5278 7.36 71.5678 7.2H69.4678C69.4278 7.03 69.4078 6.83 69.4078 6.6C69.4078 6.36 69.4278 6.16 69.4678 6H72.1678C72.2078 6.16 72.2278 6.36 72.2278 6.6C72.2278 6.83 72.2078 7.03 72.1678 7.2H72.7678C72.8078 7.36 72.8278 7.56 72.8278 7.8C72.8278 8.03 72.8078 8.23 72.7678 8.4C72.8078 8.56 72.8278 8.76 72.8278 9C72.8278 9.23 72.8078 9.43 72.7678 9.6C72.8078 9.76 72.8278 9.96 72.8278 10.2C72.8278 10.43 72.8078 10.63 72.7678 10.8H73.3678ZM79.3736 9.6C79.4136 9.76 79.4336 9.96 79.4336 10.2C79.4336 10.43 79.4136 10.63 79.3736 10.8H78.7736C78.8136 10.96 78.8336 11.16 78.8336 11.4C78.8336 11.63 78.8136 11.83 78.7736 12H75.7736C75.7336 11.83 75.7136 11.63 75.7136 11.4C75.7136 11.16 75.7336 10.96 75.7736 10.8H75.1736C75.1336 10.63 75.1136 10.43 75.1136 10.2C75.1136 9.96 75.1336 9.76 75.1736 9.6H74.5736C74.5336 9.43 74.5136 9.23 74.5136 9C74.5136 8.76 74.5336 8.56 74.5736 8.4H75.1736C75.1336 8.23 75.1136 8.03 75.1136 7.8C75.1136 7.56 75.1336 7.36 75.1736 7.2H75.7736C75.7336 7.03 75.7136 6.83 75.7136 6.6C75.7136 6.36 75.7336 6.16 75.7736 6H78.7736C78.8136 6.16 78.8336 6.36 78.8336 6.6C78.8336 6.83 78.8136 7.03 78.7736 7.2H79.3736C79.4136 7.36 79.4336 7.56 79.4336 7.8C79.4336 8.03 79.4136 8.23 79.3736 8.4H78.1736C78.1336 8.23 78.1136 8.03 78.1136 7.8C78.1136 7.56 78.1336 7.36 78.1736 7.2H76.3736C76.4136 7.36 76.4336 7.56 76.4336 7.8C76.4336 8.03 76.4136 8.23 76.3736 8.4H75.7736C75.8136 8.56 75.8336 8.76 75.8336 9C75.8336 9.23 75.8136 9.43 75.7736 9.6H76.3736C76.4136 9.76 76.4336 9.96 76.4336 10.2C76.4336 10.43 76.4136 10.63 76.3736 10.8H78.1736C78.1336 10.63 78.1136 10.43 78.1136 10.2C78.1136 9.96 78.1336 9.76 78.1736 9.6H79.3736ZM85.3795 9.6C85.4195 9.76 85.4395 9.96 85.4395 10.2C85.4395 10.43 85.4195 10.63 85.3795 10.8H84.7795C84.8195 10.96 84.8395 11.16 84.8395 11.4C84.8395 11.63 84.8195 11.83 84.7795 12H81.7795C81.7395 11.83 81.7195 11.63 81.7195 11.4C81.7195 11.16 81.7395 10.96 81.7795 10.8H81.1795C81.1395 10.63 81.1195 10.43 81.1195 10.2C81.1195 9.96 81.1395 9.76 81.1795 9.6H80.5795C80.5395 9.43 80.5195 9.23 80.5195 9C80.5195 8.76 80.5395 8.56 80.5795 8.4H81.1795C81.1395 8.23 81.1195 8.03 81.1195 7.8C81.1195 7.56 81.1395 7.36 81.1795 7.2H81.7795C81.7395 7.03 81.7195 6.83 81.7195 6.6C81.7195 6.36 81.7395 6.16 81.7795 6H84.7795C84.8195 6.16 84.8395 6.36 84.8395 6.6C84.8395 6.83 84.8195 7.03 84.7795 7.2H85.3795C85.4195 7.36 85.4395 7.56 85.4395 7.8C85.4395 8.03 85.4195 8.23 85.3795 8.4H84.1795C84.1395 8.23 84.1195 8.03 84.1195 7.8C84.1195 7.56 84.1395 7.36 84.1795 7.2H82.3795C82.4195 7.36 82.4395 7.56 82.4395 7.8C82.4395 8.03 82.4195 8.23 82.3795 8.4H81.7795C81.8195 8.56 81.8395 8.76 81.8395 9C81.8395 9.23 81.8195 9.43 81.7795 9.6H82.3795C82.4195 9.76 82.4395 9.96 82.4395 10.2C82.4395 10.43 82.4195 10.63 82.3795 10.8H84.1795C84.1395 10.63 84.1195 10.43 84.1195 10.2C84.1195 9.96 84.1395 9.76 84.1795 9.6H85.3795ZM91.4454 7.8C91.4454 8.03 91.4254 8.23 91.3854 8.4C91.4254 8.56 91.4454 8.76 91.4454 9C91.4454 9.23 91.4254 9.43 91.3854 9.6H88.2354C88.2754 9.76 88.2954 9.96 88.2954 10.2C88.2954 10.43 88.2754 10.63 88.2354 10.8H90.7854C90.8254 10.96 90.8454 11.16 90.8454 11.4C90.8454 11.63 90.8254 11.83 90.7854 12H87.7854C87.7454 11.83 87.7254 11.63 87.7254 11.4C87.7254 11.16 87.7454 10.96 87.7854 10.8H87.0354C86.9954 10.63 86.9754 10.43 86.9754 10.2C86.9754 9.96 86.9954 9.76 87.0354 9.6H86.5854C86.5454 9.43 86.5254 9.23 86.5254 9C86.5254 8.76 86.5454 8.56 86.5854 8.4H87.0354C86.9954 8.23 86.9754 8.03 86.9754 7.8C86.9754 7.56 86.9954 7.36 87.0354 7.2H87.7854C87.7454 7.03 87.7254 6.83 87.7254 6.6C87.7254 6.36 87.7454 6.16 87.7854 6H90.7854C90.8254 6.16 90.8454 6.36 90.8454 6.6C90.8454 6.83 90.8254 7.03 90.7854 7.2H91.3854C91.4254 7.36 91.4454 7.56 91.4454 7.8ZM90.1854 8.4C90.1454 8.23 90.1254 8.03 90.1254 7.8C90.1254 7.56 90.1454 7.36 90.1854 7.2H88.2354C88.2754 7.36 88.2954 7.56 88.2954 7.8C88.2954 8.03 88.2754 8.23 88.2354 8.4H90.1854ZM97.1512 10.2C97.1512 10.43 97.1312 10.63 97.0912 10.8H96.4912C96.5312 10.96 96.5512 11.16 96.5512 11.4C96.5512 11.63 96.5312 11.83 96.4912 12H93.1912C93.1512 11.83 93.1312 11.63 93.1312 11.4C93.1312 11.16 93.1512 10.96 93.1912 10.8H95.8912C95.8512 10.63 95.8312 10.43 95.8312 10.2C95.8312 9.96 95.8512 9.76 95.8912 9.6H93.4912C93.4512 9.43 93.4312 9.23 93.4312 9C93.4312 8.76 93.4512 8.56 93.4912 8.4H92.8912C92.8512 8.23 92.8312 8.03 92.8312 7.8C92.8312 7.56 92.8512 7.36 92.8912 7.2H93.4912C93.4512 7.03 93.4312 6.83 93.4312 6.6C93.4312 6.36 93.4512 6.16 93.4912 6H96.7912C96.8312 6.16 96.8512 6.36 96.8512 6.6C96.8512 6.83 96.8312 7.03 96.7912 7.2H94.0912C94.1312 7.36 94.1512 7.56 94.1512 7.8C94.1512 8.03 94.1312 8.23 94.0912 8.4H96.4912C96.5312 8.56 96.5512 8.76 96.5512 9C96.5512 9.23 96.5312 9.43 96.4912 9.6H97.0912C97.1312 9.76 97.1512 9.96 97.1512 10.2ZM103.457 9C103.457 9.23 103.437 9.43 103.397 9.6H102.947C102.987 9.76 103.007 9.96 103.007 10.2C103.007 10.43 102.987 10.63 102.947 10.8H102.197C102.237 10.96 102.257 11.16 102.257 11.4C102.257 11.63 102.237 11.83 102.197 12H99.7971C99.7571 11.83 99.7371 11.63 99.7371 11.4C99.7371 11.16 99.7571 10.96 99.7971 10.8H99.0471C99.0071 10.63 98.9871 10.43 98.9871 10.2C98.9871 9.96 99.0071 9.76 99.0471 9.6H98.5971C98.5571 9.43 98.5371 9.23 98.5371 9C98.5371 8.76 98.5571 8.56 98.5971 8.4H99.0471C99.0071 8.23 98.9871 8.03 98.9871 7.8C98.9871 7.56 99.0071 7.36 99.0471 7.2H99.7971C99.7571 7.03 99.7371 6.83 99.7371 6.6C99.7371 6.36 99.7571 6.16 99.7971 6H102.197C102.237 6.16 102.257 6.36 102.257 6.6C102.257 6.83 102.237 7.03 102.197 7.2H102.947C102.987 7.36 103.007 7.56 103.007 7.8C103.007 8.03 102.987 8.23 102.947 8.4H103.397C103.437 8.56 103.457 8.76 103.457 9ZM102.197 9.6C102.157 9.43 102.137 9.23 102.137 9C102.137 8.76 102.157 8.56 102.197 8.4H101.747C101.707 8.23 101.687 8.03 101.687 7.8C101.687 7.56 101.707 7.36 101.747 7.2H100.247C100.287 7.36 100.307 7.56 100.307 7.8C100.307 8.03 100.287 8.23 100.247 8.4H99.7971C99.8371 8.56 99.8571 8.76 99.8571 9C99.8571 9.23 99.8371 9.43 99.7971 9.6H100.247C100.287 9.76 100.307 9.96 100.307 10.2C100.307 10.43 100.287 10.63 100.247 10.8H101.747C101.707 10.63 101.687 10.43 101.687 10.2C101.687 9.96 101.707 9.76 101.747 9.6H102.197ZM115.409 10.8C115.449 10.96 115.469 11.16 115.469 11.4C115.469 11.63 115.449 11.83 115.409 12H114.209C114.169 11.83 114.149 11.63 114.149 11.4C114.149 11.16 114.169 10.96 114.209 10.8H113.609C113.569 10.63 113.549 10.43 113.549 10.2C113.549 9.96 113.569 9.76 113.609 9.6H111.809C111.849 9.76 111.869 9.96 111.869 10.2C111.869 10.43 111.849 10.63 111.809 10.8H113.609C113.649 10.96 113.669 11.16 113.669 11.4C113.669 11.63 113.649 11.83 113.609 12H111.209C111.169 11.83 111.149 11.63 111.149 11.4C111.149 11.16 111.169 10.96 111.209 10.8H110.609C110.569 10.63 110.549 10.43 110.549 10.2C110.549 9.96 110.569 9.76 110.609 9.6H111.209C111.169 9.43 111.149 9.23 111.149 9C111.149 8.76 111.169 8.56 111.209 8.4H113.609C113.569 8.23 113.549 8.03 113.549 7.8C113.549 7.56 113.569 7.36 113.609 7.2H111.509C111.469 7.03 111.449 6.83 111.449 6.6C111.449 6.36 111.469 6.16 111.509 6H114.209C114.249 6.16 114.269 6.36 114.269 6.6C114.269 6.83 114.249 7.03 114.209 7.2H114.809C114.849 7.36 114.869 7.56 114.869 7.8C114.869 8.03 114.849 8.23 114.809 8.4C114.849 8.56 114.869 8.76 114.869 9C114.869 9.23 114.849 9.43 114.809 9.6C114.849 9.76 114.869 9.96 114.869 10.2C114.869 10.43 114.849 10.63 114.809 10.8H115.409ZM120.815 10.8C120.855 10.96 120.875 11.16 120.875 11.4C120.875 11.63 120.855 11.83 120.815 12H117.215C117.175 11.83 117.155 11.63 117.155 11.4C117.155 11.16 117.175 10.96 117.215 10.8H118.415C118.375 10.63 118.355 10.43 118.355 10.2C118.355 9.96 118.375 9.76 118.415 9.6C118.375 9.43 118.355 9.23 118.355 9C118.355 8.76 118.375 8.56 118.415 8.4C118.375 8.23 118.355 8.03 118.355 7.8C118.355 7.56 118.375 7.36 118.415 7.2C118.375 7.03 118.355 6.83 118.355 6.6C118.355 6.36 118.375 6.16 118.415 6C118.375 5.83 118.355 5.63 118.355 5.4C118.355 5.16 118.375 4.96 118.415 4.8H117.515C117.475 4.63 117.455 4.43 117.455 4.2C117.455 3.96 117.475 3.76 117.515 3.6H119.615C119.655 3.76 119.675 3.96 119.675 4.2C119.675 4.43 119.655 4.63 119.615 4.8C119.655 4.96 119.675 5.16 119.675 5.4C119.675 5.63 119.655 5.83 119.615 6C119.655 6.16 119.675 6.36 119.675 6.6C119.675 6.83 119.655 7.03 119.615 7.2C119.655 7.36 119.675 7.56 119.675 7.8C119.675 8.03 119.655 8.23 119.615 8.4C119.655 8.56 119.675 8.76 119.675 9C119.675 9.23 119.655 9.43 119.615 9.6C119.655 9.76 119.675 9.96 119.675 10.2C119.675 10.43 119.655 10.63 119.615 10.8H120.815ZM127.481 7.8C127.481 8.03 127.461 8.23 127.421 8.4C127.461 8.56 127.481 8.76 127.481 9C127.481 9.23 127.461 9.43 127.421 9.6H124.271C124.311 9.76 124.331 9.96 124.331 10.2C124.331 10.43 124.311 10.63 124.271 10.8H126.821C126.861 10.96 126.881 11.16 126.881 11.4C126.881 11.63 126.861 11.83 126.821 12H123.821C123.781 11.83 123.761 11.63 123.761 11.4C123.761 11.16 123.781 10.96 123.821 10.8H123.071C123.031 10.63 123.011 10.43 123.011 10.2C123.011 9.96 123.031 9.76 123.071 9.6H122.621C122.581 9.43 122.561 9.23 122.561 9C122.561 8.76 122.581 8.56 122.621 8.4H123.071C123.031 8.23 123.011 8.03 123.011 7.8C123.011 7.56 123.031 7.36 123.071 7.2H123.821C123.781 7.03 123.761 6.83 123.761 6.6C123.761 6.36 123.781 6.16 123.821 6H126.821C126.861 6.16 126.881 6.36 126.881 6.6C126.881 6.83 126.861 7.03 126.821 7.2H127.421C127.461 7.36 127.481 7.56 127.481 7.8ZM126.221 8.4C126.181 8.23 126.161 8.03 126.161 7.8C126.161 7.56 126.181 7.36 126.221 7.2H124.271C124.311 7.36 124.331 7.56 124.331 7.8C124.331 8.03 124.311 8.23 124.271 8.4H126.221ZM133.426 10.8C133.466 10.96 133.486 11.16 133.486 11.4C133.486 11.63 133.466 11.83 133.426 12H132.226C132.186 11.83 132.166 11.63 132.166 11.4C132.166 11.16 132.186 10.96 132.226 10.8H131.626C131.586 10.63 131.566 10.43 131.566 10.2C131.566 9.96 131.586 9.76 131.626 9.6H129.826C129.866 9.76 129.886 9.96 129.886 10.2C129.886 10.43 129.866 10.63 129.826 10.8H131.626C131.666 10.96 131.686 11.16 131.686 11.4C131.686 11.63 131.666 11.83 131.626 12H129.226C129.186 11.83 129.166 11.63 129.166 11.4C129.166 11.16 129.186 10.96 129.226 10.8H128.626C128.586 10.63 128.566 10.43 128.566 10.2C128.566 9.96 128.586 9.76 128.626 9.6H129.226C129.186 9.43 129.166 9.23 129.166 9C129.166 8.76 129.186 8.56 129.226 8.4H131.626C131.586 8.23 131.566 8.03 131.566 7.8C131.566 7.56 131.586 7.36 131.626 7.2H129.526C129.486 7.03 129.466 6.83 129.466 6.6C129.466 6.36 129.486 6.16 129.526 6H132.226C132.266 6.16 132.286 6.36 132.286 6.6C132.286 6.83 132.266 7.03 132.226 7.2H132.826C132.866 7.36 132.886 7.56 132.886 7.8C132.886 8.03 132.866 8.23 132.826 8.4C132.866 8.56 132.886 8.76 132.886 9C132.886 9.23 132.866 9.43 132.826 9.6C132.866 9.76 132.886 9.96 132.886 10.2C132.886 10.43 132.866 10.63 132.826 10.8H133.426ZM138.832 10.8C138.872 10.96 138.892 11.16 138.892 11.4C138.892 11.63 138.872 11.83 138.832 12H136.432C136.392 11.83 136.372 11.63 136.372 11.4C136.372 11.16 136.392 10.96 136.432 10.8H135.832C135.792 10.63 135.772 10.43 135.772 10.2C135.772 9.96 135.792 9.76 135.832 9.6C135.792 9.43 135.772 9.23 135.772 9C135.772 8.76 135.792 8.56 135.832 8.4C135.792 8.23 135.772 8.03 135.772 7.8C135.772 7.56 135.792 7.36 135.832 7.2H134.632C134.592 7.03 134.572 6.83 134.572 6.6C134.572 6.36 134.592 6.16 134.632 6H135.832C135.792 5.83 135.772 5.63 135.772 5.4C135.772 5.16 135.792 4.96 135.832 4.8C135.792 4.63 135.772 4.43 135.772 4.2C135.772 3.96 135.792 3.76 135.832 3.6H137.032C137.072 3.76 137.092 3.96 137.092 4.2C137.092 4.43 137.072 4.63 137.032 4.8C137.072 4.96 137.092 5.16 137.092 5.4C137.092 5.63 137.072 5.83 137.032 6H138.832C138.872 6.16 138.892 6.36 138.892 6.6C138.892 6.83 138.872 7.03 138.832 7.2H137.032C137.072 7.36 137.092 7.56 137.092 7.8C137.092 8.03 137.072 8.23 137.032 8.4C137.072 8.56 137.092 8.76 137.092 9C137.092 9.23 137.072 9.43 137.032 9.6C137.072 9.76 137.092 9.96 137.092 10.2C137.092 10.43 137.072 10.63 137.032 10.8H138.832ZM145.498 9C145.498 9.23 145.478 9.43 145.438 9.6H144.988C145.028 9.76 145.048 9.96 145.048 10.2C145.048 10.43 145.028 10.63 144.988 10.8H144.238C144.278 10.96 144.298 11.16 144.298 11.4C144.298 11.63 144.278 11.83 144.238 12H141.838C141.798 11.83 141.778 11.63 141.778 11.4C141.778 11.16 141.798 10.96 141.838 10.8H141.088C141.048 10.63 141.028 10.43 141.028 10.2C141.028 9.96 141.048 9.76 141.088 9.6H140.638C140.598 9.43 140.578 9.23 140.578 9C140.578 8.76 140.598 8.56 140.638 8.4H141.088C141.048 8.23 141.028 8.03 141.028 7.8C141.028 7.56 141.048 7.36 141.088 7.2H141.838C141.798 7.03 141.778 6.83 141.778 6.6C141.778 6.36 141.798 6.16 141.838 6H144.238C144.278 6.16 144.298 6.36 144.298 6.6C144.298 6.83 144.278 7.03 144.238 7.2H144.988C145.028 7.36 145.048 7.56 145.048 7.8C145.048 8.03 145.028 8.23 144.988 8.4H145.438C145.478 8.56 145.498 8.76 145.498 9ZM144.238 9.6C144.198 9.43 144.178 9.23 144.178 9C144.178 8.76 144.198 8.56 144.238 8.4H143.788C143.748 8.23 143.728 8.03 143.728 7.8C143.728 7.56 143.748 7.36 143.788 7.2H142.288C142.328 7.36 142.348 7.56 142.348 7.8C142.348 8.03 142.328 8.23 142.288 8.4H141.838C141.878 8.56 141.898 8.76 141.898 9C141.898 9.23 141.878 9.43 141.838 9.6H142.288C142.328 9.76 142.348 9.96 142.348 10.2C142.348 10.43 142.328 10.63 142.288 10.8H143.788C143.748 10.63 143.728 10.43 143.728 10.2C143.728 9.96 143.748 9.76 143.788 9.6H144.238ZM151.444 7.2C151.484 7.36 151.504 7.56 151.504 7.8C151.504 8.03 151.484 8.23 151.444 8.4H150.244C150.204 8.23 150.184 8.03 150.184 7.8C150.184 7.56 150.204 7.36 150.244 7.2H149.194C149.234 7.36 149.254 7.56 149.254 7.8C149.254 8.03 149.234 8.23 149.194 8.4H148.744C148.784 8.56 148.804 8.76 148.804 9C148.804 9.23 148.784 9.43 148.744 9.6C148.784 9.76 148.804 9.96 148.804 10.2C148.804 10.43 148.784 10.63 148.744 10.8H149.644C149.684 10.96 149.704 11.16 149.704 11.4C149.704 11.63 149.684 11.83 149.644 12H146.644C146.604 11.83 146.584 11.63 146.584 11.4C146.584 11.16 146.604 10.96 146.644 10.8H147.544C147.504 10.63 147.484 10.43 147.484 10.2C147.484 9.96 147.504 9.76 147.544 9.6C147.504 9.43 147.484 9.23 147.484 9C147.484 8.76 147.504 8.56 147.544 8.4C147.504 8.23 147.484 8.03 147.484 7.8C147.484 7.56 147.504 7.36 147.544 7.2H146.644C146.604 7.03 146.584 6.83 146.584 6.6C146.584 6.36 146.604 6.16 146.644 6H148.144C148.184 6.16 148.204 6.36 148.204 6.6C148.204 6.83 148.184 7.03 148.144 7.2H148.744C148.704 7.03 148.684 6.83 148.684 6.6C148.684 6.36 148.704 6.16 148.744 6H150.994C151.034 6.16 151.054 6.36 151.054 6.6C151.054 6.83 151.034 7.03 150.994 7.2H151.444ZM154.45 4.8C154.41 4.63 154.39 4.43 154.39 4.2C154.39 3.96 154.41 3.76 154.45 3.6H155.65C155.69 3.76 155.71 3.96 155.71 4.2C155.71 4.43 155.69 4.63 155.65 4.8H154.45ZM156.85 10.8C156.89 10.96 156.91 11.16 156.91 11.4C156.91 11.63 156.89 11.83 156.85 12H153.25C153.21 11.83 153.19 11.63 153.19 11.4C153.19 11.16 153.21 10.96 153.25 10.8H154.45C154.41 10.63 154.39 10.43 154.39 10.2C154.39 9.96 154.41 9.76 154.45 9.6C154.41 9.43 154.39 9.23 154.39 9C154.39 8.76 154.41 8.56 154.45 8.4C154.41 8.23 154.39 8.03 154.39 7.8C154.39 7.56 154.41 7.36 154.45 7.2H153.55C153.51 7.03 153.49 6.83 153.49 6.6C153.49 6.36 153.51 6.16 153.55 6H155.65C155.69 6.16 155.71 6.36 155.71 6.6C155.71 6.83 155.69 7.03 155.65 7.2C155.69 7.36 155.71 7.56 155.71 7.8C155.71 8.03 155.69 8.23 155.65 8.4C155.69 8.56 155.71 8.76 155.71 9C155.71 9.23 155.69 9.43 155.65 9.6C155.69 9.76 155.71 9.96 155.71 10.2C155.71 10.43 155.69 10.63 155.65 10.8H156.85ZM163.516 9C163.516 9.23 163.496 9.43 163.456 9.6H163.006C163.046 9.76 163.066 9.96 163.066 10.2C163.066 10.43 163.046 10.63 163.006 10.8H162.256C162.296 10.96 162.316 11.16 162.316 11.4C162.316 11.63 162.296 11.83 162.256 12H159.856C159.816 11.83 159.796 11.63 159.796 11.4C159.796 11.16 159.816 10.96 159.856 10.8H159.106C159.066 10.63 159.046 10.43 159.046 10.2C159.046 9.96 159.066 9.76 159.106 9.6H158.656C158.616 9.43 158.596 9.23 158.596 9C158.596 8.76 158.616 8.56 158.656 8.4H159.106C159.066 8.23 159.046 8.03 159.046 7.8C159.046 7.56 159.066 7.36 159.106 7.2H159.856C159.816 7.03 159.796 6.83 159.796 6.6C159.796 6.36 159.816 6.16 159.856 6H162.256C162.296 6.16 162.316 6.36 162.316 6.6C162.316 6.83 162.296 7.03 162.256 7.2H163.006C163.046 7.36 163.066 7.56 163.066 7.8C163.066 8.03 163.046 8.23 163.006 8.4H163.456C163.496 8.56 163.516 8.76 163.516 9ZM162.256 9.6C162.216 9.43 162.196 9.23 162.196 9C162.196 8.76 162.216 8.56 162.256 8.4H161.806C161.766 8.23 161.746 8.03 161.746 7.8C161.746 7.56 161.766 7.36 161.806 7.2H160.306C160.346 7.36 160.366 7.56 160.366 7.8C160.366 8.03 160.346 8.23 160.306 8.4H159.856C159.896 8.56 159.916 8.76 159.916 9C159.916 9.23 159.896 9.43 159.856 9.6H160.306C160.346 9.76 160.366 9.96 160.366 10.2C160.366 10.43 160.346 10.63 160.306 10.8H161.806C161.766 10.63 161.746 10.43 161.746 10.2C161.746 9.96 161.766 9.76 161.806 9.6H162.256ZM174.402 3C174.402 3.23 174.382 3.43 174.342 3.6H173.592C173.552 3.43 173.532 3.23 173.532 3C173.532 2.76 173.552 2.56 173.592 2.4H174.342C174.382 2.56 174.402 2.76 174.402 3ZM173.592 10.8C173.632 10.96 173.652 11.16 173.652 11.4C173.652 11.63 173.632 11.83 173.592 12H172.842C172.802 11.83 172.782 11.63 172.782 11.4C172.782 11.16 172.802 10.96 172.842 10.8H172.467C172.427 10.63 172.407 10.43 172.407 10.2C172.407 9.96 172.427 9.76 172.467 9.6H172.017C171.977 9.43 171.957 9.23 171.957 9C171.957 8.76 171.977 8.56 172.017 8.4C171.977 8.23 171.957 8.03 171.957 7.8C171.957 7.56 171.977 7.36 172.017 7.2C171.977 7.03 171.957 6.83 171.957 6.6C171.957 6.36 171.977 6.16 172.017 6H172.467C172.427 5.83 172.407 5.63 172.407 5.4C172.407 5.16 172.427 4.96 172.467 4.8H172.842C172.802 4.63 172.782 4.43 172.782 4.2C172.782 3.96 172.802 3.76 172.842 3.6H173.592C173.632 3.76 173.652 3.96 173.652 4.2C173.652 4.43 173.632 4.63 173.592 4.8H173.217C173.257 4.96 173.277 5.16 173.277 5.4C173.277 5.63 173.257 5.83 173.217 6C173.257 6.16 173.277 6.36 173.277 6.6C173.277 6.83 173.257 7.03 173.217 7.2C173.257 7.36 173.277 7.56 173.277 7.8C173.277 8.03 173.257 8.23 173.217 8.4C173.257 8.56 173.277 8.76 173.277 9C173.277 9.23 173.257 9.43 173.217 9.6C173.257 9.76 173.277 9.96 173.277 10.2C173.277 10.43 173.257 10.63 173.217 10.8H173.592ZM174.342 12C174.382 12.16 174.402 12.36 174.402 12.6C174.402 12.83 174.382 13.03 174.342 13.2H173.592C173.552 13.03 173.532 12.83 173.532 12.6C173.532 12.36 173.552 12.16 173.592 12H174.342ZM181.473 10.8C181.513 10.96 181.533 11.16 181.533 11.4C181.533 11.63 181.513 11.83 181.473 12H180.273C180.233 11.83 180.213 11.63 180.213 11.4C180.213 11.16 180.233 10.96 180.273 10.8H179.823C179.783 10.63 179.763 10.43 179.763 10.2C179.763 9.96 179.783 9.76 179.823 9.6H179.373C179.333 9.43 179.313 9.23 179.313 9C179.313 8.76 179.333 8.56 179.373 8.4H177.873C177.913 8.56 177.933 8.76 177.933 9C177.933 9.23 177.913 9.43 177.873 9.6C177.913 9.76 177.933 9.96 177.933 10.2C177.933 10.43 177.913 10.63 177.873 10.8C177.913 10.96 177.933 11.16 177.933 11.4C177.933 11.63 177.913 11.83 177.873 12H176.673C176.633 11.83 176.613 11.63 176.613 11.4C176.613 11.16 176.633 10.96 176.673 10.8C176.633 10.63 176.613 10.43 176.613 10.2C176.613 9.96 176.633 9.76 176.673 9.6C176.633 9.43 176.613 9.23 176.613 9C176.613 8.76 176.633 8.56 176.673 8.4C176.633 8.23 176.613 8.03 176.613 7.8C176.613 7.56 176.633 7.36 176.673 7.2C176.633 7.03 176.613 6.83 176.613 6.6C176.613 6.36 176.633 6.16 176.673 6C176.633 5.83 176.613 5.63 176.613 5.4C176.613 5.16 176.633 4.96 176.673 4.8C176.633 4.63 176.613 4.43 176.613 4.2C176.613 3.96 176.633 3.76 176.673 3.6H180.873C180.913 3.76 180.933 3.96 180.933 4.2C180.933 4.43 180.913 4.63 180.873 4.8H181.473C181.513 4.96 181.533 5.16 181.533 5.4C181.533 5.63 181.513 5.83 181.473 6H181.173C181.213 6.16 181.233 6.36 181.233 6.6C181.233 6.83 181.213 7.03 181.173 7.2H180.273C180.313 7.36 180.333 7.56 180.333 7.8C180.333 8.03 180.313 8.23 180.273 8.4H180.573C180.613 8.56 180.633 8.76 180.633 9C180.633 9.23 180.613 9.43 180.573 9.6H181.023C181.063 9.76 181.083 9.96 181.083 10.2C181.083 10.43 181.063 10.63 181.023 10.8H181.473ZM179.973 7.2C179.933 7.03 179.913 6.83 179.913 6.6C179.913 6.36 179.933 6.16 179.973 6C179.933 5.83 179.913 5.63 179.913 5.4C179.913 5.16 179.933 4.96 179.973 4.8H177.873C177.913 4.96 177.933 5.16 177.933 5.4C177.933 5.63 177.913 5.83 177.873 6C177.913 6.16 177.933 6.36 177.933 6.6C177.933 6.83 177.913 7.03 177.873 7.2H179.973ZM187.539 10.2C187.539 10.43 187.519 10.63 187.479 10.8C187.519 10.96 187.539 11.16 187.539 11.4C187.539 11.63 187.519 11.83 187.479 12H186.279C186.239 11.83 186.219 11.63 186.219 11.4C186.219 11.16 186.239 10.96 186.279 10.8C186.239 10.63 186.219 10.43 186.219 10.2C186.219 9.96 186.239 9.76 186.279 9.6H183.879C183.919 9.76 183.939 9.96 183.939 10.2C183.939 10.43 183.919 10.63 183.879 10.8C183.919 10.96 183.939 11.16 183.939 11.4C183.939 11.63 183.919 11.83 183.879 12H182.679C182.639 11.83 182.619 11.63 182.619 11.4C182.619 11.16 182.639 10.96 182.679 10.8C182.639 10.63 182.619 10.43 182.619 10.2C182.619 9.96 182.639 9.76 182.679 9.6H183.129C183.089 9.43 183.069 9.23 183.069 9C183.069 8.76 183.089 8.56 183.129 8.4C183.089 8.23 183.069 8.03 183.069 7.8C183.069 7.56 183.089 7.36 183.129 7.2H183.429C183.389 7.03 183.369 6.83 183.369 6.6C183.369 6.36 183.389 6.16 183.429 6H183.879C183.839 5.83 183.819 5.63 183.819 5.4C183.819 5.16 183.839 4.96 183.879 4.8H184.179C184.139 4.63 184.119 4.43 184.119 4.2C184.119 3.96 184.139 3.76 184.179 3.6H185.979C186.019 3.76 186.039 3.96 186.039 4.2C186.039 4.43 186.019 4.63 185.979 4.8H186.279C186.319 4.96 186.339 5.16 186.339 5.4C186.339 5.63 186.319 5.83 186.279 6H186.729C186.769 6.16 186.789 6.36 186.789 6.6C186.789 6.83 186.769 7.03 186.729 7.2H187.029C187.069 7.36 187.089 7.56 187.089 7.8C187.089 8.03 187.069 8.23 187.029 8.4C187.069 8.56 187.089 8.76 187.089 9C187.089 9.23 187.069 9.43 187.029 9.6H187.479C187.519 9.76 187.539 9.96 187.539 10.2ZM185.829 8.4C185.789 8.23 185.769 8.03 185.769 7.8C185.769 7.56 185.789 7.36 185.829 7.2H185.529C185.489 7.03 185.469 6.83 185.469 6.6C185.469 6.36 185.489 6.16 185.529 6H184.629C184.669 6.16 184.689 6.36 184.689 6.6C184.689 6.83 184.669 7.03 184.629 7.2H184.329C184.369 7.36 184.389 7.56 184.389 7.8C184.389 8.03 184.369 8.23 184.329 8.4H185.829ZM193.485 4.8C193.525 4.96 193.545 5.16 193.545 5.4C193.545 5.63 193.525 5.83 193.485 6C193.525 6.16 193.545 6.36 193.545 6.6C193.545 6.83 193.525 7.03 193.485 7.2C193.525 7.36 193.545 7.56 193.545 7.8C193.545 8.03 193.525 8.23 193.485 8.4C193.525 8.56 193.545 8.76 193.545 9C193.545 9.23 193.525 9.43 193.485 9.6C193.525 9.76 193.545 9.96 193.545 10.2C193.545 10.43 193.525 10.63 193.485 10.8C193.525 10.96 193.545 11.16 193.545 11.4C193.545 11.63 193.525 11.83 193.485 12H192.285C192.245 11.83 192.225 11.63 192.225 11.4C192.225 11.16 192.245 10.96 192.285 10.8C192.245 10.63 192.225 10.43 192.225 10.2C192.225 9.96 192.245 9.76 192.285 9.6C192.245 9.43 192.225 9.23 192.225 9C192.225 8.76 192.245 8.56 192.285 8.4C192.245 8.23 192.225 8.03 192.225 7.8C192.225 7.56 192.245 7.36 192.285 7.2C192.245 7.03 192.225 6.83 192.225 6.6C192.225 6.36 192.245 6.16 192.285 6H191.835C191.875 6.16 191.895 6.36 191.895 6.6C191.895 6.83 191.875 7.03 191.835 7.2C191.875 7.36 191.895 7.56 191.895 7.8C191.895 8.03 191.875 8.23 191.835 8.4H191.535C191.575 8.56 191.595 8.76 191.595 9C191.595 9.23 191.575 9.43 191.535 9.6C191.575 9.76 191.595 9.96 191.595 10.2C191.595 10.43 191.575 10.63 191.535 10.8H190.635C190.595 10.63 190.575 10.43 190.575 10.2C190.575 9.96 190.595 9.76 190.635 9.6C190.595 9.43 190.575 9.23 190.575 9C190.575 8.76 190.595 8.56 190.635 8.4H190.335C190.295 8.23 190.275 8.03 190.275 7.8C190.275 7.56 190.295 7.36 190.335 7.2C190.295 7.03 190.275 6.83 190.275 6.6C190.275 6.36 190.295 6.16 190.335 6H189.885C189.925 6.16 189.945 6.36 189.945 6.6C189.945 6.83 189.925 7.03 189.885 7.2C189.925 7.36 189.945 7.56 189.945 7.8C189.945 8.03 189.925 8.23 189.885 8.4C189.925 8.56 189.945 8.76 189.945 9C189.945 9.23 189.925 9.43 189.885 9.6C189.925 9.76 189.945 9.96 189.945 10.2C189.945 10.43 189.925 10.63 189.885 10.8C189.925 10.96 189.945 11.16 189.945 11.4C189.945 11.63 189.925 11.83 189.885 12H188.685C188.645 11.83 188.625 11.63 188.625 11.4C188.625 11.16 188.645 10.96 188.685 10.8C188.645 10.63 188.625 10.43 188.625 10.2C188.625 9.96 188.645 9.76 188.685 9.6C188.645 9.43 188.625 9.23 188.625 9C188.625 8.76 188.645 8.56 188.685 8.4C188.645 8.23 188.625 8.03 188.625 7.8C188.625 7.56 188.645 7.36 188.685 7.2C188.645 7.03 188.625 6.83 188.625 6.6C188.625 6.36 188.645 6.16 188.685 6C188.645 5.83 188.625 5.63 188.625 5.4C188.625 5.16 188.645 4.96 188.685 4.8C188.645 4.63 188.625 4.43 188.625 4.2C188.625 3.96 188.645 3.76 188.685 3.6H190.185C190.225 3.76 190.245 3.96 190.245 4.2C190.245 4.43 190.225 4.63 190.185 4.8H190.635C190.675 4.96 190.695 5.16 190.695 5.4C190.695 5.63 190.675 5.83 190.635 6H190.86C190.9 6.16 190.92 6.36 190.92 6.6C190.92 6.83 190.9 7.03 190.86 7.2H191.31C191.27 7.03 191.25 6.83 191.25 6.6C191.25 6.36 191.27 6.16 191.31 6H191.535C191.495 5.83 191.475 5.63 191.475 5.4C191.475 5.16 191.495 4.96 191.535 4.8H191.985C191.945 4.63 191.925 4.43 191.925 4.2C191.925 3.96 191.945 3.76 191.985 3.6H193.485C193.525 3.76 193.545 3.96 193.545 4.2C193.545 4.43 193.525 4.63 193.485 4.8ZM196.566 2.4C196.606 2.56 196.626 2.76 196.626 3C196.626 3.23 196.606 3.43 196.566 3.6H195.816C195.776 3.43 195.756 3.23 195.756 3C195.756 2.76 195.776 2.56 195.816 2.4H196.566ZM198.141 7.2C198.181 7.36 198.201 7.56 198.201 7.8C198.201 8.03 198.181 8.23 198.141 8.4C198.181 8.56 198.201 8.76 198.201 9C198.201 9.23 198.181 9.43 198.141 9.6H197.691C197.731 9.76 197.751 9.96 197.751 10.2C197.751 10.43 197.731 10.63 197.691 10.8H197.316C197.356 10.96 197.376 11.16 197.376 11.4C197.376 11.63 197.356 11.83 197.316 12H196.566C196.526 11.83 196.506 11.63 196.506 11.4C196.506 11.16 196.526 10.96 196.566 10.8H196.941C196.901 10.63 196.881 10.43 196.881 10.2C196.881 9.96 196.901 9.76 196.941 9.6C196.901 9.43 196.881 9.23 196.881 9C196.881 8.76 196.901 8.56 196.941 8.4C196.901 8.23 196.881 8.03 196.881 7.8C196.881 7.56 196.901 7.36 196.941 7.2C196.901 7.03 196.881 6.83 196.881 6.6C196.881 6.36 196.901 6.16 196.941 6C196.901 5.83 196.881 5.63 196.881 5.4C196.881 5.16 196.901 4.96 196.941 4.8H196.566C196.526 4.63 196.506 4.43 196.506 4.2C196.506 3.96 196.526 3.76 196.566 3.6H197.316C197.356 3.76 197.376 3.96 197.376 4.2C197.376 4.43 197.356 4.63 197.316 4.8H197.691C197.731 4.96 197.751 5.16 197.751 5.4C197.751 5.63 197.731 5.83 197.691 6H198.141C198.181 6.16 198.201 6.36 198.201 6.6C198.201 6.83 198.181 7.03 198.141 7.2ZM195.756 12.6C195.756 12.36 195.776 12.16 195.816 12H196.566C196.606 12.16 196.626 12.36 196.626 12.6C196.626 12.83 196.606 13.03 196.566 13.2H195.816C195.776 13.03 195.756 12.83 195.756 12.6Z" fill="#F4FFE2"/>
</g>
</svg>
