<svg width="91" height="50" viewBox="0 0 91 50" fill="none" xmlns="http://www.w3.org/2000/svg">
<g filter="url(#filter0_d_112_205)">
<path d="M0 46C0 47.1046 0.895431 48 2 48H87C88.1046 48 89 47.1046 89 46V5C89 2.23858 86.7614 0 84 0H5C2.23858 0 0 2.23858 0 5V46Z" fill="#FAB16B"/>
</g>
<path d="M73 12H73.25C73.25 11.8619 73.1381 11.75 73 11.75V12ZM28 12V11.75C27.8619 11.75 27.75 11.8619 27.75 12H28ZM28 17.5L29.4434 15H26.5566L28 17.5ZM73 18H73.25V12H73H72.75V18H73ZM73 12V11.75H28V12V12.25H73V12ZM28 12H27.75V15.25H28H28.25V12H28Z" fill="#816A57"/>
<path d="M42.1186 3.24C42.1506 3.368 42.1666 3.528 42.1666 3.72C42.1666 3.904 42.1506 4.064 42.1186 4.2C42.1506 4.328 42.1666 4.488 42.1666 4.68C42.1666 4.864 42.1506 5.024 42.1186 5.16C42.1506 5.288 42.1666 5.448 42.1666 5.64C42.1666 5.824 42.1506 5.984 42.1186 6.12C42.1506 6.248 42.1666 6.408 42.1666 6.6C42.1666 6.784 42.1506 6.944 42.1186 7.08C42.1506 7.208 42.1666 7.368 42.1666 7.56C42.1666 7.744 42.1506 7.904 42.1186 8.04H41.6386C41.6706 8.168 41.6866 8.328 41.6866 8.52C41.6866 8.704 41.6706 8.864 41.6386 9H38.7586C38.7266 8.864 38.7106 8.704 38.7106 8.52C38.7106 8.328 38.7266 8.168 38.7586 8.04H38.2786C38.2466 7.904 38.2306 7.744 38.2306 7.56C38.2306 7.368 38.2466 7.208 38.2786 7.08C38.2466 6.944 38.2306 6.784 38.2306 6.6C38.2306 6.408 38.2466 6.248 38.2786 6.12C38.2466 5.984 38.2306 5.824 38.2306 5.64C38.2306 5.448 38.2466 5.288 38.2786 5.16C38.2466 5.024 38.2306 4.864 38.2306 4.68C38.2306 4.488 38.2466 4.328 38.2786 4.2C38.2466 4.064 38.2306 3.904 38.2306 3.72C38.2306 3.528 38.2466 3.368 38.2786 3.24C38.2466 3.104 38.2306 2.944 38.2306 2.76C38.2306 2.568 38.2466 2.408 38.2786 2.28H39.2386C39.2706 2.408 39.2866 2.568 39.2866 2.76C39.2866 2.944 39.2706 3.104 39.2386 3.24C39.2706 3.368 39.2866 3.528 39.2866 3.72C39.2866 3.904 39.2706 4.064 39.2386 4.2C39.2706 4.328 39.2866 4.488 39.2866 4.68C39.2866 4.864 39.2706 5.024 39.2386 5.16C39.2706 5.288 39.2866 5.448 39.2866 5.64C39.2866 5.824 39.2706 5.984 39.2386 6.12C39.2706 6.248 39.2866 6.408 39.2866 6.6C39.2866 6.784 39.2706 6.944 39.2386 7.08C39.2706 7.208 39.2866 7.368 39.2866 7.56C39.2866 7.744 39.2706 7.904 39.2386 8.04H41.1586C41.1266 7.904 41.1106 7.744 41.1106 7.56C41.1106 7.368 41.1266 7.208 41.1586 7.08C41.1266 6.944 41.1106 6.784 41.1106 6.6C41.1106 6.408 41.1266 6.248 41.1586 6.12C41.1266 5.984 41.1106 5.824 41.1106 5.64C41.1106 5.448 41.1266 5.288 41.1586 5.16C41.1266 5.024 41.1106 4.864 41.1106 4.68C41.1106 4.488 41.1266 4.328 41.1586 4.2C41.1266 4.064 41.1106 3.904 41.1106 3.72C41.1106 3.528 41.1266 3.368 41.1586 3.24C41.1266 3.104 41.1106 2.944 41.1106 2.76C41.1106 2.568 41.1266 2.408 41.1586 2.28H42.1186C42.1506 2.408 42.1666 2.568 42.1666 2.76C42.1666 2.944 42.1506 3.104 42.1186 3.24ZM46.9713 7.56C46.9713 7.744 46.9553 7.904 46.9233 8.04C46.9553 8.168 46.9713 8.328 46.9713 8.52C46.9713 8.704 46.9553 8.864 46.9233 9H45.9633C45.9313 8.864 45.9153 8.704 45.9153 8.52C45.9153 8.328 45.9313 8.168 45.9633 8.04C45.9313 7.904 45.9153 7.744 45.9153 7.56C45.9153 7.368 45.9313 7.208 45.9633 7.08H44.0433C44.0753 7.208 44.0913 7.368 44.0913 7.56C44.0913 7.744 44.0753 7.904 44.0433 8.04C44.0753 8.168 44.0913 8.328 44.0913 8.52C44.0913 8.704 44.0753 8.864 44.0433 9H43.0833C43.0513 8.864 43.0353 8.704 43.0353 8.52C43.0353 8.328 43.0513 8.168 43.0833 8.04C43.0513 7.904 43.0353 7.744 43.0353 7.56C43.0353 7.368 43.0513 7.208 43.0833 7.08H43.4433C43.4113 6.944 43.3953 6.784 43.3953 6.6C43.3953 6.408 43.4113 6.248 43.4433 6.12C43.4113 5.984 43.3953 5.824 43.3953 5.64C43.3953 5.448 43.4113 5.288 43.4433 5.16H43.6833C43.6513 5.024 43.6353 4.864 43.6353 4.68C43.6353 4.488 43.6513 4.328 43.6833 4.2H44.0433C44.0113 4.064 43.9953 3.904 43.9953 3.72C43.9953 3.528 44.0113 3.368 44.0433 3.24H44.2833C44.2513 3.104 44.2353 2.944 44.2353 2.76C44.2353 2.568 44.2513 2.408 44.2833 2.28H45.7233C45.7553 2.408 45.7713 2.568 45.7713 2.76C45.7713 2.944 45.7553 3.104 45.7233 3.24H45.9633C45.9953 3.368 46.0113 3.528 46.0113 3.72C46.0113 3.904 45.9953 4.064 45.9633 4.2H46.3233C46.3553 4.328 46.3713 4.488 46.3713 4.68C46.3713 4.864 46.3553 5.024 46.3233 5.16H46.5633C46.5953 5.288 46.6113 5.448 46.6113 5.64C46.6113 5.824 46.5953 5.984 46.5633 6.12C46.5953 6.248 46.6113 6.408 46.6113 6.6C46.6113 6.784 46.5953 6.944 46.5633 7.08H46.9233C46.9553 7.208 46.9713 7.368 46.9713 7.56ZM45.6033 6.12C45.5713 5.984 45.5553 5.824 45.5553 5.64C45.5553 5.448 45.5713 5.288 45.6033 5.16H45.3633C45.3313 5.024 45.3153 4.864 45.3153 4.68C45.3153 4.488 45.3313 4.328 45.3633 4.2H44.6433C44.6753 4.328 44.6913 4.488 44.6913 4.68C44.6913 4.864 44.6753 5.024 44.6433 5.16H44.4033C44.4353 5.288 44.4513 5.448 44.4513 5.64C44.4513 5.824 44.4353 5.984 44.4033 6.12H45.6033ZM51.728 8.04C51.76 8.168 51.776 8.328 51.776 8.52C51.776 8.704 51.76 8.864 51.728 9H48.368C48.336 8.864 48.32 8.704 48.32 8.52C48.32 8.328 48.336 8.168 48.368 8.04C48.336 7.904 48.32 7.744 48.32 7.56C48.32 7.368 48.336 7.208 48.368 7.08C48.336 6.944 48.32 6.784 48.32 6.6C48.32 6.408 48.336 6.248 48.368 6.12C48.336 5.984 48.32 5.824 48.32 5.64C48.32 5.448 48.336 5.288 48.368 5.16C48.336 5.024 48.32 4.864 48.32 4.68C48.32 4.488 48.336 4.328 48.368 4.2C48.336 4.064 48.32 3.904 48.32 3.72C48.32 3.528 48.336 3.368 48.368 3.24C48.336 3.104 48.32 2.944 48.32 2.76C48.32 2.568 48.336 2.408 48.368 2.28H49.328C49.36 2.408 49.376 2.568 49.376 2.76C49.376 2.944 49.36 3.104 49.328 3.24C49.36 3.368 49.376 3.528 49.376 3.72C49.376 3.904 49.36 4.064 49.328 4.2C49.36 4.328 49.376 4.488 49.376 4.68C49.376 4.864 49.36 5.024 49.328 5.16C49.36 5.288 49.376 5.448 49.376 5.64C49.376 5.824 49.36 5.984 49.328 6.12C49.36 6.248 49.376 6.408 49.376 6.6C49.376 6.784 49.36 6.944 49.328 7.08C49.36 7.208 49.376 7.368 49.376 7.56C49.376 7.744 49.36 7.904 49.328 8.04H51.728Z" fill="#F9F3E1"/>
<path d="M2.02271 41C2.02271 40.4477 2.47042 40 3.02271 40H29.3409C29.8932 40 30.3409 40.4477 30.3409 41V45C30.3409 45.5523 29.8932 46 29.3409 46H3.02271C2.47042 46 2.02271 45.5523 2.02271 45V41Z" fill="url(#paint0_linear_112_205)" fill-opacity="0.63" stroke="#816A57"/>
<path d="M4.13463 41.88C4.13463 41.972 4.12663 42.052 4.11063 42.12H3.51063C3.49463 42.052 3.48663 41.972 3.48663 41.88C3.48663 41.784 3.49463 41.704 3.51063 41.64H4.11063C4.12663 41.704 4.13463 41.784 4.13463 41.88ZM3.51063 44.04C3.52663 44.104 3.53463 44.184 3.53463 44.28C3.53463 44.372 3.52663 44.452 3.51063 44.52H3.21063C3.19463 44.452 3.18663 44.372 3.18663 44.28C3.18663 44.184 3.19463 44.104 3.21063 44.04H3.03063C3.01463 43.972 3.00663 43.892 3.00663 43.8C3.00663 43.704 3.01463 43.624 3.03063 43.56C3.01463 43.492 3.00663 43.412 3.00663 43.32C3.00663 43.224 3.01463 43.144 3.03063 43.08C3.01463 43.012 3.00663 42.932 3.00663 42.84C3.00663 42.744 3.01463 42.664 3.03063 42.6H3.21063C3.19463 42.532 3.18663 42.452 3.18663 42.36C3.18663 42.264 3.19463 42.184 3.21063 42.12H3.51063C3.52663 42.184 3.53463 42.264 3.53463 42.36C3.53463 42.452 3.52663 42.532 3.51063 42.6C3.52663 42.664 3.53463 42.744 3.53463 42.84C3.53463 42.932 3.52663 43.012 3.51063 43.08C3.52663 43.144 3.53463 43.224 3.53463 43.32C3.53463 43.412 3.52663 43.492 3.51063 43.56C3.52663 43.624 3.53463 43.704 3.53463 43.8C3.53463 43.892 3.52663 43.972 3.51063 44.04ZM4.59063 43.08C4.60663 43.144 4.61463 43.224 4.61463 43.32C4.61463 43.412 4.60663 43.492 4.59063 43.56C4.60663 43.624 4.61463 43.704 4.61463 43.8C4.61463 43.892 4.60663 43.972 4.59063 44.04H4.41063C4.42663 44.104 4.43463 44.184 4.43463 44.28C4.43463 44.372 4.42663 44.452 4.41063 44.52H4.11063C4.09463 44.452 4.08663 44.372 4.08663 44.28C4.08663 44.184 4.09463 44.104 4.11063 44.04C4.09463 43.972 4.08663 43.892 4.08663 43.8C4.08663 43.704 4.09463 43.624 4.11063 43.56C4.09463 43.492 4.08663 43.412 4.08663 43.32C4.08663 43.224 4.09463 43.144 4.11063 43.08C4.09463 43.012 4.08663 42.932 4.08663 42.84C4.08663 42.744 4.09463 42.664 4.11063 42.6C4.09463 42.532 4.08663 42.452 4.08663 42.36C4.08663 42.264 4.09463 42.184 4.11063 42.12H4.41063C4.42663 42.184 4.43463 42.264 4.43463 42.36C4.43463 42.452 4.42663 42.532 4.41063 42.6H4.59063C4.60663 42.664 4.61463 42.744 4.61463 42.84C4.61463 42.932 4.60663 43.012 4.59063 43.08ZM3.48663 44.76C3.48663 44.664 3.49463 44.584 3.51063 44.52H4.11063C4.12663 44.584 4.13463 44.664 4.13463 44.76C4.13463 44.852 4.12663 44.932 4.11063 45H3.51063C3.49463 44.932 3.48663 44.852 3.48663 44.76ZM7.61697 41.88C7.61697 41.972 7.60897 42.052 7.59297 42.12H6.99297C6.97697 42.052 6.96897 41.972 6.96897 41.88C6.96897 41.784 6.97697 41.704 6.99297 41.64H7.59297C7.60897 41.704 7.61697 41.784 7.61697 41.88ZM6.99297 44.04C7.00897 44.104 7.01697 44.184 7.01697 44.28C7.01697 44.372 7.00897 44.452 6.99297 44.52H6.69297C6.67697 44.452 6.66897 44.372 6.66897 44.28C6.66897 44.184 6.67697 44.104 6.69297 44.04H6.51297C6.49697 43.972 6.48897 43.892 6.48897 43.8C6.48897 43.704 6.49697 43.624 6.51297 43.56C6.49697 43.492 6.48897 43.412 6.48897 43.32C6.48897 43.224 6.49697 43.144 6.51297 43.08C6.49697 43.012 6.48897 42.932 6.48897 42.84C6.48897 42.744 6.49697 42.664 6.51297 42.6H6.69297C6.67697 42.532 6.66897 42.452 6.66897 42.36C6.66897 42.264 6.67697 42.184 6.69297 42.12H6.99297C7.00897 42.184 7.01697 42.264 7.01697 42.36C7.01697 42.452 7.00897 42.532 6.99297 42.6C7.00897 42.664 7.01697 42.744 7.01697 42.84C7.01697 42.932 7.00897 43.012 6.99297 43.08C7.00897 43.144 7.01697 43.224 7.01697 43.32C7.01697 43.412 7.00897 43.492 6.99297 43.56C7.00897 43.624 7.01697 43.704 7.01697 43.8C7.01697 43.892 7.00897 43.972 6.99297 44.04ZM8.07297 43.08C8.08897 43.144 8.09697 43.224 8.09697 43.32C8.09697 43.412 8.08897 43.492 8.07297 43.56C8.08897 43.624 8.09697 43.704 8.09697 43.8C8.09697 43.892 8.08897 43.972 8.07297 44.04H7.89297C7.90897 44.104 7.91697 44.184 7.91697 44.28C7.91697 44.372 7.90897 44.452 7.89297 44.52H7.59297C7.57697 44.452 7.56897 44.372 7.56897 44.28C7.56897 44.184 7.57697 44.104 7.59297 44.04C7.57697 43.972 7.56897 43.892 7.56897 43.8C7.56897 43.704 7.57697 43.624 7.59297 43.56C7.57697 43.492 7.56897 43.412 7.56897 43.32C7.56897 43.224 7.57697 43.144 7.59297 43.08C7.57697 43.012 7.56897 42.932 7.56897 42.84C7.56897 42.744 7.57697 42.664 7.59297 42.6C7.57697 42.532 7.56897 42.452 7.56897 42.36C7.56897 42.264 7.57697 42.184 7.59297 42.12H7.89297C7.90897 42.184 7.91697 42.264 7.91697 42.36C7.91697 42.452 7.90897 42.532 7.89297 42.6H8.07297C8.08897 42.664 8.09697 42.744 8.09697 42.84C8.09697 42.932 8.08897 43.012 8.07297 43.08ZM6.96897 44.76C6.96897 44.664 6.97697 44.584 6.99297 44.52H7.59297C7.60897 44.584 7.61697 44.664 7.61697 44.76C7.61697 44.852 7.60897 44.932 7.59297 45H6.99297C6.97697 44.932 6.96897 44.852 6.96897 44.76ZM11.0993 41.88C11.0993 41.972 11.0913 42.052 11.0753 42.12H10.4753C10.4593 42.052 10.4513 41.972 10.4513 41.88C10.4513 41.784 10.4593 41.704 10.4753 41.64H11.0753C11.0913 41.704 11.0993 41.784 11.0993 41.88ZM10.4753 44.04C10.4913 44.104 10.4993 44.184 10.4993 44.28C10.4993 44.372 10.4913 44.452 10.4753 44.52H10.1753C10.1593 44.452 10.1513 44.372 10.1513 44.28C10.1513 44.184 10.1593 44.104 10.1753 44.04H9.99531C9.97931 43.972 9.97131 43.892 9.97131 43.8C9.97131 43.704 9.97931 43.624 9.99531 43.56C9.97931 43.492 9.97131 43.412 9.97131 43.32C9.97131 43.224 9.97931 43.144 9.99531 43.08C9.97931 43.012 9.97131 42.932 9.97131 42.84C9.97131 42.744 9.97931 42.664 9.99531 42.6H10.1753C10.1593 42.532 10.1513 42.452 10.1513 42.36C10.1513 42.264 10.1593 42.184 10.1753 42.12H10.4753C10.4913 42.184 10.4993 42.264 10.4993 42.36C10.4993 42.452 10.4913 42.532 10.4753 42.6C10.4913 42.664 10.4993 42.744 10.4993 42.84C10.4993 42.932 10.4913 43.012 10.4753 43.08C10.4913 43.144 10.4993 43.224 10.4993 43.32C10.4993 43.412 10.4913 43.492 10.4753 43.56C10.4913 43.624 10.4993 43.704 10.4993 43.8C10.4993 43.892 10.4913 43.972 10.4753 44.04ZM11.5553 43.08C11.5713 43.144 11.5793 43.224 11.5793 43.32C11.5793 43.412 11.5713 43.492 11.5553 43.56C11.5713 43.624 11.5793 43.704 11.5793 43.8C11.5793 43.892 11.5713 43.972 11.5553 44.04H11.3753C11.3913 44.104 11.3993 44.184 11.3993 44.28C11.3993 44.372 11.3913 44.452 11.3753 44.52H11.0753C11.0593 44.452 11.0513 44.372 11.0513 44.28C11.0513 44.184 11.0593 44.104 11.0753 44.04C11.0593 43.972 11.0513 43.892 11.0513 43.8C11.0513 43.704 11.0593 43.624 11.0753 43.56C11.0593 43.492 11.0513 43.412 11.0513 43.32C11.0513 43.224 11.0593 43.144 11.0753 43.08C11.0593 43.012 11.0513 42.932 11.0513 42.84C11.0513 42.744 11.0593 42.664 11.0753 42.6C11.0593 42.532 11.0513 42.452 11.0513 42.36C11.0513 42.264 11.0593 42.184 11.0753 42.12H11.3753C11.3913 42.184 11.3993 42.264 11.3993 42.36C11.3993 42.452 11.3913 42.532 11.3753 42.6H11.5553C11.5713 42.664 11.5793 42.744 11.5793 42.84C11.5793 42.932 11.5713 43.012 11.5553 43.08ZM10.4513 44.76C10.4513 44.664 10.4593 44.584 10.4753 44.52H11.0753C11.0913 44.584 11.0993 44.664 11.0993 44.76C11.0993 44.852 11.0913 44.932 11.0753 45H10.4753C10.4593 44.932 10.4513 44.852 10.4513 44.76ZM14.5817 41.88C14.5817 41.972 14.5737 42.052 14.5577 42.12H13.9577C13.9417 42.052 13.9337 41.972 13.9337 41.88C13.9337 41.784 13.9417 41.704 13.9577 41.64H14.5577C14.5737 41.704 14.5817 41.784 14.5817 41.88ZM13.9577 44.04C13.9737 44.104 13.9817 44.184 13.9817 44.28C13.9817 44.372 13.9737 44.452 13.9577 44.52H13.6577C13.6417 44.452 13.6337 44.372 13.6337 44.28C13.6337 44.184 13.6417 44.104 13.6577 44.04H13.4777C13.4617 43.972 13.4537 43.892 13.4537 43.8C13.4537 43.704 13.4617 43.624 13.4777 43.56C13.4617 43.492 13.4537 43.412 13.4537 43.32C13.4537 43.224 13.4617 43.144 13.4777 43.08C13.4617 43.012 13.4537 42.932 13.4537 42.84C13.4537 42.744 13.4617 42.664 13.4777 42.6H13.6577C13.6417 42.532 13.6337 42.452 13.6337 42.36C13.6337 42.264 13.6417 42.184 13.6577 42.12H13.9577C13.9737 42.184 13.9817 42.264 13.9817 42.36C13.9817 42.452 13.9737 42.532 13.9577 42.6C13.9737 42.664 13.9817 42.744 13.9817 42.84C13.9817 42.932 13.9737 43.012 13.9577 43.08C13.9737 43.144 13.9817 43.224 13.9817 43.32C13.9817 43.412 13.9737 43.492 13.9577 43.56C13.9737 43.624 13.9817 43.704 13.9817 43.8C13.9817 43.892 13.9737 43.972 13.9577 44.04ZM15.0377 43.08C15.0537 43.144 15.0617 43.224 15.0617 43.32C15.0617 43.412 15.0537 43.492 15.0377 43.56C15.0537 43.624 15.0617 43.704 15.0617 43.8C15.0617 43.892 15.0537 43.972 15.0377 44.04H14.8577C14.8737 44.104 14.8817 44.184 14.8817 44.28C14.8817 44.372 14.8737 44.452 14.8577 44.52H14.5577C14.5417 44.452 14.5337 44.372 14.5337 44.28C14.5337 44.184 14.5417 44.104 14.5577 44.04C14.5417 43.972 14.5337 43.892 14.5337 43.8C14.5337 43.704 14.5417 43.624 14.5577 43.56C14.5417 43.492 14.5337 43.412 14.5337 43.32C14.5337 43.224 14.5417 43.144 14.5577 43.08C14.5417 43.012 14.5337 42.932 14.5337 42.84C14.5337 42.744 14.5417 42.664 14.5577 42.6C14.5417 42.532 14.5337 42.452 14.5337 42.36C14.5337 42.264 14.5417 42.184 14.5577 42.12H14.8577C14.8737 42.184 14.8817 42.264 14.8817 42.36C14.8817 42.452 14.8737 42.532 14.8577 42.6H15.0377C15.0537 42.664 15.0617 42.744 15.0617 42.84C15.0617 42.932 15.0537 43.012 15.0377 43.08ZM13.9337 44.76C13.9337 44.664 13.9417 44.584 13.9577 44.52H14.5577C14.5737 44.584 14.5817 44.664 14.5817 44.76C14.5817 44.852 14.5737 44.932 14.5577 45H13.9577C13.9417 44.932 13.9337 44.852 13.9337 44.76ZM18.064 41.88C18.064 41.972 18.056 42.052 18.04 42.12H17.44C17.424 42.052 17.416 41.972 17.416 41.88C17.416 41.784 17.424 41.704 17.44 41.64H18.04C18.056 41.704 18.064 41.784 18.064 41.88ZM17.44 44.04C17.456 44.104 17.464 44.184 17.464 44.28C17.464 44.372 17.456 44.452 17.44 44.52H17.14C17.124 44.452 17.116 44.372 17.116 44.28C17.116 44.184 17.124 44.104 17.14 44.04H16.96C16.944 43.972 16.936 43.892 16.936 43.8C16.936 43.704 16.944 43.624 16.96 43.56C16.944 43.492 16.936 43.412 16.936 43.32C16.936 43.224 16.944 43.144 16.96 43.08C16.944 43.012 16.936 42.932 16.936 42.84C16.936 42.744 16.944 42.664 16.96 42.6H17.14C17.124 42.532 17.116 42.452 17.116 42.36C17.116 42.264 17.124 42.184 17.14 42.12H17.44C17.456 42.184 17.464 42.264 17.464 42.36C17.464 42.452 17.456 42.532 17.44 42.6C17.456 42.664 17.464 42.744 17.464 42.84C17.464 42.932 17.456 43.012 17.44 43.08C17.456 43.144 17.464 43.224 17.464 43.32C17.464 43.412 17.456 43.492 17.44 43.56C17.456 43.624 17.464 43.704 17.464 43.8C17.464 43.892 17.456 43.972 17.44 44.04ZM18.52 43.08C18.536 43.144 18.544 43.224 18.544 43.32C18.544 43.412 18.536 43.492 18.52 43.56C18.536 43.624 18.544 43.704 18.544 43.8C18.544 43.892 18.536 43.972 18.52 44.04H18.34C18.356 44.104 18.364 44.184 18.364 44.28C18.364 44.372 18.356 44.452 18.34 44.52H18.04C18.024 44.452 18.016 44.372 18.016 44.28C18.016 44.184 18.024 44.104 18.04 44.04C18.024 43.972 18.016 43.892 18.016 43.8C18.016 43.704 18.024 43.624 18.04 43.56C18.024 43.492 18.016 43.412 18.016 43.32C18.016 43.224 18.024 43.144 18.04 43.08C18.024 43.012 18.016 42.932 18.016 42.84C18.016 42.744 18.024 42.664 18.04 42.6C18.024 42.532 18.016 42.452 18.016 42.36C18.016 42.264 18.024 42.184 18.04 42.12H18.34C18.356 42.184 18.364 42.264 18.364 42.36C18.364 42.452 18.356 42.532 18.34 42.6H18.52C18.536 42.664 18.544 42.744 18.544 42.84C18.544 42.932 18.536 43.012 18.52 43.08ZM17.416 44.76C17.416 44.664 17.424 44.584 17.44 44.52H18.04C18.056 44.584 18.064 44.664 18.064 44.76C18.064 44.852 18.056 44.932 18.04 45H17.44C17.424 44.932 17.416 44.852 17.416 44.76ZM21.5463 41.88C21.5463 41.972 21.5383 42.052 21.5223 42.12H20.9223C20.9063 42.052 20.8983 41.972 20.8983 41.88C20.8983 41.784 20.9063 41.704 20.9223 41.64H21.5223C21.5383 41.704 21.5463 41.784 21.5463 41.88ZM20.9223 44.04C20.9383 44.104 20.9463 44.184 20.9463 44.28C20.9463 44.372 20.9383 44.452 20.9223 44.52H20.6223C20.6063 44.452 20.5983 44.372 20.5983 44.28C20.5983 44.184 20.6063 44.104 20.6223 44.04H20.4423C20.4263 43.972 20.4183 43.892 20.4183 43.8C20.4183 43.704 20.4263 43.624 20.4423 43.56C20.4263 43.492 20.4183 43.412 20.4183 43.32C20.4183 43.224 20.4263 43.144 20.4423 43.08C20.4263 43.012 20.4183 42.932 20.4183 42.84C20.4183 42.744 20.4263 42.664 20.4423 42.6H20.6223C20.6063 42.532 20.5983 42.452 20.5983 42.36C20.5983 42.264 20.6063 42.184 20.6223 42.12H20.9223C20.9383 42.184 20.9463 42.264 20.9463 42.36C20.9463 42.452 20.9383 42.532 20.9223 42.6C20.9383 42.664 20.9463 42.744 20.9463 42.84C20.9463 42.932 20.9383 43.012 20.9223 43.08C20.9383 43.144 20.9463 43.224 20.9463 43.32C20.9463 43.412 20.9383 43.492 20.9223 43.56C20.9383 43.624 20.9463 43.704 20.9463 43.8C20.9463 43.892 20.9383 43.972 20.9223 44.04ZM22.0023 43.08C22.0183 43.144 22.0263 43.224 22.0263 43.32C22.0263 43.412 22.0183 43.492 22.0023 43.56C22.0183 43.624 22.0263 43.704 22.0263 43.8C22.0263 43.892 22.0183 43.972 22.0023 44.04H21.8223C21.8383 44.104 21.8463 44.184 21.8463 44.28C21.8463 44.372 21.8383 44.452 21.8223 44.52H21.5223C21.5063 44.452 21.4983 44.372 21.4983 44.28C21.4983 44.184 21.5063 44.104 21.5223 44.04C21.5063 43.972 21.4983 43.892 21.4983 43.8C21.4983 43.704 21.5063 43.624 21.5223 43.56C21.5063 43.492 21.4983 43.412 21.4983 43.32C21.4983 43.224 21.5063 43.144 21.5223 43.08C21.5063 43.012 21.4983 42.932 21.4983 42.84C21.4983 42.744 21.5063 42.664 21.5223 42.6C21.5063 42.532 21.4983 42.452 21.4983 42.36C21.4983 42.264 21.5063 42.184 21.5223 42.12H21.8223C21.8383 42.184 21.8463 42.264 21.8463 42.36C21.8463 42.452 21.8383 42.532 21.8223 42.6H22.0023C22.0183 42.664 22.0263 42.744 22.0263 42.84C22.0263 42.932 22.0183 43.012 22.0023 43.08ZM20.8983 44.76C20.8983 44.664 20.9063 44.584 20.9223 44.52H21.5223C21.5383 44.584 21.5463 44.664 21.5463 44.76C21.5463 44.852 21.5383 44.932 21.5223 45H20.9223C20.9063 44.932 20.8983 44.852 20.8983 44.76ZM25.0287 41.88C25.0287 41.972 25.0207 42.052 25.0047 42.12H24.4047C24.3887 42.052 24.3807 41.972 24.3807 41.88C24.3807 41.784 24.3887 41.704 24.4047 41.64H25.0047C25.0207 41.704 25.0287 41.784 25.0287 41.88ZM24.4047 44.04C24.4207 44.104 24.4287 44.184 24.4287 44.28C24.4287 44.372 24.4207 44.452 24.4047 44.52H24.1047C24.0887 44.452 24.0807 44.372 24.0807 44.28C24.0807 44.184 24.0887 44.104 24.1047 44.04H23.9247C23.9087 43.972 23.9007 43.892 23.9007 43.8C23.9007 43.704 23.9087 43.624 23.9247 43.56C23.9087 43.492 23.9007 43.412 23.9007 43.32C23.9007 43.224 23.9087 43.144 23.9247 43.08C23.9087 43.012 23.9007 42.932 23.9007 42.84C23.9007 42.744 23.9087 42.664 23.9247 42.6H24.1047C24.0887 42.532 24.0807 42.452 24.0807 42.36C24.0807 42.264 24.0887 42.184 24.1047 42.12H24.4047C24.4207 42.184 24.4287 42.264 24.4287 42.36C24.4287 42.452 24.4207 42.532 24.4047 42.6C24.4207 42.664 24.4287 42.744 24.4287 42.84C24.4287 42.932 24.4207 43.012 24.4047 43.08C24.4207 43.144 24.4287 43.224 24.4287 43.32C24.4287 43.412 24.4207 43.492 24.4047 43.56C24.4207 43.624 24.4287 43.704 24.4287 43.8C24.4287 43.892 24.4207 43.972 24.4047 44.04ZM25.4847 43.08C25.5007 43.144 25.5087 43.224 25.5087 43.32C25.5087 43.412 25.5007 43.492 25.4847 43.56C25.5007 43.624 25.5087 43.704 25.5087 43.8C25.5087 43.892 25.5007 43.972 25.4847 44.04H25.3047C25.3207 44.104 25.3287 44.184 25.3287 44.28C25.3287 44.372 25.3207 44.452 25.3047 44.52H25.0047C24.9887 44.452 24.9807 44.372 24.9807 44.28C24.9807 44.184 24.9887 44.104 25.0047 44.04C24.9887 43.972 24.9807 43.892 24.9807 43.8C24.9807 43.704 24.9887 43.624 25.0047 43.56C24.9887 43.492 24.9807 43.412 24.9807 43.32C24.9807 43.224 24.9887 43.144 25.0047 43.08C24.9887 43.012 24.9807 42.932 24.9807 42.84C24.9807 42.744 24.9887 42.664 25.0047 42.6C24.9887 42.532 24.9807 42.452 24.9807 42.36C24.9807 42.264 24.9887 42.184 25.0047 42.12H25.3047C25.3207 42.184 25.3287 42.264 25.3287 42.36C25.3287 42.452 25.3207 42.532 25.3047 42.6H25.4847C25.5007 42.664 25.5087 42.744 25.5087 42.84C25.5087 42.932 25.5007 43.012 25.4847 43.08ZM24.3807 44.76C24.3807 44.664 24.3887 44.584 24.4047 44.52H25.0047C25.0207 44.584 25.0287 44.664 25.0287 44.76C25.0287 44.852 25.0207 44.932 25.0047 45H24.4047C24.3887 44.932 24.3807 44.852 24.3807 44.76ZM28.511 41.88C28.511 41.972 28.503 42.052 28.487 42.12H27.887C27.871 42.052 27.863 41.972 27.863 41.88C27.863 41.784 27.871 41.704 27.887 41.64H28.487C28.503 41.704 28.511 41.784 28.511 41.88ZM27.887 44.04C27.903 44.104 27.911 44.184 27.911 44.28C27.911 44.372 27.903 44.452 27.887 44.52H27.587C27.571 44.452 27.563 44.372 27.563 44.28C27.563 44.184 27.571 44.104 27.587 44.04H27.407C27.391 43.972 27.383 43.892 27.383 43.8C27.383 43.704 27.391 43.624 27.407 43.56C27.391 43.492 27.383 43.412 27.383 43.32C27.383 43.224 27.391 43.144 27.407 43.08C27.391 43.012 27.383 42.932 27.383 42.84C27.383 42.744 27.391 42.664 27.407 42.6H27.587C27.571 42.532 27.563 42.452 27.563 42.36C27.563 42.264 27.571 42.184 27.587 42.12H27.887C27.903 42.184 27.911 42.264 27.911 42.36C27.911 42.452 27.903 42.532 27.887 42.6C27.903 42.664 27.911 42.744 27.911 42.84C27.911 42.932 27.903 43.012 27.887 43.08C27.903 43.144 27.911 43.224 27.911 43.32C27.911 43.412 27.903 43.492 27.887 43.56C27.903 43.624 27.911 43.704 27.911 43.8C27.911 43.892 27.903 43.972 27.887 44.04ZM28.967 43.08C28.983 43.144 28.991 43.224 28.991 43.32C28.991 43.412 28.983 43.492 28.967 43.56C28.983 43.624 28.991 43.704 28.991 43.8C28.991 43.892 28.983 43.972 28.967 44.04H28.787C28.803 44.104 28.811 44.184 28.811 44.28C28.811 44.372 28.803 44.452 28.787 44.52H28.487C28.471 44.452 28.463 44.372 28.463 44.28C28.463 44.184 28.471 44.104 28.487 44.04C28.471 43.972 28.463 43.892 28.463 43.8C28.463 43.704 28.471 43.624 28.487 43.56C28.471 43.492 28.463 43.412 28.463 43.32C28.463 43.224 28.471 43.144 28.487 43.08C28.471 43.012 28.463 42.932 28.463 42.84C28.463 42.744 28.471 42.664 28.487 42.6C28.471 42.532 28.463 42.452 28.463 42.36C28.463 42.264 28.471 42.184 28.487 42.12H28.787C28.803 42.184 28.811 42.264 28.811 42.36C28.811 42.452 28.803 42.532 28.787 42.6H28.967C28.983 42.664 28.991 42.744 28.991 42.84C28.991 42.932 28.983 43.012 28.967 43.08ZM27.863 44.76C27.863 44.664 27.871 44.584 27.887 44.52H28.487C28.503 44.584 28.511 44.664 28.511 44.76C28.511 44.852 28.503 44.932 28.487 45H27.887C27.871 44.932 27.863 44.852 27.863 44.76Z" fill="#F9F3E1"/>
<path d="M2.26271 36.048V33.84H2.62671V33.476H3.75471V33.84H4.12271V34.96H3.75471V35.324H3.57871V35.648H3.93871V36.048H3.53871V35.688H3.17071V35.324H2.66671V36.048H2.26271ZM2.66671 34.92H3.71471V33.88H2.66671V34.92ZM4.97046 36.048V35.688H4.60646V34.564H4.97046V34.2H6.09846V34.564H6.46646V34.96H6.05846V34.6H5.01046V34.92H5.73846V35.324H5.01046V35.648H6.05846V35.28H6.46646V35.684H6.09846V36.048H4.97046ZM7.31421 36.772V36.412H6.95021V36.012H7.35421V36.372H8.40621V35.688H7.31421V35.324H6.95021V34.564H7.31421V34.2H8.44621V34.564H8.81021V36.412H8.44621V36.772H7.31421ZM7.35421 35.284H8.40621V34.6H7.35421V35.284ZM9.29396 36.048V34.2H9.69796V36.048H9.29396ZM9.29396 33.88V33.476H9.69796V33.88H9.29396ZM10.1807 36.048V35.648H11.6327V35.324H10.5447V34.96H10.1807V34.564H10.5447V34.2H12.0407V34.6H10.5847V34.92H11.6727V35.284H12.0407V35.688H11.6727V36.048H10.1807ZM13.2484 36.048V35.688H12.8884V34.6H12.5244V34.2H12.8884V33.476H13.2884V34.2H14.3844V34.6H13.2884V35.648H14.3444V35.284H14.7484V35.688H14.3844V36.048H13.2484ZM15.2315 36.048V34.564H15.5955V34.2H16.7235V34.564H17.0915V34.96H16.6835V34.6H15.6355V36.048H15.2315ZM17.8181 36.048V35.688H17.4541V34.564H17.8181V34.2H18.9461V34.564H19.3141V35.688H18.9461V36.048H17.8181ZM17.8581 35.648H18.9061V34.6H17.8581V35.648ZM2.98671 39.048V38.688H2.62671V37.6H2.26271V37.2H2.62671V36.476H3.02671V37.2H4.12271V37.6H3.02671V38.648H4.08271V38.284H4.48671V38.688H4.12271V39.048H2.98671ZM5.21264 39.048V38.688H4.84864V37.564H5.21264V37.2H6.34064V37.564H6.70864V37.96H6.30064V37.6H5.25264V37.92H5.98064V38.324H5.25264V38.648H6.30064V38.28H6.70864V38.684H6.34064V39.048H5.21264ZM7.19239 39.048V37.2H8.32439V37.564H8.64439V37.2H9.41639V37.564H9.77639V39.048H9.37639V37.6H8.68439V39.048H8.28439V37.6H7.59639V39.048H7.19239ZM10.2588 39.752V37.564H10.6228V37.2H11.7508V37.564H12.1188V38.688H11.7508V39.048H10.6628V39.752H10.2588ZM10.6628 38.648H11.7108V37.6H10.6628V38.648ZM12.9665 39.048V38.688H12.6025V37.564H12.9665V37.2H14.0945V37.564H14.4625V38.688H14.0945V39.048H12.9665ZM13.0065 38.648H14.0545V37.6H13.0065V38.648ZM14.9463 39.048V37.564H15.3103V37.2H16.4383V37.564H16.8063V37.96H16.3983V37.6H15.3503V39.048H14.9463ZM17.533 39.048V38.688H17.169V37.564H17.533V37.2H18.661V37.564H19.029V38.648H19.393V39.048H18.989V38.688H18.661V39.048H17.533ZM17.573 38.648H18.621V37.6H17.573V38.648ZM19.7549 39.048V36.476H20.1589V39.048H19.7549Z" fill="#516B65"/>
<path d="M2.02271 19C2.02271 18.4477 2.47042 18 3.02271 18H29.3409C29.8932 18 30.3409 18.4477 30.3409 19V23C30.3409 23.5523 29.8932 24 29.3409 24H3.02271C2.47042 24 2.02271 23.5523 2.02271 23V19Z" fill="url(#paint1_linear_112_205)" fill-opacity="0.63" stroke="#816A57"/>
<path d="M4.13463 19.88C4.13463 19.972 4.12663 20.052 4.11063 20.12H3.51063C3.49463 20.052 3.48663 19.972 3.48663 19.88C3.48663 19.784 3.49463 19.704 3.51063 19.64H4.11063C4.12663 19.704 4.13463 19.784 4.13463 19.88ZM3.51063 22.04C3.52663 22.104 3.53463 22.184 3.53463 22.28C3.53463 22.372 3.52663 22.452 3.51063 22.52H3.21063C3.19463 22.452 3.18663 22.372 3.18663 22.28C3.18663 22.184 3.19463 22.104 3.21063 22.04H3.03063C3.01463 21.972 3.00663 21.892 3.00663 21.8C3.00663 21.704 3.01463 21.624 3.03063 21.56C3.01463 21.492 3.00663 21.412 3.00663 21.32C3.00663 21.224 3.01463 21.144 3.03063 21.08C3.01463 21.012 3.00663 20.932 3.00663 20.84C3.00663 20.744 3.01463 20.664 3.03063 20.6H3.21063C3.19463 20.532 3.18663 20.452 3.18663 20.36C3.18663 20.264 3.19463 20.184 3.21063 20.12H3.51063C3.52663 20.184 3.53463 20.264 3.53463 20.36C3.53463 20.452 3.52663 20.532 3.51063 20.6C3.52663 20.664 3.53463 20.744 3.53463 20.84C3.53463 20.932 3.52663 21.012 3.51063 21.08C3.52663 21.144 3.53463 21.224 3.53463 21.32C3.53463 21.412 3.52663 21.492 3.51063 21.56C3.52663 21.624 3.53463 21.704 3.53463 21.8C3.53463 21.892 3.52663 21.972 3.51063 22.04ZM4.59063 21.08C4.60663 21.144 4.61463 21.224 4.61463 21.32C4.61463 21.412 4.60663 21.492 4.59063 21.56C4.60663 21.624 4.61463 21.704 4.61463 21.8C4.61463 21.892 4.60663 21.972 4.59063 22.04H4.41063C4.42663 22.104 4.43463 22.184 4.43463 22.28C4.43463 22.372 4.42663 22.452 4.41063 22.52H4.11063C4.09463 22.452 4.08663 22.372 4.08663 22.28C4.08663 22.184 4.09463 22.104 4.11063 22.04C4.09463 21.972 4.08663 21.892 4.08663 21.8C4.08663 21.704 4.09463 21.624 4.11063 21.56C4.09463 21.492 4.08663 21.412 4.08663 21.32C4.08663 21.224 4.09463 21.144 4.11063 21.08C4.09463 21.012 4.08663 20.932 4.08663 20.84C4.08663 20.744 4.09463 20.664 4.11063 20.6C4.09463 20.532 4.08663 20.452 4.08663 20.36C4.08663 20.264 4.09463 20.184 4.11063 20.12H4.41063C4.42663 20.184 4.43463 20.264 4.43463 20.36C4.43463 20.452 4.42663 20.532 4.41063 20.6H4.59063C4.60663 20.664 4.61463 20.744 4.61463 20.84C4.61463 20.932 4.60663 21.012 4.59063 21.08ZM3.48663 22.76C3.48663 22.664 3.49463 22.584 3.51063 22.52H4.11063C4.12663 22.584 4.13463 22.664 4.13463 22.76C4.13463 22.852 4.12663 22.932 4.11063 23H3.51063C3.49463 22.932 3.48663 22.852 3.48663 22.76ZM7.61697 19.88C7.61697 19.972 7.60897 20.052 7.59297 20.12H6.99297C6.97697 20.052 6.96897 19.972 6.96897 19.88C6.96897 19.784 6.97697 19.704 6.99297 19.64H7.59297C7.60897 19.704 7.61697 19.784 7.61697 19.88ZM6.99297 22.04C7.00897 22.104 7.01697 22.184 7.01697 22.28C7.01697 22.372 7.00897 22.452 6.99297 22.52H6.69297C6.67697 22.452 6.66897 22.372 6.66897 22.28C6.66897 22.184 6.67697 22.104 6.69297 22.04H6.51297C6.49697 21.972 6.48897 21.892 6.48897 21.8C6.48897 21.704 6.49697 21.624 6.51297 21.56C6.49697 21.492 6.48897 21.412 6.48897 21.32C6.48897 21.224 6.49697 21.144 6.51297 21.08C6.49697 21.012 6.48897 20.932 6.48897 20.84C6.48897 20.744 6.49697 20.664 6.51297 20.6H6.69297C6.67697 20.532 6.66897 20.452 6.66897 20.36C6.66897 20.264 6.67697 20.184 6.69297 20.12H6.99297C7.00897 20.184 7.01697 20.264 7.01697 20.36C7.01697 20.452 7.00897 20.532 6.99297 20.6C7.00897 20.664 7.01697 20.744 7.01697 20.84C7.01697 20.932 7.00897 21.012 6.99297 21.08C7.00897 21.144 7.01697 21.224 7.01697 21.32C7.01697 21.412 7.00897 21.492 6.99297 21.56C7.00897 21.624 7.01697 21.704 7.01697 21.8C7.01697 21.892 7.00897 21.972 6.99297 22.04ZM8.07297 21.08C8.08897 21.144 8.09697 21.224 8.09697 21.32C8.09697 21.412 8.08897 21.492 8.07297 21.56C8.08897 21.624 8.09697 21.704 8.09697 21.8C8.09697 21.892 8.08897 21.972 8.07297 22.04H7.89297C7.90897 22.104 7.91697 22.184 7.91697 22.28C7.91697 22.372 7.90897 22.452 7.89297 22.52H7.59297C7.57697 22.452 7.56897 22.372 7.56897 22.28C7.56897 22.184 7.57697 22.104 7.59297 22.04C7.57697 21.972 7.56897 21.892 7.56897 21.8C7.56897 21.704 7.57697 21.624 7.59297 21.56C7.57697 21.492 7.56897 21.412 7.56897 21.32C7.56897 21.224 7.57697 21.144 7.59297 21.08C7.57697 21.012 7.56897 20.932 7.56897 20.84C7.56897 20.744 7.57697 20.664 7.59297 20.6C7.57697 20.532 7.56897 20.452 7.56897 20.36C7.56897 20.264 7.57697 20.184 7.59297 20.12H7.89297C7.90897 20.184 7.91697 20.264 7.91697 20.36C7.91697 20.452 7.90897 20.532 7.89297 20.6H8.07297C8.08897 20.664 8.09697 20.744 8.09697 20.84C8.09697 20.932 8.08897 21.012 8.07297 21.08ZM6.96897 22.76C6.96897 22.664 6.97697 22.584 6.99297 22.52H7.59297C7.60897 22.584 7.61697 22.664 7.61697 22.76C7.61697 22.852 7.60897 22.932 7.59297 23H6.99297C6.97697 22.932 6.96897 22.852 6.96897 22.76ZM11.0993 19.88C11.0993 19.972 11.0913 20.052 11.0753 20.12H10.4753C10.4593 20.052 10.4513 19.972 10.4513 19.88C10.4513 19.784 10.4593 19.704 10.4753 19.64H11.0753C11.0913 19.704 11.0993 19.784 11.0993 19.88ZM10.4753 22.04C10.4913 22.104 10.4993 22.184 10.4993 22.28C10.4993 22.372 10.4913 22.452 10.4753 22.52H10.1753C10.1593 22.452 10.1513 22.372 10.1513 22.28C10.1513 22.184 10.1593 22.104 10.1753 22.04H9.99531C9.97931 21.972 9.97131 21.892 9.97131 21.8C9.97131 21.704 9.97931 21.624 9.99531 21.56C9.97931 21.492 9.97131 21.412 9.97131 21.32C9.97131 21.224 9.97931 21.144 9.99531 21.08C9.97931 21.012 9.97131 20.932 9.97131 20.84C9.97131 20.744 9.97931 20.664 9.99531 20.6H10.1753C10.1593 20.532 10.1513 20.452 10.1513 20.36C10.1513 20.264 10.1593 20.184 10.1753 20.12H10.4753C10.4913 20.184 10.4993 20.264 10.4993 20.36C10.4993 20.452 10.4913 20.532 10.4753 20.6C10.4913 20.664 10.4993 20.744 10.4993 20.84C10.4993 20.932 10.4913 21.012 10.4753 21.08C10.4913 21.144 10.4993 21.224 10.4993 21.32C10.4993 21.412 10.4913 21.492 10.4753 21.56C10.4913 21.624 10.4993 21.704 10.4993 21.8C10.4993 21.892 10.4913 21.972 10.4753 22.04ZM11.5553 21.08C11.5713 21.144 11.5793 21.224 11.5793 21.32C11.5793 21.412 11.5713 21.492 11.5553 21.56C11.5713 21.624 11.5793 21.704 11.5793 21.8C11.5793 21.892 11.5713 21.972 11.5553 22.04H11.3753C11.3913 22.104 11.3993 22.184 11.3993 22.28C11.3993 22.372 11.3913 22.452 11.3753 22.52H11.0753C11.0593 22.452 11.0513 22.372 11.0513 22.28C11.0513 22.184 11.0593 22.104 11.0753 22.04C11.0593 21.972 11.0513 21.892 11.0513 21.8C11.0513 21.704 11.0593 21.624 11.0753 21.56C11.0593 21.492 11.0513 21.412 11.0513 21.32C11.0513 21.224 11.0593 21.144 11.0753 21.08C11.0593 21.012 11.0513 20.932 11.0513 20.84C11.0513 20.744 11.0593 20.664 11.0753 20.6C11.0593 20.532 11.0513 20.452 11.0513 20.36C11.0513 20.264 11.0593 20.184 11.0753 20.12H11.3753C11.3913 20.184 11.3993 20.264 11.3993 20.36C11.3993 20.452 11.3913 20.532 11.3753 20.6H11.5553C11.5713 20.664 11.5793 20.744 11.5793 20.84C11.5793 20.932 11.5713 21.012 11.5553 21.08ZM10.4513 22.76C10.4513 22.664 10.4593 22.584 10.4753 22.52H11.0753C11.0913 22.584 11.0993 22.664 11.0993 22.76C11.0993 22.852 11.0913 22.932 11.0753 23H10.4753C10.4593 22.932 10.4513 22.852 10.4513 22.76ZM14.5817 19.88C14.5817 19.972 14.5737 20.052 14.5577 20.12H13.9577C13.9417 20.052 13.9337 19.972 13.9337 19.88C13.9337 19.784 13.9417 19.704 13.9577 19.64H14.5577C14.5737 19.704 14.5817 19.784 14.5817 19.88ZM13.9577 22.04C13.9737 22.104 13.9817 22.184 13.9817 22.28C13.9817 22.372 13.9737 22.452 13.9577 22.52H13.6577C13.6417 22.452 13.6337 22.372 13.6337 22.28C13.6337 22.184 13.6417 22.104 13.6577 22.04H13.4777C13.4617 21.972 13.4537 21.892 13.4537 21.8C13.4537 21.704 13.4617 21.624 13.4777 21.56C13.4617 21.492 13.4537 21.412 13.4537 21.32C13.4537 21.224 13.4617 21.144 13.4777 21.08C13.4617 21.012 13.4537 20.932 13.4537 20.84C13.4537 20.744 13.4617 20.664 13.4777 20.6H13.6577C13.6417 20.532 13.6337 20.452 13.6337 20.36C13.6337 20.264 13.6417 20.184 13.6577 20.12H13.9577C13.9737 20.184 13.9817 20.264 13.9817 20.36C13.9817 20.452 13.9737 20.532 13.9577 20.6C13.9737 20.664 13.9817 20.744 13.9817 20.84C13.9817 20.932 13.9737 21.012 13.9577 21.08C13.9737 21.144 13.9817 21.224 13.9817 21.32C13.9817 21.412 13.9737 21.492 13.9577 21.56C13.9737 21.624 13.9817 21.704 13.9817 21.8C13.9817 21.892 13.9737 21.972 13.9577 22.04ZM15.0377 21.08C15.0537 21.144 15.0617 21.224 15.0617 21.32C15.0617 21.412 15.0537 21.492 15.0377 21.56C15.0537 21.624 15.0617 21.704 15.0617 21.8C15.0617 21.892 15.0537 21.972 15.0377 22.04H14.8577C14.8737 22.104 14.8817 22.184 14.8817 22.28C14.8817 22.372 14.8737 22.452 14.8577 22.52H14.5577C14.5417 22.452 14.5337 22.372 14.5337 22.28C14.5337 22.184 14.5417 22.104 14.5577 22.04C14.5417 21.972 14.5337 21.892 14.5337 21.8C14.5337 21.704 14.5417 21.624 14.5577 21.56C14.5417 21.492 14.5337 21.412 14.5337 21.32C14.5337 21.224 14.5417 21.144 14.5577 21.08C14.5417 21.012 14.5337 20.932 14.5337 20.84C14.5337 20.744 14.5417 20.664 14.5577 20.6C14.5417 20.532 14.5337 20.452 14.5337 20.36C14.5337 20.264 14.5417 20.184 14.5577 20.12H14.8577C14.8737 20.184 14.8817 20.264 14.8817 20.36C14.8817 20.452 14.8737 20.532 14.8577 20.6H15.0377C15.0537 20.664 15.0617 20.744 15.0617 20.84C15.0617 20.932 15.0537 21.012 15.0377 21.08ZM13.9337 22.76C13.9337 22.664 13.9417 22.584 13.9577 22.52H14.5577C14.5737 22.584 14.5817 22.664 14.5817 22.76C14.5817 22.852 14.5737 22.932 14.5577 23H13.9577C13.9417 22.932 13.9337 22.852 13.9337 22.76ZM18.064 19.88C18.064 19.972 18.056 20.052 18.04 20.12H17.44C17.424 20.052 17.416 19.972 17.416 19.88C17.416 19.784 17.424 19.704 17.44 19.64H18.04C18.056 19.704 18.064 19.784 18.064 19.88ZM17.44 22.04C17.456 22.104 17.464 22.184 17.464 22.28C17.464 22.372 17.456 22.452 17.44 22.52H17.14C17.124 22.452 17.116 22.372 17.116 22.28C17.116 22.184 17.124 22.104 17.14 22.04H16.96C16.944 21.972 16.936 21.892 16.936 21.8C16.936 21.704 16.944 21.624 16.96 21.56C16.944 21.492 16.936 21.412 16.936 21.32C16.936 21.224 16.944 21.144 16.96 21.08C16.944 21.012 16.936 20.932 16.936 20.84C16.936 20.744 16.944 20.664 16.96 20.6H17.14C17.124 20.532 17.116 20.452 17.116 20.36C17.116 20.264 17.124 20.184 17.14 20.12H17.44C17.456 20.184 17.464 20.264 17.464 20.36C17.464 20.452 17.456 20.532 17.44 20.6C17.456 20.664 17.464 20.744 17.464 20.84C17.464 20.932 17.456 21.012 17.44 21.08C17.456 21.144 17.464 21.224 17.464 21.32C17.464 21.412 17.456 21.492 17.44 21.56C17.456 21.624 17.464 21.704 17.464 21.8C17.464 21.892 17.456 21.972 17.44 22.04ZM18.52 21.08C18.536 21.144 18.544 21.224 18.544 21.32C18.544 21.412 18.536 21.492 18.52 21.56C18.536 21.624 18.544 21.704 18.544 21.8C18.544 21.892 18.536 21.972 18.52 22.04H18.34C18.356 22.104 18.364 22.184 18.364 22.28C18.364 22.372 18.356 22.452 18.34 22.52H18.04C18.024 22.452 18.016 22.372 18.016 22.28C18.016 22.184 18.024 22.104 18.04 22.04C18.024 21.972 18.016 21.892 18.016 21.8C18.016 21.704 18.024 21.624 18.04 21.56C18.024 21.492 18.016 21.412 18.016 21.32C18.016 21.224 18.024 21.144 18.04 21.08C18.024 21.012 18.016 20.932 18.016 20.84C18.016 20.744 18.024 20.664 18.04 20.6C18.024 20.532 18.016 20.452 18.016 20.36C18.016 20.264 18.024 20.184 18.04 20.12H18.34C18.356 20.184 18.364 20.264 18.364 20.36C18.364 20.452 18.356 20.532 18.34 20.6H18.52C18.536 20.664 18.544 20.744 18.544 20.84C18.544 20.932 18.536 21.012 18.52 21.08ZM17.416 22.76C17.416 22.664 17.424 22.584 17.44 22.52H18.04C18.056 22.584 18.064 22.664 18.064 22.76C18.064 22.852 18.056 22.932 18.04 23H17.44C17.424 22.932 17.416 22.852 17.416 22.76ZM21.5463 19.88C21.5463 19.972 21.5383 20.052 21.5223 20.12H20.9223C20.9063 20.052 20.8983 19.972 20.8983 19.88C20.8983 19.784 20.9063 19.704 20.9223 19.64H21.5223C21.5383 19.704 21.5463 19.784 21.5463 19.88ZM20.9223 22.04C20.9383 22.104 20.9463 22.184 20.9463 22.28C20.9463 22.372 20.9383 22.452 20.9223 22.52H20.6223C20.6063 22.452 20.5983 22.372 20.5983 22.28C20.5983 22.184 20.6063 22.104 20.6223 22.04H20.4423C20.4263 21.972 20.4183 21.892 20.4183 21.8C20.4183 21.704 20.4263 21.624 20.4423 21.56C20.4263 21.492 20.4183 21.412 20.4183 21.32C20.4183 21.224 20.4263 21.144 20.4423 21.08C20.4263 21.012 20.4183 20.932 20.4183 20.84C20.4183 20.744 20.4263 20.664 20.4423 20.6H20.6223C20.6063 20.532 20.5983 20.452 20.5983 20.36C20.5983 20.264 20.6063 20.184 20.6223 20.12H20.9223C20.9383 20.184 20.9463 20.264 20.9463 20.36C20.9463 20.452 20.9383 20.532 20.9223 20.6C20.9383 20.664 20.9463 20.744 20.9463 20.84C20.9463 20.932 20.9383 21.012 20.9223 21.08C20.9383 21.144 20.9463 21.224 20.9463 21.32C20.9463 21.412 20.9383 21.492 20.9223 21.56C20.9383 21.624 20.9463 21.704 20.9463 21.8C20.9463 21.892 20.9383 21.972 20.9223 22.04ZM22.0023 21.08C22.0183 21.144 22.0263 21.224 22.0263 21.32C22.0263 21.412 22.0183 21.492 22.0023 21.56C22.0183 21.624 22.0263 21.704 22.0263 21.8C22.0263 21.892 22.0183 21.972 22.0023 22.04H21.8223C21.8383 22.104 21.8463 22.184 21.8463 22.28C21.8463 22.372 21.8383 22.452 21.8223 22.52H21.5223C21.5063 22.452 21.4983 22.372 21.4983 22.28C21.4983 22.184 21.5063 22.104 21.5223 22.04C21.5063 21.972 21.4983 21.892 21.4983 21.8C21.4983 21.704 21.5063 21.624 21.5223 21.56C21.5063 21.492 21.4983 21.412 21.4983 21.32C21.4983 21.224 21.5063 21.144 21.5223 21.08C21.5063 21.012 21.4983 20.932 21.4983 20.84C21.4983 20.744 21.5063 20.664 21.5223 20.6C21.5063 20.532 21.4983 20.452 21.4983 20.36C21.4983 20.264 21.5063 20.184 21.5223 20.12H21.8223C21.8383 20.184 21.8463 20.264 21.8463 20.36C21.8463 20.452 21.8383 20.532 21.8223 20.6H22.0023C22.0183 20.664 22.0263 20.744 22.0263 20.84C22.0263 20.932 22.0183 21.012 22.0023 21.08ZM20.8983 22.76C20.8983 22.664 20.9063 22.584 20.9223 22.52H21.5223C21.5383 22.584 21.5463 22.664 21.5463 22.76C21.5463 22.852 21.5383 22.932 21.5223 23H20.9223C20.9063 22.932 20.8983 22.852 20.8983 22.76ZM25.0287 19.88C25.0287 19.972 25.0207 20.052 25.0047 20.12H24.4047C24.3887 20.052 24.3807 19.972 24.3807 19.88C24.3807 19.784 24.3887 19.704 24.4047 19.64H25.0047C25.0207 19.704 25.0287 19.784 25.0287 19.88ZM24.4047 22.04C24.4207 22.104 24.4287 22.184 24.4287 22.28C24.4287 22.372 24.4207 22.452 24.4047 22.52H24.1047C24.0887 22.452 24.0807 22.372 24.0807 22.28C24.0807 22.184 24.0887 22.104 24.1047 22.04H23.9247C23.9087 21.972 23.9007 21.892 23.9007 21.8C23.9007 21.704 23.9087 21.624 23.9247 21.56C23.9087 21.492 23.9007 21.412 23.9007 21.32C23.9007 21.224 23.9087 21.144 23.9247 21.08C23.9087 21.012 23.9007 20.932 23.9007 20.84C23.9007 20.744 23.9087 20.664 23.9247 20.6H24.1047C24.0887 20.532 24.0807 20.452 24.0807 20.36C24.0807 20.264 24.0887 20.184 24.1047 20.12H24.4047C24.4207 20.184 24.4287 20.264 24.4287 20.36C24.4287 20.452 24.4207 20.532 24.4047 20.6C24.4207 20.664 24.4287 20.744 24.4287 20.84C24.4287 20.932 24.4207 21.012 24.4047 21.08C24.4207 21.144 24.4287 21.224 24.4287 21.32C24.4287 21.412 24.4207 21.492 24.4047 21.56C24.4207 21.624 24.4287 21.704 24.4287 21.8C24.4287 21.892 24.4207 21.972 24.4047 22.04ZM25.4847 21.08C25.5007 21.144 25.5087 21.224 25.5087 21.32C25.5087 21.412 25.5007 21.492 25.4847 21.56C25.5007 21.624 25.5087 21.704 25.5087 21.8C25.5087 21.892 25.5007 21.972 25.4847 22.04H25.3047C25.3207 22.104 25.3287 22.184 25.3287 22.28C25.3287 22.372 25.3207 22.452 25.3047 22.52H25.0047C24.9887 22.452 24.9807 22.372 24.9807 22.28C24.9807 22.184 24.9887 22.104 25.0047 22.04C24.9887 21.972 24.9807 21.892 24.9807 21.8C24.9807 21.704 24.9887 21.624 25.0047 21.56C24.9887 21.492 24.9807 21.412 24.9807 21.32C24.9807 21.224 24.9887 21.144 25.0047 21.08C24.9887 21.012 24.9807 20.932 24.9807 20.84C24.9807 20.744 24.9887 20.664 25.0047 20.6C24.9887 20.532 24.9807 20.452 24.9807 20.36C24.9807 20.264 24.9887 20.184 25.0047 20.12H25.3047C25.3207 20.184 25.3287 20.264 25.3287 20.36C25.3287 20.452 25.3207 20.532 25.3047 20.6H25.4847C25.5007 20.664 25.5087 20.744 25.5087 20.84C25.5087 20.932 25.5007 21.012 25.4847 21.08ZM24.3807 22.76C24.3807 22.664 24.3887 22.584 24.4047 22.52H25.0047C25.0207 22.584 25.0287 22.664 25.0287 22.76C25.0287 22.852 25.0207 22.932 25.0047 23H24.4047C24.3887 22.932 24.3807 22.852 24.3807 22.76ZM28.511 19.88C28.511 19.972 28.503 20.052 28.487 20.12H27.887C27.871 20.052 27.863 19.972 27.863 19.88C27.863 19.784 27.871 19.704 27.887 19.64H28.487C28.503 19.704 28.511 19.784 28.511 19.88ZM27.887 22.04C27.903 22.104 27.911 22.184 27.911 22.28C27.911 22.372 27.903 22.452 27.887 22.52H27.587C27.571 22.452 27.563 22.372 27.563 22.28C27.563 22.184 27.571 22.104 27.587 22.04H27.407C27.391 21.972 27.383 21.892 27.383 21.8C27.383 21.704 27.391 21.624 27.407 21.56C27.391 21.492 27.383 21.412 27.383 21.32C27.383 21.224 27.391 21.144 27.407 21.08C27.391 21.012 27.383 20.932 27.383 20.84C27.383 20.744 27.391 20.664 27.407 20.6H27.587C27.571 20.532 27.563 20.452 27.563 20.36C27.563 20.264 27.571 20.184 27.587 20.12H27.887C27.903 20.184 27.911 20.264 27.911 20.36C27.911 20.452 27.903 20.532 27.887 20.6C27.903 20.664 27.911 20.744 27.911 20.84C27.911 20.932 27.903 21.012 27.887 21.08C27.903 21.144 27.911 21.224 27.911 21.32C27.911 21.412 27.903 21.492 27.887 21.56C27.903 21.624 27.911 21.704 27.911 21.8C27.911 21.892 27.903 21.972 27.887 22.04ZM28.967 21.08C28.983 21.144 28.991 21.224 28.991 21.32C28.991 21.412 28.983 21.492 28.967 21.56C28.983 21.624 28.991 21.704 28.991 21.8C28.991 21.892 28.983 21.972 28.967 22.04H28.787C28.803 22.104 28.811 22.184 28.811 22.28C28.811 22.372 28.803 22.452 28.787 22.52H28.487C28.471 22.452 28.463 22.372 28.463 22.28C28.463 22.184 28.471 22.104 28.487 22.04C28.471 21.972 28.463 21.892 28.463 21.8C28.463 21.704 28.471 21.624 28.487 21.56C28.471 21.492 28.463 21.412 28.463 21.32C28.463 21.224 28.471 21.144 28.487 21.08C28.471 21.012 28.463 20.932 28.463 20.84C28.463 20.744 28.471 20.664 28.487 20.6C28.471 20.532 28.463 20.452 28.463 20.36C28.463 20.264 28.471 20.184 28.487 20.12H28.787C28.803 20.184 28.811 20.264 28.811 20.36C28.811 20.452 28.803 20.532 28.787 20.6H28.967C28.983 20.664 28.991 20.744 28.991 20.84C28.991 20.932 28.983 21.012 28.967 21.08ZM27.863 22.76C27.863 22.664 27.871 22.584 27.887 22.52H28.487C28.503 22.584 28.511 22.664 28.511 22.76C28.511 22.852 28.503 22.932 28.487 23H27.887C27.871 22.932 27.863 22.852 27.863 22.76Z" fill="#F9F3E1"/>
<path d="M2.26271 14.048V11.84H2.62671V11.476H3.75471V11.84H4.12271V12.96H3.75471V13.324H3.57871V13.648H3.93871V14.048H3.53871V13.688H3.17071V13.324H2.66671V14.048H2.26271ZM2.66671 12.92H3.71471V11.88H2.66671V12.92ZM4.97046 14.048V13.688H4.60646V12.564H4.97046V12.2H6.09846V12.564H6.46646V12.96H6.05846V12.6H5.01046V12.92H5.73846V13.324H5.01046V13.648H6.05846V13.28H6.46646V13.684H6.09846V14.048H4.97046ZM7.31421 14.772V14.412H6.95021V14.012H7.35421V14.372H8.40621V13.688H7.31421V13.324H6.95021V12.564H7.31421V12.2H8.44621V12.564H8.81021V14.412H8.44621V14.772H7.31421ZM7.35421 13.284H8.40621V12.6H7.35421V13.284ZM9.29396 14.048V12.2H9.69796V14.048H9.29396ZM9.29396 11.88V11.476H9.69796V11.88H9.29396ZM10.1807 14.048V13.648H11.6327V13.324H10.5447V12.96H10.1807V12.564H10.5447V12.2H12.0407V12.6H10.5847V12.92H11.6727V13.284H12.0407V13.688H11.6727V14.048H10.1807ZM13.2484 14.048V13.688H12.8884V12.6H12.5244V12.2H12.8884V11.476H13.2884V12.2H14.3844V12.6H13.2884V13.648H14.3444V13.284H14.7484V13.688H14.3844V14.048H13.2484ZM15.2315 14.048V12.564H15.5955V12.2H16.7235V12.564H17.0915V12.96H16.6835V12.6H15.6355V14.048H15.2315ZM17.8181 14.048V13.688H17.4541V12.564H17.8181V12.2H18.9461V12.564H19.3141V13.688H18.9461V14.048H17.8181ZM17.8581 13.648H18.9061V12.6H17.8581V13.648ZM2.62671 17.048V16.688H2.26271V15.564H2.62671V15.2H3.75471V15.564H4.12271V16.648H4.48671V17.048H4.08271V16.688H3.75471V17.048H2.62671ZM2.66671 16.648H3.71471V15.6H2.66671V16.648ZM5.13452 17.048V16.688H4.77052V15.564H5.13452V15.2H6.26252V15.564H6.63052V15.96H6.22252V15.6H5.17452V16.648H6.22252V16.284H6.63052V16.688H6.26252V17.048H5.13452ZM7.40014 17.048V16.688H7.03614V15.2H7.44014V16.648H8.48814V15.2H8.89614V16.688H8.52814V17.048H7.40014ZM9.37989 17.048V15.2H10.5119V15.564H10.8319V15.2H11.6039V15.564H11.9639V17.048H11.5639V15.6H10.8719V17.048H10.4719V15.6H9.78389V17.048H9.37989ZM12.7322 17.048V16.688H12.3682V15.2H12.7722V16.648H13.8202V15.2H14.2282V16.688H13.8602V17.048H12.7322ZM14.7119 17.048V14.476H15.1159V17.048H14.7119ZM15.8845 17.048V16.688H15.5205V15.564H15.8845V15.2H17.0125V15.564H17.3805V16.648H17.7445V17.048H17.3405V16.688H17.0125V17.048H15.8845ZM15.9245 16.648H16.9725V15.6H15.9245V16.648ZM18.3923 17.048V16.688H18.0283V15.564H18.3923V15.2H19.4843V14.476H19.8883V16.688H19.5203V17.048H18.3923ZM18.4323 16.648H19.4803V15.6H18.4323V16.648ZM20.658 17.048V16.688H20.294V15.564H20.658V15.2H21.786V15.564H22.154V16.688H21.786V17.048H20.658ZM20.698 16.648H21.746V15.6H20.698V16.648ZM22.6377 17.048V15.564H23.0017V15.2H24.1297V15.564H24.4977V15.96H24.0897V15.6H23.0417V17.048H22.6377Z" fill="#516B65"/>
<path d="M86.9772 32C86.9772 39.732 80.638 46 72.8181 46C64.9983 46 58.6591 39.732 58.6591 32C58.6591 24.268 64.9983 18 72.8181 18C80.638 18 86.9772 24.268 86.9772 32Z" fill="url(#paint2_linear_112_205)" fill-opacity="0.8" stroke="#816A57" stroke-linecap="round"/>
<path d="M67.0764 32.048V31.688H66.7124V29.476H67.1164V31.648H68.1644V29.476H68.5724V31.688H68.2044V32.048H67.0764ZM69.0562 32.048V30.2H70.5482V30.564H70.9162V32.048H70.5082V30.6H69.4602V32.048H69.0562ZM71.3999 32.048V30.2H71.8039V32.048H71.3999ZM71.3999 29.88V29.476H71.8039V29.88H71.3999ZM72.6507 32.048V31.688H72.2867V30.564H72.6507V30.2H73.7427V29.476H74.1467V31.688H73.7787V32.048H72.6507ZM72.6907 31.648H73.7387V30.6H72.6907V31.648ZM74.9163 32.048V31.688H74.5523V30.564H74.9163V30.2H76.0443V30.564H76.4123V31.648H76.7763V32.048H76.3723V31.688H76.0443V32.048H74.9163ZM74.9563 31.648H76.0043V30.6H74.9563V31.648ZM77.4241 32.048V31.688H77.0601V30.564H77.4241V30.2H78.5161V29.476H78.9201V31.688H78.5521V32.048H77.4241ZM77.4641 31.648H78.5121V30.6H77.4641V31.648ZM61.8421 35.048V34.688H61.4781V32.84H61.8421V32.476H62.9701V32.84H63.3381V33.6H62.9301V32.88H61.8821V34.648H62.9301V33.92H63.3381V34.688H62.9701V35.048H61.8421ZM64.1858 35.048V34.688H63.8218V33.564H64.1858V33.2H65.3138V33.564H65.6818V34.648H66.0458V35.048H65.6418V34.688H65.3138V35.048H64.1858ZM64.2258 34.648H65.2738V33.6H64.2258V34.648ZM66.4078 35.048V32.476H66.8118V35.048H66.4078ZM67.5374 35.048V34.688H67.1734V33.564H67.5374V33.2H68.6654V33.564H69.0334V33.96H68.6254V33.6H67.5774V34.648H68.6254V34.284H69.0334V34.688H68.6654V35.048H67.5374ZM69.803 35.048V34.688H69.439V33.2H69.843V34.648H70.891V33.2H71.299V34.688H70.931V35.048H69.803ZM71.7828 35.048V32.476H72.1868V35.048H71.7828ZM72.9554 35.048V34.688H72.5914V33.564H72.9554V33.2H74.0834V33.564H74.4514V34.648H74.8154V35.048H74.4114V34.688H74.0834V35.048H72.9554ZM72.9954 34.648H74.0434V33.6H72.9954V34.648ZM75.4632 35.048V34.688H75.0992V33.564H75.4632V33.2H76.5552V32.476H76.9592V34.688H76.5912V35.048H75.4632ZM75.5032 34.648H76.5512V33.6H75.5032V34.648ZM77.7288 35.048V34.688H77.3648V33.564H77.7288V33.2H78.8568V33.564H79.2248V34.688H78.8568V35.048H77.7288ZM77.7688 34.648H78.8168V33.6H77.7688V34.648ZM79.7085 35.048V33.564H80.0725V33.2H81.2005V33.564H81.5685V33.96H81.1605V33.6H80.1125V35.048H79.7085ZM82.2952 35.048V34.688H81.9312V33.564H82.2952V33.2H83.4232V33.564H83.7912V34.648H84.1552V35.048H83.7512V34.688H83.4232V35.048H82.2952ZM82.3352 34.648H83.3832V33.6H82.3352V34.648Z" fill="#516B65"/>
<path d="M44.5185 43V43.25C44.6566 43.25 44.7685 43.1381 44.7685 43H44.5185ZM44.5185 35V34.75C44.3804 34.75 44.2685 34.8619 44.2685 35H44.5185ZM58.5 35L56 33.5566V36.4434L58.5 35ZM30 43V43.25H44.5185V43V42.75H30V43ZM44.5185 43H44.7685V35H44.5185H44.2685V43H44.5185ZM44.5185 35V35.25H56.25V35V34.75H44.5185V35Z" fill="#816A57"/>
<path d="M44.5185 21V20.75C44.6566 20.75 44.7685 20.8619 44.7685 21H44.5185ZM44.5185 29V29.25C44.3804 29.25 44.2685 29.1381 44.2685 29H44.5185ZM58.5 29L56 30.4434V27.5566L58.5 29ZM30 21V20.75H44.5185V21V21.25H30V21ZM44.5185 21H44.7685V29H44.5185H44.2685V21H44.5185ZM44.5185 29V28.75H56.25V29V29.25H44.5185V29Z" fill="#816A57"/>
<defs>
<filter id="filter0_d_112_205" x="0" y="0" width="91" height="50" filterUnits="userSpaceOnUse" color-interpolation-filters="sRGB">
<feFlood flood-opacity="0" result="BackgroundImageFix"/>
<feColorMatrix in="SourceAlpha" type="matrix" values="0 0 0 0 0 0 0 0 0 0 0 0 0 0 0 0 0 0 127 0" result="hardAlpha"/>
<feOffset dx="2" dy="2"/>
<feComposite in2="hardAlpha" operator="out"/>
<feColorMatrix type="matrix" values="0 0 0 0 0.2 0 0 0 0 0.2 0 0 0 0 0.2 0 0 0 1 0"/>
<feBlend mode="normal" in2="BackgroundImageFix" result="effect1_dropShadow_112_205"/>
<feBlend mode="normal" in="SourceGraphic" in2="effect1_dropShadow_112_205" result="shape"/>
</filter>
<linearGradient id="paint0_linear_112_205" x1="2.02271" y1="43" x2="30.3409" y2="43" gradientUnits="userSpaceOnUse">
<stop stop-color="#9FD1C6"/>
<stop offset="1" stop-color="#516B65"/>
</linearGradient>
<linearGradient id="paint1_linear_112_205" x1="2.02271" y1="21" x2="30.3409" y2="21" gradientUnits="userSpaceOnUse">
<stop stop-color="#9FD1C6"/>
<stop offset="1" stop-color="#516B65"/>
</linearGradient>
<linearGradient id="paint2_linear_112_205" x1="58.6591" y1="32" x2="86.9772" y2="32" gradientUnits="userSpaceOnUse">
<stop stop-color="#9FD1C6"/>
<stop offset="1" stop-color="#516B65" stop-opacity="0.8"/>
</linearGradient>
</defs>
</svg>
