<svg width="91" height="71" viewBox="0 0 91 71" fill="none" xmlns="http://www.w3.org/2000/svg">
<g filter="url(#filter0_d_112_206)">
<path d="M0 2C0 0.89543 0.895431 0 2 0H87C88.1046 0 89 0.895431 89 2V64C89 66.7614 86.7614 69 84 69H5C2.23858 69 0 66.7614 0 64V2Z" fill="#FEDA83"/>
</g>
<path d="M44.0153 3.24C44.0473 3.368 44.0633 3.528 44.0633 3.72C44.0633 3.904 44.0473 4.064 44.0153 4.2C44.0473 4.328 44.0633 4.488 44.0633 4.68C44.0633 4.864 44.0473 5.024 44.0153 5.16C44.0473 5.288 44.0633 5.448 44.0633 5.64C44.0633 5.824 44.0473 5.984 44.0153 6.12C44.0473 6.248 44.0633 6.408 44.0633 6.6C44.0633 6.784 44.0473 6.944 44.0153 7.08C44.0473 7.208 44.0633 7.368 44.0633 7.56C44.0633 7.744 44.0473 7.904 44.0153 8.04H43.5353C43.5673 8.168 43.5833 8.328 43.5833 8.52C43.5833 8.704 43.5673 8.864 43.5353 9H40.6553C40.6233 8.864 40.6073 8.704 40.6073 8.52C40.6073 8.328 40.6233 8.168 40.6553 8.04H40.1753C40.1433 7.904 40.1273 7.744 40.1273 7.56C40.1273 7.368 40.1433 7.208 40.1753 7.08C40.1433 6.944 40.1273 6.784 40.1273 6.6C40.1273 6.408 40.1433 6.248 40.1753 6.12C40.1433 5.984 40.1273 5.824 40.1273 5.64C40.1273 5.448 40.1433 5.288 40.1753 5.16C40.1433 5.024 40.1273 4.864 40.1273 4.68C40.1273 4.488 40.1433 4.328 40.1753 4.2C40.1433 4.064 40.1273 3.904 40.1273 3.72C40.1273 3.528 40.1433 3.368 40.1753 3.24C40.1433 3.104 40.1273 2.944 40.1273 2.76C40.1273 2.568 40.1433 2.408 40.1753 2.28H41.1353C41.1673 2.408 41.1833 2.568 41.1833 2.76C41.1833 2.944 41.1673 3.104 41.1353 3.24C41.1673 3.368 41.1833 3.528 41.1833 3.72C41.1833 3.904 41.1673 4.064 41.1353 4.2C41.1673 4.328 41.1833 4.488 41.1833 4.68C41.1833 4.864 41.1673 5.024 41.1353 5.16C41.1673 5.288 41.1833 5.448 41.1833 5.64C41.1833 5.824 41.1673 5.984 41.1353 6.12C41.1673 6.248 41.1833 6.408 41.1833 6.6C41.1833 6.784 41.1673 6.944 41.1353 7.08C41.1673 7.208 41.1833 7.368 41.1833 7.56C41.1833 7.744 41.1673 7.904 41.1353 8.04H43.0553C43.0233 7.904 43.0073 7.744 43.0073 7.56C43.0073 7.368 43.0233 7.208 43.0553 7.08C43.0233 6.944 43.0073 6.784 43.0073 6.6C43.0073 6.408 43.0233 6.248 43.0553 6.12C43.0233 5.984 43.0073 5.824 43.0073 5.64C43.0073 5.448 43.0233 5.288 43.0553 5.16C43.0233 5.024 43.0073 4.864 43.0073 4.68C43.0073 4.488 43.0233 4.328 43.0553 4.2C43.0233 4.064 43.0073 3.904 43.0073 3.72C43.0073 3.528 43.0233 3.368 43.0553 3.24C43.0233 3.104 43.0073 2.944 43.0073 2.76C43.0073 2.568 43.0233 2.408 43.0553 2.28H44.0153C44.0473 2.408 44.0633 2.568 44.0633 2.76C44.0633 2.944 44.0473 3.104 44.0153 3.24ZM48.82 7.08C48.852 7.208 48.868 7.368 48.868 7.56C48.868 7.744 48.852 7.904 48.82 8.04H48.34C48.372 8.168 48.388 8.328 48.388 8.52C48.388 8.704 48.372 8.864 48.34 9H45.94C45.908 8.864 45.892 8.704 45.892 8.52C45.892 8.328 45.908 8.168 45.94 8.04H45.46C45.428 7.904 45.412 7.744 45.412 7.56C45.412 7.368 45.428 7.208 45.46 7.08H44.98C44.948 6.944 44.932 6.784 44.932 6.6C44.932 6.408 44.948 6.248 44.98 6.12C44.948 5.984 44.932 5.824 44.932 5.64C44.932 5.448 44.948 5.288 44.98 5.16C44.948 5.024 44.932 4.864 44.932 4.68C44.932 4.488 44.948 4.328 44.98 4.2H45.46C45.428 4.064 45.412 3.904 45.412 3.72C45.412 3.528 45.428 3.368 45.46 3.24H45.94C45.908 3.104 45.892 2.944 45.892 2.76C45.892 2.568 45.908 2.408 45.94 2.28H48.34C48.372 2.408 48.388 2.568 48.388 2.76C48.388 2.944 48.372 3.104 48.34 3.24H48.82C48.852 3.368 48.868 3.528 48.868 3.72C48.868 3.904 48.852 4.064 48.82 4.2H47.86C47.828 4.064 47.812 3.904 47.812 3.72C47.812 3.528 47.828 3.368 47.86 3.24H46.42C46.452 3.368 46.468 3.528 46.468 3.72C46.468 3.904 46.452 4.064 46.42 4.2H45.94C45.972 4.328 45.988 4.488 45.988 4.68C45.988 4.864 45.972 5.024 45.94 5.16C45.972 5.288 45.988 5.448 45.988 5.64C45.988 5.824 45.972 5.984 45.94 6.12C45.972 6.248 45.988 6.408 45.988 6.6C45.988 6.784 45.972 6.944 45.94 7.08H46.42C46.452 7.208 46.468 7.368 46.468 7.56C46.468 7.744 46.452 7.904 46.42 8.04H47.86C47.828 7.904 47.812 7.744 47.812 7.56C47.812 7.368 47.828 7.208 47.86 7.08H48.82Z" fill="#F9F3E1"/>
<path d="M44.5 19H44.75C44.75 18.8619 44.6381 18.75 44.5 18.75V19ZM44.5 30H44.25C44.25 30.1381 44.362 30.25 44.5 30.25V30ZM58.1821 30L55.6821 28.5566V31.4434L58.1821 30ZM30.3409 19V19.25H44.5V19V18.75H30.3409V19ZM44.5 19H44.25V30H44.5H44.75V19H44.5ZM44.5 30V30.25H55.9321V30V29.75H44.5V30Z" fill="#816A57"/>
<path d="M28.3182 59.5L29.7616 57H26.8749L28.3182 59.5ZM28.3182 22.5L26.8749 25H29.7616L28.3182 22.5ZM28.3182 44.5H28.0682V57.25H28.3182H28.5682V44.5H28.3182ZM28.3182 37.5H28.5682V24.75H28.3182H28.0682V37.5H28.3182Z" fill="#816A57"/>
<path d="M2.02271 61C2.02271 60.4477 2.47042 60 3.02271 60H29.3409C29.8932 60 30.3409 60.4477 30.3409 61V65C30.3409 65.5523 29.8932 66 29.3409 66H3.02271C2.47042 66 2.02271 65.5523 2.02271 65V61Z" fill="url(#paint0_linear_112_206)" fill-opacity="0.63" stroke="#816A57"/>
<path d="M11.2812 61.88C11.2812 61.972 11.2732 62.052 11.2572 62.12H10.6572C10.6412 62.052 10.6332 61.972 10.6332 61.88C10.6332 61.784 10.6412 61.704 10.6572 61.64H11.2572C11.2732 61.704 11.2812 61.784 11.2812 61.88ZM10.6572 64.04C10.6732 64.104 10.6812 64.184 10.6812 64.28C10.6812 64.372 10.6732 64.452 10.6572 64.52H10.3572C10.3412 64.452 10.3332 64.372 10.3332 64.28C10.3332 64.184 10.3412 64.104 10.3572 64.04H10.1772C10.1612 63.972 10.1532 63.892 10.1532 63.8C10.1532 63.704 10.1612 63.624 10.1772 63.56C10.1612 63.492 10.1532 63.412 10.1532 63.32C10.1532 63.224 10.1612 63.144 10.1772 63.08C10.1612 63.012 10.1532 62.932 10.1532 62.84C10.1532 62.744 10.1612 62.664 10.1772 62.6H10.3572C10.3412 62.532 10.3332 62.452 10.3332 62.36C10.3332 62.264 10.3412 62.184 10.3572 62.12H10.6572C10.6732 62.184 10.6812 62.264 10.6812 62.36C10.6812 62.452 10.6732 62.532 10.6572 62.6C10.6732 62.664 10.6812 62.744 10.6812 62.84C10.6812 62.932 10.6732 63.012 10.6572 63.08C10.6732 63.144 10.6812 63.224 10.6812 63.32C10.6812 63.412 10.6732 63.492 10.6572 63.56C10.6732 63.624 10.6812 63.704 10.6812 63.8C10.6812 63.892 10.6732 63.972 10.6572 64.04ZM11.7372 63.08C11.7532 63.144 11.7612 63.224 11.7612 63.32C11.7612 63.412 11.7532 63.492 11.7372 63.56C11.7532 63.624 11.7612 63.704 11.7612 63.8C11.7612 63.892 11.7532 63.972 11.7372 64.04H11.5572C11.5732 64.104 11.5812 64.184 11.5812 64.28C11.5812 64.372 11.5732 64.452 11.5572 64.52H11.2572C11.2412 64.452 11.2332 64.372 11.2332 64.28C11.2332 64.184 11.2412 64.104 11.2572 64.04C11.2412 63.972 11.2332 63.892 11.2332 63.8C11.2332 63.704 11.2412 63.624 11.2572 63.56C11.2412 63.492 11.2332 63.412 11.2332 63.32C11.2332 63.224 11.2412 63.144 11.2572 63.08C11.2412 63.012 11.2332 62.932 11.2332 62.84C11.2332 62.744 11.2412 62.664 11.2572 62.6C11.2412 62.532 11.2332 62.452 11.2332 62.36C11.2332 62.264 11.2412 62.184 11.2572 62.12H11.5572C11.5732 62.184 11.5812 62.264 11.5812 62.36C11.5812 62.452 11.5732 62.532 11.5572 62.6H11.7372C11.7532 62.664 11.7612 62.744 11.7612 62.84C11.7612 62.932 11.7532 63.012 11.7372 63.08ZM10.6332 64.76C10.6332 64.664 10.6412 64.584 10.6572 64.52H11.2572C11.2732 64.584 11.2812 64.664 11.2812 64.76C11.2812 64.852 11.2732 64.932 11.2572 65H10.6572C10.6412 64.932 10.6332 64.852 10.6332 64.76ZM14.7635 61.88C14.7635 61.972 14.7555 62.052 14.7395 62.12H14.1395C14.1235 62.052 14.1155 61.972 14.1155 61.88C14.1155 61.784 14.1235 61.704 14.1395 61.64H14.7395C14.7555 61.704 14.7635 61.784 14.7635 61.88ZM14.1395 64.04C14.1555 64.104 14.1635 64.184 14.1635 64.28C14.1635 64.372 14.1555 64.452 14.1395 64.52H13.8395C13.8235 64.452 13.8155 64.372 13.8155 64.28C13.8155 64.184 13.8235 64.104 13.8395 64.04H13.6595C13.6435 63.972 13.6355 63.892 13.6355 63.8C13.6355 63.704 13.6435 63.624 13.6595 63.56C13.6435 63.492 13.6355 63.412 13.6355 63.32C13.6355 63.224 13.6435 63.144 13.6595 63.08C13.6435 63.012 13.6355 62.932 13.6355 62.84C13.6355 62.744 13.6435 62.664 13.6595 62.6H13.8395C13.8235 62.532 13.8155 62.452 13.8155 62.36C13.8155 62.264 13.8235 62.184 13.8395 62.12H14.1395C14.1555 62.184 14.1635 62.264 14.1635 62.36C14.1635 62.452 14.1555 62.532 14.1395 62.6C14.1555 62.664 14.1635 62.744 14.1635 62.84C14.1635 62.932 14.1555 63.012 14.1395 63.08C14.1555 63.144 14.1635 63.224 14.1635 63.32C14.1635 63.412 14.1555 63.492 14.1395 63.56C14.1555 63.624 14.1635 63.704 14.1635 63.8C14.1635 63.892 14.1555 63.972 14.1395 64.04ZM15.2195 63.08C15.2355 63.144 15.2435 63.224 15.2435 63.32C15.2435 63.412 15.2355 63.492 15.2195 63.56C15.2355 63.624 15.2435 63.704 15.2435 63.8C15.2435 63.892 15.2355 63.972 15.2195 64.04H15.0395C15.0555 64.104 15.0635 64.184 15.0635 64.28C15.0635 64.372 15.0555 64.452 15.0395 64.52H14.7395C14.7235 64.452 14.7155 64.372 14.7155 64.28C14.7155 64.184 14.7235 64.104 14.7395 64.04C14.7235 63.972 14.7155 63.892 14.7155 63.8C14.7155 63.704 14.7235 63.624 14.7395 63.56C14.7235 63.492 14.7155 63.412 14.7155 63.32C14.7155 63.224 14.7235 63.144 14.7395 63.08C14.7235 63.012 14.7155 62.932 14.7155 62.84C14.7155 62.744 14.7235 62.664 14.7395 62.6C14.7235 62.532 14.7155 62.452 14.7155 62.36C14.7155 62.264 14.7235 62.184 14.7395 62.12H15.0395C15.0555 62.184 15.0635 62.264 15.0635 62.36C15.0635 62.452 15.0555 62.532 15.0395 62.6H15.2195C15.2355 62.664 15.2435 62.744 15.2435 62.84C15.2435 62.932 15.2355 63.012 15.2195 63.08ZM14.1155 64.76C14.1155 64.664 14.1235 64.584 14.1395 64.52H14.7395C14.7555 64.584 14.7635 64.664 14.7635 64.76C14.7635 64.852 14.7555 64.932 14.7395 65H14.1395C14.1235 64.932 14.1155 64.852 14.1155 64.76ZM18.2458 61.88C18.2458 61.972 18.2378 62.052 18.2218 62.12H17.6218C17.6058 62.052 17.5978 61.972 17.5978 61.88C17.5978 61.784 17.6058 61.704 17.6218 61.64H18.2218C18.2378 61.704 18.2458 61.784 18.2458 61.88ZM17.6218 64.04C17.6378 64.104 17.6458 64.184 17.6458 64.28C17.6458 64.372 17.6378 64.452 17.6218 64.52H17.3218C17.3058 64.452 17.2978 64.372 17.2978 64.28C17.2978 64.184 17.3058 64.104 17.3218 64.04H17.1418C17.1258 63.972 17.1178 63.892 17.1178 63.8C17.1178 63.704 17.1258 63.624 17.1418 63.56C17.1258 63.492 17.1178 63.412 17.1178 63.32C17.1178 63.224 17.1258 63.144 17.1418 63.08C17.1258 63.012 17.1178 62.932 17.1178 62.84C17.1178 62.744 17.1258 62.664 17.1418 62.6H17.3218C17.3058 62.532 17.2978 62.452 17.2978 62.36C17.2978 62.264 17.3058 62.184 17.3218 62.12H17.6218C17.6378 62.184 17.6458 62.264 17.6458 62.36C17.6458 62.452 17.6378 62.532 17.6218 62.6C17.6378 62.664 17.6458 62.744 17.6458 62.84C17.6458 62.932 17.6378 63.012 17.6218 63.08C17.6378 63.144 17.6458 63.224 17.6458 63.32C17.6458 63.412 17.6378 63.492 17.6218 63.56C17.6378 63.624 17.6458 63.704 17.6458 63.8C17.6458 63.892 17.6378 63.972 17.6218 64.04ZM18.7018 63.08C18.7178 63.144 18.7258 63.224 18.7258 63.32C18.7258 63.412 18.7178 63.492 18.7018 63.56C18.7178 63.624 18.7258 63.704 18.7258 63.8C18.7258 63.892 18.7178 63.972 18.7018 64.04H18.5218C18.5378 64.104 18.5458 64.184 18.5458 64.28C18.5458 64.372 18.5378 64.452 18.5218 64.52H18.2218C18.2058 64.452 18.1978 64.372 18.1978 64.28C18.1978 64.184 18.2058 64.104 18.2218 64.04C18.2058 63.972 18.1978 63.892 18.1978 63.8C18.1978 63.704 18.2058 63.624 18.2218 63.56C18.2058 63.492 18.1978 63.412 18.1978 63.32C18.1978 63.224 18.2058 63.144 18.2218 63.08C18.2058 63.012 18.1978 62.932 18.1978 62.84C18.1978 62.744 18.2058 62.664 18.2218 62.6C18.2058 62.532 18.1978 62.452 18.1978 62.36C18.1978 62.264 18.2058 62.184 18.2218 62.12H18.5218C18.5378 62.184 18.5458 62.264 18.5458 62.36C18.5458 62.452 18.5378 62.532 18.5218 62.6H18.7018C18.7178 62.664 18.7258 62.744 18.7258 62.84C18.7258 62.932 18.7178 63.012 18.7018 63.08ZM17.5978 64.76C17.5978 64.664 17.6058 64.584 17.6218 64.52H18.2218C18.2378 64.584 18.2458 64.664 18.2458 64.76C18.2458 64.852 18.2378 64.932 18.2218 65H17.6218C17.6058 64.932 17.5978 64.852 17.5978 64.76ZM21.7282 61.88C21.7282 61.972 21.7202 62.052 21.7042 62.12H21.1042C21.0882 62.052 21.0802 61.972 21.0802 61.88C21.0802 61.784 21.0882 61.704 21.1042 61.64H21.7042C21.7202 61.704 21.7282 61.784 21.7282 61.88ZM21.1042 64.04C21.1202 64.104 21.1282 64.184 21.1282 64.28C21.1282 64.372 21.1202 64.452 21.1042 64.52H20.8042C20.7882 64.452 20.7802 64.372 20.7802 64.28C20.7802 64.184 20.7882 64.104 20.8042 64.04H20.6242C20.6082 63.972 20.6002 63.892 20.6002 63.8C20.6002 63.704 20.6082 63.624 20.6242 63.56C20.6082 63.492 20.6002 63.412 20.6002 63.32C20.6002 63.224 20.6082 63.144 20.6242 63.08C20.6082 63.012 20.6002 62.932 20.6002 62.84C20.6002 62.744 20.6082 62.664 20.6242 62.6H20.8042C20.7882 62.532 20.7802 62.452 20.7802 62.36C20.7802 62.264 20.7882 62.184 20.8042 62.12H21.1042C21.1202 62.184 21.1282 62.264 21.1282 62.36C21.1282 62.452 21.1202 62.532 21.1042 62.6C21.1202 62.664 21.1282 62.744 21.1282 62.84C21.1282 62.932 21.1202 63.012 21.1042 63.08C21.1202 63.144 21.1282 63.224 21.1282 63.32C21.1282 63.412 21.1202 63.492 21.1042 63.56C21.1202 63.624 21.1282 63.704 21.1282 63.8C21.1282 63.892 21.1202 63.972 21.1042 64.04ZM22.1842 63.08C22.2002 63.144 22.2082 63.224 22.2082 63.32C22.2082 63.412 22.2002 63.492 22.1842 63.56C22.2002 63.624 22.2082 63.704 22.2082 63.8C22.2082 63.892 22.2002 63.972 22.1842 64.04H22.0042C22.0202 64.104 22.0282 64.184 22.0282 64.28C22.0282 64.372 22.0202 64.452 22.0042 64.52H21.7042C21.6882 64.452 21.6802 64.372 21.6802 64.28C21.6802 64.184 21.6882 64.104 21.7042 64.04C21.6882 63.972 21.6802 63.892 21.6802 63.8C21.6802 63.704 21.6882 63.624 21.7042 63.56C21.6882 63.492 21.6802 63.412 21.6802 63.32C21.6802 63.224 21.6882 63.144 21.7042 63.08C21.6882 63.012 21.6802 62.932 21.6802 62.84C21.6802 62.744 21.6882 62.664 21.7042 62.6C21.6882 62.532 21.6802 62.452 21.6802 62.36C21.6802 62.264 21.6882 62.184 21.7042 62.12H22.0042C22.0202 62.184 22.0282 62.264 22.0282 62.36C22.0282 62.452 22.0202 62.532 22.0042 62.6H22.1842C22.2002 62.664 22.2082 62.744 22.2082 62.84C22.2082 62.932 22.2002 63.012 22.1842 63.08ZM21.0802 64.76C21.0802 64.664 21.0882 64.584 21.1042 64.52H21.7042C21.7202 64.584 21.7282 64.664 21.7282 64.76C21.7282 64.852 21.7202 64.932 21.7042 65H21.1042C21.0882 64.932 21.0802 64.852 21.0802 64.76Z" fill="#FEDA83"/>
<path d="M2.26271 56.048V53.84H2.62671V53.476H3.75471V53.84H4.12271V54.96H3.75471V55.324H3.57871V55.648H3.93871V56.048H3.53871V55.688H3.17071V55.324H2.66671V56.048H2.26271ZM2.66671 54.92H3.71471V53.88H2.66671V54.92ZM4.97046 56.048V55.688H4.60646V54.564H4.97046V54.2H6.09846V54.564H6.46646V54.96H6.05846V54.6H5.01046V54.92H5.73846V55.324H5.01046V55.648H6.05846V55.28H6.46646V55.684H6.09846V56.048H4.97046ZM7.31421 56.772V56.412H6.95021V56.012H7.35421V56.372H8.40621V55.688H7.31421V55.324H6.95021V54.564H7.31421V54.2H8.44621V54.564H8.81021V56.412H8.44621V56.772H7.31421ZM7.35421 55.284H8.40621V54.6H7.35421V55.284ZM9.29396 56.048V54.2H9.69796V56.048H9.29396ZM9.29396 53.88V53.476H9.69796V53.88H9.29396ZM10.1807 56.048V55.648H11.6327V55.324H10.5447V54.96H10.1807V54.564H10.5447V54.2H12.0407V54.6H10.5847V54.92H11.6727V55.284H12.0407V55.688H11.6727V56.048H10.1807ZM13.2484 56.048V55.688H12.8884V54.6H12.5244V54.2H12.8884V53.476H13.2884V54.2H14.3844V54.6H13.2884V55.648H14.3444V55.284H14.7484V55.688H14.3844V56.048H13.2484ZM15.2315 56.048V54.564H15.5955V54.2H16.7235V54.564H17.0915V54.96H16.6835V54.6H15.6355V56.048H15.2315ZM17.8181 56.048V55.688H17.4541V54.564H17.8181V54.2H18.9461V54.564H19.3141V55.688H18.9461V56.048H17.8181ZM17.8581 55.648H18.9061V54.6H17.8581V55.648ZM20.9626 56.048V55.688H20.5986V54.564H20.9626V54.2H22.0546V53.476H22.4586V55.688H22.0906V56.048H20.9626ZM21.0026 55.648H22.0506V54.6H21.0026V55.648ZM23.2283 56.048V55.688H22.8643V54.564H23.2283V54.2H24.3563V54.564H24.7243V54.96H24.3163V54.6H23.2683V54.92H23.9963V55.324H23.2683V55.648H24.3163V55.28H24.7243V55.684H24.3563V56.048H23.2283ZM2.62671 59.048V58.688H2.26271V57.564H2.62671V57.2H3.71871V56.476H4.12271V58.688H3.75471V59.048H2.62671ZM2.66671 58.648H3.71471V57.6H2.66671V58.648ZM4.60646 59.048V57.2H5.01046V59.048H4.60646ZM4.60646 56.88V56.476H5.01046V56.88H4.60646ZM5.49317 59.048V57.564H5.85717V57.2H6.98517V57.564H7.35317V57.96H6.94517V57.6H5.89717V59.048H5.49317ZM8.07983 59.048V58.688H7.71583V57.564H8.07983V57.2H9.20783V57.564H9.57583V57.96H9.16783V57.6H8.11983V57.92H8.84783V58.324H8.11983V58.648H9.16783V58.28H9.57583V58.684H9.20783V59.048H8.07983ZM10.4236 59.048V58.688H10.0596V57.564H10.4236V57.2H11.5516V57.564H11.9196V57.96H11.5116V57.6H10.4636V58.648H11.5116V58.284H11.9196V58.688H11.5516V59.048H10.4236ZM12.6462 59.048V58.688H12.2822V57.564H12.6462V57.2H13.7742V57.564H14.1422V57.96H13.7342V57.6H12.6862V58.648H13.7342V58.284H14.1422V58.688H13.7742V59.048H12.6462ZM14.626 59.048V57.2H15.03V59.048H14.626ZM14.626 56.88V56.476H15.03V56.88H14.626ZM15.7986 59.048V58.688H15.4346V57.564H15.7986V57.2H16.9266V57.564H17.2946V58.688H16.9266V59.048H15.7986ZM15.8386 58.648H16.8866V57.6H15.8386V58.648ZM17.7783 59.048V57.2H19.2703V57.564H19.6383V59.048H19.2303V57.6H18.1823V59.048H17.7783ZM20.365 59.048V58.688H20.001V57.564H20.365V57.2H21.493V57.564H21.861V57.96H21.453V57.6H20.405V57.92H21.133V58.324H20.405V58.648H21.453V58.28H21.861V58.684H21.493V59.048H20.365ZM22.3447 59.048V58.648H23.7967V58.324H22.7087V57.96H22.3447V57.564H22.7087V57.2H24.2047V57.6H22.7487V57.92H23.8367V58.284H24.2047V58.688H23.8367V59.048H22.3447Z" fill="#516B65"/>
<path d="M2.02271 17C2.02271 16.4477 2.47042 16 3.02271 16H29.3409C29.8932 16 30.3409 16.4477 30.3409 17V21C30.3409 21.5523 29.8932 22 29.3409 22H3.02271C2.47042 22 2.02271 21.5523 2.02271 21V17Z" fill="url(#paint1_linear_112_206)" fill-opacity="0.63" stroke="#816A57"/>
<path d="M11.2812 17.88C11.2812 17.972 11.2732 18.052 11.2572 18.12H10.6572C10.6412 18.052 10.6332 17.972 10.6332 17.88C10.6332 17.784 10.6412 17.704 10.6572 17.64H11.2572C11.2732 17.704 11.2812 17.784 11.2812 17.88ZM10.6572 20.04C10.6732 20.104 10.6812 20.184 10.6812 20.28C10.6812 20.372 10.6732 20.452 10.6572 20.52H10.3572C10.3412 20.452 10.3332 20.372 10.3332 20.28C10.3332 20.184 10.3412 20.104 10.3572 20.04H10.1772C10.1612 19.972 10.1532 19.892 10.1532 19.8C10.1532 19.704 10.1612 19.624 10.1772 19.56C10.1612 19.492 10.1532 19.412 10.1532 19.32C10.1532 19.224 10.1612 19.144 10.1772 19.08C10.1612 19.012 10.1532 18.932 10.1532 18.84C10.1532 18.744 10.1612 18.664 10.1772 18.6H10.3572C10.3412 18.532 10.3332 18.452 10.3332 18.36C10.3332 18.264 10.3412 18.184 10.3572 18.12H10.6572C10.6732 18.184 10.6812 18.264 10.6812 18.36C10.6812 18.452 10.6732 18.532 10.6572 18.6C10.6732 18.664 10.6812 18.744 10.6812 18.84C10.6812 18.932 10.6732 19.012 10.6572 19.08C10.6732 19.144 10.6812 19.224 10.6812 19.32C10.6812 19.412 10.6732 19.492 10.6572 19.56C10.6732 19.624 10.6812 19.704 10.6812 19.8C10.6812 19.892 10.6732 19.972 10.6572 20.04ZM11.7372 19.08C11.7532 19.144 11.7612 19.224 11.7612 19.32C11.7612 19.412 11.7532 19.492 11.7372 19.56C11.7532 19.624 11.7612 19.704 11.7612 19.8C11.7612 19.892 11.7532 19.972 11.7372 20.04H11.5572C11.5732 20.104 11.5812 20.184 11.5812 20.28C11.5812 20.372 11.5732 20.452 11.5572 20.52H11.2572C11.2412 20.452 11.2332 20.372 11.2332 20.28C11.2332 20.184 11.2412 20.104 11.2572 20.04C11.2412 19.972 11.2332 19.892 11.2332 19.8C11.2332 19.704 11.2412 19.624 11.2572 19.56C11.2412 19.492 11.2332 19.412 11.2332 19.32C11.2332 19.224 11.2412 19.144 11.2572 19.08C11.2412 19.012 11.2332 18.932 11.2332 18.84C11.2332 18.744 11.2412 18.664 11.2572 18.6C11.2412 18.532 11.2332 18.452 11.2332 18.36C11.2332 18.264 11.2412 18.184 11.2572 18.12H11.5572C11.5732 18.184 11.5812 18.264 11.5812 18.36C11.5812 18.452 11.5732 18.532 11.5572 18.6H11.7372C11.7532 18.664 11.7612 18.744 11.7612 18.84C11.7612 18.932 11.7532 19.012 11.7372 19.08ZM10.6332 20.76C10.6332 20.664 10.6412 20.584 10.6572 20.52H11.2572C11.2732 20.584 11.2812 20.664 11.2812 20.76C11.2812 20.852 11.2732 20.932 11.2572 21H10.6572C10.6412 20.932 10.6332 20.852 10.6332 20.76ZM14.7635 17.88C14.7635 17.972 14.7555 18.052 14.7395 18.12H14.1395C14.1235 18.052 14.1155 17.972 14.1155 17.88C14.1155 17.784 14.1235 17.704 14.1395 17.64H14.7395C14.7555 17.704 14.7635 17.784 14.7635 17.88ZM14.1395 20.04C14.1555 20.104 14.1635 20.184 14.1635 20.28C14.1635 20.372 14.1555 20.452 14.1395 20.52H13.8395C13.8235 20.452 13.8155 20.372 13.8155 20.28C13.8155 20.184 13.8235 20.104 13.8395 20.04H13.6595C13.6435 19.972 13.6355 19.892 13.6355 19.8C13.6355 19.704 13.6435 19.624 13.6595 19.56C13.6435 19.492 13.6355 19.412 13.6355 19.32C13.6355 19.224 13.6435 19.144 13.6595 19.08C13.6435 19.012 13.6355 18.932 13.6355 18.84C13.6355 18.744 13.6435 18.664 13.6595 18.6H13.8395C13.8235 18.532 13.8155 18.452 13.8155 18.36C13.8155 18.264 13.8235 18.184 13.8395 18.12H14.1395C14.1555 18.184 14.1635 18.264 14.1635 18.36C14.1635 18.452 14.1555 18.532 14.1395 18.6C14.1555 18.664 14.1635 18.744 14.1635 18.84C14.1635 18.932 14.1555 19.012 14.1395 19.08C14.1555 19.144 14.1635 19.224 14.1635 19.32C14.1635 19.412 14.1555 19.492 14.1395 19.56C14.1555 19.624 14.1635 19.704 14.1635 19.8C14.1635 19.892 14.1555 19.972 14.1395 20.04ZM15.2195 19.08C15.2355 19.144 15.2435 19.224 15.2435 19.32C15.2435 19.412 15.2355 19.492 15.2195 19.56C15.2355 19.624 15.2435 19.704 15.2435 19.8C15.2435 19.892 15.2355 19.972 15.2195 20.04H15.0395C15.0555 20.104 15.0635 20.184 15.0635 20.28C15.0635 20.372 15.0555 20.452 15.0395 20.52H14.7395C14.7235 20.452 14.7155 20.372 14.7155 20.28C14.7155 20.184 14.7235 20.104 14.7395 20.04C14.7235 19.972 14.7155 19.892 14.7155 19.8C14.7155 19.704 14.7235 19.624 14.7395 19.56C14.7235 19.492 14.7155 19.412 14.7155 19.32C14.7155 19.224 14.7235 19.144 14.7395 19.08C14.7235 19.012 14.7155 18.932 14.7155 18.84C14.7155 18.744 14.7235 18.664 14.7395 18.6C14.7235 18.532 14.7155 18.452 14.7155 18.36C14.7155 18.264 14.7235 18.184 14.7395 18.12H15.0395C15.0555 18.184 15.0635 18.264 15.0635 18.36C15.0635 18.452 15.0555 18.532 15.0395 18.6H15.2195C15.2355 18.664 15.2435 18.744 15.2435 18.84C15.2435 18.932 15.2355 19.012 15.2195 19.08ZM14.1155 20.76C14.1155 20.664 14.1235 20.584 14.1395 20.52H14.7395C14.7555 20.584 14.7635 20.664 14.7635 20.76C14.7635 20.852 14.7555 20.932 14.7395 21H14.1395C14.1235 20.932 14.1155 20.852 14.1155 20.76ZM18.2458 17.88C18.2458 17.972 18.2378 18.052 18.2218 18.12H17.6218C17.6058 18.052 17.5978 17.972 17.5978 17.88C17.5978 17.784 17.6058 17.704 17.6218 17.64H18.2218C18.2378 17.704 18.2458 17.784 18.2458 17.88ZM17.6218 20.04C17.6378 20.104 17.6458 20.184 17.6458 20.28C17.6458 20.372 17.6378 20.452 17.6218 20.52H17.3218C17.3058 20.452 17.2978 20.372 17.2978 20.28C17.2978 20.184 17.3058 20.104 17.3218 20.04H17.1418C17.1258 19.972 17.1178 19.892 17.1178 19.8C17.1178 19.704 17.1258 19.624 17.1418 19.56C17.1258 19.492 17.1178 19.412 17.1178 19.32C17.1178 19.224 17.1258 19.144 17.1418 19.08C17.1258 19.012 17.1178 18.932 17.1178 18.84C17.1178 18.744 17.1258 18.664 17.1418 18.6H17.3218C17.3058 18.532 17.2978 18.452 17.2978 18.36C17.2978 18.264 17.3058 18.184 17.3218 18.12H17.6218C17.6378 18.184 17.6458 18.264 17.6458 18.36C17.6458 18.452 17.6378 18.532 17.6218 18.6C17.6378 18.664 17.6458 18.744 17.6458 18.84C17.6458 18.932 17.6378 19.012 17.6218 19.08C17.6378 19.144 17.6458 19.224 17.6458 19.32C17.6458 19.412 17.6378 19.492 17.6218 19.56C17.6378 19.624 17.6458 19.704 17.6458 19.8C17.6458 19.892 17.6378 19.972 17.6218 20.04ZM18.7018 19.08C18.7178 19.144 18.7258 19.224 18.7258 19.32C18.7258 19.412 18.7178 19.492 18.7018 19.56C18.7178 19.624 18.7258 19.704 18.7258 19.8C18.7258 19.892 18.7178 19.972 18.7018 20.04H18.5218C18.5378 20.104 18.5458 20.184 18.5458 20.28C18.5458 20.372 18.5378 20.452 18.5218 20.52H18.2218C18.2058 20.452 18.1978 20.372 18.1978 20.28C18.1978 20.184 18.2058 20.104 18.2218 20.04C18.2058 19.972 18.1978 19.892 18.1978 19.8C18.1978 19.704 18.2058 19.624 18.2218 19.56C18.2058 19.492 18.1978 19.412 18.1978 19.32C18.1978 19.224 18.2058 19.144 18.2218 19.08C18.2058 19.012 18.1978 18.932 18.1978 18.84C18.1978 18.744 18.2058 18.664 18.2218 18.6C18.2058 18.532 18.1978 18.452 18.1978 18.36C18.1978 18.264 18.2058 18.184 18.2218 18.12H18.5218C18.5378 18.184 18.5458 18.264 18.5458 18.36C18.5458 18.452 18.5378 18.532 18.5218 18.6H18.7018C18.7178 18.664 18.7258 18.744 18.7258 18.84C18.7258 18.932 18.7178 19.012 18.7018 19.08ZM17.5978 20.76C17.5978 20.664 17.6058 20.584 17.6218 20.52H18.2218C18.2378 20.584 18.2458 20.664 18.2458 20.76C18.2458 20.852 18.2378 20.932 18.2218 21H17.6218C17.6058 20.932 17.5978 20.852 17.5978 20.76ZM21.7282 17.88C21.7282 17.972 21.7202 18.052 21.7042 18.12H21.1042C21.0882 18.052 21.0802 17.972 21.0802 17.88C21.0802 17.784 21.0882 17.704 21.1042 17.64H21.7042C21.7202 17.704 21.7282 17.784 21.7282 17.88ZM21.1042 20.04C21.1202 20.104 21.1282 20.184 21.1282 20.28C21.1282 20.372 21.1202 20.452 21.1042 20.52H20.8042C20.7882 20.452 20.7802 20.372 20.7802 20.28C20.7802 20.184 20.7882 20.104 20.8042 20.04H20.6242C20.6082 19.972 20.6002 19.892 20.6002 19.8C20.6002 19.704 20.6082 19.624 20.6242 19.56C20.6082 19.492 20.6002 19.412 20.6002 19.32C20.6002 19.224 20.6082 19.144 20.6242 19.08C20.6082 19.012 20.6002 18.932 20.6002 18.84C20.6002 18.744 20.6082 18.664 20.6242 18.6H20.8042C20.7882 18.532 20.7802 18.452 20.7802 18.36C20.7802 18.264 20.7882 18.184 20.8042 18.12H21.1042C21.1202 18.184 21.1282 18.264 21.1282 18.36C21.1282 18.452 21.1202 18.532 21.1042 18.6C21.1202 18.664 21.1282 18.744 21.1282 18.84C21.1282 18.932 21.1202 19.012 21.1042 19.08C21.1202 19.144 21.1282 19.224 21.1282 19.32C21.1282 19.412 21.1202 19.492 21.1042 19.56C21.1202 19.624 21.1282 19.704 21.1282 19.8C21.1282 19.892 21.1202 19.972 21.1042 20.04ZM22.1842 19.08C22.2002 19.144 22.2082 19.224 22.2082 19.32C22.2082 19.412 22.2002 19.492 22.1842 19.56C22.2002 19.624 22.2082 19.704 22.2082 19.8C22.2082 19.892 22.2002 19.972 22.1842 20.04H22.0042C22.0202 20.104 22.0282 20.184 22.0282 20.28C22.0282 20.372 22.0202 20.452 22.0042 20.52H21.7042C21.6882 20.452 21.6802 20.372 21.6802 20.28C21.6802 20.184 21.6882 20.104 21.7042 20.04C21.6882 19.972 21.6802 19.892 21.6802 19.8C21.6802 19.704 21.6882 19.624 21.7042 19.56C21.6882 19.492 21.6802 19.412 21.6802 19.32C21.6802 19.224 21.6882 19.144 21.7042 19.08C21.6882 19.012 21.6802 18.932 21.6802 18.84C21.6802 18.744 21.6882 18.664 21.7042 18.6C21.6882 18.532 21.6802 18.452 21.6802 18.36C21.6802 18.264 21.6882 18.184 21.7042 18.12H22.0042C22.0202 18.184 22.0282 18.264 22.0282 18.36C22.0282 18.452 22.0202 18.532 22.0042 18.6H22.1842C22.2002 18.664 22.2082 18.744 22.2082 18.84C22.2082 18.932 22.2002 19.012 22.1842 19.08ZM21.0802 20.76C21.0802 20.664 21.0882 20.584 21.1042 20.52H21.7042C21.7202 20.584 21.7282 20.664 21.7282 20.76C21.7282 20.852 21.7202 20.932 21.7042 21H21.1042C21.0882 20.932 21.0802 20.852 21.0802 20.76Z" fill="#F9F3E1"/>
<path d="M2.26271 12.048V9.84H2.62671V9.476H3.75471V9.84H4.12271V10.96H3.75471V11.324H3.57871V11.648H3.93871V12.048H3.53871V11.688H3.17071V11.324H2.66671V12.048H2.26271ZM2.66671 10.92H3.71471V9.88H2.66671V10.92ZM4.97046 12.048V11.688H4.60646V10.564H4.97046V10.2H6.09846V10.564H6.46646V10.96H6.05846V10.6H5.01046V10.92H5.73846V11.324H5.01046V11.648H6.05846V11.28H6.46646V11.684H6.09846V12.048H4.97046ZM7.31421 12.772V12.412H6.95021V12.012H7.35421V12.372H8.40621V11.688H7.31421V11.324H6.95021V10.564H7.31421V10.2H8.44621V10.564H8.81021V12.412H8.44621V12.772H7.31421ZM7.35421 11.284H8.40621V10.6H7.35421V11.284ZM9.29396 12.048V10.2H9.69796V12.048H9.29396ZM9.29396 9.88V9.476H9.69796V9.88H9.29396ZM10.1807 12.048V11.648H11.6327V11.324H10.5447V10.96H10.1807V10.564H10.5447V10.2H12.0407V10.6H10.5847V10.92H11.6727V11.284H12.0407V11.688H11.6727V12.048H10.1807ZM13.2484 12.048V11.688H12.8884V10.6H12.5244V10.2H12.8884V9.476H13.2884V10.2H14.3844V10.6H13.2884V11.648H14.3444V11.284H14.7484V11.688H14.3844V12.048H13.2484ZM15.2315 12.048V10.564H15.5955V10.2H16.7235V10.564H17.0915V10.96H16.6835V10.6H15.6355V12.048H15.2315ZM17.8181 12.048V11.688H17.4541V10.564H17.8181V10.2H18.9461V10.564H19.3141V11.688H18.9461V12.048H17.8181ZM17.8581 11.648H18.9061V10.6H17.8581V11.648ZM20.9626 12.048V11.688H20.5986V10.564H20.9626V10.2H22.0546V9.476H22.4586V11.688H22.0906V12.048H20.9626ZM21.0026 11.648H22.0506V10.6H21.0026V11.648ZM23.2283 12.048V11.688H22.8643V10.564H23.2283V10.2H24.3563V10.564H24.7243V10.96H24.3163V10.6H23.2683V10.92H23.9963V11.324H23.2683V11.648H24.3163V11.28H24.7243V11.684H24.3563V12.048H23.2283ZM2.26271 15.048V13.2H2.66671V15.048H2.26271ZM2.26271 12.88V12.476H2.66671V12.88H2.26271ZM3.0713 15.048V13.2H4.5633V13.564H4.9313V15.048H4.5233V13.6H3.4753V15.048H3.0713ZM5.33692 15.048V14.648H6.78892V14.324H5.70092V13.96H5.33692V13.564H5.70092V13.2H7.19692V13.6H5.74092V13.92H6.82892V14.284H7.19692V14.688H6.82892V15.048H5.33692ZM8.40467 15.048V14.688H8.04467V13.6H7.68067V13.2H8.04467V12.476H8.44467V13.2H9.54067V13.6H8.44467V14.648H9.50067V14.284H9.90467V14.688H9.54067V15.048H8.40467ZM10.3877 15.048V13.564H10.7517V13.2H11.8797V13.564H12.2477V13.96H11.8397V13.6H10.7917V15.048H10.3877ZM13.0173 15.048V14.688H12.6533V13.2H13.0573V14.648H14.1053V13.2H14.5133V14.688H14.1453V15.048H13.0173ZM15.322 15.048V14.688H14.958V13.564H15.322V13.2H16.45V13.564H16.818V13.96H16.41V13.6H15.362V14.648H16.41V14.284H16.818V14.688H16.45V15.048H15.322ZM17.5447 15.048V14.688H17.1807V13.564H17.5447V13.2H18.6727V13.564H19.0407V13.96H18.6327V13.6H17.5847V14.648H18.6327V14.284H19.0407V14.688H18.6727V15.048H17.5447ZM19.5244 15.048V13.2H19.9284V15.048H19.5244ZM19.5244 12.88V12.476H19.9284V12.88H19.5244ZM20.697 15.048V14.688H20.333V13.564H20.697V13.2H21.825V13.564H22.193V14.688H21.825V15.048H20.697ZM20.737 14.648H21.785V13.6H20.737V14.648ZM22.6768 15.048V13.2H24.1688V13.564H24.5368V15.048H24.1288V13.6H23.0808V15.048H22.6768ZM25.2634 15.048V14.688H24.8994V13.564H25.2634V13.2H26.3914V13.564H26.7594V13.96H26.3514V13.6H25.3034V13.92H26.0314V14.324H25.3034V14.648H26.3514V14.28H26.7594V14.684H26.3914V15.048H25.2634ZM27.2432 15.048V14.648H28.6952V14.324H27.6072V13.96H27.2432V13.564H27.6072V13.2H29.1032V13.6H27.6472V13.92H28.7352V14.284H29.1032V14.688H28.7352V15.048H27.2432Z" fill="#516B65"/>
<path d="M58.6591 61C58.6591 60.4477 59.1068 60 59.6591 60H85.9772C86.5295 60 86.9772 60.4477 86.9772 61V65C86.9772 65.5523 86.5295 66 85.9772 66H59.6591C59.1068 66 58.6591 65.5523 58.6591 65V61Z" fill="url(#paint2_linear_112_206)" fill-opacity="0.63" stroke="#816A57"/>
<path d="M67.9175 61.88C67.9175 61.972 67.9095 62.052 67.8935 62.12H67.2935C67.2775 62.052 67.2695 61.972 67.2695 61.88C67.2695 61.784 67.2775 61.704 67.2935 61.64H67.8935C67.9095 61.704 67.9175 61.784 67.9175 61.88ZM67.2935 64.04C67.3095 64.104 67.3175 64.184 67.3175 64.28C67.3175 64.372 67.3095 64.452 67.2935 64.52H66.9935C66.9775 64.452 66.9695 64.372 66.9695 64.28C66.9695 64.184 66.9775 64.104 66.9935 64.04H66.8135C66.7975 63.972 66.7895 63.892 66.7895 63.8C66.7895 63.704 66.7975 63.624 66.8135 63.56C66.7975 63.492 66.7895 63.412 66.7895 63.32C66.7895 63.224 66.7975 63.144 66.8135 63.08C66.7975 63.012 66.7895 62.932 66.7895 62.84C66.7895 62.744 66.7975 62.664 66.8135 62.6H66.9935C66.9775 62.532 66.9695 62.452 66.9695 62.36C66.9695 62.264 66.9775 62.184 66.9935 62.12H67.2935C67.3095 62.184 67.3175 62.264 67.3175 62.36C67.3175 62.452 67.3095 62.532 67.2935 62.6C67.3095 62.664 67.3175 62.744 67.3175 62.84C67.3175 62.932 67.3095 63.012 67.2935 63.08C67.3095 63.144 67.3175 63.224 67.3175 63.32C67.3175 63.412 67.3095 63.492 67.2935 63.56C67.3095 63.624 67.3175 63.704 67.3175 63.8C67.3175 63.892 67.3095 63.972 67.2935 64.04ZM68.3735 63.08C68.3895 63.144 68.3975 63.224 68.3975 63.32C68.3975 63.412 68.3895 63.492 68.3735 63.56C68.3895 63.624 68.3975 63.704 68.3975 63.8C68.3975 63.892 68.3895 63.972 68.3735 64.04H68.1935C68.2095 64.104 68.2175 64.184 68.2175 64.28C68.2175 64.372 68.2095 64.452 68.1935 64.52H67.8935C67.8775 64.452 67.8695 64.372 67.8695 64.28C67.8695 64.184 67.8775 64.104 67.8935 64.04C67.8775 63.972 67.8695 63.892 67.8695 63.8C67.8695 63.704 67.8775 63.624 67.8935 63.56C67.8775 63.492 67.8695 63.412 67.8695 63.32C67.8695 63.224 67.8775 63.144 67.8935 63.08C67.8775 63.012 67.8695 62.932 67.8695 62.84C67.8695 62.744 67.8775 62.664 67.8935 62.6C67.8775 62.532 67.8695 62.452 67.8695 62.36C67.8695 62.264 67.8775 62.184 67.8935 62.12H68.1935C68.2095 62.184 68.2175 62.264 68.2175 62.36C68.2175 62.452 68.2095 62.532 68.1935 62.6H68.3735C68.3895 62.664 68.3975 62.744 68.3975 62.84C68.3975 62.932 68.3895 63.012 68.3735 63.08ZM67.2695 64.76C67.2695 64.664 67.2775 64.584 67.2935 64.52H67.8935C67.9095 64.584 67.9175 64.664 67.9175 64.76C67.9175 64.852 67.9095 64.932 67.8935 65H67.2935C67.2775 64.932 67.2695 64.852 67.2695 64.76ZM71.3998 61.88C71.3998 61.972 71.3918 62.052 71.3758 62.12H70.7758C70.7598 62.052 70.7518 61.972 70.7518 61.88C70.7518 61.784 70.7598 61.704 70.7758 61.64H71.3758C71.3918 61.704 71.3998 61.784 71.3998 61.88ZM70.7758 64.04C70.7918 64.104 70.7998 64.184 70.7998 64.28C70.7998 64.372 70.7918 64.452 70.7758 64.52H70.4758C70.4598 64.452 70.4518 64.372 70.4518 64.28C70.4518 64.184 70.4598 64.104 70.4758 64.04H70.2958C70.2798 63.972 70.2718 63.892 70.2718 63.8C70.2718 63.704 70.2798 63.624 70.2958 63.56C70.2798 63.492 70.2718 63.412 70.2718 63.32C70.2718 63.224 70.2798 63.144 70.2958 63.08C70.2798 63.012 70.2718 62.932 70.2718 62.84C70.2718 62.744 70.2798 62.664 70.2958 62.6H70.4758C70.4598 62.532 70.4518 62.452 70.4518 62.36C70.4518 62.264 70.4598 62.184 70.4758 62.12H70.7758C70.7918 62.184 70.7998 62.264 70.7998 62.36C70.7998 62.452 70.7918 62.532 70.7758 62.6C70.7918 62.664 70.7998 62.744 70.7998 62.84C70.7998 62.932 70.7918 63.012 70.7758 63.08C70.7918 63.144 70.7998 63.224 70.7998 63.32C70.7998 63.412 70.7918 63.492 70.7758 63.56C70.7918 63.624 70.7998 63.704 70.7998 63.8C70.7998 63.892 70.7918 63.972 70.7758 64.04ZM71.8558 63.08C71.8718 63.144 71.8798 63.224 71.8798 63.32C71.8798 63.412 71.8718 63.492 71.8558 63.56C71.8718 63.624 71.8798 63.704 71.8798 63.8C71.8798 63.892 71.8718 63.972 71.8558 64.04H71.6758C71.6918 64.104 71.6998 64.184 71.6998 64.28C71.6998 64.372 71.6918 64.452 71.6758 64.52H71.3758C71.3598 64.452 71.3518 64.372 71.3518 64.28C71.3518 64.184 71.3598 64.104 71.3758 64.04C71.3598 63.972 71.3518 63.892 71.3518 63.8C71.3518 63.704 71.3598 63.624 71.3758 63.56C71.3598 63.492 71.3518 63.412 71.3518 63.32C71.3518 63.224 71.3598 63.144 71.3758 63.08C71.3598 63.012 71.3518 62.932 71.3518 62.84C71.3518 62.744 71.3598 62.664 71.3758 62.6C71.3598 62.532 71.3518 62.452 71.3518 62.36C71.3518 62.264 71.3598 62.184 71.3758 62.12H71.6758C71.6918 62.184 71.6998 62.264 71.6998 62.36C71.6998 62.452 71.6918 62.532 71.6758 62.6H71.8558C71.8718 62.664 71.8798 62.744 71.8798 62.84C71.8798 62.932 71.8718 63.012 71.8558 63.08ZM70.7518 64.76C70.7518 64.664 70.7598 64.584 70.7758 64.52H71.3758C71.3918 64.584 71.3998 64.664 71.3998 64.76C71.3998 64.852 71.3918 64.932 71.3758 65H70.7758C70.7598 64.932 70.7518 64.852 70.7518 64.76ZM74.8822 61.88C74.8822 61.972 74.8742 62.052 74.8582 62.12H74.2582C74.2422 62.052 74.2342 61.972 74.2342 61.88C74.2342 61.784 74.2422 61.704 74.2582 61.64H74.8582C74.8742 61.704 74.8822 61.784 74.8822 61.88ZM74.2582 64.04C74.2742 64.104 74.2822 64.184 74.2822 64.28C74.2822 64.372 74.2742 64.452 74.2582 64.52H73.9582C73.9422 64.452 73.9342 64.372 73.9342 64.28C73.9342 64.184 73.9422 64.104 73.9582 64.04H73.7782C73.7622 63.972 73.7542 63.892 73.7542 63.8C73.7542 63.704 73.7622 63.624 73.7782 63.56C73.7622 63.492 73.7542 63.412 73.7542 63.32C73.7542 63.224 73.7622 63.144 73.7782 63.08C73.7622 63.012 73.7542 62.932 73.7542 62.84C73.7542 62.744 73.7622 62.664 73.7782 62.6H73.9582C73.9422 62.532 73.9342 62.452 73.9342 62.36C73.9342 62.264 73.9422 62.184 73.9582 62.12H74.2582C74.2742 62.184 74.2822 62.264 74.2822 62.36C74.2822 62.452 74.2742 62.532 74.2582 62.6C74.2742 62.664 74.2822 62.744 74.2822 62.84C74.2822 62.932 74.2742 63.012 74.2582 63.08C74.2742 63.144 74.2822 63.224 74.2822 63.32C74.2822 63.412 74.2742 63.492 74.2582 63.56C74.2742 63.624 74.2822 63.704 74.2822 63.8C74.2822 63.892 74.2742 63.972 74.2582 64.04ZM75.3382 63.08C75.3542 63.144 75.3622 63.224 75.3622 63.32C75.3622 63.412 75.3542 63.492 75.3382 63.56C75.3542 63.624 75.3622 63.704 75.3622 63.8C75.3622 63.892 75.3542 63.972 75.3382 64.04H75.1582C75.1742 64.104 75.1822 64.184 75.1822 64.28C75.1822 64.372 75.1742 64.452 75.1582 64.52H74.8582C74.8422 64.452 74.8342 64.372 74.8342 64.28C74.8342 64.184 74.8422 64.104 74.8582 64.04C74.8422 63.972 74.8342 63.892 74.8342 63.8C74.8342 63.704 74.8422 63.624 74.8582 63.56C74.8422 63.492 74.8342 63.412 74.8342 63.32C74.8342 63.224 74.8422 63.144 74.8582 63.08C74.8422 63.012 74.8342 62.932 74.8342 62.84C74.8342 62.744 74.8422 62.664 74.8582 62.6C74.8422 62.532 74.8342 62.452 74.8342 62.36C74.8342 62.264 74.8422 62.184 74.8582 62.12H75.1582C75.1742 62.184 75.1822 62.264 75.1822 62.36C75.1822 62.452 75.1742 62.532 75.1582 62.6H75.3382C75.3542 62.664 75.3622 62.744 75.3622 62.84C75.3622 62.932 75.3542 63.012 75.3382 63.08ZM74.2342 64.76C74.2342 64.664 74.2422 64.584 74.2582 64.52H74.8582C74.8742 64.584 74.8822 64.664 74.8822 64.76C74.8822 64.852 74.8742 64.932 74.8582 65H74.2582C74.2422 64.932 74.2342 64.852 74.2342 64.76ZM78.3645 61.88C78.3645 61.972 78.3565 62.052 78.3405 62.12H77.7405C77.7245 62.052 77.7165 61.972 77.7165 61.88C77.7165 61.784 77.7245 61.704 77.7405 61.64H78.3405C78.3565 61.704 78.3645 61.784 78.3645 61.88ZM77.7405 64.04C77.7565 64.104 77.7645 64.184 77.7645 64.28C77.7645 64.372 77.7565 64.452 77.7405 64.52H77.4405C77.4245 64.452 77.4165 64.372 77.4165 64.28C77.4165 64.184 77.4245 64.104 77.4405 64.04H77.2605C77.2445 63.972 77.2365 63.892 77.2365 63.8C77.2365 63.704 77.2445 63.624 77.2605 63.56C77.2445 63.492 77.2365 63.412 77.2365 63.32C77.2365 63.224 77.2445 63.144 77.2605 63.08C77.2445 63.012 77.2365 62.932 77.2365 62.84C77.2365 62.744 77.2445 62.664 77.2605 62.6H77.4405C77.4245 62.532 77.4165 62.452 77.4165 62.36C77.4165 62.264 77.4245 62.184 77.4405 62.12H77.7405C77.7565 62.184 77.7645 62.264 77.7645 62.36C77.7645 62.452 77.7565 62.532 77.7405 62.6C77.7565 62.664 77.7645 62.744 77.7645 62.84C77.7645 62.932 77.7565 63.012 77.7405 63.08C77.7565 63.144 77.7645 63.224 77.7645 63.32C77.7645 63.412 77.7565 63.492 77.7405 63.56C77.7565 63.624 77.7645 63.704 77.7645 63.8C77.7645 63.892 77.7565 63.972 77.7405 64.04ZM78.8205 63.08C78.8365 63.144 78.8445 63.224 78.8445 63.32C78.8445 63.412 78.8365 63.492 78.8205 63.56C78.8365 63.624 78.8445 63.704 78.8445 63.8C78.8445 63.892 78.8365 63.972 78.8205 64.04H78.6405C78.6565 64.104 78.6645 64.184 78.6645 64.28C78.6645 64.372 78.6565 64.452 78.6405 64.52H78.3405C78.3245 64.452 78.3165 64.372 78.3165 64.28C78.3165 64.184 78.3245 64.104 78.3405 64.04C78.3245 63.972 78.3165 63.892 78.3165 63.8C78.3165 63.704 78.3245 63.624 78.3405 63.56C78.3245 63.492 78.3165 63.412 78.3165 63.32C78.3165 63.224 78.3245 63.144 78.3405 63.08C78.3245 63.012 78.3165 62.932 78.3165 62.84C78.3165 62.744 78.3245 62.664 78.3405 62.6C78.3245 62.532 78.3165 62.452 78.3165 62.36C78.3165 62.264 78.3245 62.184 78.3405 62.12H78.6405C78.6565 62.184 78.6645 62.264 78.6645 62.36C78.6645 62.452 78.6565 62.532 78.6405 62.6H78.8205C78.8365 62.664 78.8445 62.744 78.8445 62.84C78.8445 62.932 78.8365 63.012 78.8205 63.08ZM77.7165 64.76C77.7165 64.664 77.7245 64.584 77.7405 64.52H78.3405C78.3565 64.584 78.3645 64.664 78.3645 64.76C78.3645 64.852 78.3565 64.932 78.3405 65H77.7405C77.7245 64.932 77.7165 64.852 77.7165 64.76Z" fill="#F9F3E1"/>
<path d="M59.2631 56.048V55.688H58.8991V53.84H59.2631V53.476H60.3911V53.84H60.7591V54.6H60.3511V53.88H59.3031V55.648H60.3511V54.92H60.7591V55.688H60.3911V56.048H59.2631ZM61.6068 56.048V55.688H61.2428V54.564H61.6068V54.2H62.7348V54.564H63.1028V55.688H62.7348V56.048H61.6068ZM61.6468 55.648H62.6948V54.6H61.6468V55.648ZM63.5866 56.048V54.2H65.0786V54.564H65.4466V56.048H65.0386V54.6H63.9906V56.048H63.5866ZM66.4942 56.048V55.688H66.1342V54.6H65.7702V54.2H66.1342V53.476H66.5342V54.2H67.6302V54.6H66.5342V55.648H67.5902V55.284H67.9942V55.688H67.6302V56.048H66.4942ZM68.7201 56.048V55.688H68.3561V54.564H68.7201V54.2H69.8481V54.564H70.2161V55.648H70.5801V56.048H70.1761V55.688H69.8481V56.048H68.7201ZM68.7601 55.648H69.8081V54.6H68.7601V55.648ZM71.2279 56.048V55.688H70.8639V54.564H71.2279V54.2H72.3199V53.476H72.7239V55.688H72.3559V56.048H71.2279ZM71.2679 55.648H72.3159V54.6H71.2679V55.648ZM73.4935 56.048V55.688H73.1295V54.564H73.4935V54.2H74.6215V54.564H74.9895V55.688H74.6215V56.048H73.4935ZM73.5335 55.648H74.5815V54.6H73.5335V55.648ZM75.4733 56.048V54.564H75.8373V54.2H76.9653V54.564H77.3333V54.96H76.9253V54.6H75.8773V56.048H75.4733ZM58.8991 59.752V57.564H59.2631V57.2H60.3911V57.564H60.7591V58.688H60.3911V59.048H59.3031V59.752H58.8991ZM59.3031 58.648H60.3511V57.6H59.3031V58.648ZM61.2428 59.048V57.564H61.6068V57.2H62.7348V57.564H63.1028V57.96H62.6948V57.6H61.6468V59.048H61.2428ZM63.8295 59.048V58.688H63.4655V57.564H63.8295V57.2H64.9575V57.564H65.3255V58.688H64.9575V59.048H63.8295ZM63.8695 58.648H64.9175V57.6H63.8695V58.648ZM66.1732 59.772V59.412H65.8092V59.012H66.2132V59.372H67.2652V58.688H66.1732V58.324H65.8092V57.564H66.1732V57.2H67.3052V57.564H67.6692V59.412H67.3052V59.772H66.1732ZM66.2132 58.284H67.2652V57.6H66.2132V58.284ZM68.153 59.048V57.564H68.517V57.2H69.645V57.564H70.013V57.96H69.605V57.6H68.557V59.048H68.153ZM70.7396 59.048V58.688H70.3756V57.564H70.7396V57.2H71.8676V57.564H72.2356V58.648H72.5996V59.048H72.1956V58.688H71.8676V59.048H70.7396ZM70.7796 58.648H71.8276V57.6H70.7796V58.648ZM72.9616 59.048V57.2H74.0936V57.564H74.4136V57.2H75.1856V57.564H75.5456V59.048H75.1456V57.6H74.4536V59.048H74.0536V57.6H73.3656V59.048H72.9616ZM76.3529 59.048V58.688H75.9889V57.564H76.3529V57.2H77.4809V57.564H77.8489V58.648H78.2129V59.048H77.8089V58.688H77.4809V59.048H76.3529ZM76.3929 58.648H77.4409V57.6H76.3929V58.648Z" fill="#516B65"/>
<path d="M2.02271 39C2.02271 38.4477 2.47042 38 3.02271 38H29.3409C29.8932 38 30.3409 38.4477 30.3409 39V43C30.3409 43.5523 29.8932 44 29.3409 44H3.02271C2.47042 44 2.02271 43.5523 2.02271 43V39Z" fill="url(#paint3_linear_112_206)" fill-opacity="0.63" stroke="#816A57"/>
<path d="M4.31642 39.88C4.31642 39.972 4.30842 40.052 4.29242 40.12H3.69242C3.67642 40.052 3.66842 39.972 3.66842 39.88C3.66842 39.784 3.67642 39.704 3.69242 39.64H4.29242C4.30842 39.704 4.31642 39.784 4.31642 39.88ZM3.69242 42.04C3.70842 42.104 3.71642 42.184 3.71642 42.28C3.71642 42.372 3.70842 42.452 3.69242 42.52H3.39242C3.37642 42.452 3.36842 42.372 3.36842 42.28C3.36842 42.184 3.37642 42.104 3.39242 42.04H3.21242C3.19642 41.972 3.18842 41.892 3.18842 41.8C3.18842 41.704 3.19642 41.624 3.21242 41.56C3.19642 41.492 3.18842 41.412 3.18842 41.32C3.18842 41.224 3.19642 41.144 3.21242 41.08C3.19642 41.012 3.18842 40.932 3.18842 40.84C3.18842 40.744 3.19642 40.664 3.21242 40.6H3.39242C3.37642 40.532 3.36842 40.452 3.36842 40.36C3.36842 40.264 3.37642 40.184 3.39242 40.12H3.69242C3.70842 40.184 3.71642 40.264 3.71642 40.36C3.71642 40.452 3.70842 40.532 3.69242 40.6C3.70842 40.664 3.71642 40.744 3.71642 40.84C3.71642 40.932 3.70842 41.012 3.69242 41.08C3.70842 41.144 3.71642 41.224 3.71642 41.32C3.71642 41.412 3.70842 41.492 3.69242 41.56C3.70842 41.624 3.71642 41.704 3.71642 41.8C3.71642 41.892 3.70842 41.972 3.69242 42.04ZM4.77242 41.08C4.78842 41.144 4.79642 41.224 4.79642 41.32C4.79642 41.412 4.78842 41.492 4.77242 41.56C4.78842 41.624 4.79642 41.704 4.79642 41.8C4.79642 41.892 4.78842 41.972 4.77242 42.04H4.59242C4.60842 42.104 4.61642 42.184 4.61642 42.28C4.61642 42.372 4.60842 42.452 4.59242 42.52H4.29242C4.27642 42.452 4.26842 42.372 4.26842 42.28C4.26842 42.184 4.27642 42.104 4.29242 42.04C4.27642 41.972 4.26842 41.892 4.26842 41.8C4.26842 41.704 4.27642 41.624 4.29242 41.56C4.27642 41.492 4.26842 41.412 4.26842 41.32C4.26842 41.224 4.27642 41.144 4.29242 41.08C4.27642 41.012 4.26842 40.932 4.26842 40.84C4.26842 40.744 4.27642 40.664 4.29242 40.6C4.27642 40.532 4.26842 40.452 4.26842 40.36C4.26842 40.264 4.27642 40.184 4.29242 40.12H4.59242C4.60842 40.184 4.61642 40.264 4.61642 40.36C4.61642 40.452 4.60842 40.532 4.59242 40.6H4.77242C4.78842 40.664 4.79642 40.744 4.79642 40.84C4.79642 40.932 4.78842 41.012 4.77242 41.08ZM3.66842 42.76C3.66842 42.664 3.67642 42.584 3.69242 42.52H4.29242C4.30842 42.584 4.31642 42.664 4.31642 42.76C4.31642 42.852 4.30842 42.932 4.29242 43H3.69242C3.67642 42.932 3.66842 42.852 3.66842 42.76ZM7.79877 39.88C7.79877 39.972 7.79077 40.052 7.77477 40.12H7.17477C7.15877 40.052 7.15077 39.972 7.15077 39.88C7.15077 39.784 7.15877 39.704 7.17477 39.64H7.77477C7.79077 39.704 7.79877 39.784 7.79877 39.88ZM7.17477 42.04C7.19077 42.104 7.19877 42.184 7.19877 42.28C7.19877 42.372 7.19077 42.452 7.17477 42.52H6.87477C6.85877 42.452 6.85077 42.372 6.85077 42.28C6.85077 42.184 6.85877 42.104 6.87477 42.04H6.69477C6.67877 41.972 6.67077 41.892 6.67077 41.8C6.67077 41.704 6.67877 41.624 6.69477 41.56C6.67877 41.492 6.67077 41.412 6.67077 41.32C6.67077 41.224 6.67877 41.144 6.69477 41.08C6.67877 41.012 6.67077 40.932 6.67077 40.84C6.67077 40.744 6.67877 40.664 6.69477 40.6H6.87477C6.85877 40.532 6.85077 40.452 6.85077 40.36C6.85077 40.264 6.85877 40.184 6.87477 40.12H7.17477C7.19077 40.184 7.19877 40.264 7.19877 40.36C7.19877 40.452 7.19077 40.532 7.17477 40.6C7.19077 40.664 7.19877 40.744 7.19877 40.84C7.19877 40.932 7.19077 41.012 7.17477 41.08C7.19077 41.144 7.19877 41.224 7.19877 41.32C7.19877 41.412 7.19077 41.492 7.17477 41.56C7.19077 41.624 7.19877 41.704 7.19877 41.8C7.19877 41.892 7.19077 41.972 7.17477 42.04ZM8.25477 41.08C8.27077 41.144 8.27877 41.224 8.27877 41.32C8.27877 41.412 8.27077 41.492 8.25477 41.56C8.27077 41.624 8.27877 41.704 8.27877 41.8C8.27877 41.892 8.27077 41.972 8.25477 42.04H8.07477C8.09077 42.104 8.09877 42.184 8.09877 42.28C8.09877 42.372 8.09077 42.452 8.07477 42.52H7.77477C7.75877 42.452 7.75077 42.372 7.75077 42.28C7.75077 42.184 7.75877 42.104 7.77477 42.04C7.75877 41.972 7.75077 41.892 7.75077 41.8C7.75077 41.704 7.75877 41.624 7.77477 41.56C7.75877 41.492 7.75077 41.412 7.75077 41.32C7.75077 41.224 7.75877 41.144 7.77477 41.08C7.75877 41.012 7.75077 40.932 7.75077 40.84C7.75077 40.744 7.75877 40.664 7.77477 40.6C7.75877 40.532 7.75077 40.452 7.75077 40.36C7.75077 40.264 7.75877 40.184 7.77477 40.12H8.07477C8.09077 40.184 8.09877 40.264 8.09877 40.36C8.09877 40.452 8.09077 40.532 8.07477 40.6H8.25477C8.27077 40.664 8.27877 40.744 8.27877 40.84C8.27877 40.932 8.27077 41.012 8.25477 41.08ZM7.15077 42.76C7.15077 42.664 7.15877 42.584 7.17477 42.52H7.77477C7.79077 42.584 7.79877 42.664 7.79877 42.76C7.79877 42.852 7.79077 42.932 7.77477 43H7.17477C7.15877 42.932 7.15077 42.852 7.15077 42.76ZM11.2811 39.88C11.2811 39.972 11.2731 40.052 11.2571 40.12H10.6571C10.6411 40.052 10.6331 39.972 10.6331 39.88C10.6331 39.784 10.6411 39.704 10.6571 39.64H11.2571C11.2731 39.704 11.2811 39.784 11.2811 39.88ZM10.6571 42.04C10.6731 42.104 10.6811 42.184 10.6811 42.28C10.6811 42.372 10.6731 42.452 10.6571 42.52H10.3571C10.3411 42.452 10.3331 42.372 10.3331 42.28C10.3331 42.184 10.3411 42.104 10.3571 42.04H10.1771C10.1611 41.972 10.1531 41.892 10.1531 41.8C10.1531 41.704 10.1611 41.624 10.1771 41.56C10.1611 41.492 10.1531 41.412 10.1531 41.32C10.1531 41.224 10.1611 41.144 10.1771 41.08C10.1611 41.012 10.1531 40.932 10.1531 40.84C10.1531 40.744 10.1611 40.664 10.1771 40.6H10.3571C10.3411 40.532 10.3331 40.452 10.3331 40.36C10.3331 40.264 10.3411 40.184 10.3571 40.12H10.6571C10.6731 40.184 10.6811 40.264 10.6811 40.36C10.6811 40.452 10.6731 40.532 10.6571 40.6C10.6731 40.664 10.6811 40.744 10.6811 40.84C10.6811 40.932 10.6731 41.012 10.6571 41.08C10.6731 41.144 10.6811 41.224 10.6811 41.32C10.6811 41.412 10.6731 41.492 10.6571 41.56C10.6731 41.624 10.6811 41.704 10.6811 41.8C10.6811 41.892 10.6731 41.972 10.6571 42.04ZM11.7371 41.08C11.7531 41.144 11.7611 41.224 11.7611 41.32C11.7611 41.412 11.7531 41.492 11.7371 41.56C11.7531 41.624 11.7611 41.704 11.7611 41.8C11.7611 41.892 11.7531 41.972 11.7371 42.04H11.5571C11.5731 42.104 11.5811 42.184 11.5811 42.28C11.5811 42.372 11.5731 42.452 11.5571 42.52H11.2571C11.2411 42.452 11.2331 42.372 11.2331 42.28C11.2331 42.184 11.2411 42.104 11.2571 42.04C11.2411 41.972 11.2331 41.892 11.2331 41.8C11.2331 41.704 11.2411 41.624 11.2571 41.56C11.2411 41.492 11.2331 41.412 11.2331 41.32C11.2331 41.224 11.2411 41.144 11.2571 41.08C11.2411 41.012 11.2331 40.932 11.2331 40.84C11.2331 40.744 11.2411 40.664 11.2571 40.6C11.2411 40.532 11.2331 40.452 11.2331 40.36C11.2331 40.264 11.2411 40.184 11.2571 40.12H11.5571C11.5731 40.184 11.5811 40.264 11.5811 40.36C11.5811 40.452 11.5731 40.532 11.5571 40.6H11.7371C11.7531 40.664 11.7611 40.744 11.7611 40.84C11.7611 40.932 11.7531 41.012 11.7371 41.08ZM10.6331 42.76C10.6331 42.664 10.6411 42.584 10.6571 42.52H11.2571C11.2731 42.584 11.2811 42.664 11.2811 42.76C11.2811 42.852 11.2731 42.932 11.2571 43H10.6571C10.6411 42.932 10.6331 42.852 10.6331 42.76ZM14.7635 39.88C14.7635 39.972 14.7555 40.052 14.7395 40.12H14.1395C14.1235 40.052 14.1155 39.972 14.1155 39.88C14.1155 39.784 14.1235 39.704 14.1395 39.64H14.7395C14.7555 39.704 14.7635 39.784 14.7635 39.88ZM14.1395 42.04C14.1555 42.104 14.1635 42.184 14.1635 42.28C14.1635 42.372 14.1555 42.452 14.1395 42.52H13.8395C13.8235 42.452 13.8155 42.372 13.8155 42.28C13.8155 42.184 13.8235 42.104 13.8395 42.04H13.6595C13.6435 41.972 13.6355 41.892 13.6355 41.8C13.6355 41.704 13.6435 41.624 13.6595 41.56C13.6435 41.492 13.6355 41.412 13.6355 41.32C13.6355 41.224 13.6435 41.144 13.6595 41.08C13.6435 41.012 13.6355 40.932 13.6355 40.84C13.6355 40.744 13.6435 40.664 13.6595 40.6H13.8395C13.8235 40.532 13.8155 40.452 13.8155 40.36C13.8155 40.264 13.8235 40.184 13.8395 40.12H14.1395C14.1555 40.184 14.1635 40.264 14.1635 40.36C14.1635 40.452 14.1555 40.532 14.1395 40.6C14.1555 40.664 14.1635 40.744 14.1635 40.84C14.1635 40.932 14.1555 41.012 14.1395 41.08C14.1555 41.144 14.1635 41.224 14.1635 41.32C14.1635 41.412 14.1555 41.492 14.1395 41.56C14.1555 41.624 14.1635 41.704 14.1635 41.8C14.1635 41.892 14.1555 41.972 14.1395 42.04ZM15.2195 41.08C15.2355 41.144 15.2435 41.224 15.2435 41.32C15.2435 41.412 15.2355 41.492 15.2195 41.56C15.2355 41.624 15.2435 41.704 15.2435 41.8C15.2435 41.892 15.2355 41.972 15.2195 42.04H15.0395C15.0555 42.104 15.0635 42.184 15.0635 42.28C15.0635 42.372 15.0555 42.452 15.0395 42.52H14.7395C14.7235 42.452 14.7155 42.372 14.7155 42.28C14.7155 42.184 14.7235 42.104 14.7395 42.04C14.7235 41.972 14.7155 41.892 14.7155 41.8C14.7155 41.704 14.7235 41.624 14.7395 41.56C14.7235 41.492 14.7155 41.412 14.7155 41.32C14.7155 41.224 14.7235 41.144 14.7395 41.08C14.7235 41.012 14.7155 40.932 14.7155 40.84C14.7155 40.744 14.7235 40.664 14.7395 40.6C14.7235 40.532 14.7155 40.452 14.7155 40.36C14.7155 40.264 14.7235 40.184 14.7395 40.12H15.0395C15.0555 40.184 15.0635 40.264 15.0635 40.36C15.0635 40.452 15.0555 40.532 15.0395 40.6H15.2195C15.2355 40.664 15.2435 40.744 15.2435 40.84C15.2435 40.932 15.2355 41.012 15.2195 41.08ZM14.1155 42.76C14.1155 42.664 14.1235 42.584 14.1395 42.52H14.7395C14.7555 42.584 14.7635 42.664 14.7635 42.76C14.7635 42.852 14.7555 42.932 14.7395 43H14.1395C14.1235 42.932 14.1155 42.852 14.1155 42.76ZM18.2458 39.88C18.2458 39.972 18.2378 40.052 18.2218 40.12H17.6218C17.6058 40.052 17.5978 39.972 17.5978 39.88C17.5978 39.784 17.6058 39.704 17.6218 39.64H18.2218C18.2378 39.704 18.2458 39.784 18.2458 39.88ZM17.6218 42.04C17.6378 42.104 17.6458 42.184 17.6458 42.28C17.6458 42.372 17.6378 42.452 17.6218 42.52H17.3218C17.3058 42.452 17.2978 42.372 17.2978 42.28C17.2978 42.184 17.3058 42.104 17.3218 42.04H17.1418C17.1258 41.972 17.1178 41.892 17.1178 41.8C17.1178 41.704 17.1258 41.624 17.1418 41.56C17.1258 41.492 17.1178 41.412 17.1178 41.32C17.1178 41.224 17.1258 41.144 17.1418 41.08C17.1258 41.012 17.1178 40.932 17.1178 40.84C17.1178 40.744 17.1258 40.664 17.1418 40.6H17.3218C17.3058 40.532 17.2978 40.452 17.2978 40.36C17.2978 40.264 17.3058 40.184 17.3218 40.12H17.6218C17.6378 40.184 17.6458 40.264 17.6458 40.36C17.6458 40.452 17.6378 40.532 17.6218 40.6C17.6378 40.664 17.6458 40.744 17.6458 40.84C17.6458 40.932 17.6378 41.012 17.6218 41.08C17.6378 41.144 17.6458 41.224 17.6458 41.32C17.6458 41.412 17.6378 41.492 17.6218 41.56C17.6378 41.624 17.6458 41.704 17.6458 41.8C17.6458 41.892 17.6378 41.972 17.6218 42.04ZM18.7018 41.08C18.7178 41.144 18.7258 41.224 18.7258 41.32C18.7258 41.412 18.7178 41.492 18.7018 41.56C18.7178 41.624 18.7258 41.704 18.7258 41.8C18.7258 41.892 18.7178 41.972 18.7018 42.04H18.5218C18.5378 42.104 18.5458 42.184 18.5458 42.28C18.5458 42.372 18.5378 42.452 18.5218 42.52H18.2218C18.2058 42.452 18.1978 42.372 18.1978 42.28C18.1978 42.184 18.2058 42.104 18.2218 42.04C18.2058 41.972 18.1978 41.892 18.1978 41.8C18.1978 41.704 18.2058 41.624 18.2218 41.56C18.2058 41.492 18.1978 41.412 18.1978 41.32C18.1978 41.224 18.2058 41.144 18.2218 41.08C18.2058 41.012 18.1978 40.932 18.1978 40.84C18.1978 40.744 18.2058 40.664 18.2218 40.6C18.2058 40.532 18.1978 40.452 18.1978 40.36C18.1978 40.264 18.2058 40.184 18.2218 40.12H18.5218C18.5378 40.184 18.5458 40.264 18.5458 40.36C18.5458 40.452 18.5378 40.532 18.5218 40.6H18.7018C18.7178 40.664 18.7258 40.744 18.7258 40.84C18.7258 40.932 18.7178 41.012 18.7018 41.08ZM17.5978 42.76C17.5978 42.664 17.6058 42.584 17.6218 42.52H18.2218C18.2378 42.584 18.2458 42.664 18.2458 42.76C18.2458 42.852 18.2378 42.932 18.2218 43H17.6218C17.6058 42.932 17.5978 42.852 17.5978 42.76ZM21.7281 39.88C21.7281 39.972 21.7201 40.052 21.7041 40.12H21.1041C21.0881 40.052 21.0801 39.972 21.0801 39.88C21.0801 39.784 21.0881 39.704 21.1041 39.64H21.7041C21.7201 39.704 21.7281 39.784 21.7281 39.88ZM21.1041 42.04C21.1201 42.104 21.1281 42.184 21.1281 42.28C21.1281 42.372 21.1201 42.452 21.1041 42.52H20.8041C20.7881 42.452 20.7801 42.372 20.7801 42.28C20.7801 42.184 20.7881 42.104 20.8041 42.04H20.6241C20.6081 41.972 20.6001 41.892 20.6001 41.8C20.6001 41.704 20.6081 41.624 20.6241 41.56C20.6081 41.492 20.6001 41.412 20.6001 41.32C20.6001 41.224 20.6081 41.144 20.6241 41.08C20.6081 41.012 20.6001 40.932 20.6001 40.84C20.6001 40.744 20.6081 40.664 20.6241 40.6H20.8041C20.7881 40.532 20.7801 40.452 20.7801 40.36C20.7801 40.264 20.7881 40.184 20.8041 40.12H21.1041C21.1201 40.184 21.1281 40.264 21.1281 40.36C21.1281 40.452 21.1201 40.532 21.1041 40.6C21.1201 40.664 21.1281 40.744 21.1281 40.84C21.1281 40.932 21.1201 41.012 21.1041 41.08C21.1201 41.144 21.1281 41.224 21.1281 41.32C21.1281 41.412 21.1201 41.492 21.1041 41.56C21.1201 41.624 21.1281 41.704 21.1281 41.8C21.1281 41.892 21.1201 41.972 21.1041 42.04ZM22.1841 41.08C22.2001 41.144 22.2081 41.224 22.2081 41.32C22.2081 41.412 22.2001 41.492 22.1841 41.56C22.2001 41.624 22.2081 41.704 22.2081 41.8C22.2081 41.892 22.2001 41.972 22.1841 42.04H22.0041C22.0201 42.104 22.0281 42.184 22.0281 42.28C22.0281 42.372 22.0201 42.452 22.0041 42.52H21.7041C21.6881 42.452 21.6801 42.372 21.6801 42.28C21.6801 42.184 21.6881 42.104 21.7041 42.04C21.6881 41.972 21.6801 41.892 21.6801 41.8C21.6801 41.704 21.6881 41.624 21.7041 41.56C21.6881 41.492 21.6801 41.412 21.6801 41.32C21.6801 41.224 21.6881 41.144 21.7041 41.08C21.6881 41.012 21.6801 40.932 21.6801 40.84C21.6801 40.744 21.6881 40.664 21.7041 40.6C21.6881 40.532 21.6801 40.452 21.6801 40.36C21.6801 40.264 21.6881 40.184 21.7041 40.12H22.0041C22.0201 40.184 22.0281 40.264 22.0281 40.36C22.0281 40.452 22.0201 40.532 22.0041 40.6H22.1841C22.2001 40.664 22.2081 40.744 22.2081 40.84C22.2081 40.932 22.2001 41.012 22.1841 41.08ZM21.0801 42.76C21.0801 42.664 21.0881 42.584 21.1041 42.52H21.7041C21.7201 42.584 21.7281 42.664 21.7281 42.76C21.7281 42.852 21.7201 42.932 21.7041 43H21.1041C21.0881 42.932 21.0801 42.852 21.0801 42.76ZM25.2105 39.88C25.2105 39.972 25.2025 40.052 25.1865 40.12H24.5865C24.5705 40.052 24.5625 39.972 24.5625 39.88C24.5625 39.784 24.5705 39.704 24.5865 39.64H25.1865C25.2025 39.704 25.2105 39.784 25.2105 39.88ZM24.5865 42.04C24.6025 42.104 24.6105 42.184 24.6105 42.28C24.6105 42.372 24.6025 42.452 24.5865 42.52H24.2865C24.2705 42.452 24.2625 42.372 24.2625 42.28C24.2625 42.184 24.2705 42.104 24.2865 42.04H24.1065C24.0905 41.972 24.0825 41.892 24.0825 41.8C24.0825 41.704 24.0905 41.624 24.1065 41.56C24.0905 41.492 24.0825 41.412 24.0825 41.32C24.0825 41.224 24.0905 41.144 24.1065 41.08C24.0905 41.012 24.0825 40.932 24.0825 40.84C24.0825 40.744 24.0905 40.664 24.1065 40.6H24.2865C24.2705 40.532 24.2625 40.452 24.2625 40.36C24.2625 40.264 24.2705 40.184 24.2865 40.12H24.5865C24.6025 40.184 24.6105 40.264 24.6105 40.36C24.6105 40.452 24.6025 40.532 24.5865 40.6C24.6025 40.664 24.6105 40.744 24.6105 40.84C24.6105 40.932 24.6025 41.012 24.5865 41.08C24.6025 41.144 24.6105 41.224 24.6105 41.32C24.6105 41.412 24.6025 41.492 24.5865 41.56C24.6025 41.624 24.6105 41.704 24.6105 41.8C24.6105 41.892 24.6025 41.972 24.5865 42.04ZM25.6665 41.08C25.6825 41.144 25.6905 41.224 25.6905 41.32C25.6905 41.412 25.6825 41.492 25.6665 41.56C25.6825 41.624 25.6905 41.704 25.6905 41.8C25.6905 41.892 25.6825 41.972 25.6665 42.04H25.4865C25.5025 42.104 25.5105 42.184 25.5105 42.28C25.5105 42.372 25.5025 42.452 25.4865 42.52H25.1865C25.1705 42.452 25.1625 42.372 25.1625 42.28C25.1625 42.184 25.1705 42.104 25.1865 42.04C25.1705 41.972 25.1625 41.892 25.1625 41.8C25.1625 41.704 25.1705 41.624 25.1865 41.56C25.1705 41.492 25.1625 41.412 25.1625 41.32C25.1625 41.224 25.1705 41.144 25.1865 41.08C25.1705 41.012 25.1625 40.932 25.1625 40.84C25.1625 40.744 25.1705 40.664 25.1865 40.6C25.1705 40.532 25.1625 40.452 25.1625 40.36C25.1625 40.264 25.1705 40.184 25.1865 40.12H25.4865C25.5025 40.184 25.5105 40.264 25.5105 40.36C25.5105 40.452 25.5025 40.532 25.4865 40.6H25.6665C25.6825 40.664 25.6905 40.744 25.6905 40.84C25.6905 40.932 25.6825 41.012 25.6665 41.08ZM24.5625 42.76C24.5625 42.664 24.5705 42.584 24.5865 42.52H25.1865C25.2025 42.584 25.2105 42.664 25.2105 42.76C25.2105 42.852 25.2025 42.932 25.1865 43H24.5865C24.5705 42.932 24.5625 42.852 24.5625 42.76ZM28.6928 39.88C28.6928 39.972 28.6848 40.052 28.6688 40.12H28.0688C28.0528 40.052 28.0448 39.972 28.0448 39.88C28.0448 39.784 28.0528 39.704 28.0688 39.64H28.6688C28.6848 39.704 28.6928 39.784 28.6928 39.88ZM28.0688 42.04C28.0848 42.104 28.0928 42.184 28.0928 42.28C28.0928 42.372 28.0848 42.452 28.0688 42.52H27.7688C27.7528 42.452 27.7448 42.372 27.7448 42.28C27.7448 42.184 27.7528 42.104 27.7688 42.04H27.5888C27.5728 41.972 27.5648 41.892 27.5648 41.8C27.5648 41.704 27.5728 41.624 27.5888 41.56C27.5728 41.492 27.5648 41.412 27.5648 41.32C27.5648 41.224 27.5728 41.144 27.5888 41.08C27.5728 41.012 27.5648 40.932 27.5648 40.84C27.5648 40.744 27.5728 40.664 27.5888 40.6H27.7688C27.7528 40.532 27.7448 40.452 27.7448 40.36C27.7448 40.264 27.7528 40.184 27.7688 40.12H28.0688C28.0848 40.184 28.0928 40.264 28.0928 40.36C28.0928 40.452 28.0848 40.532 28.0688 40.6C28.0848 40.664 28.0928 40.744 28.0928 40.84C28.0928 40.932 28.0848 41.012 28.0688 41.08C28.0848 41.144 28.0928 41.224 28.0928 41.32C28.0928 41.412 28.0848 41.492 28.0688 41.56C28.0848 41.624 28.0928 41.704 28.0928 41.8C28.0928 41.892 28.0848 41.972 28.0688 42.04ZM29.1488 41.08C29.1648 41.144 29.1728 41.224 29.1728 41.32C29.1728 41.412 29.1648 41.492 29.1488 41.56C29.1648 41.624 29.1728 41.704 29.1728 41.8C29.1728 41.892 29.1648 41.972 29.1488 42.04H28.9688C28.9848 42.104 28.9928 42.184 28.9928 42.28C28.9928 42.372 28.9848 42.452 28.9688 42.52H28.6688C28.6528 42.452 28.6448 42.372 28.6448 42.28C28.6448 42.184 28.6528 42.104 28.6688 42.04C28.6528 41.972 28.6448 41.892 28.6448 41.8C28.6448 41.704 28.6528 41.624 28.6688 41.56C28.6528 41.492 28.6448 41.412 28.6448 41.32C28.6448 41.224 28.6528 41.144 28.6688 41.08C28.6528 41.012 28.6448 40.932 28.6448 40.84C28.6448 40.744 28.6528 40.664 28.6688 40.6C28.6528 40.532 28.6448 40.452 28.6448 40.36C28.6448 40.264 28.6528 40.184 28.6688 40.12H28.9688C28.9848 40.184 28.9928 40.264 28.9928 40.36C28.9928 40.452 28.9848 40.532 28.9688 40.6H29.1488C29.1648 40.664 29.1728 40.744 29.1728 40.84C29.1728 40.932 29.1648 41.012 29.1488 41.08ZM28.0448 42.76C28.0448 42.664 28.0528 42.584 28.0688 42.52H28.6688C28.6848 42.584 28.6928 42.664 28.6928 42.76C28.6928 42.852 28.6848 42.932 28.6688 43H28.0688C28.0528 42.932 28.0448 42.852 28.0448 42.76Z" fill="#F9F3E1"/>
<path d="M2.26271 34.048V31.84H2.62671V31.476H3.75471V31.84H4.12271V32.96H3.75471V33.324H3.57871V33.648H3.93871V34.048H3.53871V33.688H3.17071V33.324H2.66671V34.048H2.26271ZM2.66671 32.92H3.71471V31.88H2.66671V32.92ZM4.97046 34.048V33.688H4.60646V32.564H4.97046V32.2H6.09846V32.564H6.46646V32.96H6.05846V32.6H5.01046V32.92H5.73846V33.324H5.01046V33.648H6.05846V33.28H6.46646V33.684H6.09846V34.048H4.97046ZM7.31421 34.772V34.412H6.95021V34.012H7.35421V34.372H8.40621V33.688H7.31421V33.324H6.95021V32.564H7.31421V32.2H8.44621V32.564H8.81021V34.412H8.44621V34.772H7.31421ZM7.35421 33.284H8.40621V32.6H7.35421V33.284ZM9.29396 34.048V32.2H9.69796V34.048H9.29396ZM9.29396 31.88V31.476H9.69796V31.88H9.29396ZM10.1807 34.048V33.648H11.6327V33.324H10.5447V32.96H10.1807V32.564H10.5447V32.2H12.0407V32.6H10.5847V32.92H11.6727V33.284H12.0407V33.688H11.6727V34.048H10.1807ZM13.2484 34.048V33.688H12.8884V32.6H12.5244V32.2H12.8884V31.476H13.2884V32.2H14.3844V32.6H13.2884V33.648H14.3444V33.284H14.7484V33.688H14.3844V34.048H13.2484ZM15.2315 34.048V32.564H15.5955V32.2H16.7235V32.564H17.0915V32.96H16.6835V32.6H15.6355V34.048H15.2315ZM17.8181 34.048V33.688H17.4541V32.564H17.8181V32.2H18.9461V32.564H19.3141V33.688H18.9461V34.048H17.8181ZM17.8581 33.648H18.9061V32.6H17.8581V33.648ZM20.9626 34.048V33.688H20.5986V32.564H20.9626V32.2H22.0546V31.476H22.4586V33.688H22.0906V34.048H20.9626ZM21.0026 33.648H22.0506V32.6H21.0026V33.648ZM23.2283 34.048V33.688H22.8643V32.564H23.2283V32.2H24.3563V32.564H24.7243V32.96H24.3163V32.6H23.2683V32.92H23.9963V33.324H23.2683V33.648H24.3163V33.28H24.7243V33.684H24.3563V34.048H23.2283ZM2.62671 37.048V36.688H2.26271V35.564H2.62671V35.2H3.71871V34.476H4.12271V36.688H3.75471V37.048H2.62671ZM2.66671 36.648H3.71471V35.6H2.66671V36.648ZM4.89233 37.048V36.688H4.52833V35.564H4.89233V35.2H6.02033V35.564H6.38833V36.648H6.75233V37.048H6.34833V36.688H6.02033V37.048H4.89233ZM4.93233 36.648H5.98033V35.6H4.93233V36.648ZM7.51796 37.048V36.688H7.15796V35.6H6.79396V35.2H7.15796V34.476H7.55796V35.2H8.65396V35.6H7.55796V36.648H8.61396V36.284H9.01796V36.688H8.65396V37.048H7.51796ZM9.74389 37.048V36.688H9.37989V35.564H9.74389V35.2H10.8719V35.564H11.2399V36.688H10.8719V37.048H9.74389ZM9.78389 36.648H10.8319V35.6H9.78389V36.648ZM11.7236 37.048V36.648H13.1756V36.324H12.0876V35.96H11.7236V35.564H12.0876V35.2H13.5836V35.6H12.1276V35.92H13.2156V36.284H13.5836V36.688H13.2156V37.048H11.7236Z" fill="#516B65"/>
<path d="M86.9772 30C86.9772 37.732 80.638 44 72.8181 44C64.9983 44 58.6591 37.732 58.6591 30C58.6591 22.268 64.9983 16 72.8181 16C80.638 16 86.9772 22.268 86.9772 30Z" fill="url(#paint4_linear_112_206)" fill-opacity="0.8" stroke="#816A57" stroke-linecap="round"/>
<path d="M61.2151 31.048V30.688H60.8511V28.84H61.2151V28.476H62.3431V28.84H62.7111V29.6H62.3031V28.88H61.2551V30.648H62.3031V29.92H62.7111V30.688H62.3431V31.048H61.2151ZM63.5589 31.048V30.688H63.1949V29.564H63.5589V29.2H64.6869V29.564H65.0549V30.688H64.6869V31.048H63.5589ZM63.5989 30.648H64.6469V29.6H63.5989V30.648ZM65.5386 31.048V29.2H67.0306V29.564H67.3986V31.048H66.9906V29.6H65.9426V31.048H65.5386ZM68.4462 31.048V30.688H68.0862V29.6H67.7222V29.2H68.0862V28.476H68.4862V29.2H69.5822V29.6H68.4862V30.648H69.5422V30.284H69.9462V30.688H69.5822V31.048H68.4462ZM70.4292 31.048V29.564H70.7932V29.2H71.9212V29.564H72.2892V29.96H71.8812V29.6H70.8332V31.048H70.4292ZM73.0159 31.048V30.688H72.6519V29.564H73.0159V29.2H74.1439V29.564H74.5119V30.688H74.1439V31.048H73.0159ZM73.0559 30.648H74.1039V29.6H73.0559V30.648ZM74.9956 31.048V28.476H75.3996V31.048H74.9956ZM76.1682 31.048V30.688H75.8042V29.564H76.1682V29.2H77.2962V29.564H77.6642V30.648H78.0282V31.048H77.6242V30.688H77.2962V31.048H76.1682ZM76.2082 30.648H77.2562V29.6H76.2082V30.648ZM78.6761 31.048V30.688H78.3121V29.564H78.6761V29.2H79.7681V28.476H80.1721V30.688H79.8041V31.048H78.6761ZM78.7161 30.648H79.7641V29.6H78.7161V30.648ZM80.9417 31.048V30.688H80.5777V29.564H80.9417V29.2H82.0697V29.564H82.4377V30.688H82.0697V31.048H80.9417ZM80.9817 30.648H82.0297V29.6H80.9817V30.648ZM82.9214 31.048V29.564H83.2854V29.2H84.4134V29.564H84.7814V29.96H84.3734V29.6H83.3254V31.048H82.9214Z" fill="#516B65"/>
<path d="M30.8066 63L33.3066 64.4434V61.5566L30.8066 63ZM58.6591 63V62.75H33.0566V63V63.25H58.6591V63Z" fill="#816A57"/>
<defs>
<filter id="filter0_d_112_206" x="0" y="0" width="91" height="71" filterUnits="userSpaceOnUse" color-interpolation-filters="sRGB">
<feFlood flood-opacity="0" result="BackgroundImageFix"/>
<feColorMatrix in="SourceAlpha" type="matrix" values="0 0 0 0 0 0 0 0 0 0 0 0 0 0 0 0 0 0 127 0" result="hardAlpha"/>
<feOffset dx="2" dy="2"/>
<feComposite in2="hardAlpha" operator="out"/>
<feColorMatrix type="matrix" values="0 0 0 0 0.2 0 0 0 0 0.2 0 0 0 0 0.2 0 0 0 1 0"/>
<feBlend mode="normal" in2="BackgroundImageFix" result="effect1_dropShadow_112_206"/>
<feBlend mode="normal" in="SourceGraphic" in2="effect1_dropShadow_112_206" result="shape"/>
</filter>
<linearGradient id="paint0_linear_112_206" x1="2.02271" y1="63" x2="30.3409" y2="63" gradientUnits="userSpaceOnUse">
<stop stop-color="#9FD1C6"/>
<stop offset="1" stop-color="#516B65"/>
</linearGradient>
<linearGradient id="paint1_linear_112_206" x1="2.02271" y1="19" x2="30.3409" y2="19" gradientUnits="userSpaceOnUse">
<stop stop-color="#9FD1C6"/>
<stop offset="1" stop-color="#516B65"/>
</linearGradient>
<linearGradient id="paint2_linear_112_206" x1="58.6591" y1="63" x2="86.9772" y2="63" gradientUnits="userSpaceOnUse">
<stop stop-color="#9FD1C6"/>
<stop offset="1" stop-color="#516B65"/>
</linearGradient>
<linearGradient id="paint3_linear_112_206" x1="2.02271" y1="41" x2="30.3409" y2="41" gradientUnits="userSpaceOnUse">
<stop stop-color="#9FD1C6"/>
<stop offset="1" stop-color="#516B65"/>
</linearGradient>
<linearGradient id="paint4_linear_112_206" x1="58.6591" y1="30" x2="86.9772" y2="30" gradientUnits="userSpaceOnUse">
<stop stop-color="#9FD1C6"/>
<stop offset="1" stop-color="#516B65" stop-opacity="0.8"/>
</linearGradient>
</defs>
</svg>
