<svg width="500" height="500" viewBox="0 0 500 500" fill="none" xmlns="http://www.w3.org/2000/svg">
<g id="VonNewmannModel">
<path id="Title" d="M172.156 7.48C172.22 7.736 172.252 8.056 172.252 8.44C172.252 8.808 172.22 9.128 172.156 9.4C172.22 9.656 172.252 9.976 172.252 10.36C172.252 10.728 172.22 11.048 172.156 11.32C172.22 11.576 172.252 11.896 172.252 12.28C172.252 12.648 172.22 12.968 172.156 13.24C172.22 13.496 172.252 13.816 172.252 14.2C172.252 14.568 172.22 14.888 172.156 15.16C172.22 15.416 172.252 15.736 172.252 16.12C172.252 16.488 172.22 16.808 172.156 17.08C172.22 17.336 172.252 17.656 172.252 18.04C172.252 18.408 172.22 18.728 172.156 19H170.236C170.172 18.728 170.14 18.408 170.14 18.04C170.14 17.656 170.172 17.336 170.236 17.08C170.172 16.808 170.14 16.488 170.14 16.12C170.14 15.736 170.172 15.416 170.236 15.16C170.172 14.888 170.14 14.568 170.14 14.2C170.14 13.816 170.172 13.496 170.236 13.24C170.172 12.968 170.14 12.648 170.14 12.28C170.14 11.896 170.172 11.576 170.236 11.32C170.172 11.048 170.14 10.728 170.14 10.36C170.14 9.976 170.172 9.656 170.236 9.4H169.516C169.58 9.656 169.612 9.976 169.612 10.36C169.612 10.728 169.58 11.048 169.516 11.32C169.58 11.576 169.612 11.896 169.612 12.28C169.612 12.648 169.58 12.968 169.516 13.24H169.036C169.1 13.496 169.132 13.816 169.132 14.2C169.132 14.568 169.1 14.888 169.036 15.16C169.1 15.416 169.132 15.736 169.132 16.12C169.132 16.488 169.1 16.808 169.036 17.08H167.596C167.532 16.808 167.5 16.488 167.5 16.12C167.5 15.736 167.532 15.416 167.596 15.16C167.532 14.888 167.5 14.568 167.5 14.2C167.5 13.816 167.532 13.496 167.596 13.24H167.116C167.052 12.968 167.02 12.648 167.02 12.28C167.02 11.896 167.052 11.576 167.116 11.32C167.052 11.048 167.02 10.728 167.02 10.36C167.02 9.976 167.052 9.656 167.116 9.4H166.396C166.46 9.656 166.492 9.976 166.492 10.36C166.492 10.728 166.46 11.048 166.396 11.32C166.46 11.576 166.492 11.896 166.492 12.28C166.492 12.648 166.46 12.968 166.396 13.24C166.46 13.496 166.492 13.816 166.492 14.2C166.492 14.568 166.46 14.888 166.396 15.16C166.46 15.416 166.492 15.736 166.492 16.12C166.492 16.488 166.46 16.808 166.396 17.08C166.46 17.336 166.492 17.656 166.492 18.04C166.492 18.408 166.46 18.728 166.396 19H164.476C164.412 18.728 164.38 18.408 164.38 18.04C164.38 17.656 164.412 17.336 164.476 17.08C164.412 16.808 164.38 16.488 164.38 16.12C164.38 15.736 164.412 15.416 164.476 15.16C164.412 14.888 164.38 14.568 164.38 14.2C164.38 13.816 164.412 13.496 164.476 13.24C164.412 12.968 164.38 12.648 164.38 12.28C164.38 11.896 164.412 11.576 164.476 11.32C164.412 11.048 164.38 10.728 164.38 10.36C164.38 9.976 164.412 9.656 164.476 9.4C164.412 9.128 164.38 8.808 164.38 8.44C164.38 8.056 164.412 7.736 164.476 7.48C164.412 7.208 164.38 6.888 164.38 6.52C164.38 6.136 164.412 5.816 164.476 5.56H166.876C166.94 5.816 166.972 6.136 166.972 6.52C166.972 6.888 166.94 7.208 166.876 7.48H167.596C167.66 7.736 167.692 8.056 167.692 8.44C167.692 8.808 167.66 9.128 167.596 9.4H167.956C168.02 9.656 168.052 9.976 168.052 10.36C168.052 10.728 168.02 11.048 167.956 11.32H168.676C168.612 11.048 168.58 10.728 168.58 10.36C168.58 9.976 168.612 9.656 168.676 9.4H169.036C168.972 9.128 168.94 8.808 168.94 8.44C168.94 8.056 168.972 7.736 169.036 7.48H169.756C169.692 7.208 169.66 6.888 169.66 6.52C169.66 6.136 169.692 5.816 169.756 5.56H172.156C172.22 5.816 172.252 6.136 172.252 6.52C172.252 6.888 172.22 7.208 172.156 7.48ZM181.861 14.2C181.861 14.568 181.829 14.888 181.765 15.16H181.045C181.109 15.416 181.141 15.736 181.141 16.12C181.141 16.488 181.109 16.808 181.045 17.08H179.845C179.909 17.336 179.941 17.656 179.941 18.04C179.941 18.408 179.909 18.728 179.845 19H176.005C175.941 18.728 175.909 18.408 175.909 18.04C175.909 17.656 175.941 17.336 176.005 17.08H174.805C174.741 16.808 174.709 16.488 174.709 16.12C174.709 15.736 174.741 15.416 174.805 15.16H174.085C174.021 14.888 173.989 14.568 173.989 14.2C173.989 13.816 174.021 13.496 174.085 13.24H174.805C174.741 12.968 174.709 12.648 174.709 12.28C174.709 11.896 174.741 11.576 174.805 11.32H176.005C175.941 11.048 175.909 10.728 175.909 10.36C175.909 9.976 175.941 9.656 176.005 9.4H179.845C179.909 9.656 179.941 9.976 179.941 10.36C179.941 10.728 179.909 11.048 179.845 11.32H181.045C181.109 11.576 181.141 11.896 181.141 12.28C181.141 12.648 181.109 12.968 181.045 13.24H181.765C181.829 13.496 181.861 13.816 181.861 14.2ZM179.845 15.16C179.781 14.888 179.749 14.568 179.749 14.2C179.749 13.816 179.781 13.496 179.845 13.24H179.125C179.061 12.968 179.029 12.648 179.029 12.28C179.029 11.896 179.061 11.576 179.125 11.32H176.725C176.789 11.576 176.821 11.896 176.821 12.28C176.821 12.648 176.789 12.968 176.725 13.24H176.005C176.069 13.496 176.101 13.816 176.101 14.2C176.101 14.568 176.069 14.888 176.005 15.16H176.725C176.789 15.416 176.821 15.736 176.821 16.12C176.821 16.488 176.789 16.808 176.725 17.08H179.125C179.061 16.808 179.029 16.488 179.029 16.12C179.029 15.736 179.061 15.416 179.125 15.16H179.845ZM191.374 7.48C191.438 7.736 191.47 8.056 191.47 8.44C191.47 8.808 191.438 9.128 191.374 9.4C191.438 9.656 191.47 9.976 191.47 10.36C191.47 10.728 191.438 11.048 191.374 11.32C191.438 11.576 191.47 11.896 191.47 12.28C191.47 12.648 191.438 12.968 191.374 13.24C191.438 13.496 191.47 13.816 191.47 14.2C191.47 14.568 191.438 14.888 191.374 15.16C191.438 15.416 191.47 15.736 191.47 16.12C191.47 16.488 191.438 16.808 191.374 17.08C191.438 17.336 191.47 17.656 191.47 18.04C191.47 18.408 191.438 18.728 191.374 19H189.454C189.39 18.728 189.358 18.408 189.358 18.04C189.358 17.656 189.39 17.336 189.454 17.08H188.734C188.67 16.808 188.638 16.488 188.638 16.12C188.638 15.736 188.67 15.416 188.734 15.16H189.454C189.39 14.888 189.358 14.568 189.358 14.2C189.358 13.816 189.39 13.496 189.454 13.24H188.734C188.67 12.968 188.638 12.648 188.638 12.28C188.638 11.896 188.67 11.576 188.734 11.32H189.454C189.39 11.048 189.358 10.728 189.358 10.36C189.358 9.976 189.39 9.656 189.454 9.4C189.39 9.128 189.358 8.808 189.358 8.44C189.358 8.056 189.39 7.736 189.454 7.48C189.39 7.208 189.358 6.888 189.358 6.52C189.358 6.136 189.39 5.816 189.454 5.56H191.374C191.438 5.816 191.47 6.136 191.47 6.52C191.47 6.888 191.438 7.208 191.374 7.48ZM188.35 10.36C188.35 10.728 188.318 11.048 188.254 11.32H185.854C185.918 11.576 185.95 11.896 185.95 12.28C185.95 12.648 185.918 12.968 185.854 13.24H185.134C185.198 13.496 185.23 13.816 185.23 14.2C185.23 14.568 185.198 14.888 185.134 15.16H185.854C185.918 15.416 185.95 15.736 185.95 16.12C185.95 16.488 185.918 16.808 185.854 17.08H188.254C188.318 17.336 188.35 17.656 188.35 18.04C188.35 18.408 188.318 18.728 188.254 19H185.614C185.55 18.728 185.518 18.408 185.518 18.04C185.518 17.656 185.55 17.336 185.614 17.08H184.414C184.35 16.808 184.318 16.488 184.318 16.12C184.318 15.736 184.35 15.416 184.414 15.16H183.694C183.63 14.888 183.598 14.568 183.598 14.2C183.598 13.816 183.63 13.496 183.694 13.24H184.414C184.35 12.968 184.318 12.648 184.318 12.28C184.318 11.896 184.35 11.576 184.414 11.32H185.614C185.55 11.048 185.518 10.728 185.518 10.36C185.518 9.976 185.55 9.656 185.614 9.4H188.254C188.318 9.656 188.35 9.976 188.35 10.36ZM201.08 12.28C201.08 12.648 201.048 12.968 200.984 13.24C201.048 13.496 201.08 13.816 201.08 14.2C201.08 14.568 201.048 14.888 200.984 15.16H195.944C196.008 15.416 196.04 15.736 196.04 16.12C196.04 16.488 196.008 16.808 195.944 17.08H200.024C200.088 17.336 200.12 17.656 200.12 18.04C200.12 18.408 200.088 18.728 200.024 19H195.224C195.16 18.728 195.128 18.408 195.128 18.04C195.128 17.656 195.16 17.336 195.224 17.08H194.024C193.96 16.808 193.928 16.488 193.928 16.12C193.928 15.736 193.96 15.416 194.024 15.16H193.304C193.24 14.888 193.208 14.568 193.208 14.2C193.208 13.816 193.24 13.496 193.304 13.24H194.024C193.96 12.968 193.928 12.648 193.928 12.28C193.928 11.896 193.96 11.576 194.024 11.32H195.224C195.16 11.048 195.128 10.728 195.128 10.36C195.128 9.976 195.16 9.656 195.224 9.4H200.024C200.088 9.656 200.12 9.976 200.12 10.36C200.12 10.728 200.088 11.048 200.024 11.32H200.984C201.048 11.576 201.08 11.896 201.08 12.28ZM199.064 13.24C199 12.968 198.968 12.648 198.968 12.28C198.968 11.896 199 11.576 199.064 11.32H195.944C196.008 11.576 196.04 11.896 196.04 12.28C196.04 12.648 196.008 12.968 195.944 13.24H199.064ZM209.633 17.08C209.697 17.336 209.729 17.656 209.729 18.04C209.729 18.408 209.697 18.728 209.633 19H203.873C203.809 18.728 203.777 18.408 203.777 18.04C203.777 17.656 203.809 17.336 203.873 17.08H205.793C205.729 16.808 205.697 16.488 205.697 16.12C205.697 15.736 205.729 15.416 205.793 15.16C205.729 14.888 205.697 14.568 205.697 14.2C205.697 13.816 205.729 13.496 205.793 13.24C205.729 12.968 205.697 12.648 205.697 12.28C205.697 11.896 205.729 11.576 205.793 11.32C205.729 11.048 205.697 10.728 205.697 10.36C205.697 9.976 205.729 9.656 205.793 9.4C205.729 9.128 205.697 8.808 205.697 8.44C205.697 8.056 205.729 7.736 205.793 7.48H204.353C204.289 7.208 204.257 6.888 204.257 6.52C204.257 6.136 204.289 5.816 204.353 5.56H207.713C207.777 5.816 207.809 6.136 207.809 6.52C207.809 6.888 207.777 7.208 207.713 7.48C207.777 7.736 207.809 8.056 207.809 8.44C207.809 8.808 207.777 9.128 207.713 9.4C207.777 9.656 207.809 9.976 207.809 10.36C207.809 10.728 207.777 11.048 207.713 11.32C207.777 11.576 207.809 11.896 207.809 12.28C207.809 12.648 207.777 12.968 207.713 13.24C207.777 13.496 207.809 13.816 207.809 14.2C207.809 14.568 207.777 14.888 207.713 15.16C207.777 15.416 207.809 15.736 207.809 16.12C207.809 16.488 207.777 16.808 207.713 17.08H209.633ZM220.299 14.2C220.299 14.568 220.267 14.888 220.203 15.16H219.483C219.547 15.416 219.579 15.736 219.579 16.12C219.579 16.488 219.547 16.808 219.483 17.08H218.283C218.347 17.336 218.379 17.656 218.379 18.04C218.379 18.408 218.347 18.728 218.283 19H214.443C214.379 18.728 214.347 18.408 214.347 18.04C214.347 17.656 214.379 17.336 214.443 17.08H213.243C213.178 16.808 213.146 16.488 213.146 16.12C213.146 15.736 213.178 15.416 213.243 15.16H212.523C212.459 14.888 212.427 14.568 212.427 14.2C212.427 13.816 212.459 13.496 212.523 13.24H213.243C213.178 12.968 213.146 12.648 213.146 12.28C213.146 11.896 213.178 11.576 213.243 11.32H214.443C214.379 11.048 214.347 10.728 214.347 10.36C214.347 9.976 214.379 9.656 214.443 9.4H218.283C218.347 9.656 218.379 9.976 218.379 10.36C218.379 10.728 218.347 11.048 218.283 11.32H219.483C219.547 11.576 219.579 11.896 219.579 12.28C219.579 12.648 219.547 12.968 219.483 13.24H220.203C220.267 13.496 220.299 13.816 220.299 14.2ZM218.283 15.16C218.219 14.888 218.187 14.568 218.187 14.2C218.187 13.816 218.219 13.496 218.283 13.24H217.562C217.499 12.968 217.467 12.648 217.467 12.28C217.467 11.896 217.499 11.576 217.562 11.32H215.163C215.227 11.576 215.259 11.896 215.259 12.28C215.259 12.648 215.227 12.968 215.163 13.24H214.443C214.507 13.496 214.539 13.816 214.539 14.2C214.539 14.568 214.507 14.888 214.443 15.16H215.163C215.227 15.416 215.259 15.736 215.259 16.12C215.259 16.488 215.227 16.808 215.163 17.08H217.562C217.499 16.808 217.467 16.488 217.467 16.12C217.467 15.736 217.499 15.416 217.562 15.16H218.283ZM239.421 7.48C239.485 7.736 239.517 8.056 239.517 8.44C239.517 8.808 239.485 9.128 239.421 9.4C239.485 9.656 239.517 9.976 239.517 10.36C239.517 10.728 239.485 11.048 239.421 11.32H238.701C238.765 11.576 238.797 11.896 238.797 12.28C238.797 12.648 238.765 12.968 238.701 13.24H237.981C238.045 13.496 238.077 13.816 238.077 14.2C238.077 14.568 238.045 14.888 237.981 15.16H237.501C237.565 15.416 237.597 15.736 237.597 16.12C237.597 16.488 237.565 16.808 237.501 17.08H236.541C236.605 17.336 236.637 17.656 236.637 18.04C236.637 18.408 236.605 18.728 236.541 19H234.621C234.557 18.728 234.525 18.408 234.525 18.04C234.525 17.656 234.557 17.336 234.621 17.08H233.661C233.597 16.808 233.565 16.488 233.565 16.12C233.565 15.736 233.597 15.416 233.661 15.16H233.181C233.117 14.888 233.085 14.568 233.085 14.2C233.085 13.816 233.117 13.496 233.181 13.24H232.461C232.397 12.968 232.365 12.648 232.365 12.28C232.365 11.896 232.397 11.576 232.461 11.32H231.741C231.677 11.048 231.645 10.728 231.645 10.36C231.645 9.976 231.677 9.656 231.741 9.4C231.677 9.128 231.645 8.808 231.645 8.44C231.645 8.056 231.677 7.736 231.741 7.48C231.677 7.208 231.645 6.888 231.645 6.52C231.645 6.136 231.677 5.816 231.741 5.56H233.661C233.725 5.816 233.757 6.136 233.757 6.52C233.757 6.888 233.725 7.208 233.661 7.48C233.725 7.736 233.757 8.056 233.757 8.44C233.757 8.808 233.725 9.128 233.661 9.4C233.725 9.656 233.757 9.976 233.757 10.36C233.757 10.728 233.725 11.048 233.661 11.32H234.381C234.445 11.576 234.477 11.896 234.477 12.28C234.477 12.648 234.445 12.968 234.381 13.24H235.101C235.165 13.496 235.197 13.816 235.197 14.2C235.197 14.568 235.165 14.888 235.101 15.16H236.061C235.997 14.888 235.965 14.568 235.965 14.2C235.965 13.816 235.997 13.496 236.061 13.24H236.781C236.717 12.968 236.685 12.648 236.685 12.28C236.685 11.896 236.717 11.576 236.781 11.32H237.501C237.437 11.048 237.405 10.728 237.405 10.36C237.405 9.976 237.437 9.656 237.501 9.4C237.437 9.128 237.405 8.808 237.405 8.44C237.405 8.056 237.437 7.736 237.501 7.48C237.437 7.208 237.405 6.888 237.405 6.52C237.405 6.136 237.437 5.816 237.501 5.56H239.421C239.485 5.816 239.517 6.136 239.517 6.52C239.517 6.888 239.485 7.208 239.421 7.48ZM249.127 14.2C249.127 14.568 249.095 14.888 249.031 15.16H248.311C248.375 15.416 248.407 15.736 248.407 16.12C248.407 16.488 248.375 16.808 248.311 17.08H247.111C247.175 17.336 247.207 17.656 247.207 18.04C247.207 18.408 247.175 18.728 247.111 19H243.271C243.207 18.728 243.175 18.408 243.175 18.04C243.175 17.656 243.207 17.336 243.271 17.08H242.071C242.007 16.808 241.975 16.488 241.975 16.12C241.975 15.736 242.007 15.416 242.071 15.16H241.351C241.287 14.888 241.255 14.568 241.255 14.2C241.255 13.816 241.287 13.496 241.351 13.24H242.071C242.007 12.968 241.975 12.648 241.975 12.28C241.975 11.896 242.007 11.576 242.071 11.32H243.271C243.207 11.048 243.175 10.728 243.175 10.36C243.175 9.976 243.207 9.656 243.271 9.4H247.111C247.175 9.656 247.207 9.976 247.207 10.36C247.207 10.728 247.175 11.048 247.111 11.32H248.311C248.375 11.576 248.407 11.896 248.407 12.28C248.407 12.648 248.375 12.968 248.311 13.24H249.031C249.095 13.496 249.127 13.816 249.127 14.2ZM247.111 15.16C247.047 14.888 247.015 14.568 247.015 14.2C247.015 13.816 247.047 13.496 247.111 13.24H246.391C246.327 12.968 246.295 12.648 246.295 12.28C246.295 11.896 246.327 11.576 246.391 11.32H243.991C244.055 11.576 244.087 11.896 244.087 12.28C244.087 12.648 244.055 12.968 243.991 13.24H243.271C243.335 13.496 243.367 13.816 243.367 14.2C243.367 14.568 243.335 14.888 243.271 15.16H243.991C244.055 15.416 244.087 15.736 244.087 16.12C244.087 16.488 244.055 16.808 243.991 17.08H246.391C246.327 16.808 246.295 16.488 246.295 16.12C246.295 15.736 246.327 15.416 246.391 15.16H247.111ZM252.736 10.36C252.736 10.728 252.704 11.048 252.64 11.32H253.6C253.664 11.576 253.696 11.896 253.696 12.28C253.696 12.648 253.664 12.968 253.6 13.24H252.88C252.944 13.496 252.976 13.816 252.976 14.2C252.976 14.568 252.944 14.888 252.88 15.16C252.944 15.416 252.976 15.736 252.976 16.12C252.976 16.488 252.944 16.808 252.88 17.08C252.944 17.336 252.976 17.656 252.976 18.04C252.976 18.408 252.944 18.728 252.88 19H250.96C250.896 18.728 250.864 18.408 250.864 18.04C250.864 17.656 250.896 17.336 250.96 17.08C250.896 16.808 250.864 16.488 250.864 16.12C250.864 15.736 250.896 15.416 250.96 15.16C250.896 14.888 250.864 14.568 250.864 14.2C250.864 13.816 250.896 13.496 250.96 13.24C250.896 12.968 250.864 12.648 250.864 12.28C250.864 11.896 250.896 11.576 250.96 11.32C250.896 11.048 250.864 10.728 250.864 10.36C250.864 9.976 250.896 9.656 250.96 9.4H252.64C252.704 9.656 252.736 9.976 252.736 10.36ZM258.64 13.24C258.704 13.496 258.736 13.816 258.736 14.2C258.736 14.568 258.704 14.888 258.64 15.16C258.704 15.416 258.736 15.736 258.736 16.12C258.736 16.488 258.704 16.808 258.64 17.08C258.704 17.336 258.736 17.656 258.736 18.04C258.736 18.408 258.704 18.728 258.64 19H256.72C256.656 18.728 256.624 18.408 256.624 18.04C256.624 17.656 256.656 17.336 256.72 17.08C256.656 16.808 256.624 16.488 256.624 16.12C256.624 15.736 256.656 15.416 256.72 15.16C256.656 14.888 256.624 14.568 256.624 14.2C256.624 13.816 256.656 13.496 256.72 13.24C256.656 12.968 256.624 12.648 256.624 12.28C256.624 11.896 256.656 11.576 256.72 11.32H253.6C253.536 11.048 253.504 10.728 253.504 10.36C253.504 9.976 253.536 9.656 253.6 9.4H257.44C257.504 9.656 257.536 9.976 257.536 10.36C257.536 10.728 257.504 11.048 257.44 11.32H258.64C258.704 11.576 258.736 11.896 258.736 12.28C258.736 12.648 258.704 12.968 258.64 13.24ZM277.859 7.48C277.923 7.736 277.955 8.056 277.955 8.44C277.955 8.808 277.923 9.128 277.859 9.4C277.923 9.656 277.955 9.976 277.955 10.36C277.955 10.728 277.923 11.048 277.859 11.32C277.923 11.576 277.955 11.896 277.955 12.28C277.955 12.648 277.923 12.968 277.859 13.24C277.923 13.496 277.955 13.816 277.955 14.2C277.955 14.568 277.923 14.888 277.859 15.16C277.923 15.416 277.955 15.736 277.955 16.12C277.955 16.488 277.923 16.808 277.859 17.08C277.923 17.336 277.955 17.656 277.955 18.04C277.955 18.408 277.923 18.728 277.859 19H275.939C275.875 18.728 275.843 18.408 275.843 18.04C275.843 17.656 275.875 17.336 275.939 17.08H274.739C274.675 16.808 274.643 16.488 274.643 16.12C274.643 15.736 274.675 15.416 274.739 15.16H274.019C273.955 14.888 273.923 14.568 273.923 14.2C273.923 13.816 273.955 13.496 274.019 13.24H273.059C272.995 12.968 272.963 12.648 272.963 12.28C272.963 11.896 272.995 11.576 273.059 11.32H272.099C272.163 11.576 272.195 11.896 272.195 12.28C272.195 12.648 272.163 12.968 272.099 13.24C272.163 13.496 272.195 13.816 272.195 14.2C272.195 14.568 272.163 14.888 272.099 15.16C272.163 15.416 272.195 15.736 272.195 16.12C272.195 16.488 272.163 16.808 272.099 17.08C272.163 17.336 272.195 17.656 272.195 18.04C272.195 18.408 272.163 18.728 272.099 19H270.179C270.115 18.728 270.083 18.408 270.083 18.04C270.083 17.656 270.115 17.336 270.179 17.08C270.115 16.808 270.083 16.488 270.083 16.12C270.083 15.736 270.115 15.416 270.179 15.16C270.115 14.888 270.083 14.568 270.083 14.2C270.083 13.816 270.115 13.496 270.179 13.24C270.115 12.968 270.083 12.648 270.083 12.28C270.083 11.896 270.115 11.576 270.179 11.32C270.115 11.048 270.083 10.728 270.083 10.36C270.083 9.976 270.115 9.656 270.179 9.4C270.115 9.128 270.083 8.808 270.083 8.44C270.083 8.056 270.115 7.736 270.179 7.48C270.115 7.208 270.083 6.888 270.083 6.52C270.083 6.136 270.115 5.816 270.179 5.56H272.579C272.643 5.816 272.675 6.136 272.675 6.52C272.675 6.888 272.643 7.208 272.579 7.48H273.299C273.363 7.736 273.395 8.056 273.395 8.44C273.395 8.808 273.363 9.128 273.299 9.4H274.019C274.083 9.656 274.115 9.976 274.115 10.36C274.115 10.728 274.083 11.048 274.019 11.32H274.979C275.043 11.576 275.075 11.896 275.075 12.28C275.075 12.648 275.043 12.968 274.979 13.24H275.939C275.875 12.968 275.843 12.648 275.843 12.28C275.843 11.896 275.875 11.576 275.939 11.32C275.875 11.048 275.843 10.728 275.843 10.36C275.843 9.976 275.875 9.656 275.939 9.4C275.875 9.128 275.843 8.808 275.843 8.44C275.843 8.056 275.875 7.736 275.939 7.48C275.875 7.208 275.843 6.888 275.843 6.52C275.843 6.136 275.875 5.816 275.939 5.56H277.859C277.923 5.816 277.955 6.136 277.955 6.52C277.955 6.888 277.923 7.208 277.859 7.48ZM287.564 12.28C287.564 12.648 287.532 12.968 287.468 13.24C287.532 13.496 287.564 13.816 287.564 14.2C287.564 14.568 287.532 14.888 287.468 15.16H282.428C282.492 15.416 282.524 15.736 282.524 16.12C282.524 16.488 282.492 16.808 282.428 17.08H286.508C286.572 17.336 286.604 17.656 286.604 18.04C286.604 18.408 286.572 18.728 286.508 19H281.708C281.644 18.728 281.612 18.408 281.612 18.04C281.612 17.656 281.644 17.336 281.708 17.08H280.508C280.444 16.808 280.412 16.488 280.412 16.12C280.412 15.736 280.444 15.416 280.508 15.16H279.788C279.724 14.888 279.692 14.568 279.692 14.2C279.692 13.816 279.724 13.496 279.788 13.24H280.508C280.444 12.968 280.412 12.648 280.412 12.28C280.412 11.896 280.444 11.576 280.508 11.32H281.708C281.644 11.048 281.612 10.728 281.612 10.36C281.612 9.976 281.644 9.656 281.708 9.4H286.508C286.572 9.656 286.604 9.976 286.604 10.36C286.604 10.728 286.572 11.048 286.508 11.32H287.468C287.532 11.576 287.564 11.896 287.564 12.28ZM285.548 13.24C285.484 12.968 285.452 12.648 285.452 12.28C285.452 11.896 285.484 11.576 285.548 11.32H282.428C282.492 11.576 282.524 11.896 282.524 12.28C282.524 12.648 282.492 12.968 282.428 13.24H285.548ZM297.174 10.36C297.174 10.728 297.142 11.048 297.078 11.32C297.142 11.576 297.174 11.896 297.174 12.28C297.174 12.648 297.142 12.968 297.078 13.24H296.358C296.422 13.496 296.454 13.816 296.454 14.2C296.454 14.568 296.422 14.888 296.358 15.16C296.422 15.416 296.454 15.736 296.454 16.12C296.454 16.488 296.422 16.808 296.358 17.08H295.878C295.942 17.336 295.974 17.656 295.974 18.04C295.974 18.408 295.942 18.728 295.878 19H294.438C294.374 18.728 294.342 18.408 294.342 18.04C294.342 17.656 294.374 17.336 294.438 17.08H293.958C293.894 16.808 293.862 16.488 293.862 16.12C293.862 15.736 293.894 15.416 293.958 15.16H292.518C292.582 15.416 292.614 15.736 292.614 16.12C292.614 16.488 292.582 16.808 292.518 17.08H292.038C292.102 17.336 292.134 17.656 292.134 18.04C292.134 18.408 292.102 18.728 292.038 19H290.598C290.534 18.728 290.502 18.408 290.502 18.04C290.502 17.656 290.534 17.336 290.598 17.08H290.118C290.053 16.808 290.021 16.488 290.021 16.12C290.021 15.736 290.053 15.416 290.118 15.16C290.053 14.888 290.021 14.568 290.021 14.2C290.021 13.816 290.053 13.496 290.118 13.24H289.398C289.334 12.968 289.302 12.648 289.302 12.28C289.302 11.896 289.334 11.576 289.398 11.32C289.334 11.048 289.302 10.728 289.302 10.36C289.302 9.976 289.334 9.656 289.398 9.4H291.318C291.382 9.656 291.414 9.976 291.414 10.36C291.414 10.728 291.382 11.048 291.318 11.32C291.382 11.576 291.414 11.896 291.414 12.28C291.414 12.648 291.382 12.968 291.318 13.24C291.382 13.496 291.414 13.816 291.414 14.2C291.414 14.568 291.382 14.888 291.318 15.16H292.038C291.974 14.888 291.942 14.568 291.942 14.2C291.942 13.816 291.974 13.496 292.038 13.24H292.518C292.454 12.968 292.422 12.648 292.422 12.28C292.422 11.896 292.454 11.576 292.518 11.32C292.454 11.048 292.422 10.728 292.422 10.36C292.422 9.976 292.454 9.656 292.518 9.4H293.958C294.022 9.656 294.054 9.976 294.054 10.36C294.054 10.728 294.022 11.048 293.958 11.32C294.022 11.576 294.054 11.896 294.054 12.28C294.054 12.648 294.022 12.968 293.958 13.24H294.438C294.502 13.496 294.534 13.816 294.534 14.2C294.534 14.568 294.502 14.888 294.438 15.16H295.158C295.094 14.888 295.062 14.568 295.062 14.2C295.062 13.816 295.094 13.496 295.158 13.24C295.094 12.968 295.062 12.648 295.062 12.28C295.062 11.896 295.094 11.576 295.158 11.32C295.094 11.048 295.062 10.728 295.062 10.36C295.062 9.976 295.094 9.656 295.158 9.4H297.078C297.142 9.656 297.174 9.976 297.174 10.36ZM300.303 10.36C300.303 10.728 300.271 11.048 300.207 11.32H300.927C300.991 11.576 301.023 11.896 301.023 12.28C301.023 12.648 300.991 12.968 300.927 13.24C300.991 13.496 301.023 13.816 301.023 14.2C301.023 14.568 300.991 14.888 300.927 15.16C300.991 15.416 301.023 15.736 301.023 16.12C301.023 16.488 300.991 16.808 300.927 17.08C300.991 17.336 301.023 17.656 301.023 18.04C301.023 18.408 300.991 18.728 300.927 19H299.007C298.943 18.728 298.911 18.408 298.911 18.04C298.911 17.656 298.943 17.336 299.007 17.08C298.943 16.808 298.911 16.488 298.911 16.12C298.911 15.736 298.943 15.416 299.007 15.16C298.943 14.888 298.911 14.568 298.911 14.2C298.911 13.816 298.943 13.496 299.007 13.24C298.943 12.968 298.911 12.648 298.911 12.28C298.911 11.896 298.943 11.576 299.007 11.32C298.943 11.048 298.911 10.728 298.911 10.36C298.911 9.976 298.943 9.656 299.007 9.4H300.207C300.271 9.656 300.303 9.976 300.303 10.36ZM302.943 10.36C302.943 10.728 302.911 11.048 302.847 11.32H303.567C303.631 11.576 303.663 11.896 303.663 12.28C303.663 12.648 303.631 12.968 303.567 13.24C303.631 13.496 303.663 13.816 303.663 14.2C303.663 14.568 303.631 14.888 303.567 15.16C303.631 15.416 303.663 15.736 303.663 16.12C303.663 16.488 303.631 16.808 303.567 17.08C303.631 17.336 303.663 17.656 303.663 18.04C303.663 18.408 303.631 18.728 303.567 19H302.127C302.063 18.728 302.031 18.408 302.031 18.04C302.031 17.656 302.063 17.336 302.127 17.08C302.063 16.808 302.031 16.488 302.031 16.12C302.031 15.736 302.063 15.416 302.127 15.16C302.063 14.888 302.031 14.568 302.031 14.2C302.031 13.816 302.063 13.496 302.127 13.24C302.063 12.968 302.031 12.648 302.031 12.28C302.031 11.896 302.063 11.576 302.127 11.32H300.927C300.863 11.048 300.831 10.728 300.831 10.36C300.831 9.976 300.863 9.656 300.927 9.4H302.847C302.911 9.656 302.943 9.976 302.943 10.36ZM306.687 13.24C306.751 13.496 306.783 13.816 306.783 14.2C306.783 14.568 306.751 14.888 306.687 15.16C306.751 15.416 306.783 15.736 306.783 16.12C306.783 16.488 306.751 16.808 306.687 17.08C306.751 17.336 306.783 17.656 306.783 18.04C306.783 18.408 306.751 18.728 306.687 19H304.767C304.703 18.728 304.671 18.408 304.671 18.04C304.671 17.656 304.703 17.336 304.767 17.08C304.703 16.808 304.671 16.488 304.671 16.12C304.671 15.736 304.703 15.416 304.767 15.16C304.703 14.888 304.671 14.568 304.671 14.2C304.671 13.816 304.703 13.496 304.767 13.24C304.703 12.968 304.671 12.648 304.671 12.28C304.671 11.896 304.703 11.576 304.767 11.32H303.567C303.503 11.048 303.471 10.728 303.471 10.36C303.471 9.976 303.503 9.656 303.567 9.4H305.727C305.791 9.656 305.823 9.976 305.823 10.36C305.823 10.728 305.791 11.048 305.727 11.32H306.687C306.751 11.576 306.783 11.896 306.783 12.28C306.783 12.648 306.751 12.968 306.687 13.24ZM316.296 17.08C316.36 17.336 316.392 17.656 316.392 18.04C316.392 18.408 316.36 18.728 316.296 19H314.376C314.312 18.728 314.28 18.408 314.28 18.04C314.28 17.656 314.312 17.336 314.376 17.08H313.416C313.352 16.808 313.32 16.488 313.32 16.12C313.32 15.736 313.352 15.416 313.416 15.16H310.536C310.6 15.416 310.632 15.736 310.632 16.12C310.632 16.488 310.6 16.808 310.536 17.08H313.416C313.48 17.336 313.512 17.656 313.512 18.04C313.512 18.408 313.48 18.728 313.416 19H309.576C309.512 18.728 309.48 18.408 309.48 18.04C309.48 17.656 309.512 17.336 309.576 17.08H308.616C308.552 16.808 308.52 16.488 308.52 16.12C308.52 15.736 308.552 15.416 308.616 15.16H309.576C309.512 14.888 309.48 14.568 309.48 14.2C309.48 13.816 309.512 13.496 309.576 13.24H313.416C313.352 12.968 313.32 12.648 313.32 12.28C313.32 11.896 313.352 11.576 313.416 11.32H310.056C309.992 11.048 309.96 10.728 309.96 10.36C309.96 9.976 309.992 9.656 310.056 9.4H314.376C314.44 9.656 314.472 9.976 314.472 10.36C314.472 10.728 314.44 11.048 314.376 11.32H315.336C315.4 11.576 315.432 11.896 315.432 12.28C315.432 12.648 315.4 12.968 315.336 13.24C315.4 13.496 315.432 13.816 315.432 14.2C315.432 14.568 315.4 14.888 315.336 15.16C315.4 15.416 315.432 15.736 315.432 16.12C315.432 16.488 315.4 16.808 315.336 17.08H316.296ZM320.002 10.36C320.002 10.728 319.97 11.048 319.906 11.32H320.866C320.93 11.576 320.962 11.896 320.962 12.28C320.962 12.648 320.93 12.968 320.866 13.24H320.146C320.21 13.496 320.242 13.816 320.242 14.2C320.242 14.568 320.21 14.888 320.146 15.16C320.21 15.416 320.242 15.736 320.242 16.12C320.242 16.488 320.21 16.808 320.146 17.08C320.21 17.336 320.242 17.656 320.242 18.04C320.242 18.408 320.21 18.728 320.146 19H318.226C318.162 18.728 318.13 18.408 318.13 18.04C318.13 17.656 318.162 17.336 318.226 17.08C318.162 16.808 318.13 16.488 318.13 16.12C318.13 15.736 318.162 15.416 318.226 15.16C318.162 14.888 318.13 14.568 318.13 14.2C318.13 13.816 318.162 13.496 318.226 13.24C318.162 12.968 318.13 12.648 318.13 12.28C318.13 11.896 318.162 11.576 318.226 11.32C318.162 11.048 318.13 10.728 318.13 10.36C318.13 9.976 318.162 9.656 318.226 9.4H319.906C319.97 9.656 320.002 9.976 320.002 10.36ZM325.906 13.24C325.97 13.496 326.002 13.816 326.002 14.2C326.002 14.568 325.97 14.888 325.906 15.16C325.97 15.416 326.002 15.736 326.002 16.12C326.002 16.488 325.97 16.808 325.906 17.08C325.97 17.336 326.002 17.656 326.002 18.04C326.002 18.408 325.97 18.728 325.906 19H323.986C323.922 18.728 323.89 18.408 323.89 18.04C323.89 17.656 323.922 17.336 323.986 17.08C323.922 16.808 323.89 16.488 323.89 16.12C323.89 15.736 323.922 15.416 323.986 15.16C323.922 14.888 323.89 14.568 323.89 14.2C323.89 13.816 323.922 13.496 323.986 13.24C323.922 12.968 323.89 12.648 323.89 12.28C323.89 11.896 323.922 11.576 323.986 11.32H320.866C320.802 11.048 320.77 10.728 320.77 10.36C320.77 9.976 320.802 9.656 320.866 9.4H324.706C324.77 9.656 324.802 9.976 324.802 10.36C324.802 10.728 324.77 11.048 324.706 11.32H325.906C325.97 11.576 326.002 11.896 326.002 12.28C326.002 12.648 325.97 12.968 325.906 13.24ZM329.611 10.36C329.611 10.728 329.579 11.048 329.515 11.32H330.475C330.539 11.576 330.571 11.896 330.571 12.28C330.571 12.648 330.539 12.968 330.475 13.24H329.755C329.819 13.496 329.851 13.816 329.851 14.2C329.851 14.568 329.819 14.888 329.755 15.16C329.819 15.416 329.851 15.736 329.851 16.12C329.851 16.488 329.819 16.808 329.755 17.08C329.819 17.336 329.851 17.656 329.851 18.04C329.851 18.408 329.819 18.728 329.755 19H327.835C327.771 18.728 327.739 18.408 327.739 18.04C327.739 17.656 327.771 17.336 327.835 17.08C327.771 16.808 327.739 16.488 327.739 16.12C327.739 15.736 327.771 15.416 327.835 15.16C327.771 14.888 327.739 14.568 327.739 14.2C327.739 13.816 327.771 13.496 327.835 13.24C327.771 12.968 327.739 12.648 327.739 12.28C327.739 11.896 327.771 11.576 327.835 11.32C327.771 11.048 327.739 10.728 327.739 10.36C327.739 9.976 327.771 9.656 327.835 9.4H329.515C329.579 9.656 329.611 9.976 329.611 10.36ZM335.515 13.24C335.579 13.496 335.611 13.816 335.611 14.2C335.611 14.568 335.579 14.888 335.515 15.16C335.579 15.416 335.611 15.736 335.611 16.12C335.611 16.488 335.579 16.808 335.515 17.08C335.579 17.336 335.611 17.656 335.611 18.04C335.611 18.408 335.579 18.728 335.515 19H333.595C333.531 18.728 333.499 18.408 333.499 18.04C333.499 17.656 333.531 17.336 333.595 17.08C333.531 16.808 333.499 16.488 333.499 16.12C333.499 15.736 333.531 15.416 333.595 15.16C333.531 14.888 333.499 14.568 333.499 14.2C333.499 13.816 333.531 13.496 333.595 13.24C333.531 12.968 333.499 12.648 333.499 12.28C333.499 11.896 333.531 11.576 333.595 11.32H330.475C330.411 11.048 330.379 10.728 330.379 10.36C330.379 9.976 330.411 9.656 330.475 9.4H334.315C334.379 9.656 334.411 9.976 334.411 10.36C334.411 10.728 334.379 11.048 334.315 11.32H335.515C335.579 11.576 335.611 11.896 335.611 12.28C335.611 12.648 335.579 12.968 335.515 13.24Z" fill="#F4FFE2"/>
<path id="IntegratedGpu" d="M442 314.5H493C493.828 314.5 494.5 315.172 494.5 316V367C494.5 367.828 493.828 368.5 493 368.5H442C441.172 368.5 440.5 367.828 440.5 367V316C440.5 315.172 441.172 314.5 442 314.5ZM464.643 365.071C464.643 365.283 464.471 365.455 464.259 365.455C464.047 365.455 463.875 365.283 463.875 365.071C463.875 364.859 464.047 364.688 464.259 364.688C464.471 364.688 464.643 364.859 464.643 365.071ZM443.33 344.446C443.33 344.658 443.158 344.83 442.946 344.83C442.734 344.83 442.562 344.658 442.562 344.446C442.563 344.234 442.734 344.063 442.946 344.062C443.158 344.062 443.33 344.234 443.33 344.446ZM492.143 344.446C492.143 344.658 491.971 344.83 491.759 344.83C491.547 344.83 491.375 344.658 491.375 344.446C491.375 344.234 491.547 344.063 491.759 344.062C491.971 344.062 492.143 344.234 492.143 344.446ZM443.33 342.384C443.33 342.596 443.158 342.768 442.946 342.768C442.734 342.768 442.562 342.596 442.562 342.384C442.563 342.172 442.734 342 442.946 342C443.158 342 443.33 342.172 443.33 342.384ZM492.143 342.384C492.143 342.596 491.971 342.768 491.759 342.768C491.547 342.768 491.375 342.596 491.375 342.384C491.375 342.172 491.547 342 491.759 342C491.971 342 492.143 342.172 492.143 342.384ZM443.33 340.321C443.33 340.533 443.158 340.705 442.946 340.705C442.734 340.705 442.562 340.533 442.562 340.321C442.563 340.109 442.734 339.938 442.946 339.938C443.158 339.938 443.33 340.109 443.33 340.321ZM492.143 340.321C492.143 340.533 491.971 340.705 491.759 340.705C491.547 340.705 491.375 340.533 491.375 340.321C491.375 340.109 491.547 339.938 491.759 339.938C491.971 339.938 492.143 340.109 492.143 340.321ZM443.33 338.259C443.33 338.471 443.158 338.643 442.946 338.643C442.734 338.643 442.562 338.471 442.562 338.259C442.563 338.047 442.734 337.875 442.946 337.875C443.158 337.875 443.33 338.047 443.33 338.259ZM492.143 338.259C492.143 338.471 491.971 338.643 491.759 338.643C491.547 338.643 491.375 338.471 491.375 338.259C491.375 338.047 491.547 337.875 491.759 337.875C491.971 337.875 492.143 338.047 492.143 338.259ZM487.625 359.125C487.625 360.506 486.506 361.625 485.125 361.625H449.875C448.494 361.625 447.375 360.506 447.375 359.125V323.188C447.375 321.807 448.494 320.688 449.875 320.688H485.125C486.506 320.688 487.625 321.807 487.625 323.188V359.125ZM464.643 316.946C464.643 317.158 464.471 317.33 464.259 317.33C464.047 317.33 463.875 317.158 463.875 316.946C463.875 316.734 464.047 316.563 464.259 316.562C464.471 316.562 464.643 316.734 464.643 316.946ZM465.938 365.071C465.938 364.859 466.109 364.688 466.321 364.688C466.533 364.688 466.705 364.859 466.705 365.071C466.705 365.283 466.533 365.455 466.321 365.455C466.109 365.455 465.938 365.283 465.938 365.071ZM468 365.071C468 364.859 468.172 364.688 468.384 364.688C468.596 364.688 468.768 364.859 468.768 365.071C468.768 365.283 468.596 365.455 468.384 365.455C468.172 365.455 468 365.283 468 365.071ZM470.062 365.071C470.063 364.859 470.234 364.688 470.446 364.688C470.658 364.688 470.83 364.859 470.83 365.071C470.83 365.283 470.658 365.455 470.446 365.455C470.234 365.455 470.062 365.283 470.062 365.071ZM471.83 365.071C471.83 364.307 471.211 363.688 470.446 363.688C470.036 363.688 469.668 363.867 469.415 364.15C469.162 363.867 468.794 363.688 468.384 363.688C467.974 363.688 467.606 363.867 467.353 364.15C467.099 363.867 466.731 363.688 466.321 363.688C465.911 363.688 465.543 363.867 465.29 364.15C465.037 363.867 464.669 363.688 464.259 363.688C463.495 363.688 462.875 364.307 462.875 365.071C462.875 365.836 463.495 366.455 464.259 366.455C464.669 366.455 465.037 366.275 465.29 365.991C465.543 366.275 465.911 366.455 466.321 366.455C466.732 366.455 467.099 366.275 467.353 365.991C467.606 366.275 467.973 366.455 468.384 366.455C468.794 366.455 469.162 366.275 469.415 365.991C469.668 366.275 470.036 366.455 470.446 366.455C471.211 366.455 471.83 365.836 471.83 365.071ZM444.33 338.259C444.33 337.495 443.711 336.875 442.946 336.875C442.182 336.875 441.563 337.495 441.562 338.259C441.562 338.669 441.742 339.037 442.025 339.29C441.742 339.543 441.563 339.911 441.562 340.321C441.562 340.731 441.742 341.099 442.025 341.353C441.742 341.606 441.563 341.974 441.562 342.384C441.562 342.794 441.742 343.162 442.025 343.415C441.742 343.668 441.563 344.036 441.562 344.446C441.562 345.211 442.182 345.83 442.946 345.83C443.711 345.83 444.33 345.211 444.33 344.446C444.33 344.036 444.15 343.668 443.866 343.415C444.15 343.162 444.33 342.794 444.33 342.384C444.33 341.973 444.15 341.606 443.866 341.353C444.15 341.099 444.33 340.732 444.33 340.321C444.33 339.911 444.15 339.543 443.866 339.29C444.15 339.037 444.33 338.669 444.33 338.259ZM493.143 338.259C493.143 337.495 492.523 336.875 491.759 336.875C490.995 336.875 490.375 337.495 490.375 338.259C490.375 338.669 490.554 339.037 490.838 339.29C490.554 339.543 490.375 339.911 490.375 340.321C490.375 340.731 490.554 341.099 490.838 341.353C490.554 341.606 490.375 341.974 490.375 342.384C490.375 342.794 490.554 343.162 490.838 343.415C490.554 343.668 490.375 344.036 490.375 344.446C490.375 345.211 490.995 345.83 491.759 345.83C492.523 345.83 493.143 345.211 493.143 344.446C493.143 344.036 492.963 343.668 492.679 343.415C492.963 343.162 493.143 342.794 493.143 342.384C493.143 341.973 492.963 341.606 492.679 341.353C492.963 341.099 493.143 340.732 493.143 340.321C493.143 339.911 492.963 339.543 492.679 339.29C492.963 339.037 493.143 338.669 493.143 338.259ZM488.625 323.188C488.625 321.255 487.058 319.688 485.125 319.688H449.875C447.942 319.688 446.375 321.255 446.375 323.188V359.125C446.375 361.058 447.942 362.625 449.875 362.625H485.125C487.058 362.625 488.625 361.058 488.625 359.125V323.188ZM465.938 316.946C465.938 316.734 466.109 316.563 466.321 316.562C466.533 316.562 466.705 316.734 466.705 316.946C466.705 317.158 466.533 317.33 466.321 317.33C466.109 317.33 465.938 317.158 465.938 316.946ZM468 316.946C468 316.734 468.172 316.563 468.384 316.562C468.596 316.562 468.768 316.734 468.768 316.946C468.768 317.158 468.596 317.33 468.384 317.33C468.172 317.33 468 317.158 468 316.946ZM470.062 316.946C470.063 316.734 470.234 316.563 470.446 316.562C470.658 316.562 470.83 316.734 470.83 316.946C470.83 317.158 470.658 317.33 470.446 317.33C470.234 317.33 470.062 317.158 470.062 316.946ZM471.83 316.946C471.83 316.182 471.211 315.562 470.446 315.562C470.036 315.563 469.668 315.742 469.415 316.025C469.162 315.742 468.794 315.562 468.384 315.562C467.974 315.563 467.606 315.742 467.353 316.025C467.099 315.742 466.731 315.562 466.321 315.562C465.911 315.563 465.543 315.742 465.29 316.025C465.037 315.742 464.669 315.562 464.259 315.562C463.495 315.563 462.875 316.182 462.875 316.946C462.875 317.711 463.495 318.33 464.259 318.33C464.669 318.33 465.037 318.15 465.29 317.866C465.543 318.15 465.911 318.33 466.321 318.33C466.732 318.33 467.099 318.15 467.353 317.866C467.606 318.15 467.973 318.33 468.384 318.33C468.794 318.33 469.162 318.15 469.415 317.866C469.668 318.15 470.036 318.33 470.446 318.33C471.211 318.33 471.83 317.711 471.83 316.946Z" stroke="#816A57"/>
<path id="NorthBridgee" d="M230 148H284C284.552 148 285 148.448 285 149V204C285 204.552 284.552 205 284 205H230C229.448 205 229 204.552 229 204V149C229 148.448 229.448 148 230 148Z" fill="#1E1E1E" stroke="#816A57" stroke-width="4"/>
<path id="Clock" d="M146 103H194C194.552 103 195 103.448 195 104V153C195 153.552 194.552 154 194 154H146C145.448 154 145 153.552 145 153V104C145 103.448 145.448 103 146 103Z" fill="#1E1E1E" stroke="#023423" stroke-width="4"/>
<path id="SouthBridge" d="M232 313H286C286.552 313 287 313.448 287 314V369C287 369.552 286.552 370 286 370H232C231.448 370 231 369.552 231 369V314C231 313.448 231.448 313 232 313Z" fill="#1E1E1E" stroke="#816A57" stroke-width="4"/>
<path id="IOSelector" d="M321 390H375C375.552 390 376 390.448 376 391V446C376 446.552 375.552 447 375 447H321C320.448 447 320 446.552 320 446V391C320 390.448 320.448 390 321 390Z" fill="#1E1E1E" stroke="#816A57" stroke-width="4"/>
<g id="GPUSlot">
<path d="M4 94C4 92.8954 4.89543 92 6 92H28C29.1046 92 30 92.8954 30 94V252C30 253.105 29.1046 254 28 254H6C4.89543 254 4 253.105 4 252V94Z" fill="#17329D"/>
<path d="M6 97H13C14.1046 97 15 97.8954 15 99V99.7143C15 100.819 14.1046 101.714 13 101.714H6V97Z" fill="#816A57"/>
<path d="M28 97H21C19.8954 97 19 97.8954 19 99V99.7143C19 100.819 19.8954 101.714 21 101.714H28V97Z" fill="#816A57"/>
<path d="M6 104H13C14.1046 104 15 104.895 15 106V106.714C15 107.819 14.1046 108.714 13 108.714H6V104Z" fill="#816A57"/>
<path d="M28 104H21C19.8954 104 19 104.895 19 106V106.714C19 107.819 19.8954 108.714 21 108.714H28V104Z" fill="#816A57"/>
<path d="M6 111H13C14.1046 111 15 111.895 15 113V113.714C15 114.819 14.1046 115.714 13 115.714H6V111Z" fill="#816A57"/>
<path d="M28 111H21C19.8954 111 19 111.895 19 113V113.714C19 114.819 19.8954 115.714 21 115.714H28V111Z" fill="#816A57"/>
<path d="M6 118H13C14.1046 118 15 118.895 15 120V120.714C15 121.819 14.1046 122.714 13 122.714H6V118Z" fill="#816A57"/>
<path d="M28 118H21C19.8954 118 19 118.895 19 120V120.714C19 121.819 19.8954 122.714 21 122.714H28V118Z" fill="#816A57"/>
<path d="M6 125H13C14.1046 125 15 125.895 15 127V127.714C15 128.819 14.1046 129.714 13 129.714H6V125Z" fill="#816A57"/>
<path d="M28 125H21C19.8954 125 19 125.895 19 127V127.714C19 128.819 19.8954 129.714 21 129.714H28V125Z" fill="#816A57"/>
<path d="M6 132H13C14.1046 132 15 132.895 15 134V134.714C15 135.819 14.1046 136.714 13 136.714H6V132Z" fill="#816A57"/>
<path d="M28 132H21C19.8954 132 19 132.895 19 134V134.714C19 135.819 19.8954 136.714 21 136.714H28V132Z" fill="#816A57"/>
<path d="M6 139H13C14.1046 139 15 139.895 15 141V141.714C15 142.819 14.1046 143.714 13 143.714H6V139Z" fill="#816A57"/>
<path d="M28 139H21C19.8954 139 19 139.895 19 141V141.714C19 142.819 19.8954 143.714 21 143.714H28V139Z" fill="#816A57"/>
<path d="M6 146H13C14.1046 146 15 146.895 15 148V148.714C15 149.819 14.1046 150.714 13 150.714H6V146Z" fill="#816A57"/>
<path d="M28 146H21C19.8954 146 19 146.895 19 148V148.714C19 149.819 19.8954 150.714 21 150.714H28V146Z" fill="#816A57"/>
<path d="M6 153H13C14.1046 153 15 153.895 15 155V155.714C15 156.819 14.1046 157.714 13 157.714H6V153Z" fill="#816A57"/>
<path d="M28 153H21C19.8954 153 19 153.895 19 155V155.714C19 156.819 19.8954 157.714 21 157.714H28V153Z" fill="#816A57"/>
<path d="M6 160H13C14.1046 160 15 160.895 15 162V162.714C15 163.819 14.1046 164.714 13 164.714H6V160Z" fill="#816A57"/>
<path d="M28 160H21C19.8954 160 19 160.895 19 162V162.714C19 163.819 19.8954 164.714 21 164.714H28V160Z" fill="#816A57"/>
<path d="M6 167H13C14.1046 167 15 167.895 15 169V169.714C15 170.819 14.1046 171.714 13 171.714H6V167Z" fill="#816A57"/>
<path d="M28 167H21C19.8954 167 19 167.895 19 169V169.714C19 170.819 19.8954 171.714 21 171.714H28V167Z" fill="#816A57"/>
<path d="M6 174H13C14.1046 174 15 174.895 15 176V176.714C15 177.819 14.1046 178.714 13 178.714H6V174Z" fill="#816A57"/>
<path d="M28 174H21C19.8954 174 19 174.895 19 176V176.714C19 177.819 19.8954 178.714 21 178.714H28V174Z" fill="#816A57"/>
<path d="M6 181H13C14.1046 181 15 181.895 15 183V183.714C15 184.819 14.1046 185.714 13 185.714H6V181Z" fill="#816A57"/>
<path d="M28 181H21C19.8954 181 19 181.895 19 183V183.714C19 184.819 19.8954 185.714 21 185.714H28V181Z" fill="#816A57"/>
<path d="M6 188H13C14.1046 188 15 188.895 15 190V190.714C15 191.819 14.1046 192.714 13 192.714H6V188Z" fill="#816A57"/>
<path d="M28 188H21C19.8954 188 19 188.895 19 190V190.714C19 191.819 19.8954 192.714 21 192.714H28V188Z" fill="#816A57"/>
<path d="M6 204H13C14.1046 204 15 204.895 15 206V206.714C15 207.819 14.1046 208.714 13 208.714H6V204Z" fill="#816A57"/>
<path d="M28 204H21C19.8954 204 19 204.895 19 206V206.714C19 207.819 19.8954 208.714 21 208.714H28V204Z" fill="#816A57"/>
<path d="M6 211H13C14.1046 211 15 211.895 15 213V213.714C15 214.819 14.1046 215.714 13 215.714H6V211Z" fill="#816A57"/>
<path d="M28 211H21C19.8954 211 19 211.895 19 213V213.714C19 214.819 19.8954 215.714 21 215.714H28V211Z" fill="#816A57"/>
<path d="M6 218H13C14.1046 218 15 218.895 15 220V220.714C15 221.819 14.1046 222.714 13 222.714H6V218Z" fill="#816A57"/>
<path d="M28 218H21C19.8954 218 19 218.895 19 220V220.714C19 221.819 19.8954 222.714 21 222.714H28V218Z" fill="#816A57"/>
<path d="M6 225H13C14.1046 225 15 225.895 15 227V227.714C15 228.819 14.1046 229.714 13 229.714H6V225Z" fill="#816A57"/>
<path d="M28 225H21C19.8954 225 19 225.895 19 227V227.714C19 228.819 19.8954 229.714 21 229.714H28V225Z" fill="#816A57"/>
<path d="M6 232H13C14.1046 232 15 232.895 15 234V234.714C15 235.819 14.1046 236.714 13 236.714H6V232Z" fill="#816A57"/>
<path d="M28 232H21C19.8954 232 19 232.895 19 234V234.714C19 235.819 19.8954 236.714 21 236.714H28V232Z" fill="#816A57"/>
<path d="M6 239H13C14.1046 239 15 239.895 15 241V241.714C15 242.819 14.1046 243.714 13 243.714H6V239Z" fill="#816A57"/>
<path d="M28 239H21C19.8954 239 19 239.895 19 241V241.714C19 242.819 19.8954 243.714 21 243.714H28V239Z" fill="#816A57"/>
<path d="M6 246H13C14.1046 246 15 246.895 15 248V248.714C15 249.819 14.1046 250.714 13 250.714H6V246Z" fill="#816A57"/>
<path d="M28 246H21C19.8954 246 19 246.895 19 248V248.714C19 249.819 19.8954 250.714 21 250.714H28V246Z" fill="#816A57"/>
</g>
<g id="PCISlots">
<path d="M4 282C4 280.895 4.89543 280 6 280H18.7742C19.8788 280 20.7742 280.895 20.7742 282V417C20.7742 418.105 19.8788 419 18.7742 419H6C4.89543 419 4 418.105 4 417V282Z" fill="#F4FFE2"/>
<path d="M5.29034 284.29H9.0968C10.2014 284.29 11.0968 285.186 11.0968 286.29V286.335C11.0968 287.44 10.2014 288.335 9.0968 288.335H5.29034V284.29Z" fill="#816A57"/>
<path d="M19.4839 284.29H15.6774C14.5729 284.29 13.6774 285.186 13.6774 286.29V286.335C13.6774 287.44 14.5729 288.335 15.6774 288.335H19.4839V284.29Z" fill="#816A57"/>
<path d="M5.29034 290.296H9.0968C10.2014 290.296 11.0968 291.192 11.0968 292.296V292.341C11.0968 293.446 10.2014 294.341 9.0968 294.341H5.29034V290.296Z" fill="#816A57"/>
<path d="M19.4839 290.296H15.6774C14.5729 290.296 13.6774 291.192 13.6774 292.296V292.341C13.6774 293.446 14.5729 294.341 15.6774 294.341H19.4839V290.296Z" fill="#816A57"/>
<path d="M5.29034 296.302H9.0968C10.2014 296.302 11.0968 297.198 11.0968 298.302V298.347C11.0968 299.452 10.2014 300.347 9.0968 300.347H5.29034V296.302Z" fill="#816A57"/>
<path d="M19.4839 296.302H15.6774C14.5729 296.302 13.6774 297.198 13.6774 298.302V298.347C13.6774 299.452 14.5729 300.347 15.6774 300.347H19.4839V296.302Z" fill="#816A57"/>
<path d="M5.29034 302.309H9.0968C10.2014 302.309 11.0968 303.204 11.0968 304.309V304.354C11.0968 305.458 10.2014 306.354 9.0968 306.354H5.29034V302.309Z" fill="#816A57"/>
<path d="M19.4839 302.309H15.6774C14.5729 302.309 13.6774 303.204 13.6774 304.309V304.354C13.6774 305.458 14.5729 306.354 15.6774 306.354H19.4839V302.309Z" fill="#816A57"/>
<path d="M5.29034 308.315H9.0968C10.2014 308.315 11.0968 309.21 11.0968 310.315V310.36C11.0968 311.464 10.2014 312.36 9.0968 312.36H5.29034V308.315Z" fill="#816A57"/>
<path d="M19.4839 308.315H15.6774C14.5729 308.315 13.6774 309.21 13.6774 310.315V310.36C13.6774 311.464 14.5729 312.36 15.6774 312.36H19.4839V308.315Z" fill="#816A57"/>
<path d="M5.29034 314.321H9.0968C10.2014 314.321 11.0968 315.216 11.0968 316.321V316.366C11.0968 317.471 10.2014 318.366 9.0968 318.366H5.29034V314.321Z" fill="#816A57"/>
<path d="M19.4839 314.321H15.6774C14.5729 314.321 13.6774 315.216 13.6774 316.321V316.366C13.6774 317.471 14.5729 318.366 15.6774 318.366H19.4839V314.321Z" fill="#816A57"/>
<path d="M5.29034 320.327H9.0968C10.2014 320.327 11.0968 321.223 11.0968 322.327V322.372C11.0968 323.477 10.2014 324.372 9.0968 324.372H5.29034V320.327Z" fill="#816A57"/>
<path d="M19.4839 320.327H15.6774C14.5729 320.327 13.6774 321.223 13.6774 322.327V322.372C13.6774 323.477 14.5729 324.372 15.6774 324.372H19.4839V320.327Z" fill="#816A57"/>
<path d="M5.29034 326.333H9.0968C10.2014 326.333 11.0968 327.229 11.0968 328.333V328.378C11.0968 329.483 10.2014 330.378 9.0968 330.378H5.29034V326.333Z" fill="#816A57"/>
<path d="M19.4839 326.333H15.6774C14.5729 326.333 13.6774 327.229 13.6774 328.333V328.378C13.6774 329.483 14.5729 330.378 15.6774 330.378H19.4839V326.333Z" fill="#816A57"/>
<path d="M5.29034 332.34H9.0968C10.2014 332.34 11.0968 333.235 11.0968 334.34V334.384C11.0968 335.489 10.2014 336.384 9.0968 336.384H5.29034V332.34Z" fill="#816A57"/>
<path d="M19.4839 332.34H15.6774C14.5729 332.34 13.6774 333.235 13.6774 334.34V334.384C13.6774 335.489 14.5729 336.384 15.6774 336.384H19.4839V332.34Z" fill="#816A57"/>
<path d="M5.29034 338.346H9.0968C10.2014 338.346 11.0968 339.241 11.0968 340.346V340.391C11.0968 341.495 10.2014 342.391 9.0968 342.391H5.29034V338.346Z" fill="#816A57"/>
<path d="M19.4839 338.346H15.6774C14.5729 338.346 13.6774 339.241 13.6774 340.346V340.391C13.6774 341.495 14.5729 342.391 15.6774 342.391H19.4839V338.346Z" fill="#816A57"/>
<path d="M5.29034 344.352H9.0968C10.2014 344.352 11.0968 345.247 11.0968 346.352V346.397C11.0968 347.501 10.2014 348.397 9.0968 348.397H5.29034V344.352Z" fill="#816A57"/>
<path d="M19.4839 344.352H15.6774C14.5729 344.352 13.6774 345.247 13.6774 346.352V346.397C13.6774 347.501 14.5729 348.397 15.6774 348.397H19.4839V344.352Z" fill="#816A57"/>
<path d="M5.29034 350.358H9.0968C10.2014 350.358 11.0968 351.253 11.0968 352.358V352.403C11.0968 353.508 10.2014 354.403 9.0968 354.403H5.29034V350.358Z" fill="#816A57"/>
<path d="M19.4839 350.358H15.6774C14.5729 350.358 13.6774 351.253 13.6774 352.358V352.403C13.6774 353.508 14.5729 354.403 15.6774 354.403H19.4839V350.358Z" fill="#816A57"/>
<path d="M5.29034 356.364H9.0968C10.2014 356.364 11.0968 357.26 11.0968 358.364V358.409C11.0968 359.514 10.2014 360.409 9.0968 360.409H5.29034V356.364Z" fill="#816A57"/>
<path d="M19.4839 356.364H15.6774C14.5729 356.364 13.6774 357.26 13.6774 358.364V358.409C13.6774 359.514 14.5729 360.409 15.6774 360.409H19.4839V356.364Z" fill="#816A57"/>
<path d="M5.29034 362.37H9.0968C10.2014 362.37 11.0968 363.266 11.0968 364.37V364.415C11.0968 365.52 10.2014 366.415 9.0968 366.415H5.29034V362.37Z" fill="#816A57"/>
<path d="M19.4839 362.37H15.6774C14.5729 362.37 13.6774 363.266 13.6774 364.37V364.415C13.6774 365.52 14.5729 366.415 15.6774 366.415H19.4839V362.37Z" fill="#816A57"/>
<path d="M5.29034 376.099H9.0968C10.2014 376.099 11.0968 376.994 11.0968 378.099V378.144C11.0968 379.248 10.2014 380.144 9.0968 380.144H5.29034V376.099Z" fill="#816A57"/>
<path d="M19.4839 376.099H15.6774C14.5729 376.099 13.6774 376.994 13.6774 378.099V378.144C13.6774 379.248 14.5729 380.144 15.6774 380.144H19.4839V376.099Z" fill="#816A57"/>
<path d="M5.29034 382.105H9.0968C10.2014 382.105 11.0968 383 11.0968 384.105V384.15C11.0968 385.254 10.2014 386.15 9.0968 386.15H5.29034V382.105Z" fill="#816A57"/>
<path d="M19.4839 382.105H15.6774C14.5729 382.105 13.6774 383 13.6774 384.105V384.15C13.6774 385.254 14.5729 386.15 15.6774 386.15H19.4839V382.105Z" fill="#816A57"/>
<path d="M5.29034 388.111H9.0968C10.2014 388.111 11.0968 389.007 11.0968 390.111V390.156C11.0968 391.261 10.2014 392.156 9.0968 392.156H5.29034V388.111Z" fill="#816A57"/>
<path d="M19.4839 388.111H15.6774C14.5729 388.111 13.6774 389.007 13.6774 390.111V390.156C13.6774 391.261 14.5729 392.156 15.6774 392.156H19.4839V388.111Z" fill="#816A57"/>
<path d="M5.29034 394.117H9.0968C10.2014 394.117 11.0968 395.013 11.0968 396.117V396.162C11.0968 397.267 10.2014 398.162 9.0968 398.162H5.29034V394.117Z" fill="#816A57"/>
<path d="M19.4839 394.117H15.6774C14.5729 394.117 13.6774 395.013 13.6774 396.117V396.162C13.6774 397.267 14.5729 398.162 15.6774 398.162H19.4839V394.117Z" fill="#816A57"/>
<path d="M5.29034 400.123H9.0968C10.2014 400.123 11.0968 401.019 11.0968 402.123V402.168C11.0968 403.273 10.2014 404.168 9.0968 404.168H5.29034V400.123Z" fill="#816A57"/>
<path d="M19.4839 400.123H15.6774C14.5729 400.123 13.6774 401.019 13.6774 402.123V402.168C13.6774 403.273 14.5729 404.168 15.6774 404.168H19.4839V400.123Z" fill="#816A57"/>
<path d="M5.29034 406.13H9.0968C10.2014 406.13 11.0968 407.025 11.0968 408.13V408.175C11.0968 409.279 10.2014 410.175 9.0968 410.175H5.29034V406.13Z" fill="#816A57"/>
<path d="M19.4839 406.13H15.6774C14.5729 406.13 13.6774 407.025 13.6774 408.13V408.175C13.6774 409.279 14.5729 410.175 15.6774 410.175H19.4839V406.13Z" fill="#816A57"/>
<path d="M5.29034 412.136H9.0968C10.2014 412.136 11.0968 413.031 11.0968 414.136V414.181C11.0968 415.285 10.2014 416.181 9.0968 416.181H5.29034V412.136Z" fill="#816A57"/>
<path d="M19.4839 412.136H15.6774C14.5729 412.136 13.6774 413.031 13.6774 414.136V414.181C13.6774 415.285 14.5729 416.181 15.6774 416.181H19.4839V412.136Z" fill="#816A57"/>
<path d="M27.2258 282C27.2258 280.895 28.1212 280 29.2258 280H42C43.1046 280 44 280.895 44 282V417C44 418.105 43.1046 419 42 419H29.2258C28.1212 419 27.2258 418.105 27.2258 417V282Z" fill="#F4FFE2"/>
<path d="M28.5161 284.29H32.3226C33.4271 284.29 34.3226 285.186 34.3226 286.29V286.335C34.3226 287.44 33.4271 288.335 32.3226 288.335H28.5161V284.29Z" fill="#816A57"/>
<path d="M42.7097 284.29H38.9032C37.7986 284.29 36.9032 285.186 36.9032 286.29V286.335C36.9032 287.44 37.7986 288.335 38.9032 288.335H42.7097V284.29Z" fill="#816A57"/>
<path d="M28.5161 290.296H32.3226C33.4271 290.296 34.3226 291.192 34.3226 292.296V292.341C34.3226 293.446 33.4271 294.341 32.3226 294.341H28.5161V290.296Z" fill="#816A57"/>
<path d="M42.7097 290.296H38.9032C37.7986 290.296 36.9032 291.192 36.9032 292.296V292.341C36.9032 293.446 37.7986 294.341 38.9032 294.341H42.7097V290.296Z" fill="#816A57"/>
<path d="M28.5161 296.302H32.3226C33.4271 296.302 34.3226 297.198 34.3226 298.302V298.347C34.3226 299.452 33.4271 300.347 32.3226 300.347H28.5161V296.302Z" fill="#816A57"/>
<path d="M42.7097 296.302H38.9032C37.7986 296.302 36.9032 297.198 36.9032 298.302V298.347C36.9032 299.452 37.7986 300.347 38.9032 300.347H42.7097V296.302Z" fill="#816A57"/>
<path d="M28.5161 302.309H32.3226C33.4271 302.309 34.3226 303.204 34.3226 304.309V304.354C34.3226 305.458 33.4271 306.354 32.3226 306.354H28.5161V302.309Z" fill="#816A57"/>
<path d="M42.7097 302.309H38.9032C37.7986 302.309 36.9032 303.204 36.9032 304.309V304.354C36.9032 305.458 37.7986 306.354 38.9032 306.354H42.7097V302.309Z" fill="#816A57"/>
<path d="M28.5161 308.315H32.3226C33.4271 308.315 34.3226 309.21 34.3226 310.315V310.36C34.3226 311.464 33.4271 312.36 32.3226 312.36H28.5161V308.315Z" fill="#816A57"/>
<path d="M42.7097 308.315H38.9032C37.7986 308.315 36.9032 309.21 36.9032 310.315V310.36C36.9032 311.464 37.7986 312.36 38.9032 312.36H42.7097V308.315Z" fill="#816A57"/>
<path d="M28.5161 314.321H32.3226C33.4271 314.321 34.3226 315.216 34.3226 316.321V316.366C34.3226 317.471 33.4271 318.366 32.3226 318.366H28.5161V314.321Z" fill="#816A57"/>
<path d="M42.7097 314.321H38.9032C37.7986 314.321 36.9032 315.216 36.9032 316.321V316.366C36.9032 317.471 37.7986 318.366 38.9032 318.366H42.7097V314.321Z" fill="#816A57"/>
<path d="M28.5161 320.327H32.3226C33.4271 320.327 34.3226 321.223 34.3226 322.327V322.372C34.3226 323.477 33.4271 324.372 32.3226 324.372H28.5161V320.327Z" fill="#816A57"/>
<path d="M42.7097 320.327H38.9032C37.7986 320.327 36.9032 321.223 36.9032 322.327V322.372C36.9032 323.477 37.7986 324.372 38.9032 324.372H42.7097V320.327Z" fill="#816A57"/>
<path d="M28.5161 326.333H32.3226C33.4271 326.333 34.3226 327.229 34.3226 328.333V328.378C34.3226 329.483 33.4271 330.378 32.3226 330.378H28.5161V326.333Z" fill="#816A57"/>
<path d="M42.7097 326.333H38.9032C37.7986 326.333 36.9032 327.229 36.9032 328.333V328.378C36.9032 329.483 37.7986 330.378 38.9032 330.378H42.7097V326.333Z" fill="#816A57"/>
<path d="M28.5161 332.34H32.3226C33.4271 332.34 34.3226 333.235 34.3226 334.34V334.384C34.3226 335.489 33.4271 336.384 32.3226 336.384H28.5161V332.34Z" fill="#816A57"/>
<path d="M42.7097 332.34H38.9032C37.7986 332.34 36.9032 333.235 36.9032 334.34V334.384C36.9032 335.489 37.7986 336.384 38.9032 336.384H42.7097V332.34Z" fill="#816A57"/>
<path d="M28.5161 338.346H32.3226C33.4271 338.346 34.3226 339.241 34.3226 340.346V340.391C34.3226 341.495 33.4271 342.391 32.3226 342.391H28.5161V338.346Z" fill="#816A57"/>
<path d="M42.7097 338.346H38.9032C37.7986 338.346 36.9032 339.241 36.9032 340.346V340.391C36.9032 341.495 37.7986 342.391 38.9032 342.391H42.7097V338.346Z" fill="#816A57"/>
<path d="M28.5161 344.352H32.3226C33.4271 344.352 34.3226 345.247 34.3226 346.352V346.397C34.3226 347.501 33.4271 348.397 32.3226 348.397H28.5161V344.352Z" fill="#816A57"/>
<path d="M42.7097 344.352H38.9032C37.7986 344.352 36.9032 345.247 36.9032 346.352V346.397C36.9032 347.501 37.7986 348.397 38.9032 348.397H42.7097V344.352Z" fill="#816A57"/>
<path d="M28.5161 350.358H32.3226C33.4271 350.358 34.3226 351.253 34.3226 352.358V352.403C34.3226 353.508 33.4271 354.403 32.3226 354.403H28.5161V350.358Z" fill="#816A57"/>
<path d="M42.7097 350.358H38.9032C37.7986 350.358 36.9032 351.253 36.9032 352.358V352.403C36.9032 353.508 37.7986 354.403 38.9032 354.403H42.7097V350.358Z" fill="#816A57"/>
<path d="M28.5161 356.364H32.3226C33.4271 356.364 34.3226 357.26 34.3226 358.364V358.409C34.3226 359.514 33.4271 360.409 32.3226 360.409H28.5161V356.364Z" fill="#816A57"/>
<path d="M42.7097 356.364H38.9032C37.7986 356.364 36.9032 357.26 36.9032 358.364V358.409C36.9032 359.514 37.7986 360.409 38.9032 360.409H42.7097V356.364Z" fill="#816A57"/>
<path d="M28.5161 362.37H32.3226C33.4271 362.37 34.3226 363.266 34.3226 364.37V364.415C34.3226 365.52 33.4271 366.415 32.3226 366.415H28.5161V362.37Z" fill="#816A57"/>
<path d="M42.7097 362.37H38.9032C37.7986 362.37 36.9032 363.266 36.9032 364.37V364.415C36.9032 365.52 37.7986 366.415 38.9032 366.415H42.7097V362.37Z" fill="#816A57"/>
<path d="M28.5161 376.099H32.3226C33.4271 376.099 34.3226 376.994 34.3226 378.099V378.144C34.3226 379.248 33.4271 380.144 32.3226 380.144H28.5161V376.099Z" fill="#816A57"/>
<path d="M42.7097 376.099H38.9032C37.7986 376.099 36.9032 376.994 36.9032 378.099V378.144C36.9032 379.248 37.7986 380.144 38.9032 380.144H42.7097V376.099Z" fill="#816A57"/>
<path d="M28.5161 382.105H32.3226C33.4271 382.105 34.3226 383 34.3226 384.105V384.15C34.3226 385.254 33.4271 386.15 32.3226 386.15H28.5161V382.105Z" fill="#816A57"/>
<path d="M42.7097 382.105H38.9032C37.7986 382.105 36.9032 383 36.9032 384.105V384.15C36.9032 385.254 37.7986 386.15 38.9032 386.15H42.7097V382.105Z" fill="#816A57"/>
<path d="M28.5161 388.111H32.3226C33.4271 388.111 34.3226 389.007 34.3226 390.111V390.156C34.3226 391.261 33.4271 392.156 32.3226 392.156H28.5161V388.111Z" fill="#816A57"/>
<path d="M42.7097 388.111H38.9032C37.7986 388.111 36.9032 389.007 36.9032 390.111V390.156C36.9032 391.261 37.7986 392.156 38.9032 392.156H42.7097V388.111Z" fill="#816A57"/>
<path d="M28.5161 394.117H32.3226C33.4271 394.117 34.3226 395.013 34.3226 396.117V396.162C34.3226 397.267 33.4271 398.162 32.3226 398.162H28.5161V394.117Z" fill="#816A57"/>
<path d="M42.7097 394.117H38.9032C37.7986 394.117 36.9032 395.013 36.9032 396.117V396.162C36.9032 397.267 37.7986 398.162 38.9032 398.162H42.7097V394.117Z" fill="#816A57"/>
<path d="M28.5161 400.123H32.3226C33.4271 400.123 34.3226 401.019 34.3226 402.123V402.168C34.3226 403.273 33.4271 404.168 32.3226 404.168H28.5161V400.123Z" fill="#816A57"/>
<path d="M42.7097 400.123H38.9032C37.7986 400.123 36.9032 401.019 36.9032 402.123V402.168C36.9032 403.273 37.7986 404.168 38.9032 404.168H42.7097V400.123Z" fill="#816A57"/>
<path d="M28.5161 406.13H32.3226C33.4271 406.13 34.3226 407.025 34.3226 408.13V408.175C34.3226 409.279 33.4271 410.175 32.3226 410.175H28.5161V406.13Z" fill="#816A57"/>
<path d="M42.7097 406.13H38.9032C37.7986 406.13 36.9032 407.025 36.9032 408.13V408.175C36.9032 409.279 37.7986 410.175 38.9032 410.175H42.7097V406.13Z" fill="#816A57"/>
<path d="M28.5161 412.136H32.3226C33.4271 412.136 34.3226 413.031 34.3226 414.136V414.181C34.3226 415.285 33.4271 416.181 32.3226 416.181H28.5161V412.136Z" fill="#816A57"/>
<path d="M42.7097 412.136H38.9032C37.7986 412.136 36.9032 413.031 36.9032 414.136V414.181C36.9032 415.285 37.7986 416.181 38.9032 416.181H42.7097V412.136Z" fill="#816A57"/>
</g>
<g id="RAMSlots">
<path d="M480.7 100C480.7 98.8954 481.595 98 482.7 98H493C494.105 98 495 98.8954 495 100V258C495 259.105 494.105 260 493 260H482.7C481.595 260 480.7 259.105 480.7 258V100Z" fill="#03412B"/>
<path d="M481.8 103H484.75C485.854 103 486.75 103.895 486.75 105V105.714C486.75 106.819 485.854 107.714 484.75 107.714H481.8V103Z" fill="#816A57"/>
<path d="M493.9 103H490.95C489.845 103 488.95 103.895 488.95 105V105.714C488.95 106.819 489.845 107.714 490.95 107.714H493.9V103Z" fill="#816A57"/>
<path d="M481.8 110H484.75C485.854 110 486.75 110.895 486.75 112V112.714C486.75 113.819 485.854 114.714 484.75 114.714H481.8V110Z" fill="#816A57"/>
<path d="M493.9 110H490.95C489.845 110 488.95 110.895 488.95 112V112.714C488.95 113.819 489.845 114.714 490.95 114.714H493.9V110Z" fill="#816A57"/>
<path d="M481.8 117H484.75C485.854 117 486.75 117.895 486.75 119V119.714C486.75 120.819 485.854 121.714 484.75 121.714H481.8V117Z" fill="#816A57"/>
<path d="M493.9 117H490.95C489.845 117 488.95 117.895 488.95 119V119.714C488.95 120.819 489.845 121.714 490.95 121.714H493.9V117Z" fill="#816A57"/>
<path d="M481.8 124H484.75C485.854 124 486.75 124.895 486.75 126V126.714C486.75 127.819 485.854 128.714 484.75 128.714H481.8V124Z" fill="#816A57"/>
<path d="M493.9 124H490.95C489.845 124 488.95 124.895 488.95 126V126.714C488.95 127.819 489.845 128.714 490.95 128.714H493.9V124Z" fill="#816A57"/>
<path d="M481.8 131H484.75C485.854 131 486.75 131.895 486.75 133V133.714C486.75 134.819 485.854 135.714 484.75 135.714H481.8V131Z" fill="#816A57"/>
<path d="M493.9 131H490.95C489.845 131 488.95 131.895 488.95 133V133.714C488.95 134.819 489.845 135.714 490.95 135.714H493.9V131Z" fill="#816A57"/>
<path d="M481.8 138H484.75C485.854 138 486.75 138.895 486.75 140V140.714C486.75 141.819 485.854 142.714 484.75 142.714H481.8V138Z" fill="#816A57"/>
<path d="M493.9 138H490.95C489.845 138 488.95 138.895 488.95 140V140.714C488.95 141.819 489.845 142.714 490.95 142.714H493.9V138Z" fill="#816A57"/>
<path d="M481.8 145H484.75C485.854 145 486.75 145.895 486.75 147V147.714C486.75 148.819 485.854 149.714 484.75 149.714H481.8V145Z" fill="#816A57"/>
<path d="M493.9 145H490.95C489.845 145 488.95 145.895 488.95 147V147.714C488.95 148.819 489.845 149.714 490.95 149.714H493.9V145Z" fill="#816A57"/>
<path d="M481.8 152H484.75C485.854 152 486.75 152.895 486.75 154V154.714C486.75 155.819 485.854 156.714 484.75 156.714H481.8V152Z" fill="#816A57"/>
<path d="M493.9 152H490.95C489.845 152 488.95 152.895 488.95 154V154.714C488.95 155.819 489.845 156.714 490.95 156.714H493.9V152Z" fill="#816A57"/>
<path d="M481.8 159H484.75C485.854 159 486.75 159.895 486.75 161V161.714C486.75 162.819 485.854 163.714 484.75 163.714H481.8V159Z" fill="#816A57"/>
<path d="M493.9 159H490.95C489.845 159 488.95 159.895 488.95 161V161.714C488.95 162.819 489.845 163.714 490.95 163.714H493.9V159Z" fill="#816A57"/>
<path d="M481.8 166H484.75C485.854 166 486.75 166.895 486.75 168V168.714C486.75 169.819 485.854 170.714 484.75 170.714H481.8V166Z" fill="#816A57"/>
<path d="M493.9 166H490.95C489.845 166 488.95 166.895 488.95 168V168.714C488.95 169.819 489.845 170.714 490.95 170.714H493.9V166Z" fill="#816A57"/>
<path d="M481.8 173H484.75C485.854 173 486.75 173.895 486.75 175V175.714C486.75 176.819 485.854 177.714 484.75 177.714H481.8V173Z" fill="#816A57"/>
<path d="M493.9 173H490.95C489.845 173 488.95 173.895 488.95 175V175.714C488.95 176.819 489.845 177.714 490.95 177.714H493.9V173Z" fill="#816A57"/>
<path d="M481.8 180H484.75C485.854 180 486.75 180.895 486.75 182V182.714C486.75 183.819 485.854 184.714 484.75 184.714H481.8V180Z" fill="#816A57"/>
<path d="M493.9 180H490.95C489.845 180 488.95 180.895 488.95 182V182.714C488.95 183.819 489.845 184.714 490.95 184.714H493.9V180Z" fill="#816A57"/>
<path d="M481.8 187H484.75C485.854 187 486.75 187.895 486.75 189V189.714C486.75 190.819 485.854 191.714 484.75 191.714H481.8V187Z" fill="#816A57"/>
<path d="M493.9 187H490.95C489.845 187 488.95 187.895 488.95 189V189.714C488.95 190.819 489.845 191.714 490.95 191.714H493.9V187Z" fill="#816A57"/>
<path d="M481.8 194H484.75C485.854 194 486.75 194.895 486.75 196V196.714C486.75 197.819 485.854 198.714 484.75 198.714H481.8V194Z" fill="#816A57"/>
<path d="M493.9 194H490.95C489.845 194 488.95 194.895 488.95 196V196.714C488.95 197.819 489.845 198.714 490.95 198.714H493.9V194Z" fill="#816A57"/>
<path d="M481.8 210H484.75C485.854 210 486.75 210.895 486.75 212V212.714C486.75 213.819 485.854 214.714 484.75 214.714H481.8V210Z" fill="#816A57"/>
<path d="M493.9 210H490.95C489.845 210 488.95 210.895 488.95 212V212.714C488.95 213.819 489.845 214.714 490.95 214.714H493.9V210Z" fill="#816A57"/>
<path d="M481.8 217H484.75C485.854 217 486.75 217.895 486.75 219V219.714C486.75 220.819 485.854 221.714 484.75 221.714H481.8V217Z" fill="#816A57"/>
<path d="M493.9 217H490.95C489.845 217 488.95 217.895 488.95 219V219.714C488.95 220.819 489.845 221.714 490.95 221.714H493.9V217Z" fill="#816A57"/>
<path d="M481.8 224H484.75C485.854 224 486.75 224.895 486.75 226V226.714C486.75 227.819 485.854 228.714 484.75 228.714H481.8V224Z" fill="#816A57"/>
<path d="M493.9 224H490.95C489.845 224 488.95 224.895 488.95 226V226.714C488.95 227.819 489.845 228.714 490.95 228.714H493.9V224Z" fill="#816A57"/>
<path d="M481.8 231H484.75C485.854 231 486.75 231.895 486.75 233V233.714C486.75 234.819 485.854 235.714 484.75 235.714H481.8V231Z" fill="#816A57"/>
<path d="M493.9 231H490.95C489.845 231 488.95 231.895 488.95 233V233.714C488.95 234.819 489.845 235.714 490.95 235.714H493.9V231Z" fill="#816A57"/>
<path d="M481.8 238H484.75C485.854 238 486.75 238.895 486.75 240V240.714C486.75 241.819 485.854 242.714 484.75 242.714H481.8V238Z" fill="#816A57"/>
<path d="M493.9 238H490.95C489.845 238 488.95 238.895 488.95 240V240.714C488.95 241.819 489.845 242.714 490.95 242.714H493.9V238Z" fill="#816A57"/>
<path d="M481.8 245H484.75C485.854 245 486.75 245.895 486.75 247V247.714C486.75 248.819 485.854 249.714 484.75 249.714H481.8V245Z" fill="#816A57"/>
<path d="M493.9 245H490.95C489.845 245 488.95 245.895 488.95 247V247.714C488.95 248.819 489.845 249.714 490.95 249.714H493.9V245Z" fill="#816A57"/>
<path d="M481.8 252H484.75C485.854 252 486.75 252.895 486.75 254V254.714C486.75 255.819 485.854 256.714 484.75 256.714H481.8V252Z" fill="#816A57"/>
<path d="M493.9 252H490.95C489.845 252 488.95 252.895 488.95 254V254.714C488.95 255.819 489.845 256.714 490.95 256.714H493.9V252Z" fill="#816A57"/>
<path d="M462 100C462 98.8954 462.895 98 464 98H474.3C475.405 98 476.3 98.8954 476.3 100V258C476.3 259.105 475.405 260 474.3 260H464C462.895 260 462 259.105 462 258V100Z" fill="#03412B"/>
<path d="M463.1 103H466.05C467.155 103 468.05 103.895 468.05 105V105.714C468.05 106.819 467.155 107.714 466.05 107.714H463.1V103Z" fill="#816A57"/>
<path d="M475.2 103H472.25C471.146 103 470.25 103.895 470.25 105V105.714C470.25 106.819 471.146 107.714 472.25 107.714H475.2V103Z" fill="#816A57"/>
<path d="M463.1 110H466.05C467.155 110 468.05 110.895 468.05 112V112.714C468.05 113.819 467.155 114.714 466.05 114.714H463.1V110Z" fill="#816A57"/>
<path d="M475.2 110H472.25C471.146 110 470.25 110.895 470.25 112V112.714C470.25 113.819 471.146 114.714 472.25 114.714H475.2V110Z" fill="#816A57"/>
<path d="M463.1 117H466.05C467.155 117 468.05 117.895 468.05 119V119.714C468.05 120.819 467.155 121.714 466.05 121.714H463.1V117Z" fill="#816A57"/>
<path d="M475.2 117H472.25C471.146 117 470.25 117.895 470.25 119V119.714C470.25 120.819 471.146 121.714 472.25 121.714H475.2V117Z" fill="#816A57"/>
<path d="M463.1 124H466.05C467.155 124 468.05 124.895 468.05 126V126.714C468.05 127.819 467.155 128.714 466.05 128.714H463.1V124Z" fill="#816A57"/>
<path d="M475.2 124H472.25C471.146 124 470.25 124.895 470.25 126V126.714C470.25 127.819 471.146 128.714 472.25 128.714H475.2V124Z" fill="#816A57"/>
<path d="M463.1 131H466.05C467.155 131 468.05 131.895 468.05 133V133.714C468.05 134.819 467.155 135.714 466.05 135.714H463.1V131Z" fill="#816A57"/>
<path d="M475.2 131H472.25C471.146 131 470.25 131.895 470.25 133V133.714C470.25 134.819 471.146 135.714 472.25 135.714H475.2V131Z" fill="#816A57"/>
<path d="M463.1 138H466.05C467.155 138 468.05 138.895 468.05 140V140.714C468.05 141.819 467.155 142.714 466.05 142.714H463.1V138Z" fill="#816A57"/>
<path d="M475.2 138H472.25C471.146 138 470.25 138.895 470.25 140V140.714C470.25 141.819 471.146 142.714 472.25 142.714H475.2V138Z" fill="#816A57"/>
<path d="M463.1 145H466.05C467.155 145 468.05 145.895 468.05 147V147.714C468.05 148.819 467.155 149.714 466.05 149.714H463.1V145Z" fill="#816A57"/>
<path d="M475.2 145H472.25C471.146 145 470.25 145.895 470.25 147V147.714C470.25 148.819 471.146 149.714 472.25 149.714H475.2V145Z" fill="#816A57"/>
<path d="M463.1 152H466.05C467.155 152 468.05 152.895 468.05 154V154.714C468.05 155.819 467.155 156.714 466.05 156.714H463.1V152Z" fill="#816A57"/>
<path d="M475.2 152H472.25C471.146 152 470.25 152.895 470.25 154V154.714C470.25 155.819 471.146 156.714 472.25 156.714H475.2V152Z" fill="#816A57"/>
<path d="M463.1 159H466.05C467.155 159 468.05 159.895 468.05 161V161.714C468.05 162.819 467.155 163.714 466.05 163.714H463.1V159Z" fill="#816A57"/>
<path d="M475.2 159H472.25C471.146 159 470.25 159.895 470.25 161V161.714C470.25 162.819 471.146 163.714 472.25 163.714H475.2V159Z" fill="#816A57"/>
<path d="M463.1 166H466.05C467.155 166 468.05 166.895 468.05 168V168.714C468.05 169.819 467.155 170.714 466.05 170.714H463.1V166Z" fill="#816A57"/>
<path d="M475.2 166H472.25C471.146 166 470.25 166.895 470.25 168V168.714C470.25 169.819 471.146 170.714 472.25 170.714H475.2V166Z" fill="#816A57"/>
<path d="M463.1 173H466.05C467.155 173 468.05 173.895 468.05 175V175.714C468.05 176.819 467.155 177.714 466.05 177.714H463.1V173Z" fill="#816A57"/>
<path d="M475.2 173H472.25C471.146 173 470.25 173.895 470.25 175V175.714C470.25 176.819 471.146 177.714 472.25 177.714H475.2V173Z" fill="#816A57"/>
<path d="M463.1 180H466.05C467.155 180 468.05 180.895 468.05 182V182.714C468.05 183.819 467.155 184.714 466.05 184.714H463.1V180Z" fill="#816A57"/>
<path d="M475.2 180H472.25C471.146 180 470.25 180.895 470.25 182V182.714C470.25 183.819 471.146 184.714 472.25 184.714H475.2V180Z" fill="#816A57"/>
<path d="M463.1 187H466.05C467.155 187 468.05 187.895 468.05 189V189.714C468.05 190.819 467.155 191.714 466.05 191.714H463.1V187Z" fill="#816A57"/>
<path d="M475.2 187H472.25C471.146 187 470.25 187.895 470.25 189V189.714C470.25 190.819 471.146 191.714 472.25 191.714H475.2V187Z" fill="#816A57"/>
<path d="M463.1 194H466.05C467.155 194 468.05 194.895 468.05 196V196.714C468.05 197.819 467.155 198.714 466.05 198.714H463.1V194Z" fill="#816A57"/>
<path d="M475.2 194H472.25C471.146 194 470.25 194.895 470.25 196V196.714C470.25 197.819 471.146 198.714 472.25 198.714H475.2V194Z" fill="#816A57"/>
<path d="M463.1 210H466.05C467.155 210 468.05 210.895 468.05 212V212.714C468.05 213.819 467.155 214.714 466.05 214.714H463.1V210Z" fill="#816A57"/>
<path d="M475.2 210H472.25C471.146 210 470.25 210.895 470.25 212V212.714C470.25 213.819 471.146 214.714 472.25 214.714H475.2V210Z" fill="#816A57"/>
<path d="M463.1 217H466.05C467.155 217 468.05 217.895 468.05 219V219.714C468.05 220.819 467.155 221.714 466.05 221.714H463.1V217Z" fill="#816A57"/>
<path d="M475.2 217H472.25C471.146 217 470.25 217.895 470.25 219V219.714C470.25 220.819 471.146 221.714 472.25 221.714H475.2V217Z" fill="#816A57"/>
<path d="M463.1 224H466.05C467.155 224 468.05 224.895 468.05 226V226.714C468.05 227.819 467.155 228.714 466.05 228.714H463.1V224Z" fill="#816A57"/>
<path d="M475.2 224H472.25C471.146 224 470.25 224.895 470.25 226V226.714C470.25 227.819 471.146 228.714 472.25 228.714H475.2V224Z" fill="#816A57"/>
<path d="M463.1 231H466.05C467.155 231 468.05 231.895 468.05 233V233.714C468.05 234.819 467.155 235.714 466.05 235.714H463.1V231Z" fill="#816A57"/>
<path d="M475.2 231H472.25C471.146 231 470.25 231.895 470.25 233V233.714C470.25 234.819 471.146 235.714 472.25 235.714H475.2V231Z" fill="#816A57"/>
<path d="M463.1 238H466.05C467.155 238 468.05 238.895 468.05 240V240.714C468.05 241.819 467.155 242.714 466.05 242.714H463.1V238Z" fill="#816A57"/>
<path d="M475.2 238H472.25C471.146 238 470.25 238.895 470.25 240V240.714C470.25 241.819 471.146 242.714 472.25 242.714H475.2V238Z" fill="#816A57"/>
<path d="M463.1 245H466.05C467.155 245 468.05 245.895 468.05 247V247.714C468.05 248.819 467.155 249.714 466.05 249.714H463.1V245Z" fill="#816A57"/>
<path d="M475.2 245H472.25C471.146 245 470.25 245.895 470.25 247V247.714C470.25 248.819 471.146 249.714 472.25 249.714H475.2V245Z" fill="#816A57"/>
<path d="M463.1 252H466.05C467.155 252 468.05 252.895 468.05 254V254.714C468.05 255.819 467.155 256.714 466.05 256.714H463.1V252Z" fill="#816A57"/>
<path d="M475.2 252H472.25C471.146 252 470.25 252.895 470.25 254V254.714C470.25 255.819 471.146 256.714 472.25 256.714H475.2V252Z" fill="#816A57"/>
</g>
<path id="Bios" d="M150 441.5H201C201.828 441.5 202.5 442.172 202.5 443V494C202.5 494.828 201.828 495.5 201 495.5H150C149.172 495.5 148.5 494.828 148.5 494V443C148.5 442.172 149.172 441.5 150 441.5ZM172.643 492.071C172.643 492.283 172.471 492.455 172.259 492.455C172.047 492.455 171.875 492.283 171.875 492.071C171.875 491.859 172.047 491.688 172.259 491.688C172.471 491.688 172.643 491.859 172.643 492.071ZM151.33 471.446C151.33 471.658 151.158 471.83 150.946 471.83C150.734 471.83 150.562 471.658 150.562 471.446C150.563 471.234 150.734 471.063 150.946 471.062C151.158 471.062 151.33 471.234 151.33 471.446ZM200.143 471.446C200.143 471.658 199.971 471.83 199.759 471.83C199.547 471.83 199.375 471.658 199.375 471.446C199.375 471.234 199.547 471.063 199.759 471.062C199.971 471.062 200.143 471.234 200.143 471.446ZM151.33 469.384C151.33 469.596 151.158 469.768 150.946 469.768C150.734 469.768 150.562 469.596 150.562 469.384C150.563 469.172 150.734 469 150.946 469C151.158 469 151.33 469.172 151.33 469.384ZM200.143 469.384C200.143 469.596 199.971 469.768 199.759 469.768C199.547 469.768 199.375 469.596 199.375 469.384C199.375 469.172 199.547 469 199.759 469C199.971 469 200.143 469.172 200.143 469.384ZM151.33 467.321C151.33 467.533 151.158 467.705 150.946 467.705C150.734 467.705 150.562 467.533 150.562 467.321C150.563 467.109 150.734 466.938 150.946 466.938C151.158 466.938 151.33 467.109 151.33 467.321ZM200.143 467.321C200.143 467.533 199.971 467.705 199.759 467.705C199.547 467.705 199.375 467.533 199.375 467.321C199.375 467.109 199.547 466.938 199.759 466.938C199.971 466.938 200.143 467.109 200.143 467.321ZM151.33 465.259C151.33 465.471 151.158 465.643 150.946 465.643C150.734 465.643 150.562 465.471 150.562 465.259C150.563 465.047 150.734 464.875 150.946 464.875C151.158 464.875 151.33 465.047 151.33 465.259ZM200.143 465.259C200.143 465.471 199.971 465.643 199.759 465.643C199.547 465.643 199.375 465.471 199.375 465.259C199.375 465.047 199.547 464.875 199.759 464.875C199.971 464.875 200.143 465.047 200.143 465.259ZM195.625 486.125C195.625 487.506 194.506 488.625 193.125 488.625H157.875C156.494 488.625 155.375 487.506 155.375 486.125V450.188C155.375 448.807 156.494 447.688 157.875 447.688H193.125C194.506 447.688 195.625 448.807 195.625 450.188V486.125ZM172.643 443.946C172.643 444.158 172.471 444.33 172.259 444.33C172.047 444.33 171.875 444.158 171.875 443.946C171.875 443.734 172.047 443.563 172.259 443.562C172.471 443.562 172.643 443.734 172.643 443.946ZM173.938 492.071C173.938 491.859 174.109 491.688 174.321 491.688C174.533 491.688 174.705 491.859 174.705 492.071C174.705 492.283 174.533 492.455 174.321 492.455C174.109 492.455 173.938 492.283 173.938 492.071ZM176 492.071C176 491.859 176.172 491.688 176.384 491.688C176.596 491.688 176.768 491.859 176.768 492.071C176.768 492.283 176.596 492.455 176.384 492.455C176.172 492.455 176 492.283 176 492.071ZM178.062 492.071C178.063 491.859 178.234 491.688 178.446 491.688C178.658 491.688 178.83 491.859 178.83 492.071C178.83 492.283 178.658 492.455 178.446 492.455C178.234 492.455 178.062 492.283 178.062 492.071ZM179.83 492.071C179.83 491.307 179.211 490.688 178.446 490.688C178.036 490.688 177.668 490.867 177.415 491.15C177.162 490.867 176.794 490.688 176.384 490.688C175.974 490.688 175.606 490.867 175.353 491.15C175.099 490.867 174.731 490.688 174.321 490.688C173.911 490.688 173.543 490.867 173.29 491.15C173.037 490.867 172.669 490.688 172.259 490.688C171.495 490.688 170.875 491.307 170.875 492.071C170.875 492.836 171.495 493.455 172.259 493.455C172.669 493.455 173.037 493.275 173.29 492.991C173.543 493.275 173.911 493.455 174.321 493.455C174.732 493.455 175.099 493.275 175.353 492.991C175.606 493.275 175.973 493.455 176.384 493.455C176.794 493.455 177.162 493.275 177.415 492.991C177.668 493.275 178.036 493.455 178.446 493.455C179.211 493.455 179.83 492.836 179.83 492.071ZM152.33 465.259C152.33 464.495 151.711 463.875 150.946 463.875C150.182 463.875 149.563 464.495 149.562 465.259C149.562 465.669 149.742 466.037 150.025 466.29C149.742 466.543 149.563 466.911 149.562 467.321C149.562 467.731 149.742 468.099 150.025 468.353C149.742 468.606 149.563 468.974 149.562 469.384C149.562 469.794 149.742 470.162 150.025 470.415C149.742 470.668 149.563 471.036 149.562 471.446C149.562 472.211 150.182 472.83 150.946 472.83C151.711 472.83 152.33 472.211 152.33 471.446C152.33 471.036 152.15 470.668 151.866 470.415C152.15 470.162 152.33 469.794 152.33 469.384C152.33 468.973 152.15 468.606 151.866 468.353C152.15 468.099 152.33 467.732 152.33 467.321C152.33 466.911 152.15 466.543 151.866 466.29C152.15 466.037 152.33 465.669 152.33 465.259ZM201.143 465.259C201.143 464.495 200.523 463.875 199.759 463.875C198.995 463.875 198.375 464.495 198.375 465.259C198.375 465.669 198.554 466.037 198.838 466.29C198.554 466.543 198.375 466.911 198.375 467.321C198.375 467.731 198.554 468.099 198.838 468.353C198.554 468.606 198.375 468.974 198.375 469.384C198.375 469.794 198.554 470.162 198.838 470.415C198.554 470.668 198.375 471.036 198.375 471.446C198.375 472.211 198.995 472.83 199.759 472.83C200.523 472.83 201.143 472.211 201.143 471.446C201.143 471.036 200.963 470.668 200.679 470.415C200.963 470.162 201.143 469.794 201.143 469.384C201.143 468.973 200.963 468.606 200.679 468.353C200.963 468.099 201.143 467.732 201.143 467.321C201.143 466.911 200.963 466.543 200.679 466.29C200.963 466.037 201.143 465.669 201.143 465.259ZM196.625 450.188C196.625 448.255 195.058 446.688 193.125 446.688H157.875C155.942 446.688 154.375 448.255 154.375 450.188V486.125C154.375 488.058 155.942 489.625 157.875 489.625H193.125C195.058 489.625 196.625 488.058 196.625 486.125V450.188ZM173.938 443.946C173.938 443.734 174.109 443.563 174.321 443.562C174.533 443.562 174.705 443.734 174.705 443.946C174.705 444.158 174.533 444.33 174.321 444.33C174.109 444.33 173.938 444.158 173.938 443.946ZM176 443.946C176 443.734 176.172 443.563 176.384 443.562C176.596 443.562 176.768 443.734 176.768 443.946C176.768 444.158 176.596 444.33 176.384 444.33C176.172 444.33 176 444.158 176 443.946ZM178.062 443.946C178.063 443.734 178.234 443.563 178.446 443.562C178.658 443.562 178.83 443.734 178.83 443.946C178.83 444.158 178.658 444.33 178.446 444.33C178.234 444.33 178.062 444.158 178.062 443.946ZM179.83 443.946C179.83 443.182 179.211 442.562 178.446 442.562C178.036 442.563 177.668 442.742 177.415 443.025C177.162 442.742 176.794 442.562 176.384 442.562C175.974 442.563 175.606 442.742 175.353 443.025C175.099 442.742 174.731 442.562 174.321 442.562C173.911 442.563 173.543 442.742 173.29 443.025C173.037 442.742 172.669 442.562 172.259 442.562C171.495 442.563 170.875 443.182 170.875 443.946C170.875 444.711 171.495 445.33 172.259 445.33C172.669 445.33 173.037 445.15 173.29 444.866C173.543 445.15 173.911 445.33 174.321 445.33C174.732 445.33 175.099 445.15 175.353 444.866C175.606 445.15 175.973 445.33 176.384 445.33C176.794 445.33 177.162 445.15 177.415 444.866C177.668 445.15 178.036 445.33 178.446 445.33C179.211 445.33 179.83 444.711 179.83 443.946Z" stroke="#816A57"/>
<path id="CPU" d="M219 25.5H295C295.828 25.5 296.5 26.1716 296.5 27V103C296.5 103.828 295.828 104.5 295 104.5H219C218.172 104.5 217.5 103.828 217.5 103V27C217.5 26.1716 218.172 25.5 219 25.5ZM253.071 99.2861C253.071 99.7197 252.72 100.071 252.286 100.071C251.852 100.071 251.5 99.7199 251.5 99.2861C251.5 98.8522 251.852 98.5 252.286 98.5C252.72 98.5002 253.071 98.8523 253.071 99.2861ZM222.071 69.2861C222.071 69.7197 221.72 70.0711 221.286 70.0713C220.852 70.0713 220.5 69.7199 220.5 69.2861C220.5 68.8522 220.852 68.5 221.286 68.5C221.72 68.5002 222.071 68.8523 222.071 69.2861ZM293.071 69.2861C293.071 69.7197 292.72 70.0711 292.286 70.0713C291.852 70.0713 291.5 69.7199 291.5 69.2861C291.5 68.8522 291.852 68.5 292.286 68.5C292.72 68.5002 293.071 68.8523 293.071 69.2861ZM222.071 66.2861C222.071 66.7197 221.72 67.0711 221.286 67.0713C220.852 67.0713 220.5 66.7199 220.5 66.2861C220.5 65.8522 220.852 65.5 221.286 65.5C221.72 65.5002 222.071 65.8523 222.071 66.2861ZM293.071 66.2861C293.071 66.7197 292.72 67.0711 292.286 67.0713C291.852 67.0713 291.5 66.7199 291.5 66.2861C291.5 65.8522 291.852 65.5 292.286 65.5C292.72 65.5002 293.071 65.8523 293.071 66.2861ZM222.071 63.2861C222.071 63.7197 221.72 64.0711 221.286 64.0713C220.852 64.0713 220.5 63.7199 220.5 63.2861C220.5 62.8522 220.852 62.5 221.286 62.5C221.72 62.5002 222.071 62.8523 222.071 63.2861ZM293.071 63.2861C293.071 63.7197 292.72 64.0711 292.286 64.0713C291.852 64.0713 291.5 63.7199 291.5 63.2861C291.5 62.8522 291.852 62.5 292.286 62.5C292.72 62.5002 293.071 62.8523 293.071 63.2861ZM222.071 60.2861C222.071 60.7197 221.72 61.0711 221.286 61.0713C220.852 61.0713 220.5 60.7199 220.5 60.2861C220.5 59.8522 220.852 59.5 221.286 59.5C221.72 59.5002 222.071 59.8523 222.071 60.2861ZM293.071 60.2861C293.071 60.7197 292.72 61.0711 292.286 61.0713C291.852 61.0713 291.5 60.7199 291.5 60.2861C291.5 59.8522 291.852 59.5 292.286 59.5C292.72 59.5002 293.071 59.8523 293.071 60.2861ZM286.5 92C286.5 93.3807 285.381 94.5 284 94.5H230C228.619 94.5 227.5 93.3807 227.5 92V37C227.5 35.6193 228.619 34.5 230 34.5H284C285.381 34.5 286.5 35.6193 286.5 37V92ZM253.071 29.2861C253.071 29.7197 252.72 30.0711 252.286 30.0713C251.852 30.0713 251.5 29.7199 251.5 29.2861C251.5 28.8522 251.852 28.5 252.286 28.5C252.72 28.5002 253.071 28.8523 253.071 29.2861ZM254.5 99.2861C254.5 98.8522 254.852 98.5 255.286 98.5C255.72 98.5002 256.071 98.8523 256.071 99.2861C256.071 99.7197 255.72 100.071 255.286 100.071C254.852 100.071 254.5 99.7199 254.5 99.2861ZM257.5 99.2861C257.5 98.8522 257.852 98.5 258.286 98.5C258.72 98.5002 259.071 98.8523 259.071 99.2861C259.071 99.7197 258.72 100.071 258.286 100.071C257.852 100.071 257.5 99.7199 257.5 99.2861ZM260.5 99.2861C260.5 98.8522 260.852 98.5 261.286 98.5C261.72 98.5002 262.071 98.8523 262.071 99.2861C262.071 99.7197 261.72 100.071 261.286 100.071C260.852 100.071 260.5 99.7199 260.5 99.2861ZM263.071 99.2861C263.071 98.3001 262.272 97.5002 261.286 97.5C260.657 97.5 260.103 97.8261 259.785 98.3184C259.467 97.8265 258.915 97.5001 258.286 97.5C257.657 97.5 257.103 97.8261 256.785 98.3184C256.467 97.8265 255.915 97.5001 255.286 97.5C254.657 97.5 254.103 97.8261 253.785 98.3184C253.467 97.8265 252.915 97.5001 252.286 97.5C251.3 97.5 250.5 98.2999 250.5 99.2861C250.5 100.272 251.3 101.071 252.286 101.071C252.916 101.071 253.467 100.744 253.785 100.252C254.103 100.745 254.656 101.071 255.286 101.071C255.916 101.071 256.467 100.744 256.785 100.252C257.103 100.745 257.656 101.071 258.286 101.071C258.916 101.071 259.467 100.744 259.785 100.252C260.103 100.745 260.656 101.071 261.286 101.071C262.272 101.071 263.071 100.272 263.071 99.2861ZM223.071 60.2861C223.071 59.3 222.272 58.5002 221.286 58.5C220.3 58.5 219.5 59.2999 219.5 60.2861C219.5 60.9153 219.827 61.4672 220.318 61.7852C219.826 62.1031 219.5 62.6565 219.5 63.2861C219.5 63.9153 219.827 64.4672 220.318 64.7852C219.826 65.1031 219.5 65.6565 219.5 66.2861C219.5 66.9153 219.827 67.4672 220.318 67.7852C219.826 68.1031 219.5 68.6565 219.5 69.2861C219.5 70.2722 220.3 71.0713 221.286 71.0713C222.272 71.0711 223.071 70.272 223.071 69.2861C223.071 68.6562 222.745 68.103 222.252 67.7852C222.744 67.4673 223.071 66.9157 223.071 66.2861C223.071 65.6562 222.745 65.103 222.252 64.7852C222.744 64.4673 223.071 63.9157 223.071 63.2861C223.071 62.6562 222.745 62.103 222.252 61.7852C222.744 61.4673 223.071 60.9157 223.071 60.2861ZM294.071 60.2861C294.071 59.3 293.272 58.5002 292.286 58.5C291.3 58.5 290.5 59.2999 290.5 60.2861C290.5 60.9153 290.827 61.4672 291.318 61.7852C290.826 62.1031 290.5 62.6565 290.5 63.2861C290.5 63.9153 290.827 64.4672 291.318 64.7852C290.826 65.1031 290.5 65.6565 290.5 66.2861C290.5 66.9153 290.827 67.4672 291.318 67.7852C290.826 68.1031 290.5 68.6565 290.5 69.2861C290.5 70.2722 291.3 71.0713 292.286 71.0713C293.272 71.0711 294.071 70.272 294.071 69.2861C294.071 68.6562 293.745 68.103 293.252 67.7852C293.744 67.4673 294.071 66.9157 294.071 66.2861C294.071 65.6562 293.745 65.103 293.252 64.7852C293.744 64.4673 294.071 63.9157 294.071 63.2861C294.071 62.6562 293.745 62.103 293.252 61.7852C293.744 61.4673 294.071 60.9157 294.071 60.2861ZM287.5 37C287.5 35.067 285.933 33.5 284 33.5H230C228.067 33.5 226.5 35.067 226.5 37V92C226.5 93.933 228.067 95.5 230 95.5H284C285.933 95.5 287.5 93.933 287.5 92V37ZM254.5 29.2861C254.5 28.8522 254.852 28.5 255.286 28.5C255.72 28.5002 256.071 28.8523 256.071 29.2861C256.071 29.7197 255.72 30.0711 255.286 30.0713C254.852 30.0713 254.5 29.7199 254.5 29.2861ZM257.5 29.2861C257.5 28.8522 257.852 28.5 258.286 28.5C258.72 28.5002 259.071 28.8523 259.071 29.2861C259.071 29.7197 258.72 30.0711 258.286 30.0713C257.852 30.0713 257.5 29.7199 257.5 29.2861ZM260.5 29.2861C260.5 28.8522 260.852 28.5 261.286 28.5C261.72 28.5002 262.071 28.8523 262.071 29.2861C262.071 29.7197 261.72 30.0711 261.286 30.0713C260.852 30.0713 260.5 29.7199 260.5 29.2861ZM263.071 29.2861C263.071 28.3001 262.272 27.5002 261.286 27.5C260.657 27.5 260.103 27.8261 259.785 28.3184C259.467 27.8265 258.915 27.5001 258.286 27.5C257.657 27.5 257.103 27.8261 256.785 28.3184C256.467 27.8265 255.915 27.5001 255.286 27.5C254.657 27.5 254.103 27.8261 253.785 28.3184C253.467 27.8265 252.915 27.5001 252.286 27.5C251.3 27.5 250.5 28.2999 250.5 29.2861C250.5 30.2722 251.3 31.0713 252.286 31.0713C252.916 31.0711 253.467 30.7442 253.785 30.252C254.103 30.7446 254.656 31.0713 255.286 31.0713C255.916 31.0711 256.467 30.7442 256.785 30.252C257.103 30.7446 257.656 31.0713 258.286 31.0713C258.916 31.0711 259.467 30.7442 259.785 30.252C260.103 30.7446 260.656 31.0713 261.286 31.0713C262.272 31.0711 263.071 30.272 263.071 29.2861Z" stroke="#816A57"/>
<path id="Cables" d="M289 364H388.5V426H441M289 362H390.5V424H441M467.5 368.5V395.5M377 446H441M377 444H441M377 442H441M377 440H441M289 360H393.185V422H441M289 358H395V420H441" stroke="#816A57"/>
<path id="BusLCP" d="M258 370V417.5M203 468.5H235L258 443.5V417.5M258 417.5H318" stroke="#816A57" stroke-width="4"/>
<path id="BusPCI" d="M289 342.5H353.5L441.5 286.5H467V315" stroke="#816A57" stroke-width="4"/>
<path id="BusPCI_2" d="M12.5 419V456H65.5L216.5 352H231V338H216.5L65.5 442H35.5V419" stroke="#816A57" stroke-width="4"/>
<path id="BusRAM" d="M488.5 98V72H419.916L334.211 169.5H285V187H334.211L419.916 90.5H470V98" stroke="#816A57" stroke-width="4"/>
<path id="BusGPU" d="M227 177H88.5L69 157V91L54 71.5H18.5V91" stroke="#816A57" stroke-width="4"/>
<path id="BusInterno" d="M257 207V311" stroke="#816A57" stroke-width="4"/>
<path id="BusDelantero" d="M257.5 146.5V104.5" stroke="#816A57" stroke-width="4"/>
</g>
</svg>
